<?xml version="1.0" encoding="utf-8"?>
<!-- Generator: Adobe Illustrator 24.1.2, SVG Export Plug-In . SVG Version: 6.00 Build 0)  -->
<svg version="1.1" id="Layer_1" xmlns="http://www.w3.org/2000/svg" xmlns:xlink="http://www.w3.org/1999/xlink" x="0px" y="0px"
	 viewBox="0 0 44 44" style="enable-background:new 0 0 44 44;" xml:space="preserve">
<style type="text/css">
	.st0{fill:none;stroke:#000000;stroke-width:1.1;stroke-miterlimit:10;}
	.st1{fill:none;stroke:#000000;stroke-width:1.1;stroke-linejoin:round;stroke-miterlimit:10;}
</style>
<path d="M15.4,22.3c-0.2,0.2-0.2,0.7-0.1,1c0.7,1.1,1.3,2.1,2.2,2.9c0.9,0.9,1.8,1.6,3,2.2c0.3,0.1,0.7,0.1,1,0
	c2-1.5,2.4-2.1,2.8-2.1c0.7,0,3.7,2.5,4,3c0.2,0.7-0.3,2.9-0.5,3.2c-0.3,0.3-1.9,0.3-2.4,0.3c-3.1,0.1-6.2-2.1-9-5.1s-5.3-5.9-5.2-9
	c0-0.7,0-2.2,0.3-2.4c0.2-0.2,2.4-0.9,3.2-0.7c0.4,0.2,3.1,3.3,3,4C17.4,19.9,16.9,20.4,15.4,22.3z"/>
<g>
	<path class="st0" d="M33.5,20.5H22.2c-0.2,0-0.5-0.2-0.5-0.5v-7.6c0-0.2,0.2-0.4,0.5-0.4h11.3c0.2,0,0.5,0.2,0.5,0.4V20
		C33.9,20.4,33.8,20.5,33.5,20.5z"/>
	<path class="st1" d="M27.9,16.8h-0.1c-0.4,0-1-0.2-1.2-0.5l-4.3-4c-0.1-0.1-0.1-0.3,0.1-0.3h11.1c0.2,0,0.3,0.2,0.1,0.3l-4.4,4
		C28.9,16.7,28.3,16.8,27.9,16.8z"/>
	<path class="st1" d="M26.6,16.2L22,20.4"/>
	<path class="st1" d="M33.8,20.4l-4.6-4.3"/>
</g>
</svg>
