<?xml version="1.0" encoding="utf-8"?>
<!-- Generator: Adobe Illustrator 24.1.0, SVG Export Plug-In . SVG Version: 6.00 Build 0)  -->
<svg version="1.1" id="Layer_1" xmlns="http://www.w3.org/2000/svg" xmlns:xlink="http://www.w3.org/1999/xlink" x="0px" y="0px"
	 viewBox="0 0 16 16" enable-background="new 0 0 16 16" xml:space="preserve">
<path id="Path_856" fill="none" stroke="#3C3C3C" stroke-width="0.75" stroke-linejoin="round" stroke-miterlimit="10" d="M2.4,5.4
	V0.5h11.2v12.2"/>
<path id="Path_857" fill="none" stroke="#3C3C3C" stroke-width="0.75" stroke-miterlimit="10" d="M11,15.5c-3.7,0-9-5-9-8.6
	C1.9,5.6,3,4.3,4.4,4.2c0,0,0.1,0,0.1,0c0.3,0,1.8,2.4,1.8,2.7c0,0.5-1.5,1.2-1.5,1.6c0,1.1,3.4,4.3,4.5,4.3c0.4,0,1.2-1.4,1.7-1.4
	c1,0.4,1.9,1,2.8,1.6C14.5,14.2,12.4,15.5,11,15.5z"/>
<line id="Line_68" fill="none" stroke="#3C3C3C" stroke-width="0.75" stroke-linecap="round" stroke-miterlimit="10" x1="4" y1="2.4" x2="12" y2="2.4"/>
<line id="Line_69" fill="none" stroke="#3C3C3C" stroke-width="0.75" stroke-linecap="round" stroke-miterlimit="10" x1="7" y1="4.3" x2="12" y2="4.3"/>
<line id="Line_70" fill="none" stroke="#3C3C3C" stroke-width="0.75" stroke-linecap="round" stroke-miterlimit="10" x1="8" y1="6.2" x2="12" y2="6.2"/>
<line id="Line_72" fill="none" stroke="#3C3C3C" stroke-width="0.75" stroke-linecap="round" stroke-miterlimit="10" x1="7" y1="8.1" x2="12" y2="8.1"/>
<line id="Line_73" fill="none" stroke="#3C3C3C" stroke-width="0.75" stroke-linecap="round" stroke-miterlimit="10" x1="8" y1="10" x2="12" y2="10"/>
</svg>
