<?xml version="1.0" encoding="utf-8"?>
<!-- Generator: Adobe Illustrator 24.1.0, SVG Export Plug-In . SVG Version: 6.00 Build 0)  -->
<svg version="1.1" id="Layer_1" xmlns="http://www.w3.org/2000/svg" xmlns:xlink="http://www.w3.org/1999/xlink" x="0px" y="0px"
	 viewBox="0 0 400 100" style="enable-background:new 0 0 400 100;" xml:space="preserve">
<g>
	<path d="M166.6191,22.7327c0,2.4336-0.3242,5.1035-0.9722,8.0059c-0.6484,2.9043-1.2734,4.3555-1.8755,4.3555
		c-0.4692,0-0.7031-0.2344-0.7031-0.7031c0-0.1406,0.0459-0.3506,0.1406-0.6318c1.2412-3.2773,1.8633-6.8125,1.8633-10.6045
		c0-5.9004-1.7578-10.6406-5.2734-14.2227c-3.5156-3.5811-8.1562-5.373-13.9219-5.373c-7.7817,0-15.7974,2.5557-24.0469,7.6641
		c7.0312,5.625,10.5469,12,10.5469,19.125c0,6.001-2.4126,11.2266-7.2354,15.6797c-4.8232,4.4541-10.4668,6.6797-16.9292,6.6797
		c-2.5288,0-5.2456-0.5078-8.1484-1.5225c-2.9038-1.0156-4.355-1.9717-4.355-2.8691c0.0933-0.2832,0.2803-0.4248,0.5615-0.4248
		c0.2339,0,0.6084,0.1426,1.124,0.4277c2.9023,1.6611,5.8291,2.4902,8.7788,2.4902c5.3374,0,9.9131-2.2959,13.73-6.8906
		c3.8154-4.5938,5.7236-10.0781,5.7236-16.4531c0-5.4844-1.9688-10.3818-5.9062-14.6953
		c-10.1724,7.5938-19.8281,20.9531-28.9688,40.0781c-5.5317,11.5776-10.5942,19.9233-15.1875,25.0308
		c-4.5947,5.1094-11.0391,9.7285-19.3359,13.8516c-9.7979,4.7812-18.5396,7.1719-26.2266,7.1719
		c-6.2822,0-11.5083-1.4414-15.6797-4.3242c-4.1729-2.8828-6.2578-6.4785-6.2578-10.793c0-2.3906,0.7139-4.4531,2.1445-6.1875
		c1.4292-1.7324,3.1289-2.6016,5.0977-2.6016c2.8584,0,4.2891,1.5938,4.2891,4.7812c0,1.5938-0.4814,2.9531-1.4414,4.0781
		c-0.9614,1.125-2.1445,1.6875-3.5508,1.6875c-2.438,0-3.6104-1.2656-3.5156-3.7969c0.0459-1.0293-0.0474-1.5469-0.2812-1.5469
		c-0.7505,0-1.125,1.2422-1.125,3.7266c0,3.8926,1.9092,7.127,5.7305,9.7031c3.8198,2.5781,8.6362,3.8672,14.4492,3.8672
		c10.2656,0,19.5698-3.7969,27.9141-11.3906c3.6562-3.3281,6.7729-6.7246,9.3516-10.1953
		c2.8125-3.75,8.9526-12.8418,18.4219-27.2808c4.7339-7.125,10.3115-14.2734,16.7344-21.4453
		c6.4214-7.1719,11.8828-12.3047,16.3828-15.3984c-7.3125-6.2334-18.0474-9.3516-32.2031-9.3516
		c-19.7822,0-36.9844,7.1484-51.6094,21.4453c-12.0005,11.7188-18,22.7578-18,33.1172c0,5.2495,1.6875,9.4214,5.0625,12.5151
		s7.9453,4.6406,13.7109,4.6406c9.4219,0,19.1602-4.5234,29.2148-13.5698c10.0547-9.0459,15.082-17.835,15.082-26.3672
		c0-6.7959-3.4927-10.1953-10.4766-10.1953c-6.9854,0-14.4736,3.8994-22.4648,11.6973
		c-7.9927,7.7979-11.9883,15.1162-11.9883,21.9531c0,1.6855,0.5645,3.1387,1.6963,4.355c1.1304,1.2188,2.4502,1.8281,3.957,1.8281
		c0.8013,0,1.2021,0.2109,1.2021,0.6309c0,0.377-0.4473,0.5625-1.3413,0.5625c-2.2588,0-4.1641-1.0176-5.7163-3.0566
		c-1.5537-2.0366-2.3291-4.5298-2.3291-7.481c0-7.3057,4.0078-14.4248,12.0234-21.3574C52.502,26.22,60.7285,22.7542,69.166,22.7542
		c8.0615,0,12.0938,3.7266,12.0938,11.1797c0,9.0947-5.1328,18.2812-15.3984,27.562c-10.2656,9.2812-20.3906,13.9219-30.375,13.9219
		c-6.5161,0-11.7314-1.957-15.6445-5.8711c-3.9146-3.9121-5.8711-9.1509-5.8711-15.7144c0-13.2646,7.4883-25.3711,22.4648-36.3164
		C51.4121,6.5715,67.9707,1.0979,86.1113,1.0979c13.7812,0,25.3584,3.0703,34.7344,9.2109
		c8.5781-5.3438,16.875-8.0156,24.8906-8.0156c6.2808,0,11.3311,1.873,15.1523,5.6191
		C164.7085,11.6594,166.6191,16.5989,166.6191,22.7327z"/>
        </g>
</svg>