<?xml version="1.0" encoding="utf-8"?>
<!-- Generator: Adobe Illustrator 24.1.0, SVG Export Plug-In . SVG Version: 6.00 Build 0)  -->
<svg version="1.1" id="Layer_1" xmlns="http://www.w3.org/2000/svg" xmlns:xlink="http://www.w3.org/1999/xlink" x="0px" y="0px"
	 viewBox="0 0 400 100" style="enable-background:new 0 0 400 100;" xml:space="preserve">
<g>
	<path d="M166.6191,22.7327c0,2.4336-0.3242,5.1035-0.9722,8.0059c-0.6484,2.9043-1.2734,4.3555-1.8755,4.3555
		c-0.4692,0-0.7031-0.2344-0.7031-0.7031c0-0.1406,0.0459-0.3506,0.1406-0.6318c1.2412-3.2773,1.8633-6.8125,1.8633-10.6045
		c0-5.9004-1.7578-10.6406-5.2734-14.2227c-3.5156-3.5811-8.1562-5.373-13.9219-5.373c-7.7817,0-15.7974,2.5557-24.0469,7.6641
		c7.0312,5.625,10.5469,12,10.5469,19.125c0,6.001-2.4126,11.2266-7.2354,15.6797c-4.8232,4.4541-10.4668,6.6797-16.9292,6.6797
		c-2.5288,0-5.2456-0.5078-8.1484-1.5225c-2.9038-1.0156-4.355-1.9717-4.355-2.8691c0.0933-0.2832,0.2803-0.4248,0.5615-0.4248
		c0.2339,0,0.6084,0.1426,1.124,0.4277c2.9023,1.6611,5.8291,2.4902,8.7788,2.4902c5.3374,0,9.9131-2.2959,13.73-6.8906
		c3.8154-4.5938,5.7236-10.0781,5.7236-16.4531c0-5.4844-1.9688-10.3818-5.9062-14.6953
		c-10.1724,7.5938-19.8281,20.9531-28.9688,40.0781c-5.5317,11.5776-10.5942,19.9233-15.1875,25.0308
		c-4.5947,5.1094-11.0391,9.7285-19.3359,13.8516c-9.7979,4.7812-18.5396,7.1719-26.2266,7.1719
		c-6.2822,0-11.5083-1.4414-15.6797-4.3242c-4.1729-2.8828-6.2578-6.4785-6.2578-10.793c0-2.3906,0.7139-4.4531,2.1445-6.1875
		c1.4292-1.7324,3.1289-2.6016,5.0977-2.6016c2.8584,0,4.2891,1.5938,4.2891,4.7812c0,1.5938-0.4814,2.9531-1.4414,4.0781
		c-0.9614,1.125-2.1445,1.6875-3.5508,1.6875c-2.438,0-3.6104-1.2656-3.5156-3.7969c0.0459-1.0293-0.0474-1.5469-0.2812-1.5469
		c-0.7505,0-1.125,1.2422-1.125,3.7266c0,3.8926,1.9092,7.127,5.7305,9.7031c3.8198,2.5781,8.6362,3.8672,14.4492,3.8672
		c10.2656,0,19.5698-3.7969,27.9141-11.3906c3.6562-3.3281,6.7729-6.7246,9.3516-10.1953
		c2.8125-3.75,8.9526-12.8418,18.4219-27.2808c4.7339-7.125,10.3115-14.2734,16.7344-21.4453
		c6.4214-7.1719,11.8828-12.3047,16.3828-15.3984c-7.3125-6.2334-18.0474-9.3516-32.2031-9.3516
		c-19.7822,0-36.9844,7.1484-51.6094,21.4453c-12.0005,11.7188-18,22.7578-18,33.1172c0,5.2495,1.6875,9.4214,5.0625,12.5151
		s7.9453,4.6406,13.7109,4.6406c9.4219,0,19.1602-4.5234,29.2148-13.5698c10.0547-9.0459,15.082-17.835,15.082-26.3672
		c0-6.7959-3.4927-10.1953-10.4766-10.1953c-6.9854,0-14.4736,3.8994-22.4648,11.6973
		c-7.9927,7.7979-11.9883,15.1162-11.9883,21.9531c0,1.6855,0.5645,3.1387,1.6963,4.355c1.1304,1.2188,2.4502,1.8281,3.957,1.8281
		c0.8013,0,1.2021,0.2109,1.2021,0.6309c0,0.377-0.4473,0.5625-1.3413,0.5625c-2.2588,0-4.1641-1.0176-5.7163-3.0566
		c-1.5537-2.0366-2.3291-4.5298-2.3291-7.481c0-7.3057,4.0078-14.4248,12.0234-21.3574C52.502,26.22,60.7285,22.7542,69.166,22.7542
		c8.0615,0,12.0938,3.7266,12.0938,11.1797c0,9.0947-5.1328,18.2812-15.3984,27.562c-10.2656,9.2812-20.3906,13.9219-30.375,13.9219
		c-6.5161,0-11.7314-1.957-15.6445-5.8711c-3.9146-3.9121-5.8711-9.1509-5.8711-15.7144c0-13.2646,7.4883-25.3711,22.4648-36.3164
		C51.4121,6.5715,67.9707,1.0979,86.1113,1.0979c13.7812,0,25.3584,3.0703,34.7344,9.2109
		c8.5781-5.3438,16.875-8.0156,24.8906-8.0156c6.2808,0,11.3311,1.873,15.1523,5.6191
		C164.7085,11.6594,166.6191,16.5989,166.6191,22.7327z"/>
	<path d="M164.9668,73.8357c0,0.9863-3.4258,5.5391-10.2764,13.6602c-5.5386,6.668-9.9033,10-13.0938,10
		c-2.1602,0-3.9199-0.8086-5.2803-2.4258c-1.3608-1.6172-2.041-3.6445-2.041-6.082c0-2.5312,0.749-5.2734,2.25-8.2266
		c-4.688,6.5645-8.2739,10.9941-10.7578,13.2891c-2.4854,2.2969-4.8989,3.4453-7.2422,3.4453c-2.4854,0-4.5703-1.0664-6.2578-3.1992
		s-2.5312-4.8164-2.5312-8.0508c0-9,6.3511-16.9688,19.0547-23.9062c5.5776-3.0933,10.0776-4.6401,13.5-4.6401
		c2.9058,0,4.3594,1.4062,4.3594,4.2183c0,0.7988-0.188,1.8535-0.5625,3.1641l3.5859-6.8198
		c1.4062,0.3281,2.6475,0.4922,3.7266,0.4922c1.2656,0,2.9058-0.1641,4.9219-0.4922L145.877,78.863
		c-4.3135,7.2188-6.4688,11.9785-6.4688,14.2734c0,2.2051,0.915,3.3047,2.7456,3.3047c1.8774,0,4.8823-2.1465,9.0132-6.4434
		c4.1309-4.2949,8.332-9.5879,12.6035-15.8809c0.2812-0.4668,0.5391-0.7031,0.7744-0.7031
		C164.8262,73.4138,164.9668,73.5544,164.9668,73.8357z M145.5957,62.199c0-2.2954-1.0547-3.4448-3.1641-3.4448
		c-4.3135,0-9.9736,4.2183-16.9805,12.6558c-7.0083,8.4375-10.5117,15.2578-10.5117,20.4609c0,3.0488,1.3589,4.5703,4.0781,4.5703
		c3.2344,0,8.835-5.3672,16.8047-16.1016C142.3369,71.5271,145.5957,65.4802,145.5957,62.199z"/>
	<path d="M205.1855,73.8357c0,0.377-1.4082,2.0938-4.2256,5.1504c-3.5693,3.9492-6.9268,5.9238-10.0732,5.9238
		c-3.5693,0-5.3535-2.0625-5.3535-6.1875c0-1.3105,0.2812-2.9766,0.8438-4.9922c-2.9531,2.5781-5.356,5.1328-7.207,7.6641
		c-1.8525,2.5312-5.0518,7.6895-9.5977,15.4688c-2.4854-0.1875-3.9375-0.2812-4.3594-0.2812c-0.188,0-1.6172,0.0938-4.2891,0.2812
		l11.5312-18.7031c5.7656-9.375,8.6484-15.1875,8.6484-17.437c0-1.3115-0.5405-1.9688-1.6206-1.9688
		c-2.6299,0-7.3979,5.0503-14.3032,15.1519c-0.4229,0.6562-0.7983,0.9844-1.127,0.9844c-0.188-0.0449-0.2812-0.1855-0.2812-0.4219
		c0.0459-0.2344,0.1406-0.4219,0.2812-0.5625l1.2676-1.7617c7.2305-9.6289,12.1367-14.4448,14.7197-14.4448
		c3.7549,0,5.6338,2.415,5.6338,7.2417c0,3.6113-1.9229,8.3926-5.7656,14.3438c2.4365-2.8125,4.7568-5.1074,6.9609-6.8906
		c1.7808-4.1719,3.9956-7.6641,6.6445-10.4766c2.6475-2.812,5.0273-4.2183,7.1367-4.2183c1.4521,0,2.1797,0.6328,2.1797,1.8984
		c0,2.2495-3.2588,5.4604-9.7734,9.6323c-1.0317,0.6582-2.5786,1.6172-4.6406,2.8828l-0.8438,0.7031
		c-0.6572,2.1562-0.9844,3.9375-0.9844,5.3438c0,3.9375,1.4785,5.9062,4.4385,5.9062c3.6631,0,7.6543-3.0332,11.9766-9.1016
		c0.9375-1.0332,1.5254-1.5508,1.7607-1.5508C205.0449,73.4138,205.1855,73.5544,205.1855,73.8357z"/>
	<path d="M254.5449,73.8357c0,0.9863-3.4258,5.5391-10.2764,13.6602c-5.5391,6.668-9.9033,10-13.0938,10
		c-2.1602,0-3.9199-0.8086-5.2803-2.4258s-2.041-3.6445-2.041-6.082c0-2.5312,0.749-5.2734,2.25-8.2266
		c-4.6885,6.5645-8.2744,10.9941-10.7578,13.2891c-2.4854,2.2969-4.8994,3.4453-7.2422,3.4453
		c-2.4854,0-4.5703-1.0664-6.2578-3.1992s-2.5312-4.8164-2.5312-8.0508c0-9,6.3506-16.9688,19.0547-23.9062
		c5.5771-3.0933,10.0771-4.6401,13.5-4.6401c2.9053,0,4.3594,1.4062,4.3594,4.2183c0,0.7988-0.1885,1.8535-0.5625,3.1641
		l3.5859-6.8198c1.4062,0.3281,2.6475,0.4922,3.7266,0.4922c1.2656,0,2.9053-0.1641,4.9219-0.4922L235.4551,78.863
		c-4.3135,7.2188-6.4688,11.9785-6.4688,14.2734c0,2.2051,0.915,3.3047,2.7451,3.3047c1.8779,0,4.8828-2.1465,9.0137-6.4434
		c4.1309-4.2949,8.332-9.5879,12.6035-15.8809c0.2812-0.4668,0.5391-0.7031,0.7744-0.7031
		C254.4043,73.4138,254.5449,73.5544,254.5449,73.8357z M235.1738,62.199c0-2.2954-1.0547-3.4448-3.1641-3.4448
		c-4.3135,0-9.9736,4.2183-16.9805,12.6558c-7.0088,8.4375-10.5117,15.2578-10.5117,20.4609c0,3.0488,1.3584,4.5703,4.0781,4.5703
		c3.2344,0,8.835-5.3672,16.8047-16.1016C231.915,71.5271,235.1738,65.4802,235.1738,62.199z"/>
	<path d="M318.4941,24.7229c-17.5781,27.9385-28.665,45.7983-33.2578,53.5776c-4.6406,7.9219-6.9609,12.9141-6.9609,14.9766
		c0,2.1094,0.9619,3.1641,2.8877,3.1641c4.2715,0,11.5234-7.4414,21.7559-22.3242c0.2812-0.4668,0.5391-0.7031,0.7744-0.7031
		c0.2812,0,0.4219,0.1406,0.4219,0.4219c-0.0479,0.1406-0.2812,0.5176-0.7031,1.127l-3.0264,4.1543
		c-8.8711,12.2539-15.418,18.3789-19.6406,18.3789c-2.1602,0-3.9199-0.8086-5.2803-2.4258s-2.041-3.6914-2.041-6.2227
		s0.8438-5.459,2.5312-8.7891c-8.2041,11.627-14.2979,17.4375-18.2812,17.4375c-2.4854,0-4.5703-1.0664-6.2578-3.1992
		s-2.5312-4.8164-2.5312-8.0508c0-7.7344,4.8037-14.7402,14.4141-21.0234c7.6396-5.0151,13.6406-7.5229,18-7.5229
		c2.9053,0,4.3594,1.4062,4.3594,4.2183c0,1.3125-0.3994,2.7891-1.1953,4.4297l25.1016-42.0464
		c1.5469,0.4688,3.0693,0.7031,4.5703,0.7031C314.5088,25.0042,315.9629,24.9104,318.4941,24.7229z M284.6035,62.4802
		c0-2.4839-1.1494-3.7261-3.4453-3.7261c-4.2188,0-9.7861,4.2085-16.6992,12.6206c-6.915,8.4141-10.3711,15.1992-10.3711,20.3555
		c0,3.1406,1.2881,4.7109,3.8672,4.7109c3.749,0,10.1953-6.5137,19.3359-19.5469C282.165,69.863,284.6035,65.0583,284.6035,62.4802z
		"/>
	<path d="M328.3027,73.8357c-0.0479,0.1406-0.2812,0.5176-0.7031,1.127l-3.0264,4.1543
		c-8.8232,12.2539-15.5586,18.3789-20.2031,18.3789c-2.2061,0-4.0469-0.7852-5.5264-2.3555
		c-1.4785-1.5703-2.2168-3.5254-2.2168-5.8711c0-2.7168,1.6172-6.8438,4.8516-12.375l10.9688-18.6323
		c1.4521,0.3281,2.6016,0.4922,3.4453,0.4922c1.2656,0,3.0459-0.1641,5.3438-0.4922L305.2754,84.488
		c-2.2979,3.7969-3.4453,6.7266-3.4453,8.7891c0,2.1094,1.1025,3.1641,3.3096,3.1641c4.1768,0,11.5234-7.4414,22.0371-22.3242
		c0.2344-0.4668,0.4688-0.7031,0.7041-0.7031C328.1621,73.4138,328.3027,73.5544,328.3027,73.8357z M327.2832,44.762
		c0,1.6416-0.6924,3.1758-2.0742,4.6055c-1.3838,1.4307-2.8955,2.1445-4.5352,2.1445c-2.1094,0-3.1641-1.0547-3.1641-3.1641
		c0-1.5469,0.7256-3.0342,2.1797-4.4648c1.4521-1.4297,2.9756-2.1445,4.5703-2.1445
		C326.2744,41.7385,327.2832,42.7473,327.2832,44.762z"/>
	<path d="M352.1738,46.5549c0,1.8701-2.9307,5.584-8.7891,11.1445c-0.2812,1.4531-0.4219,2.7188-0.4219,3.7964
		c0,2.7188,1.2412,7.0312,3.7266,12.9375c1.2656,2.9531,1.8984,5.4395,1.8984,7.4531c0,4.2188-2.0518,7.875-6.1523,10.9688
		c-4.1025,3.0938-8.9648,4.6406-14.5898,4.6406c-3.1885,0-5.7305-0.9023-7.6289-2.707c-1.8984-1.8027-2.8477-4.2285-2.8477-7.2773
		c0-3.5156,1.2529-6.9355,3.7617-10.2656c2.5068-3.3281,5.0977-4.9922,7.7695-4.9922c0.4678,0,0.8896,0.0957,1.2656,0.2812
		l5.625-6.8906c1.6875-2.0137,3.9375-4.8042,6.75-8.3667c0.7959-3.2803,2.0146-6.0928,3.6562-8.4375
		c1.6396-2.3438,3.2568-3.5156,4.8516-3.5156C351.7979,45.3245,352.1738,45.7356,352.1738,46.5549z M342.4004,74.2927
		c0-1.4062-0.0479-2.8008-0.1406-4.1836c-0.0947-1.3809-0.1406-3.3633-0.1406-5.9414c0-2.1094,0.0928-3.8667,0.2812-5.2729
		c-2.626,3.3296-6.4229,8.0151-11.3906,14.062c0.8896,0.75,1.3359,1.6641,1.3359,2.7422c0,2.7676-2.2744,4.6406-6.8203,5.625
		c-1.8281,0.4219-3.4102,1.418-4.7461,2.9883c-1.3359,1.5723-2.0039,3.2246-2.0039,4.957c0,1.875,0.6787,3.4453,2.0391,4.7109
		c1.3584,1.2656,3.0459,1.8984,5.0625,1.8984c3.9375,0,7.6748-2.2852,11.2148-6.8555
		C340.6299,84.4529,342.4004,79.5427,342.4004,74.2927z"/>
	<path d="M391.9355,73.906c0,0.1406-0.4229,0.75-1.2666,1.8262l-3.0254,3.791c-9.7129,11.9824-18.04,17.9727-24.9834,17.9727
		c-3.2842,0-6.041-1.1836-8.2695-3.5508c-2.2275-2.3652-3.3418-5.332-3.3418-8.8945c0-8.4375,5.8818-15.8652,17.6484-22.2891
		c6.1875-3.3745,11.2256-5.062,15.1172-5.062c1.6875,0,3.1289,0.5039,4.3242,1.5117c1.1953,1.0088,1.793,2.2393,1.793,3.6909
		c0,3.375-2.2041,6.248-6.6094,8.6133c-4.4072,2.3672-11.7666,4.582-22.0781,6.6445c-3.1885,4.8281-4.7812,8.8594-4.7812,12.0938
		c0,4.0332,2.1816,6.0469,6.5459,6.0469c7.4131,0,16.4922-7.2305,27.2383-21.6914c0.5625-0.75,1.0312-1.125,1.4072-1.125
		C391.8408,73.531,391.9355,73.6716,391.9355,73.906z M385.9941,60.8635c0-1.5-0.8213-2.25-2.4609-2.25
		c-2.4854,0-5.7549,1.7227-9.8086,5.1675c-4.0557,3.4453-8.0283,7.9102-11.918,13.3945c6.75-1.7324,12.4678-4.1836,17.1562-7.3477
		C383.6494,66.6638,385.9941,63.6755,385.9941,60.8635z"/>
</g>
</svg>
