<?xml version="1.0" encoding="utf-8"?>
<!-- Generator: Adobe Illustrator 24.1.0, SVG Export Plug-In . SVG Version: 6.00 Build 0)  -->
<svg version="1.1" id="Layer_1" xmlns="http://www.w3.org/2000/svg" xmlns:xlink="http://www.w3.org/1999/xlink" x="0px" y="0px"
	 viewBox="0 0 16 16" enable-background="new 0 0 16 16" xml:space="preserve">
<path id="noun_Telephone_3129133_1_" fill="none" stroke="#3C3C3C" stroke-width="0.75" stroke-miterlimit="10" d="M10.1,14
	c-3.7,0-9-5.4-9-9.1C0.9,3.5,2,2.2,3.4,2h0.1c0.4,0,1.9,2.6,1.9,2.9c0,0.5-1.5,1.3-1.5,1.8c0,1.1,3.4,4.5,4.5,4.5
	c0.4,0,1.2-1.5,1.7-1.5c1,0.5,1.9,1,2.8,1.7C13.5,12.7,11.4,14,10.1,14z"/>
<line id="Line_63" fill="none" stroke="#707070" stroke-width="0.75" stroke-linecap="square" x1="6.5" y1="2" x2="10.5" y2="2"/>
<line id="Line_64" fill="none" stroke="#707070" stroke-width="0.75" stroke-linecap="square" x1="8.5" y1="2" x2="8.5" y2="6.1"/>
<line id="Line_65" fill="none" stroke="#707070" stroke-width="0.75" stroke-linecap="square" x1="12.5" y1="6.1" x2="12.5" y2="2"/>
<line id="Line_66" fill="none" stroke="#707070" stroke-width="0.75" stroke-linecap="square" x1="12.5" y1="4" x2="14.5" y2="4"/>
<line id="Line_67" fill="none" stroke="#707070" stroke-width="0.75" stroke-linecap="square" x1="15.5" y1="2" x2="12.5" y2="2"/>
</svg>
