<?xml version="1.0" encoding="utf-8"?>
<!-- Generator: Adobe Illustrator 24.1.0, SVG Export Plug-In . SVG Version: 6.00 Build 0)  -->
<svg version="1.1" id="Layer_1" xmlns="http://www.w3.org/2000/svg" xmlns:xlink="http://www.w3.org/1999/xlink" x="0px" y="0px"
	 viewBox="0 0 200 80" enable-background="new 0 0 200 80" xml:space="preserve">
<path fill="#EB2222" d="M116.4,0.1C116.4,0.1,116.4,0.1,116.4,0.1C116.4,0.1,116.4,0.1,116.4,0.1c-0.1,0-0.2,0.1-0.3,0.1
	C116.3,0.1,116.4,0,116.4,0.1c-3.2,0.7-4.6,5.1-9.8,7.4c0.1,0,0.1,0,0.1,0c0,0-0.1,0-0.1,0c0,0,0,0-0.1,0c1.8,0,3.3,1.5,3.3,3.2
	c0,0.3,0,0.6,0,1c0,1.9,0,17.9,0,18.5c0,1.8-1.5,3.2-3.3,3.2c0,0-0.2,0-0.5,0c-1.6-0.2-2.8-1.6-2.8-3.3c0-0.3,0-0.7,0-1.1
	c0-1.9,0-5.1,0-8.6s0-6.7,0-8.6c0-0.4,0-0.7,0-1.1c0-1.8,1.5-3.3,3.3-3.3c0,0-2.4-0.9-4.3-2.9c0,0,0,0,0,0c-0.1-0.1-0.1-0.1-0.1-0.2
	c-0.7-0.7-1.1-1.4-1.5-2c-0.2-0.4-0.4-0.8-0.5-1.2c0-0.1-0.1-0.1-0.1,0c-0.1,0.2-0.2,0.5-0.3,0.7c0,0,0,0.1-0.1,0.2
	c0,0.1-0.1,0.1-0.1,0.2c-0.5,1-1.1,1.8-1.8,2.5c-0.1,0.1-0.2,0.2-0.2,0.2c-0.1,0.1-0.2,0.2-0.2,0.2c-0.7,0.6-1.4,1.1-2,1.5
	c0,0-0.1,0-0.1,0.1c-0.1,0-0.1,0.1-0.2,0.1c-0.9,0.5-1.5,0.7-1.4,0.7h0c0,0,0,0,0,0c1.8,0,3.3,1.5,3.3,3.3c0,0.3,0,0.7,0,1.1
	c0,1.9,0,5.1,0,8.6c0,3.5,0,6.7,0,8.6c0,0.4,0,0.7,0,1.1c0,1.6-1.2,3-2.8,3.3c-0.3,0-0.5,0-0.5,0c-1.8,0-3.3-1.5-3.3-3.2
	c0-1.2,0-14.6,0-18.4c0-0.6,0-0.9,0-1c0-1.8,1.5-3.2,3.3-3.2c-0.1,0-0.1,0-0.1-0.1c0.1,0,0.1,0,0.1,0c-5.2-2.3-6.6-6.7-9.8-7.5
	c0,0,0.1,0,0.3,0.2c-0.1,0-0.2-0.1-0.2-0.1c0,0,0,0-0.1,0c0,0,0,0,0,0C82.4-0.2,81,0,79,1c0,0,4.6,0.8,4.6,6.6c0,1.2,0,19,0,22.7
	c0,5.5,5.4,5.8,10.1,6.7c0.2,0,0.3,0.1,0.5,0.1c0.1,0,0.3,0.1,0.4,0.1c0.3,0.1,0.5,0.1,0.8,0.2c0.1,0,0.2,0.1,0.3,0.1
	c0.2,0.1,0.4,0.1,0.6,0.2c0.1,0,0.2,0.1,0.3,0.1c0.3,0.1,0.5,0.2,0.7,0.3c0.1,0,0.1,0.1,0.2,0.1c0.2,0.1,0.4,0.2,0.6,0.3
	c0.1,0,0.1,0.1,0.2,0.1c0.2,0.1,0.4,0.3,0.6,0.4c0,0,0.1,0,0.1,0.1c0.2,0.1,0.3,0.3,0.5,0.4c0.1,0,0.1,0.1,0.1,0.1
	c0.2,0.2,0.3,0.4,0.5,0.6c0,0,0,0,0,0l0,0c0,0,0,0,0,0c0,0,0,0,0,0c0,0,0,0,0,0l0,0c0,0,0,0,0,0c0.1-0.2,0.3-0.3,0.4-0.5
	c0.9-0.9,2-1.5,3.3-1.9c0.9-0.3,1.8-0.5,2.8-0.7c0.3,0,0.5-0.1,0.8-0.2c4.5-0.8,9.1-1.3,9.1-6.5c0-3.6,0-21.7,0-22.7
	c0-5.9,4.6-6.6,4.6-6.6C119,0,117.6-0.2,116.4,0.1z"/>
<path fill="#231F20" d="M25,80h-1.3L17,63l-6.7,17H9L0,52.9h5l5,15.3L16.4,52h1.2l6.3,16.1l5-15.3h5L25,80z"/>
<path fill="#231F20" d="M38.5,79.1V52.9h4.9v26.2H38.5z"/>
<path fill="#231F20" d="M48.5,79.1V52.9h4.9v21.8h11.4v4.4L48.5,79.1L48.5,79.1z"/>
<path fill="#231F20" d="M78.8,79.1h-8.9V52.9h8.9c7.5,0,13.5,5.6,13.5,13.1C92.2,73.5,86.2,79.1,78.8,79.1z M78.3,57.4h-3.5v17.3
	h3.5c4.9,0,8.9-3.7,8.9-8.7C87.2,61.1,83.2,57.4,78.3,57.4z"/>
<path fill="#231F20" d="M109.7,79.4c-7.5,0-13.7-6-13.7-13.4c0-7.5,6.2-13.4,13.7-13.4c3.3,0,6.2,1.1,8.9,3.3l-2.9,3.6
	c-2.6-1.8-4.1-2.3-6.1-2.3c-4.8,0-8.6,3.9-8.6,8.8c0,5,3.9,8.8,8.6,8.8c1.9,0,3.5-0.6,6-2.3l2.9,3.7
	C115.3,78.7,112.8,79.4,109.7,79.4z"/>
<path fill="#231F20" d="M142.1,79.1l-3.1-6.9h-9.6l-3.1,6.9H121L133.6,52h1.2l12.6,27.1L142.1,79.1L142.1,79.1z M134.2,61.9
	l-2.8,5.9h5.5L134.2,61.9z"/>
<path fill="#231F20" d="M167.6,79.1l-10.8-13.4v-1.1h4.3c2.5,0,4.3-1.4,4.3-3.6c0-2.2-1.8-3.7-4.3-3.7h-4.9v21.8h-4.9V52.9h10.1
	c5.6,0,9,3.6,9,8.1c0,3.7-2.8,6.8-5.9,7.2l9.1,10.9L167.6,79.1L167.6,79.1L167.6,79.1z"/>
<path fill="#231F20" d="M186.5,79.1h-8.9V52.9h8.9c7.5,0,13.5,5.6,13.5,13.1C200,73.5,194,79.1,186.5,79.1z M186.1,57.4h-3.5v17.3
	h3.5c4.9,0,8.9-3.7,8.9-8.7C195,61.1,191,57.4,186.1,57.4z"/>
</svg>
