<?xml version="1.0" encoding="utf-8"?>
<!-- Generator: Adobe Illustrator 24.1.0, SVG Export Plug-In . SVG Version: 6.00 Build 0)  -->
<svg version="1.1" id="Layer_2" xmlns="http://www.w3.org/2000/svg" xmlns:xlink="http://www.w3.org/1999/xlink" x="0px" y="0px"
	 viewBox="0 0 44 44" enable-background="new 0 0 44 44" xml:space="preserve">
<g>
	<g>
		<line fill="none" stroke="#BFBFBF" stroke-width="0.25" stroke-miterlimit="10" x1="2.6" y1="30" x2="2.7" y2="30"/>
		
			<line fill="none" stroke="#BFBFBF" stroke-width="0.25" stroke-miterlimit="10" stroke-dasharray="0.25,0.5" x1="3.2" y1="29.8" x2="41.1" y2="14.1"/>
		<line fill="none" stroke="#BFBFBF" stroke-width="0.25" stroke-miterlimit="10" x1="41.3" y1="14" x2="41.4" y2="14"/>
	</g>
</g>
<g>
	<g>
		<line fill="none" stroke="#BFBFBF" stroke-width="0.25" stroke-miterlimit="10" x1="14" y1="41.4" x2="14" y2="41.3"/>
		
			<line fill="none" stroke="#BFBFBF" stroke-width="0.25" stroke-miterlimit="10" stroke-dasharray="0.25,0.5" x1="14.2" y1="40.8" x2="29.9" y2="2.9"/>
		<line fill="none" stroke="#BFBFBF" stroke-width="0.25" stroke-miterlimit="10" x1="30" y1="2.7" x2="30" y2="2.6"/>
	</g>
</g>
<g>
	<g>
		<line fill="none" stroke="#BFBFBF" stroke-width="0.25" stroke-miterlimit="10" x1="30" y1="41.4" x2="30" y2="41.3"/>
		
			<line fill="none" stroke="#BFBFBF" stroke-width="0.25" stroke-miterlimit="10" stroke-dasharray="0.25,0.5" x1="29.8" y1="40.8" x2="14.1" y2="2.9"/>
		<line fill="none" stroke="#BFBFBF" stroke-width="0.25" stroke-miterlimit="10" x1="14" y1="2.7" x2="14" y2="2.6"/>
	</g>
</g>
<g>
	<g>
		<line fill="none" stroke="#BFBFBF" stroke-width="0.25" stroke-miterlimit="10" x1="41.4" y1="30" x2="41.3" y2="30"/>
		
			<line fill="none" stroke="#BFBFBF" stroke-width="0.25" stroke-miterlimit="10" stroke-dasharray="0.25,0.5" x1="40.8" y1="29.8" x2="2.9" y2="14.1"/>
		<line fill="none" stroke="#BFBFBF" stroke-width="0.25" stroke-miterlimit="10" x1="2.7" y1="14" x2="2.6" y2="14"/>
	</g>
</g>
<g>
	<g>
		<polyline fill="none" stroke="#BFBFBF" stroke-width="0.25" stroke-linejoin="round" points="22,1.1 22,1 22,1.1 		"/>
		
			<line fill="none" stroke="#BFBFBF" stroke-width="0.25" stroke-linejoin="round" stroke-dasharray="0.2453,0.4906" x1="22.1" y1="1.6" x2="24.3" y2="15.9"/>
		<polyline fill="none" stroke="#BFBFBF" stroke-width="0.25" stroke-linejoin="round" points="24.4,16.2 24.4,16.3 24.5,16.2 		"/>
		
			<line fill="none" stroke="#BFBFBF" stroke-width="0.25" stroke-linejoin="round" stroke-dasharray="0.2453,0.4906" x1="24.9" y1="15.9" x2="36.6" y2="7.4"/>
		<polyline fill="none" stroke="#BFBFBF" stroke-width="0.25" stroke-linejoin="round" points="36.7,7.2 36.8,7.2 36.8,7.3 		"/>
		
			<line fill="none" stroke="#BFBFBF" stroke-width="0.25" stroke-linejoin="round" stroke-dasharray="0.2453,0.4906" x1="36.5" y1="7.6" x2="27.9" y2="19.3"/>
		<polyline fill="none" stroke="#BFBFBF" stroke-width="0.25" stroke-linejoin="round" points="27.8,19.5 27.7,19.6 27.8,19.6 		"/>
		
			<line fill="none" stroke="#BFBFBF" stroke-width="0.25" stroke-linejoin="round" stroke-dasharray="0.2453,0.4906" x1="28.3" y1="19.7" x2="42.6" y2="21.9"/>
		<polyline fill="none" stroke="#BFBFBF" stroke-width="0.25" stroke-linejoin="round" points="42.9,22 43,22 42.9,22 		"/>
		
			<line fill="none" stroke="#BFBFBF" stroke-width="0.25" stroke-linejoin="round" stroke-dasharray="0.2453,0.4906" x1="42.4" y1="22.1" x2="28.1" y2="24.3"/>
		<polyline fill="none" stroke="#BFBFBF" stroke-width="0.25" stroke-linejoin="round" points="27.8,24.4 27.7,24.4 27.8,24.5 		"/>
		
			<line fill="none" stroke="#BFBFBF" stroke-width="0.25" stroke-linejoin="round" stroke-dasharray="0.2453,0.4906" x1="28.1" y1="24.9" x2="36.6" y2="36.6"/>
		<polyline fill="none" stroke="#BFBFBF" stroke-width="0.25" stroke-linejoin="round" points="36.8,36.7 36.8,36.8 36.7,36.8 		"/>
		
			<line fill="none" stroke="#BFBFBF" stroke-width="0.25" stroke-linejoin="round" stroke-dasharray="0.2453,0.4906" x1="36.4" y1="36.5" x2="24.7" y2="27.9"/>
		<polyline fill="none" stroke="#BFBFBF" stroke-width="0.25" stroke-linejoin="round" points="24.5,27.8 24.4,27.7 24.4,27.8 		"/>
		
			<line fill="none" stroke="#BFBFBF" stroke-width="0.25" stroke-linejoin="round" stroke-dasharray="0.2453,0.4906" x1="24.3" y1="28.3" x2="22.1" y2="42.6"/>
		<polyline fill="none" stroke="#BFBFBF" stroke-width="0.25" stroke-linejoin="round" points="22,42.9 22,43 22,42.9 		"/>
		
			<line fill="none" stroke="#BFBFBF" stroke-width="0.25" stroke-linejoin="round" stroke-dasharray="0.2453,0.4906" x1="21.9" y1="42.4" x2="19.7" y2="28.1"/>
		<polyline fill="none" stroke="#BFBFBF" stroke-width="0.25" stroke-linejoin="round" points="19.6,27.8 19.6,27.7 19.5,27.8 		"/>
		
			<line fill="none" stroke="#BFBFBF" stroke-width="0.25" stroke-linejoin="round" stroke-dasharray="0.2453,0.4906" x1="19.1" y1="28.1" x2="7.4" y2="36.6"/>
		<polyline fill="none" stroke="#BFBFBF" stroke-width="0.25" stroke-linejoin="round" points="7.3,36.8 7.2,36.8 7.2,36.7 		"/>
		
			<line fill="none" stroke="#BFBFBF" stroke-width="0.25" stroke-linejoin="round" stroke-dasharray="0.2453,0.4906" x1="7.5" y1="36.4" x2="16.1" y2="24.7"/>
		<polyline fill="none" stroke="#BFBFBF" stroke-width="0.25" stroke-linejoin="round" points="16.2,24.5 16.3,24.4 16.2,24.4 		"/>
		
			<line fill="none" stroke="#BFBFBF" stroke-width="0.25" stroke-linejoin="round" stroke-dasharray="0.2453,0.4906" x1="15.7" y1="24.3" x2="1.4" y2="22.1"/>
		<polyline fill="none" stroke="#BFBFBF" stroke-width="0.25" stroke-linejoin="round" points="1.1,22 1,22 1.1,22 		"/>
		
			<line fill="none" stroke="#BFBFBF" stroke-width="0.25" stroke-linejoin="round" stroke-dasharray="0.2453,0.4906" x1="1.6" y1="21.9" x2="15.9" y2="19.7"/>
		<polyline fill="none" stroke="#BFBFBF" stroke-width="0.25" stroke-linejoin="round" points="16.2,19.6 16.3,19.6 16.2,19.5 		"/>
		
			<line fill="none" stroke="#BFBFBF" stroke-width="0.25" stroke-linejoin="round" stroke-dasharray="0.2453,0.4906" x1="15.9" y1="19.1" x2="7.4" y2="7.4"/>
		<polyline fill="none" stroke="#BFBFBF" stroke-width="0.25" stroke-linejoin="round" points="7.2,7.3 7.2,7.2 7.3,7.2 		"/>
		
			<line fill="none" stroke="#BFBFBF" stroke-width="0.25" stroke-linejoin="round" stroke-dasharray="0.2453,0.4906" x1="7.6" y1="7.5" x2="19.3" y2="16.1"/>
		<polyline fill="none" stroke="#BFBFBF" stroke-width="0.25" stroke-linejoin="round" points="19.5,16.2 19.6,16.3 19.6,16.2 		"/>
		
			<line fill="none" stroke="#BFBFBF" stroke-width="0.25" stroke-linejoin="round" stroke-dasharray="0.2453,0.4906" x1="19.7" y1="15.7" x2="21.9" y2="1.4"/>
	</g>
</g>
<polygon fill="none" stroke="#7B7879" stroke-width="0.25" stroke-linejoin="round" stroke-miterlimit="10" points="22,1 28.3,6.8 
	36.8,7.2 37.2,15.7 43,22 37.2,28.3 36.8,36.8 28.3,37.2 22,43 15.7,37.2 7.2,36.8 6.8,28.3 1,22 6.8,15.7 7.2,7.2 15.7,6.8 "/>
<polygon fill="none" stroke="#7B7879" stroke-width="0.25" stroke-linejoin="round" stroke-miterlimit="10" points="6.8,15.7 
	12.9,12.9 15.7,6.8 22,9.1 28.3,6.8 31.1,12.9 37.2,15.7 34.9,22 37.2,28.3 31.1,31.1 28.3,37.2 22,34.9 15.7,37.2 12.9,31.1 
	6.8,28.3 9.1,22 "/>
<circle fill="none" stroke="#7B7879" stroke-width="0.75" stroke-miterlimit="10" cx="22" cy="22" r="21"/>
<g>
	
		<line fill="none" stroke="#7B7879" stroke-width="0.25" stroke-linejoin="round" stroke-miterlimit="10" x1="28.3" y1="37.2" x2="30" y2="41.4"/>
</g>
<g>
	
		<line fill="none" stroke="#7B7879" stroke-width="0.25" stroke-linejoin="round" stroke-miterlimit="10" x1="37.2" y1="28.3" x2="41.4" y2="30"/>
</g>
<g>
	
		<line fill="none" stroke="#7B7879" stroke-width="0.25" stroke-linejoin="round" stroke-miterlimit="10" x1="37.2" y1="15.7" x2="41.4" y2="14"/>
</g>
<g>
	
		<line fill="none" stroke="#7B7879" stroke-width="0.25" stroke-linejoin="round" stroke-miterlimit="10" x1="28.3" y1="6.8" x2="30" y2="2.6"/>
</g>
<g>
	
		<line fill="none" stroke="#7B7879" stroke-width="0.25" stroke-linejoin="round" stroke-miterlimit="10" x1="15.7" y1="6.8" x2="14" y2="2.6"/>
</g>
<g>
	
		<line fill="none" stroke="#7B7879" stroke-width="0.25" stroke-linejoin="round" stroke-miterlimit="10" x1="6.8" y1="15.7" x2="2.6" y2="14"/>
</g>
<g>
	
		<line fill="none" stroke="#7B7879" stroke-width="0.25" stroke-linejoin="round" stroke-miterlimit="10" x1="6.8" y1="28.3" x2="2.6" y2="30"/>
</g>
<g>
	
		<line fill="none" stroke="#7B7879" stroke-width="0.25" stroke-linejoin="round" stroke-miterlimit="10" x1="15.7" y1="37.2" x2="14" y2="41.4"/>
</g>
<polygon fill="none" stroke="#7B7879" stroke-width="0.25" stroke-linejoin="round" stroke-miterlimit="10" points="22,9.1 
	12.9,12.9 9.1,22 12.9,31.1 22,34.9 31.1,31.1 34.9,22 31.1,12.9 "/>
</svg>
