<?xml version="1.0" encoding="utf-8"?>
<!-- Generator: Adobe Illustrator 24.1.2, SVG Export Plug-In . SVG Version: 6.00 Build 0)  -->
<svg version="1.1" id="Layer_1" xmlns="http://www.w3.org/2000/svg" xmlns:xlink="http://www.w3.org/1999/xlink" x="0px" y="0px"
	 viewBox="0 0 44 44" enable-background="new 0 0 44 44" xml:space="preserve">
<polygon fill="none" stroke="#A7A7A9" stroke-width="0.25" stroke-miterlimit="10" points="13.9,31.1 13.9,12.9 22,7.1 30.1,12.9 
	30.1,31.1 22,36.9 "/>
<g>
	<g>
		<polyline fill="none" stroke="#A7A7A9" stroke-width="0.25" stroke-miterlimit="10" points="17.5,29.4 17.4,29.4 17.4,29.2 		"/>
		
			<line fill="none" stroke="#A7A7A9" stroke-width="0.25" stroke-miterlimit="10" stroke-dasharray="0.2356,0.4711" x1="17.4" y1="28.7" x2="17.4" y2="15.1"/>
		<polyline fill="none" stroke="#A7A7A9" stroke-width="0.25" stroke-miterlimit="10" points="17.4,14.8 17.4,14.6 17.5,14.6 		"/>
		
			<line fill="none" stroke="#A7A7A9" stroke-width="0.25" stroke-miterlimit="10" stroke-dasharray="0.233,0.4659" x1="17.9" y1="14.2" x2="21.7" y2="11.6"/>
		<polyline fill="none" stroke="#A7A7A9" stroke-width="0.25" stroke-miterlimit="10" points="21.9,11.5 22,11.3 22.1,11.5 		"/>
		
			<line fill="none" stroke="#A7A7A9" stroke-width="0.25" stroke-miterlimit="10" stroke-dasharray="0.233,0.4659" x1="22.6" y1="11.7" x2="26.3" y2="14.4"/>
		<polyline fill="none" stroke="#A7A7A9" stroke-width="0.25" stroke-miterlimit="10" points="26.5,14.6 26.6,14.6 26.6,14.8 		"/>
		
			<line fill="none" stroke="#A7A7A9" stroke-width="0.25" stroke-miterlimit="10" stroke-dasharray="0.2356,0.4711" x1="26.6" y1="15.3" x2="26.6" y2="28.9"/>
		<polyline fill="none" stroke="#A7A7A9" stroke-width="0.25" stroke-miterlimit="10" points="26.6,29.2 26.6,29.4 26.5,29.4 		"/>
		
			<line fill="none" stroke="#A7A7A9" stroke-width="0.25" stroke-miterlimit="10" stroke-dasharray="0.233,0.4659" x1="26.1" y1="29.8" x2="22.3" y2="32.4"/>
		<polyline fill="none" stroke="#A7A7A9" stroke-width="0.25" stroke-miterlimit="10" points="22.1,32.5 22,32.7 21.9,32.5 		"/>
		
			<line fill="none" stroke="#A7A7A9" stroke-width="0.25" stroke-miterlimit="10" stroke-dasharray="0.233,0.4659" x1="21.4" y1="32.3" x2="17.7" y2="29.6"/>
	</g>
</g>
<line fill="none" stroke="#A7A7A9" stroke-width="0.25" stroke-miterlimit="10" x1="30.1" y1="31.1" x2="35.9" y2="34.2"/>
<line fill="none" stroke="#A7A7A9" stroke-width="0.25" stroke-miterlimit="10" x1="22" y1="36.9" x2="22" y2="44"/>
<line fill="none" stroke="#A7A7A9" stroke-width="0.25" stroke-miterlimit="10" x1="13.9" y1="31.1" x2="8.1" y2="34.2"/>
<line fill="none" stroke="#A7A7A9" stroke-width="0.25" stroke-miterlimit="10" x1="13.9" y1="12.9" x2="8.1" y2="9.8"/>
<line fill="none" stroke="#A7A7A9" stroke-width="0.25" stroke-miterlimit="10" x1="22" y1="7.1" x2="22" y2="0"/>
<line fill="none" stroke="#A7A7A9" stroke-width="0.25" stroke-miterlimit="10" x1="30.1" y1="12.9" x2="35.9" y2="9.8"/>
<g>
	<g>
		<line fill="none" stroke="#A7A7A9" stroke-width="0.25" stroke-miterlimit="10" x1="26.6" y1="29.4" x2="26.7" y2="29.4"/>
		
			<line fill="none" stroke="#A7A7A9" stroke-width="0.25" stroke-miterlimit="10" stroke-dasharray="0.2239,0.4478" x1="27.2" y1="29.6" x2="29.8" y2="31"/>
		<line fill="none" stroke="#A7A7A9" stroke-width="0.25" stroke-miterlimit="10" x1="30" y1="31.1" x2="30.1" y2="31.1"/>
	</g>
</g>
<g>
	<g>
		<line fill="none" stroke="#A7A7A9" stroke-width="0.25" stroke-miterlimit="10" x1="26.6" y1="14.6" x2="26.7" y2="14.6"/>
		
			<line fill="none" stroke="#A7A7A9" stroke-width="0.25" stroke-miterlimit="10" stroke-dasharray="0.2239,0.4479" x1="27.2" y1="14.4" x2="29.8" y2="13"/>
		<line fill="none" stroke="#A7A7A9" stroke-width="0.25" stroke-miterlimit="10" x1="30" y1="12.9" x2="30.1" y2="12.9"/>
	</g>
</g>
<g>
	<g>
		<line fill="none" stroke="#A7A7A9" stroke-width="0.25" stroke-miterlimit="10" x1="13.9" y1="12.9" x2="14" y2="12.9"/>
		
			<line fill="none" stroke="#A7A7A9" stroke-width="0.25" stroke-miterlimit="10" stroke-dasharray="0.2239,0.4479" x1="14.5" y1="13.1" x2="17" y2="14.5"/>
		<line fill="none" stroke="#A7A7A9" stroke-width="0.25" stroke-miterlimit="10" x1="17.3" y1="14.6" x2="17.4" y2="14.6"/>
	</g>
</g>
<g>
	<g>
		<line fill="none" stroke="#A7A7A9" stroke-width="0.25" stroke-miterlimit="10" x1="13.9" y1="31.1" x2="14" y2="31.1"/>
		
			<line fill="none" stroke="#A7A7A9" stroke-width="0.25" stroke-miterlimit="10" stroke-dasharray="0.2239,0.4478" x1="14.5" y1="30.9" x2="17" y2="29.5"/>
		<line fill="none" stroke="#A7A7A9" stroke-width="0.25" stroke-miterlimit="10" x1="17.3" y1="29.4" x2="17.4" y2="29.4"/>
	</g>
</g>
<g>
	<g>
		<line fill="none" stroke="#A7A7A9" stroke-width="0.25" stroke-miterlimit="10" x1="22" y1="32.7" x2="22" y2="32.8"/>
		
			<line fill="none" stroke="#A7A7A9" stroke-width="0.25" stroke-miterlimit="10" stroke-dasharray="0.2453,0.4907" x1="22" y1="33.3" x2="22" y2="36.5"/>
		<line fill="none" stroke="#A7A7A9" stroke-width="0.25" stroke-miterlimit="10" x1="22" y1="36.8" x2="22" y2="36.9"/>
	</g>
</g>
<g>
	<g>
		<line fill="none" stroke="#A7A7A9" stroke-width="0.25" stroke-miterlimit="10" x1="22" y1="11.3" x2="22" y2="11.2"/>
		
			<line fill="none" stroke="#A7A7A9" stroke-width="0.25" stroke-miterlimit="10" stroke-dasharray="0.2453,0.4906" x1="22" y1="10.7" x2="22" y2="7.5"/>
		<line fill="none" stroke="#A7A7A9" stroke-width="0.25" stroke-miterlimit="10" x1="22" y1="7.2" x2="22" y2="7.1"/>
	</g>
</g>
<g>
	<g>
		<line fill="none" stroke="#A7A7A9" stroke-width="0.25" stroke-miterlimit="10" x1="22" y1="0" x2="22" y2="0.1"/>
		
			<line fill="none" stroke="#A7A7A9" stroke-width="0.25" stroke-miterlimit="10" stroke-dasharray="0.2455,0.491" x1="21.8" y1="0.7" x2="17.5" y2="14.2"/>
		<line fill="none" stroke="#A7A7A9" stroke-width="0.25" stroke-miterlimit="10" x1="17.4" y1="14.5" x2="17.4" y2="14.6"/>
	</g>
</g>
<g>
	<g>
		<line fill="none" stroke="#A7A7A9" stroke-width="0.25" stroke-miterlimit="10" x1="26.6" y1="14.6" x2="26.6" y2="14.5"/>
		
			<line fill="none" stroke="#A7A7A9" stroke-width="0.25" stroke-miterlimit="10" stroke-dasharray="0.2455,0.491" x1="26.4" y1="14" x2="22.1" y2="0.3"/>
		<line fill="none" stroke="#A7A7A9" stroke-width="0.25" stroke-miterlimit="10" x1="22" y1="0.1" x2="22" y2="0"/>
	</g>
</g>
<g>
	<g>
		<line fill="none" stroke="#A7A7A9" stroke-width="0.25" stroke-miterlimit="10" x1="22" y1="11.3" x2="22.1" y2="11.3"/>
		
			<line fill="none" stroke="#A7A7A9" stroke-width="0.25" stroke-miterlimit="10" stroke-dasharray="0.2366,0.4731" x1="22.7" y1="11.2" x2="35.4" y2="9.8"/>
		<line fill="none" stroke="#A7A7A9" stroke-width="0.25" stroke-miterlimit="10" x1="35.8" y1="9.8" x2="35.9" y2="9.8"/>
	</g>
</g>
<g>
	<g>
		<line fill="none" stroke="#A7A7A9" stroke-width="0.25" stroke-miterlimit="10" x1="26.6" y1="29.4" x2="26.7" y2="29.3"/>
		
			<line fill="none" stroke="#A7A7A9" stroke-width="0.25" stroke-miterlimit="10" stroke-dasharray="0.2393,0.4785" x1="27" y1="28.7" x2="35.7" y2="10.2"/>
		<line fill="none" stroke="#A7A7A9" stroke-width="0.25" stroke-miterlimit="10" x1="35.8" y1="10" x2="35.9" y2="9.8"/>
	</g>
</g>
<g>
	<g>
		<line fill="none" stroke="#A7A7A9" stroke-width="0.25" stroke-miterlimit="10" x1="26.6" y1="14.6" x2="26.7" y2="14.7"/>
		
			<line fill="none" stroke="#A7A7A9" stroke-width="0.25" stroke-miterlimit="10" stroke-dasharray="0.2393,0.4785" x1="27" y1="15.3" x2="35.7" y2="33.8"/>
		<line fill="none" stroke="#A7A7A9" stroke-width="0.25" stroke-miterlimit="10" x1="35.8" y1="34" x2="35.9" y2="34.2"/>
	</g>
</g>
<g>
	<g>
		<line fill="none" stroke="#A7A7A9" stroke-width="0.25" stroke-miterlimit="10" x1="26.6" y1="29.4" x2="26.6" y2="29.5"/>
		
			<line fill="none" stroke="#A7A7A9" stroke-width="0.25" stroke-miterlimit="10" stroke-dasharray="0.2455,0.491" x1="26.4" y1="30" x2="22.1" y2="43.7"/>
		<line fill="none" stroke="#A7A7A9" stroke-width="0.25" stroke-miterlimit="10" x1="22" y1="43.9" x2="22" y2="44"/>
	</g>
</g>
<g>
	<g>
		<line fill="none" stroke="#A7A7A9" stroke-width="0.25" stroke-miterlimit="10" x1="22" y1="32.7" x2="22.1" y2="32.7"/>
		
			<line fill="none" stroke="#A7A7A9" stroke-width="0.25" stroke-miterlimit="10" stroke-dasharray="0.2366,0.4731" x1="22.7" y1="32.8" x2="35.4" y2="34.2"/>
		<line fill="none" stroke="#A7A7A9" stroke-width="0.25" stroke-miterlimit="10" x1="35.8" y1="34.2" x2="35.9" y2="34.2"/>
	</g>
</g>
<g>
	<g>
		<line fill="none" stroke="#A7A7A9" stroke-width="0.25" stroke-miterlimit="10" x1="17.4" y1="29.4" x2="17.4" y2="29.5"/>
		
			<line fill="none" stroke="#A7A7A9" stroke-width="0.25" stroke-miterlimit="10" stroke-dasharray="0.2455,0.491" x1="17.6" y1="30" x2="21.9" y2="43.7"/>
		<line fill="none" stroke="#A7A7A9" stroke-width="0.25" stroke-miterlimit="10" x1="22" y1="43.9" x2="22" y2="44"/>
	</g>
</g>
<g>
	<g>
		<line fill="none" stroke="#A7A7A9" stroke-width="0.25" stroke-miterlimit="10" x1="22" y1="32.7" x2="21.9" y2="32.7"/>
		
			<line fill="none" stroke="#A7A7A9" stroke-width="0.25" stroke-miterlimit="10" stroke-dasharray="0.2366,0.4731" x1="21.3" y1="32.8" x2="8.6" y2="34.2"/>
		<line fill="none" stroke="#A7A7A9" stroke-width="0.25" stroke-miterlimit="10" x1="8.2" y1="34.2" x2="8.1" y2="34.2"/>
	</g>
</g>
<g>
	<g>
		<line fill="none" stroke="#A7A7A9" stroke-width="0.25" stroke-miterlimit="10" x1="17.4" y1="14.6" x2="17.3" y2="14.7"/>
		
			<line fill="none" stroke="#A7A7A9" stroke-width="0.25" stroke-miterlimit="10" stroke-dasharray="0.2393,0.4785" x1="17" y1="15.3" x2="8.3" y2="33.8"/>
		<line fill="none" stroke="#A7A7A9" stroke-width="0.25" stroke-miterlimit="10" x1="8.2" y1="34" x2="8.1" y2="34.2"/>
	</g>
</g>
<g>
	<g>
		<line fill="none" stroke="#A7A7A9" stroke-width="0.25" stroke-miterlimit="10" x1="17.4" y1="29.4" x2="17.3" y2="29.3"/>
		
			<line fill="none" stroke="#A7A7A9" stroke-width="0.25" stroke-miterlimit="10" stroke-dasharray="0.2393,0.4785" x1="17" y1="28.7" x2="8.3" y2="10.2"/>
		<line fill="none" stroke="#A7A7A9" stroke-width="0.25" stroke-miterlimit="10" x1="8.2" y1="10" x2="8.1" y2="9.8"/>
	</g>
</g>
<g>
	<g>
		<line fill="none" stroke="#A7A7A9" stroke-width="0.25" stroke-miterlimit="10" x1="22" y1="11.3" x2="21.9" y2="11.3"/>
		
			<line fill="none" stroke="#A7A7A9" stroke-width="0.25" stroke-miterlimit="10" stroke-dasharray="0.2366,0.4731" x1="21.3" y1="11.2" x2="8.6" y2="9.8"/>
		<line fill="none" stroke="#A7A7A9" stroke-width="0.25" stroke-miterlimit="10" x1="8.2" y1="9.8" x2="8.1" y2="9.8"/>
	</g>
</g>
<polygon fill="none" stroke="#7B7879" stroke-width="0.75" stroke-linejoin="round" stroke-miterlimit="10" points="35.9,34.2 
	22,44 8.1,34.2 8.1,22 8.1,9.8 22,0 35.9,9.8 35.9,22 "/>
</svg>
