<?xml version="1.0" encoding="utf-8"?>
<!-- Generator: Adobe Illustrator 24.1.2, SVG Export Plug-In . SVG Version: 6.00 Build 0)  -->
<svg version="1.1" id="Layer_1" xmlns="http://www.w3.org/2000/svg" xmlns:xlink="http://www.w3.org/1999/xlink" x="0px" y="0px"
	 viewBox="0 0 44 44" enable-background="new 0 0 44 44" xml:space="preserve">
<g>
	<g>
		<line fill="none" stroke="#A7A7A9" stroke-width="0.25" stroke-miterlimit="10" x1="22" y1="28.4" x2="22" y2="28.3"/>
		
			<line fill="none" stroke="#A7A7A9" stroke-width="0.25" stroke-miterlimit="10" stroke-dasharray="0.2422,0.4844" x1="22" y1="27.7" x2="22" y2="16.1"/>
		<line fill="none" stroke="#A7A7A9" stroke-width="0.25" stroke-miterlimit="10" x1="22" y1="15.7" x2="22" y2="15.6"/>
	</g>
</g>
<path id="Path_669" fill="#A7A7A9" d="M36.8,43.2v0.3h0.1l0.1-0.1v-0.1H36.8z"/>
<path id="Path_671" fill="#A7A7A9" d="M6.9,43.2L6.9,43.2l0.1,0.3h0.1v-0.3C7.2,43.2,6.9,43.2,6.9,43.2z"/>
<path id="Path_673" fill="#A7A7A9" d="M7.1,0.4L6.9,0.5v0.1h0.3L7.1,0.4L7.1,0.4z"/>
<path id="Path_675" fill="#A7A7A9" d="M36.8,0.4v0.3h0.3V0.5l-0.1-0.1H36.8z"/>
<path id="Path_677" fill="#A7A7A9" d="M36.7,0.5l0.3,0.3l0.1-0.1L36.7,0.5L36.7,0.5z"/>
<path id="Path_678" fill="#A7A7A9" d="M22.6,15.1l-0.3-0.3l0.3-0.3l0.3,0.3L22.6,15.1z M23.1,14.5l-0.3-0.3l0.3-0.3l0.3,0.3
	L23.1,14.5z M23.8,14l-0.3-0.3l0.3-0.3l0.3,0.3L23.8,14z M24.4,13.3l-0.3-0.3l0.3-0.3l0.3,0.3L24.4,13.3z M25,12.7l-0.3-0.3l0.3-0.3
	l0.3,0.3L25,12.7z M25.5,12.1L25.4,12l0.3-0.3l0.1,0.3L25.5,12.1z M26.1,11.6l-0.3-0.3l0.3-0.3l0.3,0.3L26.1,11.6z M26.8,11
	l-0.3-0.3l0.3-0.3l0.3,0.3L26.8,11z M27.4,10.3l-0.3-0.3l0.3-0.3l0.3,0.3L27.4,10.3z M28,9.7l-0.3-0.3L28,9.2l0.3,0.3L28,9.7z
	 M28.5,9.2l-0.3-0.3l0.3-0.3l0.3,0.3L28.5,9.2z M29.2,8.6l-0.3-0.3l0.3-0.3l0.3,0.3L29.2,8.6z M29.8,7.9l-0.3-0.3l0.3-0.3L30,7.7
	L29.8,7.9z M30.4,7.3l-0.3-0.3l0.3-0.3l0.3,0.3L30.4,7.3z M30.9,6.8l-0.1-0.3L31,6.3l0.3,0.3L30.9,6.8z M31.5,6.2l-0.3-0.3l0.3-0.3
	l0.3,0.3L31.5,6.2z M32.2,5.6l-0.3-0.3l0.3-0.3l0.3,0.3L32.2,5.6z M32.8,4.9l-0.3-0.3l0.3-0.3l0.3,0.3L32.8,4.9z M33.3,4.3L33.1,4
	l0.3-0.1l0.3,0.3L33.3,4.3z M33.9,3.8l-0.3-0.3l0.3-0.3l0.3,0.3L33.9,3.8z M34.6,3.2l-0.3-0.3l0.3-0.1L34.8,3L34.6,3.2z M35.2,2.5
	l-0.3-0.3L35.2,2l0.3,0.3L35.2,2.5z M35.7,1.9l-0.3-0.1l0.3-0.3l0.3,0.3L35.7,1.9z M36.3,1.4l-0.3-0.3l0.3-0.3l0.3,0.3L36.3,1.4z"/>
<path id="Path_679" fill="#A7A7A9" d="M21.7,15.5L21.7,15.5l0.3,0.1l0.1-0.1L22,15.4l0,0l0,0L21.7,15.5z"/>
<path id="Path_680" fill="#A7A7A9" d="M21.4,15.1l-0.3-0.3l0.3-0.3l0.3,0.3L21.4,15.1z M20.7,14.5l-0.3-0.3l0.3-0.3l0.3,0.3
	L20.7,14.5z M20.2,14L20,13.7l0.3-0.3l0.3,0.3L20.2,14z M19.6,13.3l-0.3-0.3l0.3-0.3l0.3,0.3L19.6,13.3z M19,12.7l-0.3-0.3l0.3-0.3
	l0.3,0.3L19,12.7z M18.4,12.1L18.2,12l0.3-0.3l0.3,0.3L18.4,12.1z M17.9,11.6l-0.3-0.3l0.3-0.3l0.3,0.3L17.9,11.6z M17.2,11L17,10.7
	l0.3-0.3l0.3,0.3L17.2,11z M16.6,10.3l-0.3-0.3l0.3-0.3l0.3,0.3L16.6,10.3z M16,9.7l-0.3-0.3L16,9.2l0.3,0.3L16,9.7z M15.5,9.2
	l-0.3-0.3l0.3-0.3l0.3,0.3L15.5,9.2z M14.8,8.6l-0.3-0.3l0.3-0.3l0.3,0.3L14.8,8.6z M14.2,7.9L14,7.7l0.3-0.3l0.3,0.3L14.2,7.9z
	 M13.6,7.3l-0.3-0.3l0.3-0.3l0.3,0.3L13.6,7.3z M13.1,6.7l-0.3-0.3l0.3-0.3l0.1,0.4L13.1,6.7z M12.5,6.2l-0.3-0.3l0.3-0.3l0.3,0.3
	L12.5,6.2z M11.8,5.6l-0.3-0.3l0.3-0.3l0.3,0.3L11.8,5.6z M11.2,4.9l-0.3-0.3l0.3-0.3l0.3,0.3L11.2,4.9z M10.6,4.3L10.3,4l0.3-0.3
	L10.8,4L10.6,4.3z M10.1,3.8L9.8,3.5l0.3-0.3l0.3,0.3L10.1,3.8z M9.4,3.2L9.2,2.9l0.3-0.1L9.7,3L9.4,3.2z M8.8,2.5L8.6,2.3L8.8,2
	l0.3,0.3L8.8,2.5z M8.2,1.9L7.9,1.7l0.3-0.1l0.3,0.3L8.2,1.9z M7.7,1.4L7.4,1.2l0.3-0.3l0.3,0.3L7.7,1.4z"/>
<path id="Path_681" fill="#A7A7A9" d="M6.9,0.7L6.9,0.7l0.3-0.1L7.1,0.4L6.9,0.7z"/>
<path id="Path_682" fill="#A7A7A9" d="M36.7,43.5L36.7,43.5l0.4-0.1l-0.1-0.1L36.7,43.5z"/>
<path id="Path_683" fill="#A7A7A9" d="M36.3,43l-0.3-0.3l0.3-0.3l0.3,0.3L36.3,43z M35.7,42.5l-0.3-0.3l0.3-0.3l0.3,0.3L35.7,42.5z
	 M35.2,41.9l-0.3-0.3l0.3-0.3l0.3,0.3L35.2,41.9z M34.6,41.2L34.3,41l0.3-0.1l0.3,0.3L34.6,41.2z M33.9,40.6l-0.3-0.3l0.3-0.3
	l0.3,0.3L33.9,40.6z M33.3,40.1l-0.3-0.3l0.3-0.3l0.3,0.3L33.3,40.1z M32.8,39.5l-0.3-0.3l0.3-0.3l0.3,0.3L32.8,39.5z M32.2,38.8
	l-0.3-0.3l0.3-0.3l0.3,0.3L32.2,38.8z M31.5,38.2L31.3,38l0.3-0.3l0.3,0.3L31.5,38.2z M30.9,37.7l-0.1-0.3l0.3-0.3l0.3,0.3
	L30.9,37.7z M30.4,37.1l-0.3-0.3l0.3-0.3l0.3,0.3L30.4,37.1z M29.8,36.5l-0.3-0.3l0.3-0.3l0.3,0.3L29.8,36.5z M29.2,35.8l-0.3-0.3
	l0.3-0.3l0.3,0.3L29.2,35.8z M28.5,35.3l-0.3-0.3l0.3-0.3l0.3,0.3L28.5,35.3z M27.9,34.7l-0.3-0.3l0.3-0.3l0.3,0.3L27.9,34.7z
	 M27.4,34.1l-0.3-0.3l0.3-0.3l0.3,0.3L27.4,34.1z M26.8,33.4l-0.3-0.1l0.3-0.3l0.3,0.3L26.8,33.4z M26.1,32.8l-0.3-0.3l0.3-0.3
	l0.3,0.3L26.1,32.8z M25.5,32.3l-0.1-0.3l0.3-0.3l0.1,0.3L25.5,32.3z M25,31.7l-0.3-0.3l0.3-0.3l0.3,0.3L25,31.7z M24.4,31.1
	l-0.3-0.3l0.3-0.3l0.3,0.3L24.4,31.1z M23.8,30.4l-0.3-0.3l0.3-0.3l0.3,0.3L23.8,30.4z M23.1,29.9l-0.3-0.3l0.3-0.3l0.3,0.3
	L23.1,29.9z M22.6,29.3L22.4,29l0.3-0.3l0.3,0.3L22.6,29.3z"/>
<path id="Path_684" fill="#A7A7A9" d="M21.9,28.4L21.9,28.4l0.1,0.3l0.1-0.1l0,0l0.1-0.1l-0.1-0.1h-0.3V28.4z"/>
<path id="Path_685" fill="#A7A7A9" d="M7.7,43l-0.3-0.3l0.3-0.3l0.3,0.3L7.7,43z M8.3,42.5l-0.3-0.3L8.3,42l0.3,0.3L8.3,42.5z
	 M8.8,41.9l-0.3-0.3l0.3-0.3l0.3,0.3L8.8,41.9z M9.4,41.2l-0.3-0.1l0.3-0.3l0.3,0.3L9.4,41.2z M10.1,40.6l-0.3-0.3l0.3-0.3l0.3,0.3
	L10.1,40.6z M10.7,40.1l-0.3-0.3l0.3-0.3l0.3,0.3L10.7,40.1z M11.2,39.5l-0.3-0.3l0.3-0.3l0.3,0.3L11.2,39.5z M11.8,38.8l-0.3-0.3
	l0.3-0.3l0.3,0.3L11.8,38.8z M12.5,38.2L12.2,38l0.3-0.3l0.3,0.3L12.5,38.2z M13.1,37.7l-0.3-0.3l0.3-0.3l0.3,0.3L13.1,37.7z
	 M13.6,37.1l-0.3-0.3l0.3-0.3l0.3,0.3L13.6,37.1z M14.2,36.5L14,36.2l0.3-0.3l0.3,0.3L14.2,36.5z M14.8,35.8l-0.3-0.3l0.3-0.3
	l0.3,0.3L14.8,35.8z M15.5,35.2L15.2,35l0.3-0.3l0.3,0.3L15.5,35.2z M16,34.7l-0.3-0.3l0.3-0.3l0.3,0.3L16,34.7z M16.6,34.1
	l-0.3-0.3l0.3-0.3l0.3,0.3L16.6,34.1z M17.2,33.4L17,33.3l0.3-0.3l0.3,0.3L17.2,33.4z M17.9,32.8l-0.3-0.3l0.3-0.3l0.3,0.3
	L17.9,32.8z M18.4,32.3l-0.1-0.3l0.3-0.3l0.1,0.3L18.4,32.3z M19,31.7l-0.3-0.3l0.3-0.3l0.3,0.3L19,31.7z M19.6,31.1l-0.3-0.3
	l0.3-0.3l0.3,0.3L19.6,31.1z M20.2,30.6L20,30.3l0.3-0.3l0.3,0.3L20.2,30.6z M20.7,29.9l-0.3-0.3l0.3-0.1l0.3,0.3L20.7,29.9z
	 M21.4,29.3L21.1,29l0.3-0.3l0.3,0.3L21.4,29.3z"/>
<path id="Path_686" fill="#A7A7A9" d="M6.9,43.4l0.3,0.3l0.1-0.1L6.9,43.4L6.9,43.4z"/>
<path id="Path_687" fill="#A7A7A9" d="M21.9,15.6h0.3v-0.1h-0.3V15.6z"/>
<path id="Path_689" fill="#A7A7A9" d="M21.9,28.5h0.3v-0.1h-0.3V28.5z"/>
<path id="Path_690" fill="#A7A7A9" d="M18.5,11.8L18.2,12v0.1h0.3V11.8L18.5,11.8z"/>
<path id="Path_692" fill="#A7A7A9" d="M25.4,11.8v0.3h0.3V12l-0.1-0.1H25.4z"/>
<path id="Path_694" fill="#A7A7A9" d="M25.4,31.9v0.3h0.1l0.1-0.1v-0.1H25.4z"/>
<path id="Path_696" fill="#A7A7A9" d="M18.2,31.9v0.1l0.1,0.1h0.1v-0.3H18.2z"/>
<path id="Path_698" fill="#7B7879" d="M7.1,0.2L6.7,0.5v42.8l0.4,0.4h29.9l0.4-0.4V0.5l-0.4-0.4H7.1z M7.4,1h29v42.1h-29V1z"/>
<path id="Path_699" fill="#7B7879" d="M32.9,39.6H11.1l-0.1-0.1V4.6l0.1-0.1h21.9l0.1,0.1v34.9L32.9,39.6z M11.2,39.3h21.6V4.7H11.2
	V39.3z"/>
<path id="Path_700" fill="#7B7879" d="M30.9,37.6H13.1L13,37.5V6.6l0.1-0.1h18l0.1,0.1v30.9L30.9,37.6z M13.2,37.3h17.6V6.7H13.2
	V37.3z"/>
<path id="Path_701" fill="#7B7879" d="M30.9,6.4l0.3,0.3l5.9-6l-0.3-0.3L30.9,6.4z"/>
<path id="Path_702" fill="#7B7879" d="M30.9,37.6l6,6l0.1-0.3l-6-6L30.9,37.6z"/>
<path id="Path_703" fill="#7B7879" d="M6.9,43.4l0.3,0.3l6-6L13,37.3L6.9,43.4z"/>
<path id="Path_704" fill="#7B7879" d="M6.9,0.7l6,6l0.3-0.3l-6-6L6.9,0.7z"/>
<g>
	<g>
		<polyline fill="none" stroke="#A7A7A9" stroke-width="0.25" stroke-miterlimit="10" points="25.5,31.9 25.5,32.1 25.4,32.1 		"/>
		
			<line fill="none" stroke="#A7A7A9" stroke-width="0.25" stroke-miterlimit="10" stroke-dasharray="0.2343,0.4686" x1="24.8" y1="32.1" x2="18.9" y2="32.1"/>
		<polyline fill="none" stroke="#A7A7A9" stroke-width="0.25" stroke-miterlimit="10" points="18.6,32.1 18.5,32.1 18.5,31.9 		"/>
		
			<line fill="none" stroke="#A7A7A9" stroke-width="0.25" stroke-miterlimit="10" stroke-dasharray="0.254,0.508" x1="18.5" y1="31.3" x2="18.5" y2="12.5"/>
		<polyline fill="none" stroke="#A7A7A9" stroke-width="0.25" stroke-miterlimit="10" points="18.5,12.1 18.5,12 18.6,12 		"/>
		
			<line fill="none" stroke="#A7A7A9" stroke-width="0.25" stroke-miterlimit="10" stroke-dasharray="0.2343,0.4686" x1="19.2" y1="12" x2="25.1" y2="12"/>
		<polyline fill="none" stroke="#A7A7A9" stroke-width="0.25" stroke-miterlimit="10" points="25.4,12 25.5,12 25.5,12.1 		"/>
		
			<line fill="none" stroke="#A7A7A9" stroke-width="0.25" stroke-miterlimit="10" stroke-dasharray="0.254,0.508" x1="25.5" y1="12.7" x2="25.5" y2="31.6"/>
	</g>
</g>
</svg>
