<?xml version="1.0" encoding="utf-8"?>
<!-- Generator: Adobe Illustrator 24.1.0, SVG Export Plug-In . SVG Version: 6.00 Build 0)  -->
<svg version="1.1" id="Layer_1" xmlns="http://www.w3.org/2000/svg" xmlns:xlink="http://www.w3.org/1999/xlink" x="0px" y="0px"
	 viewBox="0 0 44 44" enable-background="new 0 0 44 44" xml:space="preserve">
<linearGradient id="SVGID_1_" gradientUnits="userSpaceOnUse" x1="22" y1="42" x2="22" y2="2">
	<stop  offset="0" style="stop-color:#FFFFFF;stop-opacity:0.3"/>
	<stop  offset="1" style="stop-color:#FFFFFF"/>
</linearGradient>
<path fill="url(#SVGID_1_)" d="M38,18c0,13-16,24-16,24S6,31,6,18C6,9.16,13.16,2,22,2S38,9.16,38,18z"/>
<linearGradient id="SVGID_2_" gradientUnits="userSpaceOnUse" x1="22" y1="41" x2="22" y2="3">
	<stop  offset="0" style="stop-color:#FFFFFF"/>
	<stop  offset="1" style="stop-color:#FFFFFF;stop-opacity:0.3"/>
</linearGradient>
<path fill="url(#SVGID_2_)" d="M37,18c0,12-15,23-15,23S7,30,7,18C7,9.72,13.72,3,22,3S37,9.72,37,18z"/>
<path d="M33.04,14.37c0,0.32-0.04,0.68-0.13,1.07s-0.17,0.58-0.25,0.58c-0.06,0-0.09-0.03-0.09-0.09c0-0.02,0-0.05,0.02-0.08
	c0.16-0.44,0.25-0.91,0.25-1.41c0-0.78-0.23-1.42-0.7-1.89c-0.47-0.48-1.09-0.71-1.85-0.71c-1.04,0-2.1,0.34-3.2,1.02
	c0.94,0.75,1.4,1.59,1.4,2.54c0,0.8-0.32,1.49-0.96,2.08s-1.39,0.89-2.25,0.89c-0.34,0-0.7-0.07-1.08-0.2
	c-0.39-0.13-0.58-0.26-0.58-0.38c0.01-0.04,0.04-0.06,0.07-0.06c0.03,0,0.08,0.02,0.15,0.06c0.39,0.22,0.78,0.33,1.17,0.33
	c0.71,0,1.32-0.3,1.83-0.92c0.51-0.61,0.76-1.34,0.76-2.19c0-0.73-0.26-1.38-0.79-1.95c-1.35,1.01-2.64,2.79-3.85,5.33
	c-0.74,1.54-1.41,2.65-2.02,3.33c-0.61,0.68-1.47,1.29-2.57,1.84c-1.3,0.64-2.47,0.95-3.49,0.95c-0.84,0-1.53-0.19-2.08-0.57
	c-0.56-0.38-0.84-0.86-0.84-1.44c0-0.32,0.09-0.59,0.28-0.82c0.19-0.23,0.42-0.35,0.68-0.35c0.38,0,0.57,0.21,0.57,0.64
	c0,0.21-0.06,0.39-0.19,0.54c-0.13,0.15-0.28,0.22-0.47,0.22c-0.32,0-0.48-0.17-0.47-0.5c0-0.14-0.01-0.2-0.04-0.2
	c-0.1,0-0.15,0.16-0.15,0.5c0,0.52,0.25,0.95,0.76,1.29c0.51,0.34,1.15,0.51,1.92,0.51c1.37,0,2.6-0.5,3.71-1.51
	c0.49-0.44,0.9-0.89,1.24-1.36c0.37-0.5,1.19-1.71,2.45-3.63c0.63-0.95,1.37-1.9,2.23-2.85c0.85-0.95,1.58-1.64,2.18-2.05
	c-0.97-0.83-2.4-1.24-4.28-1.24c-2.63,0-4.92,0.95-6.86,2.85c-1.59,1.56-2.39,3.03-2.39,4.4c0,0.7,0.22,1.25,0.67,1.66
	s1.06,0.62,1.82,0.62c1.25,0,2.55-0.6,3.89-1.8c1.34-1.2,2.01-2.37,2.01-3.51c0-0.9-0.46-1.36-1.39-1.36
	c-0.93,0-1.92,0.52-2.99,1.55s-1.59,2.01-1.59,2.92c0,0.22,0.07,0.42,0.22,0.58s0.33,0.24,0.53,0.24c0.11,0,0.16,0.03,0.16,0.08
	c0,0.05-0.06,0.07-0.18,0.07c-0.3,0-0.55-0.13-0.76-0.41c-0.21-0.27-0.31-0.6-0.31-1c0-0.97,0.53-1.92,1.6-2.84
	c1.07-0.92,2.16-1.38,3.28-1.38c1.07,0,1.61,0.5,1.61,1.49c0,1.21-0.68,2.43-2.05,3.67c-1.37,1.24-2.71,1.85-4.04,1.85
	c-0.87,0-1.56-0.26-2.08-0.78c-0.52-0.52-0.78-1.22-0.78-2.09c0-1.76,1-3.37,2.99-4.83s4.19-2.18,6.61-2.18
	c1.83,0,3.37,0.41,4.62,1.23c1.14-0.71,2.24-1.07,3.31-1.07c0.84,0,1.51,0.25,2.01,0.75C32.79,12.9,33.04,13.56,33.04,14.37z"/>
</svg>
