<?xml version="1.0" encoding="utf-8"?>
<!-- Generator: Adobe Illustrator 24.2.0, SVG Export Plug-In . SVG Version: 6.00 Build 0)  -->
<svg version="1.1" id="Paradise_Floorplan" xmlns="http://www.w3.org/2000/svg" xmlns:xlink="http://www.w3.org/1999/xlink" x="0px"
	 y="0px" viewBox="0 0 1440 1280" style="enable-background:new 0 0 1440 1280;" xml:space="preserve">
<style type="text/css">
	.st0{fill:none;stroke:#000000;stroke-width:0.7;stroke-miterlimit:10;}
	.st1{display:none;}
	.st2{display:inline;}
	.st3{font-family:'Avenir-Medium';}
	.st4{font-size:20px;}
	.st5{font-size:22px;}
	.st6{font-size:18px;}
	.st7{font-size:17.9998px;}
	.st8{font-size:14px;}
	.st9{enable-background:new    ;}
</style>
<g id="Floorplan">
	<path id="Path_724" class="st0" d="M1108.8,1057.8v57H411.2v27.4h-53.8v-27.4h-36.2v42.4H170.8v-54.8h-106V86.6h703.8v-52h29.2
		v52.2H997"/>
	<path id="Path_725" class="st0" d="M997,211.4V34.6h33v176.8"/>
	<path id="Path_727" class="st0" d="M1273.4,270.4h79.6V357h-79.6"/>
	<rect id="Rectangle_61" x="1273.4" y="519.4" class="st0" width="102.2" height="114.8"/>
	<path id="Path_728" class="st0" d="M1157.8,362.6V228.2l-16.8-16.8H804v133.2h40.8"/>
	<path id="Path_729" class="st0" d="M950.4,1115v-57h236l38.8-39v-50.2l-67.2-44.4l-62.6,60.2H715.8"/>
	<path id="Path_730" class="st0" d="M1108.8,86.6"/>
	<line id="Line_28" class="st0" x1="1030" y1="146.8" x2="1108.8" y2="146.8"/>
	<line id="Line_29" class="st0" x1="844.8" y1="211.4" x2="844.8" y2="763"/>
	<path id="Path_731" class="st0" d="M886.2,86.6v28.6h8.4v15.6h4.2v25.6h-9.6v36.2h47.4v-62h-26v48.2"/>
	<line id="Line_30" class="st0" x1="910.8" y1="86.6" x2="910.8" y2="104.6"/>
	<line id="Line_31" class="st0" x1="936.8" y1="86.6" x2="936.8" y2="104.6"/>
	<path id="Path_732" class="st0" d="M1157.8,501.8l27-51.4v-34.8l-27-53l-41,38v50.2L1157.8,501.8"/>
	<line id="Line_32" class="st0" x1="1157.8" y1="828" x2="1273.4" y2="828"/>
	<line id="Line_33" class="st0" x1="1200.8" y1="828" x2="1200.8" y2="924.2"/>
	<line id="Line_34" class="st0" x1="1200.8" y1="872.4" x2="1273.4" y2="872.4"/>
	<path id="Path_733" class="st0" d="M549,86.6v846.8h289.8"/>
	<path id="Path_734" class="st0" d="M1201,126.4L1165.8,84c-8.8,4.6-14,14.2-12.6,24l-9.6,12l-34.8-33.4H1030"/>
	<path id="Path_735" class="st0" d="M1273.4,519.4V214.2l-38.4-46.4"/>
	<path id="Path_736" class="st0" d="M1185,146.8v34.4h50.2v-54.8h-34L1185,146.8z"/>
	<path id="Path_737" class="st0" d="M1124,101.2l-15.2,17.2v92.8"/>
	<line id="Line_35" class="st0" x1="670.2" y1="933.4" x2="670.2" y2="1115"/>
	<path id="Path_738" class="st0" d="M64.8,749.6h178.8l-51.8,34.8v211.2"/>
	<path id="Path_739" class="st0" d="M260.4,1157.4V1094c17.8-8,30.4-28.6,30.4-48.8c0-21-13.8-42.4-32.8-49.6h74.8"/>
	<path id="Path_740" class="st0" d="M228.4,1157.4V1094c-17.8-8-30.4-28.6-30.4-48.8c0-21,13.8-42.2,32.6-49.4h2H64.8"/>
	<path id="Path_741" class="st0" d="M219.4,1157.4v19.8h49.4v-19.8"/>
	<path id="Path_742" class="st0" d="M844.8,496.6H804v216.6h40.8"/>
	<path id="Path_743" class="st0" d="M844.8,427.2H804v32.4l40.8,37"/>
	<path id="Path_744" class="st0" d="M844.8,427.2L804,390.4h40.8"/>
	<line id="Line_36" class="st0" x1="1117" y1="451" x2="804" y2="451"/>
	<line id="Line_37" class="st0" x1="1273.4" y1="451" x2="1184.6" y2="451"/>
	<path id="Path_745" class="st0" d="M715.8,933.4v102.2h81.8"/>
	<line id="Line_38" class="st0" x1="844.8" y1="743" x2="1157.8" y2="743"/>
	<path id="Path_747" class="st0" d="M1157.8,501.8V530l-29.8,17.4v66l29.8,17.4v293.8h115.6V634.2"/>
	<path id="Path_748" class="st0" d="M918.8,1115v-59.4h-17l-24.6,24.8l-44.4-44.8l22.2-22.4h-57.4"/>
	<path id="Path_749" class="st0" d="M918.8,1055.6l-41.6,42l-53-53.4l-26.6,26.8v-86.4"/>
	<line id="Line_39" class="st0" x1="877.2" y1="1097.6" x2="877.2" y2="1115"/>
	<line id="Line_40" class="st0" x1="1056.8" y1="1057.8" x2="1056.8" y2="1115"/>
	<line id="Line_41" class="st0" x1="1094" y1="1083.2" x2="1094" y2="1115"/>
	<path id="Path_750" class="st0" d="M804,713v8.8l53.2,53.4v56.4l-18.4,15.6v137.4"/>
	<path id="Path_751" class="st0" d="M838.8,847.2v-90.4h-41.2v33l41.2,38.2"/>
	<line id="Line_42" class="st0" x1="797.6" y1="780" x2="838.8" y2="780"/>
	<line id="Line_43" class="st0" x1="816.2" y1="780" x2="816.2" y2="807"/>
	<line id="Line_44" class="st0" x1="821.4" y1="713" x2="821.4" y2="756.8"/>
	<line id="Line_45" class="st0" x1="64.8" y1="310.8" x2="549" y2="310.8"/>
	<path id="Path_752" class="st0" d="M259.8,310.8v-50.2h98v50.2"/>
	<path id="Path_753" class="st0" d="M549,749.6H287.2c9.6,16,15.6,33.8,17.6,52.4c2.8,29.4,8.2,55.4,27.8,65.8"/>
	<line id="Line_46" class="st0" x1="332.8" y1="749.6" x2="332.8" y2="995.6"/>
	<path id="Path_754" class="st0" d="M332.8,941.2c-15.8-2.2-28-17.2-28-35.6c0-18.2,12.2-33.4,27.8-35.6"/>
	<path id="Path_755" class="st0" d="M332.8,941.4c14.2,0,25.8,12.2,25.8,27s-11.6,27-25.8,27"/>
	<line id="Line_47" class="st0" x1="332.8" y1="819.8" x2="549" y2="819.8"/>
	<line id="Line_48" class="st0" x1="354" y1="819.8" x2="354" y2="953.2"/>
	<line id="Line_49" class="st0" x1="354" y1="896" x2="549" y2="896"/>
	<line id="Line_50" class="st0" x1="536" y1="132.8" x2="562" y2="132.8"/>
	<line id="Line_51" class="st0" x1="536" y1="192" x2="562" y2="192"/>
	<path id="Path_756" class="st0" d="M1273.4,280.8h14.8l-9,9.2l9.6,9.6h-15.4"/>
	<path id="Path_757" class="st0" d="M1273.4,328.2h14.8l-9,9l9.6,9.6h-15.4"/>
	<path id="Path_758" class="st0" d="M1273.4,533.6h17L1280,544l11,11.2h-17.8"/>
	<path id="Path_759" class="st0" d="M1273.4,597.8h17l-10.4,10.6l11,11.2h-17.8"/>
	<path id="Path_761" class="st0" d="M1175.2,1032.6h-25.8l-15.6-15.6l48.4-48.8l21.2,13.6v22.2L1175.2,1032.6z"/>
	<g>
		<path d="M1030,34.6l0.4,52.2h78.4l34.8,33.2l9.6-12c-1.4-9.8,3.6-19.6,12.6-24l35.2,42.6h34v41.2l38.4,46.4v56.2h79.6V357h-79.6
			v162.4l0,0h101.8v114.8h-101.8v290.2h-115.6l0,0l67.2,44.4v50.2l-38.8,39l-77-0.2l-0.6,0.2v57H411.2v27.4h-53.8V1115h-36.2v42.4
			H170.8v-54.8h-106V86.6h703.8v-52h29.2v52.2h198.6l0.6-52.2L1030,34.6 M1038,26.6h-8h-33h-8v8l-0.6,44.2H805.8V34.6v-8h-8h-29.2
			h-8v8v44.2H64.8h-8v8v1015.8v8h8h98v46.8v8h8h150.4h8v-8V1123h20.2v19.4v8h8h53.8h8v-8V1123h689.6h8v-8v-49.2l69.4,0.2h3.4
			l2.4-2.4l38.8-39l2.4-2.4v-3.2v-50.2v-4.4l-3.6-2.4l-45-29.6h88.8h8v-8V642.2h93.8h8v-8V519.4v-8h-8h-93.8V365h71.6h8v-8v-86.6v-8
			h-8h-71.6v-48.2v-2.8l-1.8-2.2l-36.4-44.2v-38.6v-8h-8h-30.4L1172,78.8l-4-5l-5.8,3c-10.8,5.6-17.4,16.8-17.2,28.6l-2.2,2.8
			l-28.4-27.4l-2.4-2.2h-3.2h-70.6l-0.2-44.2V26.6L1038,26.6z"/>
	</g>
</g>
<g id="Text_Live" class="st1">
	<text transform="matrix(1 0 0 1 956.5 318.7461)" class="st2 st3 st4">QUEEN</text>
	<text transform="matrix(1 0 0 1 960.0625 349.9775)" class="st2 st3 st5">ANNE</text>
	<text transform="matrix(1 0 0 1 634.6836 503.5254)" class="st2 st3 st5">KITCHEN</text>
	<text transform="matrix(6.123234e-17 1 -1 6.123234e-17 816.2305 570.1895)" class="st2 st3 st5">STAGE</text>
	<text transform="matrix(6.123234e-17 1 -1 6.123234e-17 816.2305 242.1895)" class="st2 st3 st5">STAGE</text>
	<text transform="matrix(1 0 0 1 272.7622 516.3164)" class="st2 st3 st5">CLASSIC</text>
	<text transform="matrix(1 0 0 1 280.3018 545.5479)" class="st2 st3 st5">ROOM</text>
	<text transform="matrix(1 0 0 1 459.5176 1001.7656)" class="st2 st3 st5">PRINCE</text>
	<text transform="matrix(1 0 0 1 463.2285 1030.998)" class="st2 st3 st5">ROOM</text>
	<text transform="matrix(1 0 0 1 253.5601 178.9619)" class="st2 st3 st5">LOADING</text>
	<text transform="matrix(1 0 0 1 267.8042 208.1934)" class="st2 st3 st5">DOCKS</text>
	<text transform="matrix(1 0 0 1 274.4702 292.332)" class="st2 st3 st5">STAGE</text>
	<text transform="matrix(1 0 0 1 956.5 579.8438)" class="st2 st3 st4">QUEEN</text>
	<text transform="matrix(1 0 0 1 960.9648 611.0762)" class="st2 st3 st5">MARY</text>
	<text transform="matrix(1 0 0 1 952.9453 853.4902)" class="st2 st3 st5">QUEEN</text>
	<text transform="matrix(1 0 0 1 941.3848 882.7217)" class="st2 st3 st5">VICTORIA</text>
	<text transform="matrix(1 0 0 1 1036.4922 112.6953)" class="st2 st3 st6">REST</text>
	<text transform="matrix(1 0 0 1 1035.752 130.9258)" class="st2 st3 st6">ROOMS</text>
	<text transform="matrix(1 0 0 1 1178.0703 318.1299)" class="st2 st3 st4">LOBBY</text>
	<text transform="matrix(1 0 0 1 1178.0703 726.3301)" class="st2 st3 st4">LOBBY</text>
	<text transform="matrix(1 0 0 1 966.3984 1025.8379)" class="st2 st3 st4">LOBBY</text>
	<text transform="matrix(1 0 0 1 987.3457 1149.1416)" class="st2 st3 st5">ENTRANCE</text>
	<text transform="matrix(1 0 0 1 348.3042 1184.084)" class="st2 st3 st5">PRINCE</text>
	<text transform="matrix(1 0 0 1 329.9404 1209.8613)" class="st2 st3 st5">ENTRANCE</text>
	<text transform="matrix(1 0 0 1 196.9902 1214.9355)" class="st2 st3 st5">CLASSIC</text>
	<text transform="matrix(1 0 0 1 181.1562 1244.4883)" class="st2 st3 st5">ENTRANCE</text>
	<text transform="matrix(1 0 0 1 97.96 867.9502)" class="st2 st3 st5">REST</text>
	<text transform="matrix(1 0 0 1 82.126 893.7285)" class="st2 st3 st5">ROOMS</text>
	<text transform="matrix(1 0 0 1 94.4258 1059.0039)" class="st2 st3 st5">OFFICE</text>
	<text transform="matrix(1 0 0 1 1210.0742 848.5322)" class="st2 st3 st6">REST</text>
	<text transform="matrix(1 0 0 1 1209.334 866.7617)" class="st2 st3 st6">ROOM</text>
	<text transform="matrix(1 0 0 1 1210.0742 897.5879)" class="st2 st3 st6">REST</text>
	<text transform="matrix(1 0 0 1 1209.334 915.8174)" class="st2 st3 st6">ROOM</text>
	<text transform="matrix(0.7071 -0.7071 0.7071 0.7071 1107.4565 1004.5323)" class="st2 st3 st7">CIRCULAR </text>
	<text transform="matrix(0.7071 -0.7071 0.7071 0.7071 1141.1146 1001.4208)" class="st2 st3 st7">BAR</text>
	<text transform="matrix(6.123234e-17 1 -1 6.123234e-17 339.3281 955.4971)" class="st2 st3 st8">BAR</text>
	<text transform="matrix(6.123234e-17 1 -1 6.123234e-17 1145.3242 543.2637)" class="st2 st3 st8">ENTRANCE</text>
	<text transform="matrix(6.123234e-17 1 -1 6.123234e-17 315.3281 891.4971)" class="st2 st3 st8">BAR</text>
	<text transform="matrix(6.123234e-17 1 -1 6.123234e-17 315.3281 754.667)" class="st2 st3 st8">WATERFALL</text>
	<text transform="matrix(6.123234e-17 1 -1 6.123234e-17 1337.3242 275.2637)" class="st2 st3 st8">ENTRANCE</text>
	<g class="st2">
		<text transform="matrix(6.123234e-17 1 -1 6.123234e-17 1149.3242 381.9619)" class="st3 st6">TWO FACE </text>
		<text transform="matrix(6.123234e-17 1 -1 6.123234e-17 1127.7227 411.5625)" class="st3 st6">BAR</text>
	</g>
	<text transform="matrix(6.123234e-17 1 -1 6.123234e-17 1350.2305 530.1895)" class="st2 st3 st5">CANOPY</text>
</g>
<g id="Text_Expanded">
	<g class="st9">
		<path d="M972.9,318.7h-8.2c-1,0-1.9-0.2-2.8-0.5c-0.9-0.4-1.7-0.9-2.3-1.5c-0.7-0.6-1.2-1.4-1.6-2.3s-0.6-1.9-0.6-2.9
			c0-1,0.2-2,0.6-2.9s0.9-1.7,1.5-2.3s1.4-1.2,2.3-1.5c0.9-0.4,1.8-0.5,2.9-0.5c1,0,1.9,0.2,2.8,0.5c0.9,0.4,1.6,0.9,2.3,1.5
			c0.7,0.6,1.2,1.4,1.5,2.2s0.6,1.8,0.6,2.8c0,0.6-0.1,1.2-0.2,1.8c-0.1,0.6-0.3,1.1-0.6,1.6c-0.3,0.5-0.6,1-1,1.4
			c-0.4,0.4-0.9,0.7-1.4,1v0h4.2V318.7z M964.7,316.9c0.8,0,1.5-0.1,2.1-0.4s1.2-0.7,1.7-1.2s0.8-1.1,1.1-1.8
			c0.3-0.7,0.4-1.4,0.4-2.2c0-0.7-0.1-1.4-0.4-2.1s-0.6-1.2-1.1-1.7s-1-0.9-1.7-1.1c-0.6-0.3-1.3-0.4-2.1-0.4
			c-0.7,0-1.4,0.1-2.1,0.4c-0.6,0.3-1.2,0.7-1.6,1.1c-0.5,0.5-0.8,1-1.1,1.7c-0.3,0.6-0.4,1.3-0.4,2.1c0,0.8,0.1,1.5,0.4,2.2
			c0.3,0.7,0.6,1.3,1.1,1.8s1,0.9,1.7,1.2C963.2,316.8,963.9,316.9,964.7,316.9z"/>
		<path d="M976.6,304.6v8.7c0,0.4,0.1,0.9,0.2,1.4s0.3,0.9,0.6,1.3c0.3,0.4,0.6,0.7,1.1,1c0.5,0.3,1,0.4,1.7,0.4s1.2-0.1,1.7-0.4
			s0.8-0.6,1.1-1c0.3-0.4,0.5-0.8,0.6-1.3s0.2-0.9,0.2-1.4v-8.7h1.9v9c0,0.8-0.1,1.6-0.4,2.2c-0.3,0.7-0.7,1.3-1.2,1.8
			c-0.5,0.5-1.1,0.9-1.7,1.1c-0.7,0.3-1.4,0.4-2.2,0.4s-1.5-0.1-2.2-0.4s-1.2-0.6-1.7-1.1c-0.5-0.5-0.9-1.1-1.2-1.8
			c-0.3-0.7-0.4-1.4-0.4-2.2v-9H976.6z"/>
		<path d="M989,304.6h9.1v1.8H991v4.2h6.7v1.8H991v4.5h7.6v1.8H989V304.6z"/>
		<path d="M1001.3,304.6h9.1v1.8h-7.2v4.2h6.7v1.8h-6.7v4.5h7.6v1.8h-9.5V304.6z"/>
		<path d="M1013.5,304.6h2.5l7.8,11.6h0v-11.6h1.9v14.2h-2.4l-7.9-11.6h0v11.6h-1.9V304.6z"/>
	</g>
	<g class="st9">
		<path d="M966.9,334.4h1.9l6.7,15.6h-2.5l-1.6-3.8h-7.4l-1.5,3.8h-2.5L966.9,334.4z M970.7,344.3l-2.9-7.1h0l-2.9,7.1H970.7z"/>
		<path d="M977.6,334.4h2.8l8.6,12.8h0v-12.8h2.1V350h-2.7l-8.7-12.8h0V350h-2.1V334.4z"/>
		<path d="M995.1,334.4h2.8l8.6,12.8h0v-12.8h2.1V350h-2.7l-8.7-12.8h0V350h-2.1V334.4z"/>
		<path d="M1012.6,334.4h10.1v2h-7.9v4.6h7.4v2h-7.4v5h8.3v2h-10.5V334.4z"/>
	</g>
	<g class="st9">
		<path d="M636.7,487.9h2.1v6.7h0.2l6.9-6.7h2.9l-7.5,7.2l8,8.4h-3.1l-7.3-7.8h-0.2v7.8h-2.1V487.9z"/>
		<path d="M650.9,487.9h2.1v15.6h-2.1V487.9z"/>
		<path d="M660.3,489.9h-5v-2h12.1v2h-5v13.6h-2.1V489.9z"/>
		<path d="M680.5,491.3c-0.4-0.6-1-1-1.7-1.3c-0.7-0.3-1.4-0.5-2.1-0.5c-0.9,0-1.7,0.2-2.4,0.5c-0.7,0.3-1.3,0.8-1.8,1.4
			c-0.5,0.6-0.9,1.2-1.2,2c-0.3,0.8-0.4,1.6-0.4,2.5c0,0.8,0.1,1.6,0.4,2.3c0.3,0.7,0.6,1.4,1.1,1.9c0.5,0.6,1.1,1,1.8,1.3
			c0.7,0.3,1.5,0.5,2.4,0.5c0.9,0,1.7-0.2,2.4-0.5c0.7-0.4,1.2-0.9,1.7-1.5l1.8,1.3c-0.1,0.2-0.3,0.4-0.6,0.7
			c-0.3,0.3-0.7,0.6-1.2,0.9c-0.5,0.3-1.1,0.6-1.7,0.8c-0.7,0.2-1.5,0.3-2.4,0.3c-1.2,0-2.3-0.2-3.3-0.7c-1-0.5-1.8-1.1-2.5-1.8
			c-0.7-0.8-1.2-1.6-1.6-2.6c-0.4-1-0.5-1.9-0.5-2.9c0-1.2,0.2-2.3,0.6-3.3c0.4-1,0.9-1.9,1.7-2.6c0.7-0.7,1.6-1.3,2.6-1.7
			c1-0.4,2.1-0.6,3.3-0.6c1,0,2,0.2,3,0.6c1,0.4,1.8,1,2.4,1.8L680.5,491.3z"/>
		<path d="M685.2,487.9h2.1v6.5h8.1v-6.5h2.1v15.6h-2.1v-7.1h-8.1v7.1h-2.1V487.9z"/>
		<path d="M701.5,487.9h10.1v2h-7.9v4.6h7.4v2h-7.4v5h8.3v2h-10.5V487.9z"/>
		<path d="M714.9,487.9h2.8l8.6,12.8h0v-12.8h2.1v15.6h-2.7l-8.7-12.8h0v12.8h-2.1V487.9z"/>
	</g>
	<g class="st9">
		<path d="M819.5,572.7c-0.6,0.4-1,0.9-1.3,1.5c-0.3,0.6-0.4,1.2-0.4,1.8c0,0.4,0.1,0.7,0.2,1.1s0.3,0.7,0.5,1s0.5,0.5,0.8,0.7
			c0.3,0.2,0.7,0.3,1.1,0.3c0.6,0,1.1-0.2,1.4-0.6c0.3-0.4,0.6-0.9,0.8-1.4s0.4-1.2,0.6-1.8c0.2-0.7,0.5-1.3,0.8-1.8
			c0.4-0.6,0.8-1,1.4-1.4c0.6-0.4,1.4-0.6,2.4-0.6c0.5,0,0.9,0.1,1.5,0.3c0.5,0.2,1,0.5,1.4,0.9c0.4,0.4,0.8,1,1.1,1.6
			c0.3,0.7,0.4,1.5,0.4,2.4c0,0.9-0.1,1.7-0.4,2.4c-0.2,0.8-0.7,1.5-1.4,2l-1.6-1.7c0.4-0.3,0.7-0.6,1-1.1c0.2-0.5,0.4-1,0.4-1.7
			c0-0.6-0.1-1.1-0.2-1.5c-0.2-0.4-0.4-0.7-0.6-0.9c-0.2-0.2-0.5-0.4-0.8-0.5c-0.3-0.1-0.5-0.1-0.8-0.1c-0.7,0-1.2,0.2-1.5,0.6
			c-0.4,0.4-0.6,0.9-0.9,1.4c-0.2,0.6-0.4,1.2-0.6,1.8c-0.2,0.7-0.4,1.3-0.7,1.8s-0.7,1-1.3,1.4c-0.5,0.4-1.3,0.6-2.2,0.6
			c-0.7,0-1.4-0.1-2-0.4c-0.6-0.3-1.1-0.7-1.5-1.2c-0.4-0.5-0.7-1.1-0.9-1.7c-0.2-0.7-0.3-1.4-0.3-2.1c0-1,0.2-1.9,0.5-2.8
			c0.4-0.9,0.9-1.6,1.6-2.1L819.5,572.7z"/>
		<path d="M829.8,587.7v-5h2v12.1h-2v-5h-13.6v-2.1H829.8z"/>
		<path d="M831.8,599.9v1.9l-15.6,6.7V606l3.8-1.6v-7.4l-3.8-1.5V593L831.8,599.9z M821.9,603.7l7.1-2.9v0l-7.1-2.9V603.7z"/>
		<path d="M824.9,623.8h-7.7c-0.2-0.4-0.4-0.8-0.6-1.3c-0.2-0.5-0.3-1-0.5-1.5c-0.1-0.5-0.2-1-0.3-1.6s-0.1-1-0.1-1.5
			c0-1.3,0.2-2.5,0.7-3.5c0.4-1,1-1.9,1.8-2.6c0.7-0.7,1.6-1.3,2.6-1.6c1-0.4,2-0.6,3.1-0.6c1.2,0,2.2,0.2,3.2,0.6
			c1,0.4,1.9,1,2.6,1.7c0.7,0.7,1.3,1.6,1.7,2.6c0.4,1,0.6,2.1,0.6,3.3c0,1.4-0.2,2.6-0.5,3.5s-0.9,1.7-1.5,2.3l-1.6-1.5
			c0.6-0.6,1-1.3,1.3-2s0.4-1.5,0.4-2.3c0-0.9-0.2-1.7-0.5-2.4c-0.3-0.7-0.8-1.3-1.3-1.8s-1.2-0.9-2-1.2c-0.8-0.3-1.6-0.4-2.4-0.4
			c-0.9,0-1.7,0.2-2.5,0.5c-0.8,0.3-1.4,0.7-2,1.3c-0.6,0.5-1,1.2-1.3,1.9s-0.5,1.5-0.5,2.4c0,0.7,0.1,1.5,0.2,2.1
			c0.1,0.7,0.3,1.2,0.6,1.7h4.3v-3.5h2V623.8z"/>
		<path d="M831.8,627.6v10.1h-2v-7.9h-4.6v7.4h-2v-7.4h-5v8.3h-2v-10.5H831.8z"/>
	</g>
	<g class="st9">
		<path d="M819.5,244.7c-0.6,0.4-1,0.9-1.3,1.5c-0.3,0.6-0.4,1.2-0.4,1.8c0,0.4,0.1,0.7,0.2,1.1s0.3,0.7,0.5,1s0.5,0.5,0.8,0.7
			c0.3,0.2,0.7,0.3,1.1,0.3c0.6,0,1.1-0.2,1.4-0.6s0.6-0.9,0.8-1.4c0.2-0.6,0.4-1.2,0.6-1.8s0.5-1.3,0.8-1.8c0.4-0.6,0.8-1,1.4-1.4
			s1.4-0.6,2.4-0.6c0.5,0,0.9,0.1,1.5,0.3c0.5,0.2,1,0.5,1.4,0.9c0.4,0.4,0.8,1,1.1,1.6c0.3,0.7,0.4,1.5,0.4,2.4
			c0,0.9-0.1,1.7-0.4,2.4c-0.2,0.8-0.7,1.5-1.4,2l-1.6-1.7c0.4-0.3,0.7-0.6,1-1.1c0.2-0.5,0.4-1,0.4-1.7c0-0.6-0.1-1.1-0.2-1.5
			c-0.2-0.4-0.4-0.7-0.6-0.9s-0.5-0.4-0.8-0.5c-0.3-0.1-0.5-0.1-0.8-0.1c-0.7,0-1.2,0.2-1.5,0.6c-0.4,0.4-0.6,0.9-0.9,1.4
			c-0.2,0.6-0.4,1.2-0.6,1.8c-0.2,0.7-0.4,1.3-0.7,1.8c-0.3,0.6-0.7,1-1.3,1.4c-0.5,0.4-1.3,0.6-2.2,0.6c-0.7,0-1.4-0.1-2-0.4
			c-0.6-0.3-1.1-0.7-1.5-1.2c-0.4-0.5-0.7-1.1-0.9-1.7c-0.2-0.7-0.3-1.4-0.3-2.1c0-1,0.2-1.9,0.5-2.8c0.4-0.9,0.9-1.6,1.6-2.1
			L819.5,244.7z"/>
		<path d="M829.8,259.7v-5h2v12.1h-2v-5h-13.6v-2.1H829.8z"/>
		<path d="M831.8,271.9v1.9l-15.6,6.7V278l3.8-1.6v-7.4l-3.8-1.5V265L831.8,271.9z M821.9,275.7l7.1-2.9v0l-7.1-2.9V275.7z"/>
		<path d="M824.9,295.8h-7.7c-0.2-0.4-0.4-0.8-0.6-1.3c-0.2-0.5-0.3-1-0.5-1.5c-0.1-0.5-0.2-1-0.3-1.6c-0.1-0.5-0.1-1-0.1-1.5
			c0-1.3,0.2-2.5,0.7-3.5c0.4-1,1-1.9,1.8-2.6c0.7-0.7,1.6-1.3,2.6-1.6c1-0.4,2-0.6,3.1-0.6c1.2,0,2.2,0.2,3.2,0.6
			c1,0.4,1.9,1,2.6,1.7s1.3,1.6,1.7,2.6c0.4,1,0.6,2.1,0.6,3.3c0,1.4-0.2,2.6-0.5,3.5c-0.4,0.9-0.9,1.7-1.5,2.3l-1.6-1.5
			c0.6-0.6,1-1.3,1.3-2c0.2-0.7,0.4-1.5,0.4-2.3c0-0.9-0.2-1.7-0.5-2.4c-0.3-0.7-0.8-1.3-1.3-1.8c-0.6-0.5-1.2-0.9-2-1.2
			c-0.8-0.3-1.6-0.4-2.4-0.4c-0.9,0-1.7,0.2-2.5,0.5c-0.8,0.3-1.4,0.7-2,1.3c-0.6,0.5-1,1.2-1.3,1.9c-0.3,0.7-0.5,1.5-0.5,2.4
			c0,0.7,0.1,1.5,0.2,2.1c0.1,0.7,0.3,1.2,0.6,1.7h4.3v-3.5h2V295.8z"/>
		<path d="M831.8,299.6v10.1h-2v-7.9h-4.6v7.4h-2v-7.4h-5v8.3h-2v-10.5H831.8z"/>
	</g>
	<g class="st9">
		<path d="M285.6,504.1c-0.4-0.6-1-1-1.7-1.3c-0.7-0.3-1.4-0.5-2.1-0.5c-0.9,0-1.7,0.2-2.4,0.5c-0.7,0.3-1.3,0.8-1.8,1.4
			c-0.5,0.6-0.9,1.2-1.2,2c-0.3,0.8-0.4,1.6-0.4,2.5c0,0.8,0.1,1.6,0.4,2.3c0.3,0.7,0.6,1.4,1.1,1.9s1.1,1,1.8,1.3
			c0.7,0.3,1.5,0.5,2.4,0.5c0.9,0,1.7-0.2,2.4-0.5c0.7-0.4,1.2-0.9,1.7-1.5l1.8,1.3c-0.1,0.2-0.3,0.4-0.6,0.7s-0.7,0.6-1.2,0.9
			c-0.5,0.3-1.1,0.6-1.7,0.8c-0.7,0.2-1.5,0.3-2.4,0.3c-1.2,0-2.3-0.2-3.3-0.7c-1-0.5-1.8-1.1-2.5-1.8c-0.7-0.8-1.2-1.6-1.6-2.6
			c-0.4-1-0.5-1.9-0.5-2.9c0-1.2,0.2-2.3,0.6-3.3c0.4-1,0.9-1.9,1.7-2.6c0.7-0.7,1.6-1.3,2.6-1.7c1-0.4,2.1-0.6,3.3-0.6
			c1,0,2,0.2,3,0.6c1,0.4,1.8,1,2.4,1.8L285.6,504.1z"/>
		<path d="M290.3,500.7h2.1v13.6h7.2v2h-9.3V500.7z"/>
		<path d="M306.6,500.7h1.9l6.7,15.6h-2.5l-1.6-3.8h-7.4l-1.5,3.8h-2.5L306.6,500.7z M310.3,510.6l-2.9-7.1h0l-2.9,7.1H310.3z"/>
		<path d="M317.6,513.1c0.4,0.6,0.9,1,1.5,1.3c0.6,0.3,1.2,0.4,1.8,0.4c0.4,0,0.7-0.1,1.1-0.2s0.7-0.3,1-0.5s0.5-0.5,0.7-0.8
			c0.2-0.3,0.3-0.7,0.3-1.1c0-0.6-0.2-1.1-0.6-1.4s-0.9-0.6-1.4-0.8c-0.6-0.2-1.2-0.4-1.8-0.6s-1.3-0.5-1.8-0.8
			c-0.6-0.4-1-0.8-1.4-1.4s-0.6-1.4-0.6-2.4c0-0.5,0.1-0.9,0.3-1.5c0.2-0.5,0.5-1,0.9-1.4c0.4-0.4,1-0.8,1.6-1.1
			c0.7-0.3,1.5-0.4,2.4-0.4c0.9,0,1.7,0.1,2.4,0.4c0.8,0.2,1.5,0.7,2,1.4l-1.7,1.6c-0.3-0.4-0.6-0.7-1.1-1c-0.5-0.2-1-0.4-1.7-0.4
			c-0.6,0-1.1,0.1-1.5,0.2c-0.4,0.2-0.7,0.4-0.9,0.6s-0.4,0.5-0.5,0.8c-0.1,0.3-0.1,0.5-0.1,0.8c0,0.7,0.2,1.2,0.6,1.5
			c0.4,0.4,0.9,0.6,1.4,0.9c0.6,0.2,1.2,0.4,1.8,0.6c0.7,0.2,1.3,0.4,1.8,0.7c0.6,0.3,1,0.7,1.4,1.3c0.4,0.5,0.6,1.3,0.6,2.2
			c0,0.7-0.1,1.4-0.4,2c-0.3,0.6-0.7,1.1-1.2,1.5c-0.5,0.4-1.1,0.7-1.7,0.9c-0.7,0.2-1.4,0.3-2.1,0.3c-1,0-1.9-0.2-2.8-0.5
			c-0.9-0.4-1.6-0.9-2.1-1.6L317.6,513.1z"/>
		<path d="M329.9,513.1c0.4,0.6,0.9,1,1.5,1.3c0.6,0.3,1.2,0.4,1.8,0.4c0.4,0,0.7-0.1,1.1-0.2s0.7-0.3,1-0.5s0.5-0.5,0.7-0.8
			c0.2-0.3,0.3-0.7,0.3-1.1c0-0.6-0.2-1.1-0.6-1.4s-0.9-0.6-1.4-0.8c-0.6-0.2-1.2-0.4-1.8-0.6s-1.3-0.5-1.8-0.8
			c-0.6-0.4-1-0.8-1.4-1.4s-0.6-1.4-0.6-2.4c0-0.5,0.1-0.9,0.3-1.5c0.2-0.5,0.5-1,0.9-1.4c0.4-0.4,1-0.8,1.6-1.1
			c0.7-0.3,1.5-0.4,2.4-0.4c0.9,0,1.7,0.1,2.4,0.4c0.8,0.2,1.5,0.7,2,1.4l-1.7,1.6c-0.3-0.4-0.6-0.7-1.1-1c-0.5-0.2-1-0.4-1.7-0.4
			c-0.6,0-1.1,0.1-1.5,0.2c-0.4,0.2-0.7,0.4-0.9,0.6s-0.4,0.5-0.5,0.8c-0.1,0.3-0.1,0.5-0.1,0.8c0,0.7,0.2,1.2,0.6,1.5
			c0.4,0.4,0.9,0.6,1.4,0.9c0.6,0.2,1.2,0.4,1.8,0.6c0.7,0.2,1.3,0.4,1.8,0.7c0.6,0.3,1,0.7,1.4,1.3c0.4,0.5,0.6,1.3,0.6,2.2
			c0,0.7-0.1,1.4-0.4,2c-0.3,0.6-0.7,1.1-1.2,1.5c-0.5,0.4-1.1,0.7-1.7,0.9c-0.7,0.2-1.4,0.3-2.1,0.3c-1,0-1.9-0.2-2.8-0.5
			c-0.9-0.4-1.6-0.9-2.1-1.6L329.9,513.1z"/>
		<path d="M341.6,500.7h2.1v15.6h-2.1V500.7z"/>
		<path d="M358.6,504.1c-0.4-0.6-1-1-1.7-1.3c-0.7-0.3-1.4-0.5-2.1-0.5c-0.9,0-1.7,0.2-2.4,0.5c-0.7,0.3-1.3,0.8-1.8,1.4
			c-0.5,0.6-0.9,1.2-1.2,2c-0.3,0.8-0.4,1.6-0.4,2.5c0,0.8,0.1,1.6,0.4,2.3c0.3,0.7,0.6,1.4,1.1,1.9s1.1,1,1.8,1.3
			c0.7,0.3,1.5,0.5,2.4,0.5c0.9,0,1.7-0.2,2.4-0.5c0.7-0.4,1.2-0.9,1.7-1.5l1.8,1.3c-0.1,0.2-0.3,0.4-0.6,0.7s-0.7,0.6-1.2,0.9
			c-0.5,0.3-1.1,0.6-1.7,0.8c-0.7,0.2-1.5,0.3-2.4,0.3c-1.2,0-2.3-0.2-3.3-0.7c-1-0.5-1.8-1.1-2.5-1.8c-0.7-0.8-1.2-1.6-1.6-2.6
			c-0.4-1-0.5-1.9-0.5-2.9c0-1.2,0.2-2.3,0.6-3.3c0.4-1,0.9-1.9,1.7-2.6c0.7-0.7,1.6-1.3,2.6-1.7c1-0.4,2.1-0.6,3.3-0.6
			c1,0,2,0.2,3,0.6c1,0.4,1.8,1,2.4,1.8L358.6,504.1z"/>
	</g>
	<g class="st9">
		<path d="M282.3,530h5.5c1,0,1.8,0.1,2.5,0.4s1.2,0.6,1.5,1s0.6,0.9,0.8,1.4s0.2,1,0.2,1.5c0,0.5-0.1,1-0.3,1.4
			c-0.2,0.5-0.4,0.9-0.8,1.3c-0.3,0.4-0.7,0.7-1.2,0.9c-0.5,0.3-1,0.4-1.6,0.5l4.4,7.1h-2.6l-4-6.9h-2.4v6.9h-2.1V530z M284.4,536.8
			h2.8c0.4,0,0.8,0,1.2-0.1c0.4-0.1,0.8-0.2,1.1-0.4c0.3-0.2,0.6-0.4,0.8-0.8s0.3-0.8,0.3-1.3c0-0.5-0.1-1-0.3-1.3s-0.4-0.6-0.8-0.8
			c-0.3-0.2-0.7-0.3-1.1-0.4c-0.4-0.1-0.8-0.1-1.2-0.1h-2.8V536.8z"/>
		<path d="M302.9,545.9c-1.2,0-2.3-0.2-3.3-0.6c-1-0.4-1.9-1-2.6-1.7s-1.3-1.6-1.7-2.6c-0.4-1-0.6-2.1-0.6-3.2
			c0-1.2,0.2-2.2,0.6-3.2c0.4-1,1-1.9,1.7-2.6s1.6-1.3,2.6-1.7c1-0.4,2.1-0.6,3.3-0.6s2.3,0.2,3.3,0.6c1,0.4,1.9,1,2.6,1.7
			c0.7,0.7,1.3,1.6,1.7,2.6c0.4,1,0.6,2.1,0.6,3.2c0,1.2-0.2,2.2-0.6,3.2c-0.4,1-1,1.9-1.7,2.6c-0.7,0.7-1.6,1.3-2.6,1.7
			C305.2,545.7,304.1,545.9,302.9,545.9z M302.9,544c0.9,0,1.7-0.2,2.4-0.5s1.3-0.8,1.8-1.3c0.5-0.6,0.9-1.2,1.2-2
			c0.3-0.8,0.4-1.6,0.4-2.4s-0.1-1.7-0.4-2.4c-0.3-0.8-0.7-1.4-1.2-2c-0.5-0.6-1.1-1-1.8-1.3s-1.5-0.5-2.4-0.5s-1.7,0.2-2.4,0.5
			c-0.7,0.3-1.3,0.8-1.8,1.3c-0.5,0.6-0.9,1.2-1.2,2c-0.3,0.8-0.4,1.6-0.4,2.4s0.1,1.7,0.4,2.4c0.3,0.8,0.7,1.4,1.2,2
			c0.5,0.6,1.1,1,1.8,1.3C301.2,543.8,302,544,302.9,544z"/>
		<path d="M321.2,545.9c-1.2,0-2.3-0.2-3.3-0.6c-1-0.4-1.9-1-2.6-1.7s-1.3-1.6-1.7-2.6c-0.4-1-0.6-2.1-0.6-3.2
			c0-1.2,0.2-2.2,0.6-3.2c0.4-1,1-1.9,1.7-2.6s1.6-1.3,2.6-1.7c1-0.4,2.1-0.6,3.3-0.6s2.3,0.2,3.3,0.6c1,0.4,1.9,1,2.6,1.7
			c0.7,0.7,1.3,1.6,1.7,2.6c0.4,1,0.6,2.1,0.6,3.2c0,1.2-0.2,2.2-0.6,3.2c-0.4,1-1,1.9-1.7,2.6c-0.7,0.7-1.6,1.3-2.6,1.7
			C323.5,545.7,322.4,545.9,321.2,545.9z M321.2,544c0.9,0,1.7-0.2,2.4-0.5s1.3-0.8,1.8-1.3c0.5-0.6,0.9-1.2,1.2-2
			c0.3-0.8,0.4-1.6,0.4-2.4s-0.1-1.7-0.4-2.4c-0.3-0.8-0.7-1.4-1.2-2c-0.5-0.6-1.1-1-1.8-1.3s-1.5-0.5-2.4-0.5s-1.7,0.2-2.4,0.5
			c-0.7,0.3-1.3,0.8-1.8,1.3c-0.5,0.6-0.9,1.2-1.2,2c-0.3,0.8-0.4,1.6-0.4,2.4s0.1,1.7,0.4,2.4c0.3,0.8,0.7,1.4,1.2,2
			c0.5,0.6,1.1,1,1.8,1.3C319.5,543.8,320.3,544,321.2,544z"/>
		<path d="M332.2,530h3.1l4.9,11.8h0.1l4.9-11.8h3.1v15.6h-2.1v-12.8h0l-5.3,12.8h-1.4l-5.3-12.8h0v12.8h-2.1V530z"/>
	</g>
	<g class="st9">
		<path d="M461.5,986.2h5.5c1,0,1.8,0.1,2.5,0.4c0.6,0.3,1.2,0.6,1.5,1s0.6,0.9,0.8,1.4s0.2,1,0.2,1.5c0,0.5-0.1,1-0.2,1.5
			s-0.4,1-0.8,1.4s-0.9,0.8-1.5,1c-0.6,0.3-1.5,0.4-2.5,0.4h-3.4v6.9h-2.1V986.2z M463.6,993.1h2.8c0.4,0,0.8,0,1.2-0.1
			c0.4-0.1,0.8-0.2,1.1-0.4s0.6-0.4,0.8-0.8c0.2-0.3,0.3-0.8,0.3-1.3c0-0.5-0.1-1-0.3-1.3c-0.2-0.3-0.4-0.6-0.8-0.8
			c-0.3-0.2-0.7-0.3-1.1-0.4c-0.4-0.1-0.8-0.1-1.2-0.1h-2.8V993.1z"/>
		<path d="M474.6,986.2h5.5c1,0,1.8,0.1,2.5,0.4c0.6,0.3,1.2,0.6,1.5,1s0.6,0.9,0.8,1.4s0.2,1,0.2,1.5c0,0.5-0.1,1-0.3,1.4
			s-0.4,0.9-0.8,1.3s-0.7,0.7-1.2,0.9c-0.5,0.3-1,0.4-1.6,0.5l4.4,7.1H483l-4-6.9h-2.4v6.9h-2.1V986.2z M476.7,993.1h2.8
			c0.4,0,0.8,0,1.2-0.1c0.4-0.1,0.8-0.2,1.1-0.4s0.6-0.4,0.8-0.8c0.2-0.3,0.3-0.8,0.3-1.3c0-0.5-0.1-1-0.3-1.3
			c-0.2-0.3-0.4-0.6-0.8-0.8c-0.3-0.2-0.7-0.3-1.1-0.4c-0.4-0.1-0.8-0.1-1.2-0.1h-2.8V993.1z"/>
		<path d="M488,986.2h2.1v15.6H488V986.2z"/>
		<path d="M494.1,986.2h2.8l8.6,12.8h0v-12.8h2.1v15.6h-2.7l-8.7-12.8h0v12.8h-2.1V986.2z"/>
		<path d="M522.5,989.6c-0.4-0.6-1-1-1.7-1.3c-0.7-0.3-1.4-0.5-2.1-0.5c-0.9,0-1.7,0.2-2.4,0.5c-0.7,0.3-1.3,0.8-1.8,1.4
			c-0.5,0.6-0.9,1.2-1.2,2c-0.3,0.8-0.4,1.6-0.4,2.5c0,0.8,0.1,1.6,0.4,2.3c0.3,0.7,0.6,1.4,1.1,1.9c0.5,0.6,1.1,1,1.8,1.3
			c0.7,0.3,1.5,0.5,2.4,0.5c0.9,0,1.7-0.2,2.4-0.5c0.7-0.4,1.2-0.9,1.7-1.5l1.8,1.3c-0.1,0.2-0.3,0.4-0.6,0.7
			c-0.3,0.3-0.7,0.6-1.2,0.9c-0.5,0.3-1.1,0.6-1.7,0.8c-0.7,0.2-1.5,0.3-2.4,0.3c-1.2,0-2.3-0.2-3.3-0.7c-1-0.5-1.8-1.1-2.5-1.8
			c-0.7-0.8-1.2-1.6-1.6-2.6c-0.4-1-0.5-1.9-0.5-2.9c0-1.2,0.2-2.3,0.6-3.3c0.4-1,0.9-1.9,1.7-2.6c0.7-0.7,1.6-1.3,2.6-1.7
			c1-0.4,2.1-0.6,3.3-0.6c1,0,2,0.2,3,0.6c1,0.4,1.8,1,2.4,1.8L522.5,989.6z"/>
		<path d="M527.1,986.2h10.1v2h-7.9v4.6h7.4v2h-7.4v5h8.3v2h-10.5V986.2z"/>
	</g>
	<g class="st9">
		<path d="M465.2,1015.4h5.5c1,0,1.8,0.1,2.5,0.4c0.6,0.3,1.2,0.6,1.5,1s0.6,0.9,0.8,1.4s0.2,1,0.2,1.5c0,0.5-0.1,1-0.3,1.4
			s-0.4,0.9-0.8,1.3s-0.7,0.7-1.2,0.9c-0.5,0.3-1,0.4-1.6,0.5l4.4,7.1h-2.6l-4-6.9h-2.4v6.9h-2.1V1015.4z M467.3,1022.3h2.8
			c0.4,0,0.8,0,1.2-0.1c0.4-0.1,0.8-0.2,1.1-0.4s0.6-0.4,0.8-0.8c0.2-0.3,0.3-0.8,0.3-1.3c0-0.5-0.1-1-0.3-1.3
			c-0.2-0.3-0.4-0.6-0.8-0.8c-0.3-0.2-0.7-0.3-1.1-0.4c-0.4-0.1-0.8-0.1-1.2-0.1h-2.8V1022.3z"/>
		<path d="M485.8,1031.4c-1.2,0-2.3-0.2-3.3-0.6c-1-0.4-1.9-1-2.6-1.7c-0.7-0.7-1.3-1.6-1.7-2.6s-0.6-2.1-0.6-3.2
			c0-1.2,0.2-2.2,0.6-3.2c0.4-1,1-1.9,1.7-2.6c0.7-0.7,1.6-1.3,2.6-1.7c1-0.4,2.1-0.6,3.3-0.6c1.2,0,2.3,0.2,3.3,0.6s1.9,1,2.6,1.7
			c0.7,0.7,1.3,1.6,1.7,2.6c0.4,1,0.6,2.1,0.6,3.2c0,1.2-0.2,2.2-0.6,3.2s-1,1.9-1.7,2.6c-0.7,0.7-1.6,1.3-2.6,1.7
			S487,1031.4,485.8,1031.4z M485.8,1029.4c0.9,0,1.7-0.2,2.4-0.5c0.7-0.3,1.3-0.8,1.8-1.3c0.5-0.6,0.9-1.2,1.2-2
			c0.3-0.8,0.4-1.6,0.4-2.4s-0.1-1.7-0.4-2.4c-0.3-0.8-0.7-1.4-1.2-2s-1.1-1-1.8-1.3c-0.7-0.3-1.5-0.5-2.4-0.5
			c-0.9,0-1.7,0.2-2.4,0.5c-0.7,0.3-1.3,0.8-1.8,1.3s-0.9,1.2-1.2,2c-0.3,0.8-0.4,1.6-0.4,2.4s0.1,1.7,0.4,2.4
			c0.3,0.8,0.7,1.4,1.2,2c0.5,0.6,1.1,1,1.8,1.3C484.1,1029.2,484.9,1029.4,485.8,1029.4z"/>
		<path d="M504.1,1031.4c-1.2,0-2.3-0.2-3.3-0.6c-1-0.4-1.9-1-2.6-1.7c-0.7-0.7-1.3-1.6-1.7-2.6s-0.6-2.1-0.6-3.2
			c0-1.2,0.2-2.2,0.6-3.2c0.4-1,1-1.9,1.7-2.6c0.7-0.7,1.6-1.3,2.6-1.7c1-0.4,2.1-0.6,3.3-0.6c1.2,0,2.3,0.2,3.3,0.6s1.9,1,2.6,1.7
			c0.7,0.7,1.3,1.6,1.7,2.6c0.4,1,0.6,2.1,0.6,3.2c0,1.2-0.2,2.2-0.6,3.2s-1,1.9-1.7,2.6c-0.7,0.7-1.6,1.3-2.6,1.7
			S505.3,1031.4,504.1,1031.4z M504.1,1029.4c0.9,0,1.7-0.2,2.4-0.5c0.7-0.3,1.3-0.8,1.8-1.3c0.5-0.6,0.9-1.2,1.2-2
			c0.3-0.8,0.4-1.6,0.4-2.4s-0.1-1.7-0.4-2.4c-0.3-0.8-0.7-1.4-1.2-2s-1.1-1-1.8-1.3c-0.7-0.3-1.5-0.5-2.4-0.5
			c-0.9,0-1.7,0.2-2.4,0.5c-0.7,0.3-1.3,0.8-1.8,1.3s-0.9,1.2-1.2,2c-0.3,0.8-0.4,1.6-0.4,2.4s0.1,1.7,0.4,2.4
			c0.3,0.8,0.7,1.4,1.2,2c0.5,0.6,1.1,1,1.8,1.3C502.4,1029.2,503.2,1029.4,504.1,1029.4z"/>
		<path d="M515.1,1015.4h3.1l5,11.8h0.1l4.9-11.8h3.1v15.6h-2.1v-12.8h0l-5.3,12.8h-1.4l-5.3-12.8h0v12.8h-2.1V1015.4z"/>
	</g>
	<g class="st9">
		<path d="M255.6,163.4h2.1V177h7.2v2h-9.3V163.4z"/>
		<path d="M274.1,179.4c-1.2,0-2.3-0.2-3.3-0.6c-1-0.4-1.9-1-2.6-1.7s-1.3-1.6-1.7-2.6c-0.4-1-0.6-2.1-0.6-3.2
			c0-1.2,0.2-2.2,0.6-3.2c0.4-1,1-1.9,1.7-2.6c0.7-0.7,1.6-1.3,2.6-1.7c1-0.4,2.1-0.6,3.3-0.6s2.3,0.2,3.3,0.6c1,0.4,1.9,1,2.6,1.7
			c0.7,0.7,1.3,1.6,1.7,2.6c0.4,1,0.6,2.1,0.6,3.2c0,1.2-0.2,2.2-0.6,3.2c-0.4,1-1,1.9-1.7,2.6c-0.7,0.7-1.6,1.3-2.6,1.7
			C276.4,179.1,275.3,179.4,274.1,179.4z M274.1,177.4c0.9,0,1.7-0.2,2.4-0.5s1.3-0.8,1.8-1.3c0.5-0.6,0.9-1.2,1.2-2
			c0.3-0.8,0.4-1.6,0.4-2.4c0-0.9-0.1-1.7-0.4-2.4c-0.3-0.8-0.7-1.4-1.2-2c-0.5-0.6-1.1-1-1.8-1.3s-1.5-0.5-2.4-0.5
			s-1.7,0.2-2.4,0.5c-0.7,0.3-1.3,0.8-1.8,1.3c-0.5,0.6-0.9,1.2-1.2,2s-0.4,1.6-0.4,2.4c0,0.9,0.1,1.7,0.4,2.4s0.7,1.4,1.2,2
			c0.5,0.6,1.1,1,1.8,1.3C272.4,177.2,273.2,177.4,274.1,177.4z"/>
		<path d="M290.2,163.4h1.9l6.7,15.6h-2.5l-1.6-3.9h-7.4l-1.5,3.9h-2.5L290.2,163.4z M294,173.3l-2.9-7.1h0l-2.9,7.1H294z"/>
		<path d="M300.4,163.4h5.4c1.1,0,2.1,0.1,2.9,0.4c0.8,0.2,1.5,0.6,2.2,1s1.1,0.9,1.5,1.4s0.7,1.1,1,1.7c0.2,0.6,0.4,1.1,0.5,1.7
			c0.1,0.6,0.2,1.1,0.2,1.6c0,1-0.2,2-0.6,2.9c-0.4,0.9-0.9,1.8-1.6,2.5c-0.7,0.7-1.6,1.3-2.7,1.7c-1.1,0.4-2.3,0.7-3.7,0.7h-5.1
			V163.4z M302.5,177h2.7c0.9,0,1.7-0.1,2.5-0.4c0.8-0.2,1.5-0.6,2.1-1.1c0.6-0.5,1.1-1.1,1.4-1.8s0.5-1.6,0.5-2.5
			c0-0.5-0.1-1.1-0.2-1.7c-0.2-0.7-0.5-1.3-0.9-1.9c-0.4-0.6-1.1-1.1-1.9-1.5c-0.8-0.4-1.8-0.6-3.1-0.6h-3.2V177z"/>
		<path d="M317.1,163.4h2.1V179h-2.1V163.4z"/>
		<path d="M323.2,163.4h2.8l8.6,12.8h0v-12.8h2.1V179H334l-8.7-12.8h0V179h-2.1V163.4z"/>
		<path d="M354,170.2v7.7c-0.4,0.2-0.8,0.4-1.3,0.6c-0.5,0.2-1,0.3-1.5,0.5c-0.5,0.1-1,0.2-1.6,0.3c-0.5,0.1-1,0.1-1.5,0.1
			c-1.3,0-2.5-0.2-3.5-0.7c-1-0.4-1.9-1-2.6-1.8c-0.7-0.7-1.3-1.6-1.6-2.6c-0.4-1-0.6-2-0.6-3.1c0-1.2,0.2-2.2,0.6-3.2
			c0.4-1,1-1.9,1.7-2.6c0.7-0.7,1.6-1.3,2.6-1.7c1-0.4,2.1-0.6,3.3-0.6c1.4,0,2.6,0.2,3.5,0.5c0.9,0.4,1.7,0.9,2.3,1.5l-1.5,1.6
			c-0.6-0.6-1.3-1-2-1.3c-0.7-0.2-1.5-0.4-2.3-0.4c-0.9,0-1.7,0.2-2.4,0.5c-0.7,0.3-1.3,0.8-1.8,1.3c-0.5,0.6-0.9,1.2-1.2,2
			s-0.4,1.6-0.4,2.4c0,0.9,0.2,1.7,0.5,2.5c0.3,0.8,0.7,1.4,1.3,2c0.5,0.6,1.2,1,1.9,1.3c0.7,0.3,1.5,0.5,2.4,0.5
			c0.7,0,1.5-0.1,2.1-0.2c0.7-0.1,1.2-0.3,1.7-0.6v-4.3h-3.5v-2H354z"/>
	</g>
	<g class="st9">
		<path d="M269.5,192.6h5.4c1.1,0,2.1,0.1,2.9,0.4c0.8,0.2,1.5,0.6,2.2,1s1.1,0.9,1.5,1.4s0.7,1.1,1,1.7c0.2,0.6,0.4,1.1,0.5,1.7
			c0.1,0.6,0.2,1.1,0.2,1.6c0,1-0.2,2-0.6,2.9c-0.4,0.9-0.9,1.8-1.6,2.5c-0.7,0.7-1.6,1.3-2.7,1.7c-1.1,0.4-2.3,0.7-3.7,0.7h-5.1
			V192.6z M271.6,206.2h2.7c0.9,0,1.7-0.1,2.5-0.4c0.8-0.2,1.5-0.6,2.1-1.1c0.6-0.5,1.1-1.1,1.4-1.8s0.5-1.6,0.5-2.5
			c0-0.5-0.1-1.1-0.2-1.7c-0.2-0.7-0.5-1.3-0.9-1.9c-0.4-0.6-1.1-1.1-1.9-1.5c-0.8-0.4-1.8-0.6-3.1-0.6h-3.2V206.2z"/>
		<path d="M293.3,208.6c-1.2,0-2.3-0.2-3.3-0.6c-1-0.4-1.9-1-2.6-1.7s-1.3-1.6-1.7-2.6c-0.4-1-0.6-2.1-0.6-3.2
			c0-1.2,0.2-2.2,0.6-3.2c0.4-1,1-1.9,1.7-2.6c0.7-0.7,1.6-1.3,2.6-1.7c1-0.4,2.1-0.6,3.3-0.6s2.3,0.2,3.3,0.6c1,0.4,1.9,1,2.6,1.7
			c0.7,0.7,1.3,1.6,1.7,2.6c0.4,1,0.6,2.1,0.6,3.2c0,1.2-0.2,2.2-0.6,3.2c-0.4,1-1,1.9-1.7,2.6c-0.7,0.7-1.6,1.3-2.6,1.7
			C295.5,208.4,294.4,208.6,293.3,208.6z M293.3,206.6c0.9,0,1.7-0.2,2.4-0.5s1.3-0.8,1.8-1.3c0.5-0.6,0.9-1.2,1.2-2
			c0.3-0.8,0.4-1.6,0.4-2.4c0-0.9-0.1-1.7-0.4-2.4c-0.3-0.8-0.7-1.4-1.2-2c-0.5-0.6-1.1-1-1.8-1.3s-1.5-0.5-2.4-0.5
			s-1.7,0.2-2.4,0.5c-0.7,0.3-1.3,0.8-1.8,1.3c-0.5,0.6-0.9,1.2-1.2,2s-0.4,1.6-0.4,2.4c0,0.9,0.1,1.7,0.4,2.4s0.7,1.4,1.2,2
			c0.5,0.6,1.1,1,1.8,1.3C291.6,206.4,292.4,206.6,293.3,206.6z"/>
		<path d="M315.3,196c-0.4-0.6-1-1-1.7-1.3c-0.7-0.3-1.4-0.5-2.1-0.5c-0.9,0-1.7,0.2-2.4,0.5c-0.7,0.3-1.3,0.8-1.8,1.4
			c-0.5,0.6-0.9,1.2-1.2,2s-0.4,1.6-0.4,2.5c0,0.8,0.1,1.6,0.4,2.3c0.3,0.7,0.6,1.4,1.1,1.9c0.5,0.6,1.1,1,1.8,1.3
			c0.7,0.3,1.5,0.5,2.4,0.5c0.9,0,1.7-0.2,2.4-0.5c0.7-0.4,1.2-0.9,1.7-1.5l1.8,1.3c-0.1,0.2-0.3,0.4-0.6,0.7
			c-0.3,0.3-0.7,0.6-1.2,0.9c-0.5,0.3-1.1,0.6-1.7,0.8c-0.7,0.2-1.5,0.3-2.4,0.3c-1.2,0-2.3-0.2-3.3-0.7c-1-0.5-1.8-1.1-2.5-1.8
			c-0.7-0.8-1.2-1.6-1.6-2.6c-0.4-1-0.5-1.9-0.5-2.9c0-1.2,0.2-2.3,0.6-3.3s0.9-1.9,1.7-2.6c0.7-0.7,1.6-1.3,2.6-1.7
			c1-0.4,2.1-0.6,3.3-0.6c1,0,2,0.2,3,0.6c1,0.4,1.8,1,2.4,1.8L315.3,196z"/>
		<path d="M319.9,192.6h2.1v6.7h0.2l6.9-6.7h2.9l-7.5,7.2l8,8.4h-3.1l-7.3-7.8H322v7.8h-2.1V192.6z"/>
		<path d="M334.6,204.9c0.4,0.6,0.9,1,1.5,1.3c0.6,0.3,1.2,0.4,1.8,0.4c0.4,0,0.7-0.1,1.1-0.2s0.7-0.3,1-0.5
			c0.3-0.2,0.5-0.5,0.7-0.8c0.2-0.3,0.3-0.7,0.3-1.1c0-0.6-0.2-1.1-0.6-1.4c-0.4-0.3-0.9-0.6-1.4-0.8c-0.6-0.2-1.2-0.4-1.8-0.6
			c-0.7-0.2-1.3-0.5-1.8-0.8c-0.6-0.4-1-0.8-1.4-1.4c-0.4-0.6-0.6-1.4-0.6-2.4c0-0.5,0.1-0.9,0.3-1.5c0.2-0.5,0.5-1,0.9-1.4
			c0.4-0.4,1-0.8,1.6-1.1c0.7-0.3,1.5-0.4,2.4-0.4c0.9,0,1.7,0.1,2.4,0.4c0.8,0.2,1.5,0.7,2,1.4l-1.7,1.6c-0.3-0.4-0.6-0.7-1.1-1
			c-0.5-0.2-1-0.4-1.7-0.4c-0.6,0-1.1,0.1-1.5,0.2c-0.4,0.2-0.7,0.4-0.9,0.6s-0.4,0.5-0.5,0.8c-0.1,0.3-0.1,0.5-0.1,0.8
			c0,0.7,0.2,1.2,0.6,1.5s0.9,0.6,1.4,0.9c0.6,0.2,1.2,0.4,1.8,0.6c0.7,0.2,1.3,0.4,1.8,0.7c0.6,0.3,1,0.7,1.4,1.3
			c0.4,0.5,0.6,1.3,0.6,2.2c0,0.7-0.1,1.4-0.4,2c-0.3,0.6-0.7,1.1-1.2,1.5s-1.1,0.7-1.7,0.9c-0.7,0.2-1.4,0.3-2.1,0.3
			c-1,0-1.9-0.2-2.8-0.5s-1.6-0.9-2.1-1.6L334.6,204.9z"/>
	</g>
	<g class="st9">
		<path d="M276.9,289.1c0.4,0.6,0.9,1,1.5,1.3c0.6,0.3,1.2,0.4,1.8,0.4c0.4,0,0.7-0.1,1.1-0.2s0.7-0.3,1-0.5
			c0.3-0.2,0.5-0.5,0.7-0.8c0.2-0.3,0.3-0.7,0.3-1.1c0-0.6-0.2-1.1-0.6-1.4c-0.4-0.3-0.9-0.6-1.4-0.8c-0.6-0.2-1.2-0.4-1.8-0.6
			c-0.7-0.2-1.3-0.5-1.8-0.8c-0.6-0.4-1-0.8-1.4-1.4c-0.4-0.6-0.6-1.4-0.6-2.4c0-0.5,0.1-0.9,0.3-1.5c0.2-0.5,0.5-1,0.9-1.4
			c0.4-0.4,1-0.8,1.6-1.1c0.7-0.3,1.5-0.4,2.4-0.4c0.9,0,1.7,0.1,2.4,0.4c0.8,0.2,1.5,0.7,2,1.4l-1.7,1.6c-0.3-0.4-0.6-0.7-1.1-1
			c-0.5-0.2-1-0.4-1.7-0.4c-0.6,0-1.1,0.1-1.5,0.2c-0.4,0.2-0.7,0.4-0.9,0.6s-0.4,0.5-0.5,0.8c-0.1,0.3-0.1,0.5-0.1,0.8
			c0,0.7,0.2,1.2,0.6,1.5s0.9,0.6,1.4,0.9c0.6,0.2,1.2,0.4,1.8,0.6c0.7,0.2,1.3,0.4,1.8,0.7c0.6,0.3,1,0.7,1.4,1.3
			c0.4,0.5,0.6,1.3,0.6,2.2c0,0.7-0.1,1.4-0.4,2c-0.3,0.6-0.7,1.1-1.2,1.5s-1.1,0.7-1.7,0.9c-0.7,0.2-1.4,0.3-2.1,0.3
			c-1,0-1.9-0.2-2.8-0.5s-1.6-0.9-2.1-1.6L276.9,289.1z"/>
		<path d="M292,278.7h-5v-2h12.1v2h-5v13.6H292V278.7z"/>
		<path d="M304.2,276.8h1.9l6.7,15.6h-2.5l-1.6-3.9h-7.4l-1.5,3.9h-2.5L304.2,276.8z M308,286.6l-2.9-7.1h0l-2.9,7.1H308z"/>
		<path d="M328.1,283.6v7.7c-0.4,0.2-0.8,0.4-1.3,0.6c-0.5,0.2-1,0.3-1.5,0.5c-0.5,0.1-1,0.2-1.6,0.3c-0.5,0.1-1,0.1-1.5,0.1
			c-1.3,0-2.5-0.2-3.5-0.7c-1-0.4-1.9-1-2.6-1.8c-0.7-0.7-1.3-1.6-1.6-2.6c-0.4-1-0.6-2-0.6-3.1c0-1.2,0.2-2.2,0.6-3.2
			c0.4-1,1-1.9,1.7-2.6c0.7-0.7,1.6-1.3,2.6-1.7c1-0.4,2.1-0.6,3.3-0.6c1.4,0,2.6,0.2,3.5,0.5c0.9,0.4,1.7,0.9,2.3,1.5l-1.5,1.6
			c-0.6-0.6-1.3-1-2-1.3c-0.7-0.2-1.5-0.4-2.3-0.4c-0.9,0-1.7,0.2-2.4,0.5c-0.7,0.3-1.3,0.8-1.8,1.3c-0.5,0.6-0.9,1.2-1.2,2
			s-0.4,1.6-0.4,2.4c0,0.9,0.2,1.7,0.5,2.5c0.3,0.8,0.7,1.4,1.3,2c0.5,0.6,1.2,1,1.9,1.3c0.7,0.3,1.5,0.5,2.4,0.5
			c0.7,0,1.5-0.1,2.1-0.2c0.7-0.1,1.2-0.3,1.7-0.6v-4.3h-3.5v-2H328.1z"/>
		<path d="M331.9,276.8H342v2H334v4.6h7.4v2H334v5h8.3v2h-10.5V276.8z"/>
	</g>
	<g class="st9">
		<path d="M972.9,579.8h-8.2c-1,0-1.9-0.2-2.8-0.5c-0.9-0.4-1.7-0.9-2.3-1.5c-0.7-0.6-1.2-1.4-1.6-2.3s-0.6-1.9-0.6-2.9
			c0-1,0.2-2,0.6-2.9s0.9-1.7,1.5-2.3c0.7-0.7,1.4-1.2,2.3-1.5c0.9-0.4,1.8-0.5,2.9-0.5c1,0,1.9,0.2,2.8,0.5
			c0.9,0.4,1.6,0.9,2.3,1.5c0.7,0.6,1.2,1.4,1.5,2.2s0.6,1.8,0.6,2.8c0,0.6-0.1,1.2-0.2,1.8c-0.1,0.6-0.3,1.1-0.6,1.6
			c-0.3,0.5-0.6,1-1,1.4c-0.4,0.4-0.9,0.7-1.4,1v0h4.2V579.8z M964.7,578c0.8,0,1.5-0.1,2.1-0.4c0.6-0.3,1.2-0.7,1.7-1.2
			s0.8-1.1,1.1-1.8c0.3-0.7,0.4-1.4,0.4-2.2c0-0.7-0.1-1.4-0.4-2.1s-0.6-1.2-1.1-1.7c-0.5-0.5-1-0.9-1.7-1.1
			c-0.6-0.3-1.3-0.4-2.1-0.4c-0.7,0-1.4,0.1-2.1,0.4c-0.6,0.3-1.2,0.7-1.6,1.1c-0.5,0.5-0.8,1-1.1,1.7s-0.4,1.3-0.4,2.1
			c0,0.8,0.1,1.5,0.4,2.2c0.3,0.7,0.6,1.3,1.1,1.8c0.5,0.5,1,0.9,1.7,1.2C963.2,577.9,963.9,578,964.7,578z"/>
		<path d="M976.6,565.7v8.7c0,0.4,0.1,0.9,0.2,1.4c0.1,0.5,0.3,0.9,0.6,1.3c0.3,0.4,0.6,0.7,1.1,1c0.5,0.3,1,0.4,1.7,0.4
			s1.2-0.1,1.7-0.4c0.5-0.3,0.8-0.6,1.1-1c0.3-0.4,0.5-0.8,0.6-1.3c0.1-0.5,0.2-0.9,0.2-1.4v-8.7h1.9v9c0,0.8-0.1,1.6-0.4,2.2
			c-0.3,0.7-0.7,1.3-1.2,1.8c-0.5,0.5-1.1,0.9-1.7,1.1c-0.7,0.3-1.4,0.4-2.2,0.4s-1.5-0.1-2.2-0.4s-1.2-0.6-1.7-1.1
			s-0.9-1.1-1.2-1.8c-0.3-0.7-0.4-1.4-0.4-2.2v-9H976.6z"/>
		<path d="M989,565.7h9.1v1.8H991v4.2h6.7v1.8H991v4.5h7.6v1.8H989V565.7z"/>
		<path d="M1001.3,565.7h9.1v1.8h-7.2v4.2h6.7v1.8h-6.7v4.5h7.6v1.8h-9.5V565.7z"/>
		<path d="M1013.5,565.7h2.5l7.8,11.6h0v-11.6h1.9v14.2h-2.4l-7.9-11.6h0v11.6h-1.9V565.7z"/>
	</g>
	<g class="st9">
		<path d="M962.8,595.5h3.1l5,11.8h0.1l4.9-11.8h3.1v15.6h-2.1v-12.8h0l-5.3,12.8h-1.4l-5.3-12.8h0v12.8h-2.1V595.5z"/>
		<path d="M987.8,595.5h1.9l6.7,15.6h-2.5l-1.6-3.8h-7.4l-1.5,3.8h-2.5L987.8,595.5z M991.6,605.4l-2.9-7.1h0l-2.9,7.1H991.6z"/>
		<path d="M998.4,595.5h5.5c1,0,1.8,0.1,2.5,0.4c0.6,0.3,1.2,0.6,1.5,1s0.6,0.9,0.8,1.4s0.2,1,0.2,1.5c0,0.5-0.1,1-0.3,1.4
			s-0.4,0.9-0.8,1.3s-0.7,0.7-1.2,0.9c-0.5,0.3-1,0.4-1.6,0.5l4.4,7.1h-2.6l-4-6.9h-2.4v6.9h-2.1V595.5z M1000.5,602.4h2.8
			c0.4,0,0.8,0,1.2-0.1c0.4-0.1,0.8-0.2,1.1-0.4s0.6-0.4,0.8-0.8c0.2-0.3,0.3-0.8,0.3-1.3c0-0.5-0.1-1-0.3-1.3
			c-0.2-0.3-0.4-0.6-0.8-0.8c-0.3-0.2-0.7-0.3-1.1-0.4c-0.4-0.1-0.8-0.1-1.2-0.1h-2.8V602.4z"/>
		<path d="M1015.1,604.4l-5.9-8.9h2.7l4.2,6.8l4.4-6.8h2.6l-5.9,8.9v6.6h-2.1V604.4z"/>
	</g>
	<g class="st9">
		<path d="M971,853.5h-9c-1.1,0-2.1-0.2-3.1-0.6c-1-0.4-1.8-0.9-2.6-1.7s-1.3-1.5-1.7-2.5s-0.6-2-0.6-3.2c0-1.1,0.2-2.2,0.6-3.2
			c0.4-1,1-1.8,1.7-2.5c0.7-0.7,1.6-1.3,2.6-1.7c1-0.4,2-0.6,3.2-0.6c1.1,0,2.1,0.2,3.1,0.6c1,0.4,1.8,0.9,2.5,1.6
			c0.7,0.7,1.3,1.5,1.7,2.5c0.4,0.9,0.6,2,0.6,3.1c0,0.7-0.1,1.3-0.2,1.9c-0.2,0.6-0.4,1.2-0.7,1.8c-0.3,0.6-0.7,1.1-1.1,1.5
			c-0.4,0.4-1,0.8-1.5,1.1v0h4.6V853.5z M962,851.5c0.9,0,1.6-0.2,2.3-0.5c0.7-0.3,1.3-0.7,1.8-1.3c0.5-0.5,0.9-1.2,1.2-1.9
			c0.3-0.7,0.4-1.5,0.4-2.4c0-0.8-0.1-1.6-0.4-2.3c-0.3-0.7-0.7-1.3-1.2-1.9c-0.5-0.5-1.1-0.9-1.8-1.3c-0.7-0.3-1.5-0.5-2.3-0.5
			c-0.8,0-1.6,0.2-2.3,0.5c-0.7,0.3-1.3,0.7-1.8,1.3c-0.5,0.5-0.9,1.1-1.2,1.9c-0.3,0.7-0.4,1.5-0.4,2.3c0,0.9,0.1,1.6,0.4,2.4
			c0.3,0.7,0.7,1.4,1.2,2c0.5,0.6,1.1,1,1.8,1.3C960.3,851.3,961.1,851.5,962,851.5z"/>
		<path d="M975.1,837.9v9.5c0,0.5,0.1,1,0.2,1.5c0.1,0.5,0.4,1,0.7,1.4c0.3,0.4,0.7,0.8,1.2,1.1c0.5,0.3,1.1,0.4,1.8,0.4
			s1.3-0.1,1.8-0.4s0.9-0.6,1.2-1.1c0.3-0.4,0.5-0.9,0.7-1.4c0.1-0.5,0.2-1,0.2-1.5v-9.5h2.1v9.9c0,0.9-0.2,1.7-0.5,2.5
			c-0.3,0.7-0.7,1.4-1.3,1.9c-0.5,0.5-1.2,1-1.9,1.3s-1.5,0.4-2.4,0.4s-1.6-0.1-2.4-0.4s-1.4-0.7-1.9-1.3c-0.5-0.5-1-1.2-1.3-1.9
			c-0.3-0.7-0.5-1.6-0.5-2.5v-9.9H975.1z"/>
		<path d="M988.7,837.9h10.1v2h-7.9v4.6h7.4v2h-7.4v5h8.3v2h-10.5V837.9z"/>
		<path d="M1002.2,837.9h10.1v2h-7.9v4.6h7.4v2h-7.4v5h8.3v2h-10.5V837.9z"/>
		<path d="M1015.6,837.9h2.8l8.6,12.8h0v-12.8h2.1v15.6h-2.7l-8.7-12.8h0v12.8h-2.1V837.9z"/>
	</g>
	<g class="st9">
		<path d="M941.3,867.1h2.4l4.6,12.7h0l4.8-12.7h2.3l-6.1,15.6h-2L941.3,867.1z"/>
		<path d="M957.2,867.1h2.1v15.6h-2.1V867.1z"/>
		<path d="M974.2,870.5c-0.4-0.6-1-1-1.7-1.3c-0.7-0.3-1.4-0.5-2.1-0.5c-0.9,0-1.7,0.2-2.4,0.5c-0.7,0.3-1.3,0.8-1.8,1.4
			c-0.5,0.6-0.9,1.2-1.2,2c-0.3,0.8-0.4,1.6-0.4,2.5c0,0.8,0.1,1.6,0.4,2.3c0.3,0.7,0.6,1.4,1.1,1.9c0.5,0.6,1.1,1,1.8,1.3
			c0.7,0.3,1.5,0.5,2.4,0.5c0.9,0,1.7-0.2,2.4-0.5c0.7-0.4,1.2-0.9,1.7-1.5l1.8,1.3c-0.1,0.2-0.3,0.4-0.6,0.7
			c-0.3,0.3-0.7,0.6-1.2,0.9c-0.5,0.3-1.1,0.6-1.7,0.8c-0.7,0.2-1.5,0.3-2.4,0.3c-1.2,0-2.3-0.2-3.3-0.7c-1-0.5-1.8-1.1-2.5-1.8
			c-0.7-0.8-1.2-1.6-1.6-2.6c-0.4-1-0.5-1.9-0.5-2.9c0-1.2,0.2-2.3,0.6-3.3c0.4-1,0.9-1.9,1.7-2.6c0.7-0.7,1.6-1.3,2.6-1.7
			c1-0.4,2.1-0.6,3.3-0.6c1,0,2,0.2,3,0.6c1,0.4,1.8,1,2.4,1.8L974.2,870.5z"/>
		<path d="M982.1,869.1h-5v-2h12.1v2h-5v13.6h-2.1V869.1z"/>
		<path d="M998.6,883.1c-1.2,0-2.3-0.2-3.3-0.6c-1-0.4-1.9-1-2.6-1.7c-0.7-0.7-1.3-1.6-1.7-2.6s-0.6-2.1-0.6-3.2
			c0-1.2,0.2-2.2,0.6-3.2c0.4-1,1-1.9,1.7-2.6c0.7-0.7,1.6-1.3,2.6-1.7c1-0.4,2.1-0.6,3.3-0.6c1.2,0,2.3,0.2,3.3,0.6s1.9,1,2.6,1.7
			c0.7,0.7,1.3,1.6,1.7,2.6c0.4,1,0.6,2.1,0.6,3.2c0,1.2-0.2,2.2-0.6,3.2s-1,1.9-1.7,2.6c-0.7,0.7-1.6,1.3-2.6,1.7
			S999.8,883.1,998.6,883.1z M998.6,881.1c0.9,0,1.7-0.2,2.4-0.5c0.7-0.3,1.3-0.8,1.8-1.3c0.5-0.6,0.9-1.2,1.2-2
			c0.3-0.8,0.4-1.6,0.4-2.4s-0.1-1.7-0.4-2.4c-0.3-0.8-0.7-1.4-1.2-2s-1.1-1-1.8-1.3c-0.7-0.3-1.5-0.5-2.4-0.5
			c-0.9,0-1.7,0.2-2.4,0.5c-0.7,0.3-1.3,0.8-1.8,1.3s-0.9,1.2-1.2,2c-0.3,0.8-0.4,1.6-0.4,2.4s0.1,1.7,0.4,2.4
			c0.3,0.8,0.7,1.4,1.2,2c0.5,0.6,1.1,1,1.8,1.3C996.9,881,997.7,881.1,998.6,881.1z"/>
		<path d="M1009.8,867.1h5.5c1,0,1.8,0.1,2.5,0.4c0.6,0.3,1.2,0.6,1.5,1s0.6,0.9,0.8,1.4s0.2,1,0.2,1.5c0,0.5-0.1,1-0.3,1.4
			s-0.4,0.9-0.8,1.3s-0.7,0.7-1.2,0.9c-0.5,0.3-1,0.4-1.6,0.5l4.4,7.1h-2.6l-4-6.9h-2.4v6.9h-2.1V867.1z M1011.9,874h2.8
			c0.4,0,0.8,0,1.2-0.1c0.4-0.1,0.8-0.2,1.1-0.4s0.6-0.4,0.8-0.8c0.2-0.3,0.3-0.8,0.3-1.3c0-0.5-0.1-1-0.3-1.3
			c-0.2-0.3-0.4-0.6-0.8-0.8c-0.3-0.2-0.7-0.3-1.1-0.4c-0.4-0.1-0.8-0.1-1.2-0.1h-2.8V874z"/>
		<path d="M1023.2,867.1h2.1v15.6h-2.1V867.1z"/>
		<path d="M1034.2,867.1h1.9l6.7,15.6h-2.5l-1.6-3.8h-7.4l-1.5,3.8h-2.5L1034.2,867.1z M1038,877l-2.9-7.1h0l-2.9,7.1H1038z"/>
	</g>
	<g class="st9">
		<path d="M1038.1,100h4.5c0.8,0,1.5,0.1,2,0.3c0.5,0.2,0.9,0.5,1.3,0.8c0.3,0.3,0.5,0.7,0.6,1.2c0.1,0.4,0.2,0.8,0.2,1.2
			c0,0.4-0.1,0.8-0.2,1.2c-0.1,0.4-0.4,0.7-0.6,1c-0.3,0.3-0.6,0.6-1,0.8c-0.4,0.2-0.8,0.3-1.3,0.4l3.6,5.8h-2.2l-3.2-5.6h-1.9v5.6
			h-1.7V100z M1039.9,105.6h2.3c0.3,0,0.7,0,1-0.1s0.6-0.2,0.9-0.3s0.5-0.4,0.6-0.6s0.2-0.6,0.2-1.1c0-0.4-0.1-0.8-0.2-1.1
			s-0.4-0.5-0.6-0.6s-0.6-0.2-0.9-0.3c-0.3-0.1-0.7-0.1-1-0.1h-2.3V105.6z"/>
		<path d="M1049.1,100h8.2v1.6h-6.5v3.8h6v1.6h-6v4.1h6.8v1.6h-8.6V100z"/>
		<path d="M1060.5,110c0.3,0.5,0.7,0.8,1.2,1s1,0.3,1.5,0.3c0.3,0,0.6,0,0.9-0.1c0.3-0.1,0.6-0.2,0.8-0.4s0.4-0.4,0.6-0.7
			c0.2-0.3,0.2-0.6,0.2-0.9c0-0.5-0.2-0.9-0.5-1.1c-0.3-0.3-0.7-0.5-1.2-0.6s-1-0.3-1.5-0.5c-0.5-0.2-1.1-0.4-1.5-0.7
			s-0.8-0.7-1.2-1.2c-0.3-0.5-0.5-1.1-0.5-2c0-0.4,0.1-0.8,0.2-1.2s0.4-0.8,0.8-1.2c0.3-0.3,0.8-0.6,1.3-0.9c0.5-0.2,1.2-0.4,2-0.4
			c0.7,0,1.4,0.1,2,0.3s1.2,0.6,1.7,1.2l-1.4,1.3c-0.2-0.3-0.5-0.6-0.9-0.8c-0.4-0.2-0.8-0.3-1.3-0.3c-0.5,0-0.9,0.1-1.2,0.2
			c-0.3,0.1-0.6,0.3-0.8,0.5c-0.2,0.2-0.3,0.4-0.4,0.6s-0.1,0.4-0.1,0.6c0,0.5,0.2,1,0.5,1.2c0.3,0.3,0.7,0.5,1.2,0.7s1,0.3,1.5,0.5
			c0.5,0.1,1,0.3,1.5,0.6c0.5,0.3,0.8,0.6,1.2,1c0.3,0.4,0.5,1,0.5,1.8c0,0.6-0.1,1.2-0.4,1.7c-0.2,0.5-0.5,0.9-0.9,1.2
			c-0.4,0.3-0.9,0.6-1.4,0.8c-0.5,0.2-1.1,0.3-1.7,0.3c-0.8,0-1.6-0.1-2.3-0.4s-1.3-0.7-1.7-1.3L1060.5,110z"/>
		<path d="M1072.8,101.6h-4.1V100h9.9v1.6h-4.1v11.1h-1.7V101.6z"/>
	</g>
	<g class="st9">
		<path d="M1037.4,118.2h4.5c0.8,0,1.5,0.1,2,0.3c0.5,0.2,0.9,0.5,1.3,0.8c0.3,0.3,0.5,0.7,0.6,1.2c0.1,0.4,0.2,0.8,0.2,1.2
			c0,0.4-0.1,0.8-0.2,1.2c-0.1,0.4-0.4,0.7-0.6,1c-0.3,0.3-0.6,0.6-1,0.8c-0.4,0.2-0.8,0.3-1.3,0.4l3.6,5.8h-2.2l-3.2-5.6h-1.9v5.6
			h-1.7V118.2z M1039.1,123.8h2.3c0.3,0,0.7,0,1-0.1s0.6-0.2,0.9-0.3s0.5-0.4,0.6-0.6s0.2-0.6,0.2-1.1c0-0.4-0.1-0.8-0.2-1.1
			s-0.4-0.5-0.6-0.6s-0.6-0.2-0.9-0.3c-0.3-0.1-0.7-0.1-1-0.1h-2.3V123.8z"/>
		<path d="M1054.2,131.2c-1,0-1.9-0.2-2.7-0.5c-0.8-0.3-1.5-0.8-2.1-1.4s-1-1.3-1.4-2.1c-0.3-0.8-0.5-1.7-0.5-2.6
			c0-0.9,0.2-1.8,0.5-2.6c0.3-0.8,0.8-1.5,1.4-2.1c0.6-0.6,1.3-1.1,2.1-1.4c0.8-0.3,1.7-0.5,2.7-0.5c1,0,1.9,0.2,2.7,0.5
			c0.8,0.3,1.5,0.8,2.1,1.4c0.6,0.6,1,1.3,1.4,2.1c0.3,0.8,0.5,1.7,0.5,2.6c0,0.9-0.2,1.8-0.5,2.6c-0.3,0.8-0.8,1.5-1.4,2.1
			s-1.3,1.1-2.1,1.4S1055.2,131.2,1054.2,131.2z M1054.2,129.6c0.7,0,1.4-0.1,2-0.4s1.1-0.6,1.5-1.1c0.4-0.5,0.7-1,1-1.6
			c0.2-0.6,0.3-1.3,0.3-2c0-0.7-0.1-1.4-0.3-2c-0.2-0.6-0.6-1.2-1-1.6c-0.4-0.5-0.9-0.8-1.5-1.1s-1.2-0.4-2-0.4
			c-0.7,0-1.4,0.1-2,0.4s-1.1,0.6-1.5,1.1c-0.4,0.5-0.7,1-1,1.6c-0.2,0.6-0.3,1.3-0.3,2c0,0.7,0.1,1.4,0.3,2c0.2,0.6,0.6,1.2,1,1.6
			s0.9,0.8,1.5,1.1S1053.5,129.6,1054.2,129.6z"/>
		<path d="M1069.2,131.2c-1,0-1.9-0.2-2.7-0.5c-0.8-0.3-1.5-0.8-2.1-1.4s-1-1.3-1.4-2.1c-0.3-0.8-0.5-1.7-0.5-2.6
			c0-0.9,0.2-1.8,0.5-2.6c0.3-0.8,0.8-1.5,1.4-2.1c0.6-0.6,1.3-1.1,2.1-1.4c0.8-0.3,1.7-0.5,2.7-0.5c1,0,1.9,0.2,2.7,0.5
			c0.8,0.3,1.5,0.8,2.1,1.4c0.6,0.6,1,1.3,1.4,2.1c0.3,0.8,0.5,1.7,0.5,2.6c0,0.9-0.2,1.8-0.5,2.6c-0.3,0.8-0.8,1.5-1.4,2.1
			s-1.3,1.1-2.1,1.4S1070.2,131.2,1069.2,131.2z M1069.2,129.6c0.7,0,1.4-0.1,2-0.4s1.1-0.6,1.5-1.1c0.4-0.5,0.7-1,1-1.6
			c0.2-0.6,0.3-1.3,0.3-2c0-0.7-0.1-1.4-0.3-2c-0.2-0.6-0.6-1.2-1-1.6c-0.4-0.5-0.9-0.8-1.5-1.1s-1.2-0.4-2-0.4
			c-0.7,0-1.4,0.1-2,0.4s-1.1,0.6-1.5,1.1c-0.4,0.5-0.7,1-1,1.6c-0.2,0.6-0.3,1.3-0.3,2c0,0.7,0.1,1.4,0.3,2c0.2,0.6,0.6,1.2,1,1.6
			s0.9,0.8,1.5,1.1S1068.5,129.6,1069.2,129.6z"/>
		<path d="M1078.2,118.2h2.6l4,9.6h0.1l4-9.6h2.6v12.7h-1.7v-10.5h0l-4.3,10.5h-1.2l-4.3-10.5h0v10.5h-1.7V118.2z"/>
		<path d="M1095,128.3c0.3,0.5,0.7,0.8,1.2,1s1,0.3,1.5,0.3c0.3,0,0.6,0,0.9-0.1c0.3-0.1,0.6-0.2,0.8-0.4s0.4-0.4,0.6-0.7
			c0.2-0.3,0.2-0.6,0.2-0.9c0-0.5-0.2-0.9-0.5-1.1c-0.3-0.3-0.7-0.5-1.2-0.6s-1-0.3-1.5-0.5c-0.5-0.2-1.1-0.4-1.5-0.7
			s-0.8-0.7-1.2-1.2c-0.3-0.5-0.5-1.1-0.5-2c0-0.4,0.1-0.8,0.2-1.2s0.4-0.8,0.8-1.2c0.3-0.3,0.8-0.6,1.3-0.9c0.5-0.2,1.2-0.4,2-0.4
			c0.7,0,1.4,0.1,2,0.3s1.2,0.6,1.7,1.2l-1.4,1.3c-0.2-0.3-0.5-0.6-0.9-0.8c-0.4-0.2-0.8-0.3-1.3-0.3c-0.5,0-0.9,0.1-1.2,0.2
			c-0.3,0.1-0.6,0.3-0.8,0.5c-0.2,0.2-0.3,0.4-0.4,0.6s-0.1,0.4-0.1,0.6c0,0.5,0.2,1,0.5,1.2c0.3,0.3,0.7,0.5,1.2,0.7s1,0.3,1.5,0.5
			c0.5,0.1,1,0.3,1.5,0.6c0.5,0.3,0.8,0.6,1.2,1c0.3,0.4,0.5,1,0.5,1.8c0,0.6-0.1,1.2-0.4,1.7c-0.2,0.5-0.5,0.9-0.9,1.2
			c-0.4,0.3-0.9,0.6-1.4,0.8c-0.5,0.2-1.1,0.3-1.7,0.3c-0.8,0-1.6-0.1-2.3-0.4s-1.3-0.7-1.7-1.3L1095,128.3z"/>
	</g>
	<g class="st9">
		<path d="M1179.9,304h1.9v12.4h6.5v1.8h-8.4V304z"/>
		<path d="M1196.8,318.5c-1.1,0-2.1-0.2-3-0.6s-1.7-0.9-2.3-1.6c-0.6-0.7-1.2-1.5-1.5-2.4c-0.4-0.9-0.5-1.9-0.5-2.9
			c0-1.1,0.2-2,0.5-2.9c0.4-0.9,0.9-1.7,1.5-2.4c0.6-0.7,1.4-1.2,2.3-1.6c0.9-0.4,1.9-0.6,3-0.6s2.1,0.2,3,0.6
			c0.9,0.4,1.7,0.9,2.3,1.6c0.6,0.7,1.2,1.5,1.5,2.4c0.4,0.9,0.5,1.9,0.5,2.9c0,1.1-0.2,2-0.5,2.9c-0.4,0.9-0.9,1.7-1.5,2.4
			c-0.6,0.7-1.4,1.2-2.3,1.6C1198.8,318.3,1197.9,318.5,1196.8,318.5z M1196.8,316.7c0.8,0,1.5-0.1,2.2-0.5c0.7-0.3,1.2-0.7,1.7-1.2
			c0.5-0.5,0.8-1.1,1.1-1.8c0.3-0.7,0.4-1.4,0.4-2.2c0-0.8-0.1-1.5-0.4-2.2c-0.3-0.7-0.6-1.3-1.1-1.8c-0.5-0.5-1-0.9-1.7-1.2
			s-1.4-0.5-2.2-0.5c-0.8,0-1.5,0.2-2.2,0.5s-1.2,0.7-1.7,1.2c-0.5,0.5-0.8,1.1-1.1,1.8c-0.3,0.7-0.4,1.4-0.4,2.2
			c0,0.8,0.1,1.5,0.4,2.2c0.3,0.7,0.6,1.3,1.1,1.8c0.5,0.5,1,0.9,1.7,1.2C1195.2,316.5,1196,316.7,1196.8,316.7z"/>
		<path d="M1206.9,304h4.9c0.6,0,1.2,0.1,1.7,0.2c0.5,0.1,1,0.4,1.4,0.6c0.4,0.3,0.7,0.7,0.9,1.1s0.3,1,0.3,1.6c0,0.8-0.2,1.5-0.7,2
			c-0.5,0.5-1,0.9-1.8,1.1v0c0.4,0,0.8,0.1,1.2,0.3s0.7,0.4,1,0.8c0.3,0.3,0.5,0.7,0.7,1.1c0.2,0.4,0.2,0.9,0.2,1.3
			c0,0.6-0.1,1.2-0.4,1.7c-0.3,0.5-0.6,0.9-1.1,1.2c-0.5,0.3-1,0.6-1.6,0.8c-0.6,0.2-1.2,0.3-1.9,0.3h-4.9V304z M1208.8,309.9h2.6
			c0.4,0,0.7,0,1-0.1c0.3-0.1,0.6-0.2,0.8-0.4c0.2-0.2,0.4-0.4,0.6-0.7s0.2-0.6,0.2-1c0-0.6-0.2-1-0.5-1.5s-0.9-0.6-1.7-0.6h-3
			V309.9z M1208.8,316.4h2.8c0.3,0,0.6,0,1-0.1c0.4-0.1,0.7-0.2,1-0.4c0.3-0.2,0.6-0.4,0.8-0.7s0.3-0.7,0.3-1.2
			c0-0.8-0.3-1.5-0.8-1.9c-0.5-0.4-1.3-0.6-2.2-0.6h-2.8V316.4z"/>
		<path d="M1219.5,304h4.9c0.6,0,1.2,0.1,1.7,0.2c0.5,0.1,1,0.4,1.4,0.6c0.4,0.3,0.7,0.7,0.9,1.1s0.3,1,0.3,1.6c0,0.8-0.2,1.5-0.7,2
			c-0.5,0.5-1,0.9-1.8,1.1v0c0.4,0,0.8,0.1,1.2,0.3s0.7,0.4,1,0.8c0.3,0.3,0.5,0.7,0.7,1.1c0.2,0.4,0.2,0.9,0.2,1.3
			c0,0.6-0.1,1.2-0.4,1.7c-0.3,0.5-0.6,0.9-1.1,1.2c-0.5,0.3-1,0.6-1.6,0.8c-0.6,0.2-1.2,0.3-1.9,0.3h-4.9V304z M1221.4,309.9h2.6
			c0.4,0,0.7,0,1-0.1c0.3-0.1,0.6-0.2,0.8-0.4c0.2-0.2,0.4-0.4,0.6-0.7s0.2-0.6,0.2-1c0-0.6-0.2-1-0.5-1.5s-0.9-0.6-1.7-0.6h-3
			V309.9z M1221.4,316.4h2.8c0.3,0,0.6,0,1-0.1c0.4-0.1,0.7-0.2,1-0.4c0.3-0.2,0.6-0.4,0.8-0.7s0.3-0.7,0.3-1.2
			c0-0.8-0.3-1.5-0.8-1.9c-0.5-0.4-1.3-0.6-2.2-0.6h-2.8V316.4z"/>
		<path d="M1235.4,312.1l-5.4-8.1h2.5l3.9,6.2l4-6.2h2.3l-5.4,8.1v6h-1.9V312.1z"/>
	</g>
	<g class="st9">
		<path d="M1179.9,712.2h1.9v12.4h6.5v1.8h-8.4V712.2z"/>
		<path d="M1196.8,726.7c-1.1,0-2.1-0.2-3-0.6s-1.7-0.9-2.3-1.6c-0.6-0.7-1.2-1.5-1.5-2.4c-0.4-0.9-0.5-1.9-0.5-2.9
			c0-1.1,0.2-2,0.5-2.9c0.4-0.9,0.9-1.7,1.5-2.4s1.4-1.2,2.3-1.6s1.9-0.6,3-0.6s2.1,0.2,3,0.6c0.9,0.4,1.7,0.9,2.3,1.6
			s1.2,1.5,1.5,2.4c0.4,0.9,0.5,1.9,0.5,2.9c0,1.1-0.2,2-0.5,2.9c-0.4,0.9-0.9,1.7-1.5,2.4c-0.6,0.7-1.4,1.2-2.3,1.6
			C1198.8,726.5,1197.9,726.7,1196.8,726.7z M1196.8,724.9c0.8,0,1.5-0.1,2.2-0.4c0.7-0.3,1.2-0.7,1.7-1.2s0.8-1.1,1.1-1.8
			c0.3-0.7,0.4-1.4,0.4-2.2s-0.1-1.5-0.4-2.2c-0.3-0.7-0.6-1.3-1.1-1.8s-1-0.9-1.7-1.2c-0.7-0.3-1.4-0.5-2.2-0.5
			c-0.8,0-1.5,0.1-2.2,0.5c-0.7,0.3-1.2,0.7-1.7,1.2c-0.5,0.5-0.8,1.1-1.1,1.8c-0.3,0.7-0.4,1.4-0.4,2.2s0.1,1.5,0.4,2.2
			c0.3,0.7,0.6,1.3,1.1,1.8c0.5,0.5,1,0.9,1.7,1.2C1195.2,724.7,1196,724.9,1196.8,724.9z"/>
		<path d="M1206.9,712.2h4.9c0.6,0,1.2,0.1,1.7,0.2c0.5,0.1,1,0.4,1.4,0.7c0.4,0.3,0.7,0.7,0.9,1.1c0.2,0.4,0.3,1,0.3,1.6
			c0,0.8-0.2,1.5-0.7,2c-0.5,0.5-1,0.9-1.8,1.1v0c0.4,0,0.8,0.1,1.2,0.3s0.7,0.4,1,0.8s0.5,0.7,0.7,1.1c0.2,0.4,0.2,0.9,0.2,1.3
			c0,0.6-0.1,1.2-0.4,1.7c-0.3,0.5-0.6,0.9-1.1,1.2c-0.5,0.3-1,0.6-1.6,0.8c-0.6,0.2-1.2,0.3-1.9,0.3h-4.9V712.2z M1208.8,718h2.6
			c0.4,0,0.7,0,1-0.1s0.6-0.2,0.8-0.4c0.2-0.2,0.4-0.4,0.6-0.7s0.2-0.6,0.2-1c0-0.6-0.2-1-0.5-1.5c-0.4-0.4-0.9-0.6-1.7-0.6h-3V718z
			 M1208.8,724.7h2.8c0.3,0,0.6,0,1-0.1c0.4-0.1,0.7-0.2,1-0.4s0.6-0.4,0.8-0.7c0.2-0.3,0.3-0.7,0.3-1.2c0-0.8-0.3-1.5-0.8-1.9
			s-1.3-0.6-2.2-0.6h-2.8V724.7z"/>
		<path d="M1219.5,712.2h4.9c0.6,0,1.2,0.1,1.7,0.2c0.5,0.1,1,0.4,1.4,0.7c0.4,0.3,0.7,0.7,0.9,1.1c0.2,0.4,0.3,1,0.3,1.6
			c0,0.8-0.2,1.5-0.7,2c-0.5,0.5-1,0.9-1.8,1.1v0c0.4,0,0.8,0.1,1.2,0.3s0.7,0.4,1,0.8s0.5,0.7,0.7,1.1c0.2,0.4,0.2,0.9,0.2,1.3
			c0,0.6-0.1,1.2-0.4,1.7c-0.3,0.5-0.6,0.9-1.1,1.2c-0.5,0.3-1,0.6-1.6,0.8c-0.6,0.2-1.2,0.3-1.9,0.3h-4.9V712.2z M1221.4,718h2.6
			c0.4,0,0.7,0,1-0.1s0.6-0.2,0.8-0.4c0.2-0.2,0.4-0.4,0.6-0.7s0.2-0.6,0.2-1c0-0.6-0.2-1-0.5-1.5c-0.4-0.4-0.9-0.6-1.7-0.6h-3V718z
			 M1221.4,724.7h2.8c0.3,0,0.6,0,1-0.1c0.4-0.1,0.7-0.2,1-0.4s0.6-0.4,0.8-0.7c0.2-0.3,0.3-0.7,0.3-1.2c0-0.8-0.3-1.5-0.8-1.9
			s-1.3-0.6-2.2-0.6h-2.8V724.7z"/>
		<path d="M1235.4,720.3l-5.4-8.1h2.5l3.9,6.2l4-6.2h2.3l-5.4,8.1v6h-1.9V720.3z"/>
	</g>
	<g class="st9">
		<path d="M968.2,1011.7h1.9v12.4h6.5v1.8h-8.4V1011.7z"/>
		<path d="M985.1,1026.2c-1.1,0-2.1-0.2-3-0.6s-1.7-0.9-2.3-1.6c-0.6-0.7-1.2-1.5-1.5-2.4c-0.4-0.9-0.5-1.9-0.5-2.9
			c0-1.1,0.2-2,0.5-2.9c0.4-0.9,0.9-1.7,1.5-2.4s1.4-1.2,2.3-1.6s1.9-0.6,3-0.6s2.1,0.2,3,0.6c0.9,0.4,1.7,0.9,2.3,1.6
			s1.2,1.5,1.5,2.4c0.4,0.9,0.5,1.9,0.5,2.9c0,1.1-0.2,2-0.5,2.9c-0.4,0.9-0.9,1.7-1.5,2.4c-0.6,0.7-1.4,1.2-2.3,1.6
			C987.2,1026,986.2,1026.2,985.1,1026.2z M985.1,1024.4c0.8,0,1.5-0.1,2.2-0.4c0.7-0.3,1.2-0.7,1.7-1.2s0.8-1.1,1.1-1.8
			c0.3-0.7,0.4-1.4,0.4-2.2s-0.1-1.5-0.4-2.2c-0.3-0.7-0.6-1.3-1.1-1.8s-1-0.9-1.7-1.2c-0.7-0.3-1.4-0.5-2.2-0.5
			c-0.8,0-1.5,0.1-2.2,0.5c-0.7,0.3-1.2,0.7-1.7,1.2c-0.5,0.5-0.8,1.1-1.1,1.8c-0.3,0.7-0.4,1.4-0.4,2.2s0.1,1.5,0.4,2.2
			c0.3,0.7,0.6,1.3,1.1,1.8c0.5,0.5,1,0.9,1.7,1.2C983.6,1024.2,984.3,1024.4,985.1,1024.4z"/>
		<path d="M995.2,1011.7h4.9c0.6,0,1.2,0.1,1.7,0.2c0.5,0.1,1,0.4,1.4,0.7c0.4,0.3,0.7,0.7,0.9,1.1c0.2,0.4,0.3,1,0.3,1.6
			c0,0.8-0.2,1.5-0.7,2c-0.5,0.5-1,0.9-1.8,1.1v0c0.4,0,0.8,0.1,1.2,0.3s0.7,0.4,1,0.8s0.5,0.7,0.7,1.1c0.2,0.4,0.2,0.9,0.2,1.3
			c0,0.6-0.1,1.2-0.4,1.7c-0.3,0.5-0.6,0.9-1.1,1.2c-0.5,0.3-1,0.6-1.6,0.8c-0.6,0.2-1.2,0.3-1.9,0.3h-4.9V1011.7z M997.2,1017.6
			h2.6c0.4,0,0.7,0,1-0.1s0.6-0.2,0.8-0.4c0.2-0.2,0.4-0.4,0.6-0.7s0.2-0.6,0.2-1c0-0.6-0.2-1-0.5-1.5c-0.4-0.4-0.9-0.6-1.7-0.6h-3
			V1017.6z M997.2,1024.2h2.8c0.3,0,0.6,0,1-0.1c0.4-0.1,0.7-0.2,1-0.4s0.6-0.4,0.8-0.7c0.2-0.3,0.3-0.7,0.3-1.2
			c0-0.8-0.3-1.5-0.8-1.9s-1.3-0.6-2.2-0.6h-2.8V1024.2z"/>
		<path d="M1007.8,1011.7h4.9c0.6,0,1.2,0.1,1.7,0.2c0.5,0.1,1,0.4,1.4,0.7c0.4,0.3,0.7,0.7,0.9,1.1c0.2,0.4,0.3,1,0.3,1.6
			c0,0.8-0.2,1.5-0.7,2c-0.5,0.5-1,0.9-1.8,1.1v0c0.4,0,0.8,0.1,1.2,0.3s0.7,0.4,1,0.8s0.5,0.7,0.7,1.1c0.2,0.4,0.2,0.9,0.2,1.3
			c0,0.6-0.1,1.2-0.4,1.7c-0.3,0.5-0.6,0.9-1.1,1.2c-0.5,0.3-1,0.6-1.6,0.8c-0.6,0.2-1.2,0.3-1.9,0.3h-4.9V1011.7z M1009.8,1017.6
			h2.6c0.4,0,0.7,0,1-0.1s0.6-0.2,0.8-0.4c0.2-0.2,0.4-0.4,0.6-0.7s0.2-0.6,0.2-1c0-0.6-0.2-1-0.5-1.5c-0.4-0.4-0.9-0.6-1.7-0.6h-3
			V1017.6z M1009.8,1024.2h2.8c0.3,0,0.6,0,1-0.1c0.4-0.1,0.7-0.2,1-0.4s0.6-0.4,0.8-0.7c0.2-0.3,0.3-0.7,0.3-1.2
			c0-0.8-0.3-1.5-0.8-1.9s-1.3-0.6-2.2-0.6h-2.8V1024.2z"/>
		<path d="M1023.8,1019.8l-5.4-8.1h2.5l3.9,6.2l4-6.2h2.3l-5.4,8.1v6h-1.9V1019.8z"/>
	</g>
	<g class="st9">
		<path d="M989.3,1133.6h10.1v2h-7.9v4.6h7.4v2h-7.4v5h8.3v2h-10.5V1133.6z"/>
		<path d="M1002.8,1133.6h2.8l8.6,12.8h0v-12.8h2.1v15.6h-2.7l-8.7-12.8h0v12.8h-2.1V1133.6z"/>
		<path d="M1023.6,1135.5h-5v-2h12.1v2h-5v13.6h-2.1V1135.5z"/>
		<path d="M1032.9,1133.6h5.5c1,0,1.8,0.1,2.5,0.4c0.6,0.3,1.2,0.6,1.5,1s0.6,0.9,0.8,1.4s0.2,1,0.2,1.5c0,0.5-0.1,1-0.3,1.4
			s-0.4,0.9-0.8,1.3s-0.7,0.7-1.2,0.9c-0.5,0.3-1,0.4-1.6,0.5l4.4,7.1h-2.6l-4-6.9h-2.4v6.9h-2.1V1133.6z M1035,1140.4h2.8
			c0.4,0,0.8,0,1.2-0.1c0.4-0.1,0.8-0.2,1.1-0.4s0.6-0.4,0.8-0.8c0.2-0.3,0.3-0.8,0.3-1.3c0-0.5-0.1-1-0.3-1.3
			c-0.2-0.3-0.4-0.6-0.8-0.8c-0.3-0.2-0.7-0.3-1.1-0.4c-0.4-0.1-0.8-0.1-1.2-0.1h-2.8V1140.4z"/>
		<path d="M1051.3,1133.6h1.9l6.7,15.6h-2.5l-1.6-3.8h-7.4l-1.5,3.8h-2.5L1051.3,1133.6z M1055,1143.4l-2.9-7.1h0l-2.9,7.1H1055z"/>
		<path d="M1061.9,1133.6h2.8l8.6,12.8h0v-12.8h2.1v15.6h-2.7l-8.7-12.8h0v12.8h-2.1V1133.6z"/>
		<path d="M1090.2,1136.9c-0.4-0.6-1-1-1.7-1.3c-0.7-0.3-1.4-0.5-2.1-0.5c-0.9,0-1.7,0.2-2.4,0.5c-0.7,0.3-1.3,0.8-1.8,1.4
			c-0.5,0.6-0.9,1.2-1.2,2c-0.3,0.8-0.4,1.6-0.4,2.5c0,0.8,0.1,1.6,0.4,2.3c0.3,0.7,0.6,1.4,1.1,1.9c0.5,0.6,1.1,1,1.8,1.3
			c0.7,0.3,1.5,0.5,2.4,0.5c0.9,0,1.7-0.2,2.4-0.5c0.7-0.4,1.2-0.9,1.7-1.5l1.8,1.3c-0.1,0.2-0.3,0.4-0.6,0.7
			c-0.3,0.3-0.7,0.6-1.2,0.9c-0.5,0.3-1.1,0.6-1.7,0.8c-0.7,0.2-1.5,0.3-2.4,0.3c-1.2,0-2.3-0.2-3.3-0.7c-1-0.5-1.8-1.1-2.5-1.8
			c-0.7-0.8-1.2-1.6-1.6-2.6c-0.4-1-0.5-1.9-0.5-2.9c0-1.2,0.2-2.3,0.6-3.3c0.4-1,0.9-1.9,1.7-2.6c0.7-0.7,1.6-1.3,2.6-1.7
			c1-0.4,2.1-0.6,3.3-0.6c1,0,2,0.2,3,0.6c1,0.4,1.8,1,2.4,1.8L1090.2,1136.9z"/>
		<path d="M1094.9,1133.6h10.1v2h-7.9v4.6h7.4v2h-7.4v5h8.3v2h-10.5V1133.6z"/>
	</g>
	<g class="st9">
		<path d="M350.3,1168.5h5.5c1,0,1.8,0.1,2.5,0.4s1.2,0.6,1.5,1s0.6,0.9,0.8,1.4s0.2,1,0.2,1.5c0,0.5-0.1,1-0.2,1.5s-0.4,1-0.8,1.4
			s-0.9,0.8-1.5,1c-0.6,0.3-1.5,0.4-2.5,0.4h-3.4v6.9h-2.1V1168.5z M352.4,1175.4h2.8c0.4,0,0.8,0,1.2-0.1c0.4-0.1,0.8-0.2,1.1-0.4
			c0.3-0.2,0.6-0.4,0.8-0.8s0.3-0.8,0.3-1.3c0-0.5-0.1-1-0.3-1.3s-0.4-0.6-0.8-0.8c-0.3-0.2-0.7-0.3-1.1-0.4
			c-0.4-0.1-0.8-0.1-1.2-0.1h-2.8V1175.4z"/>
		<path d="M363.4,1168.5h5.5c1,0,1.8,0.1,2.5,0.4c0.6,0.3,1.2,0.6,1.5,1s0.6,0.9,0.8,1.4s0.2,1,0.2,1.5c0,0.5-0.1,1-0.3,1.4
			s-0.4,0.9-0.8,1.3s-0.7,0.7-1.2,0.9c-0.5,0.3-1,0.4-1.6,0.5l4.4,7.1h-2.6l-4-6.9h-2.4v6.9h-2.1V1168.5z M365.5,1175.4h2.8
			c0.4,0,0.8,0,1.2-0.1c0.4-0.1,0.8-0.2,1.1-0.4s0.6-0.4,0.8-0.8c0.2-0.3,0.3-0.8,0.3-1.3c0-0.5-0.1-1-0.3-1.3
			c-0.2-0.3-0.4-0.6-0.8-0.8c-0.3-0.2-0.7-0.3-1.1-0.4c-0.4-0.1-0.8-0.1-1.2-0.1h-2.8V1175.4z"/>
		<path d="M376.8,1168.5h2.1v15.6h-2.1V1168.5z"/>
		<path d="M382.9,1168.5h2.8l8.6,12.8h0v-12.8h2.1v15.6h-2.7l-8.7-12.8h0v12.8h-2.1V1168.5z"/>
		<path d="M411.3,1171.9c-0.4-0.6-1-1-1.7-1.3c-0.7-0.3-1.4-0.5-2.1-0.5c-0.9,0-1.7,0.2-2.4,0.5c-0.7,0.3-1.3,0.8-1.8,1.4
			c-0.5,0.6-0.9,1.2-1.2,2c-0.3,0.8-0.4,1.6-0.4,2.5c0,0.8,0.1,1.6,0.4,2.3c0.3,0.7,0.6,1.4,1.1,1.9c0.5,0.6,1.1,1,1.8,1.3
			c0.7,0.3,1.5,0.5,2.4,0.5c0.9,0,1.7-0.2,2.4-0.5c0.7-0.4,1.2-0.9,1.7-1.5l1.8,1.3c-0.1,0.2-0.3,0.4-0.6,0.7
			c-0.3,0.3-0.7,0.6-1.2,0.9c-0.5,0.3-1.1,0.6-1.7,0.8c-0.7,0.2-1.5,0.3-2.4,0.3c-1.2,0-2.3-0.2-3.3-0.7c-1-0.5-1.8-1.1-2.5-1.8
			c-0.7-0.8-1.2-1.6-1.6-2.6c-0.4-1-0.5-1.9-0.5-2.9c0-1.2,0.2-2.3,0.6-3.3c0.4-1,0.9-1.9,1.7-2.6c0.7-0.7,1.6-1.3,2.6-1.7
			c1-0.4,2.1-0.6,3.3-0.6c1,0,2,0.2,3,0.6c1,0.4,1.8,1,2.4,1.8L411.3,1171.9z"/>
		<path d="M415.9,1168.5H426v2H418v4.6h7.4v2H418v5h8.3v2h-10.5V1168.5z"/>
	</g>
	<g class="st9">
		<path d="M331.9,1194.3H342v2h-7.9v4.6h7.4v2h-7.4v5h8.3v2h-10.5V1194.3z"/>
		<path d="M345.4,1194.3h2.8l8.6,12.8h0v-12.8h2.1v15.6h-2.7l-8.7-12.8h0v12.8h-2.1V1194.3z"/>
		<path d="M366.2,1196.3h-5v-2h12.1v2h-5v13.6h-2.1V1196.3z"/>
		<path d="M375.5,1194.3h5.5c1,0,1.8,0.1,2.5,0.4c0.6,0.3,1.2,0.6,1.5,1s0.6,0.9,0.8,1.4s0.2,1,0.2,1.5c0,0.5-0.1,1-0.3,1.4
			s-0.4,0.9-0.8,1.3s-0.7,0.7-1.2,0.9c-0.5,0.3-1,0.4-1.6,0.5l4.4,7.1h-2.6l-4-6.9h-2.4v6.9h-2.1V1194.3z M377.6,1201.1h2.8
			c0.4,0,0.8,0,1.2-0.1c0.4-0.1,0.8-0.2,1.1-0.4s0.6-0.4,0.8-0.8c0.2-0.3,0.3-0.8,0.3-1.3c0-0.5-0.1-1-0.3-1.3
			c-0.2-0.3-0.4-0.6-0.8-0.8c-0.3-0.2-0.7-0.3-1.1-0.4c-0.4-0.1-0.8-0.1-1.2-0.1h-2.8V1201.1z"/>
		<path d="M393.8,1194.3h1.9l6.7,15.6H400l-1.6-3.8H391l-1.5,3.8H387L393.8,1194.3z M397.6,1204.2l-2.9-7.1h0l-2.9,7.1H397.6z"/>
		<path d="M404.5,1194.3h2.8l8.6,12.8h0v-12.8h2.1v15.6h-2.7l-8.7-12.8h0v12.8h-2.1V1194.3z"/>
		<path d="M432.8,1197.7c-0.4-0.6-1-1-1.7-1.3c-0.7-0.3-1.4-0.5-2.1-0.5c-0.9,0-1.7,0.2-2.4,0.5c-0.7,0.3-1.3,0.8-1.8,1.4
			c-0.5,0.6-0.9,1.2-1.2,2c-0.3,0.8-0.4,1.6-0.4,2.5c0,0.8,0.1,1.6,0.4,2.3c0.3,0.7,0.6,1.4,1.1,1.9c0.5,0.6,1.1,1,1.8,1.3
			c0.7,0.3,1.5,0.5,2.4,0.5c0.9,0,1.7-0.2,2.4-0.5c0.7-0.4,1.2-0.9,1.7-1.5l1.8,1.3c-0.1,0.2-0.3,0.4-0.6,0.7
			c-0.3,0.3-0.7,0.6-1.2,0.9c-0.5,0.3-1.1,0.6-1.7,0.8c-0.7,0.2-1.5,0.3-2.4,0.3c-1.2,0-2.3-0.2-3.3-0.7c-1-0.5-1.8-1.1-2.5-1.8
			c-0.7-0.8-1.2-1.6-1.6-2.6c-0.4-1-0.5-1.9-0.5-2.9c0-1.2,0.2-2.3,0.6-3.3c0.4-1,0.9-1.9,1.7-2.6c0.7-0.7,1.6-1.3,2.6-1.7
			c1-0.4,2.1-0.6,3.3-0.6c1,0,2,0.2,3,0.6c1,0.4,1.8,1,2.4,1.8L432.8,1197.7z"/>
		<path d="M437.5,1194.3h10.1v2h-7.9v4.6h7.4v2h-7.4v5h8.3v2h-10.5V1194.3z"/>
	</g>
	<g class="st9">
		<path d="M209.8,1202.7c-0.4-0.6-1-1-1.7-1.3c-0.7-0.3-1.4-0.5-2.1-0.5c-0.9,0-1.7,0.2-2.4,0.5c-0.7,0.3-1.3,0.8-1.8,1.4
			c-0.5,0.6-0.9,1.2-1.2,2c-0.3,0.8-0.4,1.6-0.4,2.5c0,0.8,0.1,1.6,0.4,2.3c0.3,0.7,0.6,1.4,1.1,1.9s1.1,1,1.8,1.3
			c0.7,0.3,1.5,0.5,2.4,0.5c0.9,0,1.7-0.2,2.4-0.5c0.7-0.4,1.2-0.9,1.7-1.5l1.8,1.3c-0.1,0.2-0.3,0.4-0.6,0.7s-0.7,0.6-1.2,0.9
			c-0.5,0.3-1.1,0.6-1.7,0.8c-0.7,0.2-1.5,0.3-2.4,0.3c-1.2,0-2.3-0.2-3.3-0.7c-1-0.5-1.8-1.1-2.5-1.8c-0.7-0.8-1.2-1.6-1.6-2.6
			c-0.4-1-0.5-1.9-0.5-2.9c0-1.2,0.2-2.3,0.6-3.3c0.4-1,0.9-1.9,1.7-2.6c0.7-0.7,1.6-1.3,2.6-1.7c1-0.4,2.1-0.6,3.3-0.6
			c1,0,2,0.2,3,0.6c1,0.4,1.8,1,2.4,1.8L209.8,1202.7z"/>
		<path d="M214.5,1199.4h2.1v13.6h7.2v2h-9.3V1199.4z"/>
		<path d="M230.8,1199.4h1.9l6.7,15.6h-2.5l-1.6-3.8h-7.4l-1.5,3.8h-2.5L230.8,1199.4z M234.6,1209.2l-2.9-7.1h0l-2.9,7.1H234.6z"/>
		<path d="M241.8,1211.7c0.4,0.6,0.9,1,1.5,1.3c0.6,0.3,1.2,0.4,1.8,0.4c0.4,0,0.7-0.1,1.1-0.2s0.7-0.3,1-0.5s0.5-0.5,0.7-0.8
			c0.2-0.3,0.3-0.7,0.3-1.1c0-0.6-0.2-1.1-0.6-1.4s-0.9-0.6-1.4-0.8c-0.6-0.2-1.2-0.4-1.8-0.6s-1.3-0.5-1.8-0.8
			c-0.6-0.4-1-0.8-1.4-1.4s-0.6-1.4-0.6-2.4c0-0.5,0.1-0.9,0.3-1.5c0.2-0.5,0.5-1,0.9-1.4c0.4-0.4,1-0.8,1.6-1.1
			c0.7-0.3,1.5-0.4,2.4-0.4c0.9,0,1.7,0.1,2.4,0.4c0.8,0.2,1.5,0.7,2,1.4l-1.7,1.6c-0.3-0.4-0.6-0.7-1.1-1c-0.5-0.2-1-0.4-1.7-0.4
			c-0.6,0-1.1,0.1-1.5,0.2c-0.4,0.2-0.7,0.4-0.9,0.6s-0.4,0.5-0.5,0.8c-0.1,0.3-0.1,0.5-0.1,0.8c0,0.7,0.2,1.2,0.6,1.5
			c0.4,0.4,0.9,0.6,1.4,0.9c0.6,0.2,1.2,0.4,1.8,0.6c0.7,0.2,1.3,0.4,1.8,0.7c0.6,0.3,1,0.7,1.4,1.3c0.4,0.5,0.6,1.3,0.6,2.2
			c0,0.7-0.1,1.4-0.4,2c-0.3,0.6-0.7,1.1-1.2,1.5c-0.5,0.4-1.1,0.7-1.7,0.9c-0.7,0.2-1.4,0.3-2.1,0.3c-1,0-1.9-0.2-2.8-0.5
			c-0.9-0.4-1.6-0.9-2.1-1.6L241.8,1211.7z"/>
		<path d="M254.1,1211.7c0.4,0.6,0.9,1,1.5,1.3c0.6,0.3,1.2,0.4,1.8,0.4c0.4,0,0.7-0.1,1.1-0.2s0.7-0.3,1-0.5s0.5-0.5,0.7-0.8
			c0.2-0.3,0.3-0.7,0.3-1.1c0-0.6-0.2-1.1-0.6-1.4s-0.9-0.6-1.4-0.8c-0.6-0.2-1.2-0.4-1.8-0.6s-1.3-0.5-1.8-0.8
			c-0.6-0.4-1-0.8-1.4-1.4s-0.6-1.4-0.6-2.4c0-0.5,0.1-0.9,0.3-1.5c0.2-0.5,0.5-1,0.9-1.4c0.4-0.4,1-0.8,1.6-1.1
			c0.7-0.3,1.5-0.4,2.4-0.4c0.9,0,1.7,0.1,2.4,0.4c0.8,0.2,1.5,0.7,2,1.4l-1.7,1.6c-0.3-0.4-0.6-0.7-1.1-1c-0.5-0.2-1-0.4-1.7-0.4
			c-0.6,0-1.1,0.1-1.5,0.2c-0.4,0.2-0.7,0.4-0.9,0.6s-0.4,0.5-0.5,0.8c-0.1,0.3-0.1,0.5-0.1,0.8c0,0.7,0.2,1.2,0.6,1.5
			c0.4,0.4,0.9,0.6,1.4,0.9c0.6,0.2,1.2,0.4,1.8,0.6c0.7,0.2,1.3,0.4,1.8,0.7c0.6,0.3,1,0.7,1.4,1.3c0.4,0.5,0.6,1.3,0.6,2.2
			c0,0.7-0.1,1.4-0.4,2c-0.3,0.6-0.7,1.1-1.2,1.5c-0.5,0.4-1.1,0.7-1.7,0.9c-0.7,0.2-1.4,0.3-2.1,0.3c-1,0-1.9-0.2-2.8-0.5
			c-0.9-0.4-1.6-0.9-2.1-1.6L254.1,1211.7z"/>
		<path d="M265.9,1199.4h2.1v15.6h-2.1V1199.4z"/>
		<path d="M282.8,1202.7c-0.4-0.6-1-1-1.7-1.3c-0.7-0.3-1.4-0.5-2.1-0.5c-0.9,0-1.7,0.2-2.4,0.5c-0.7,0.3-1.3,0.8-1.8,1.4
			c-0.5,0.6-0.9,1.2-1.2,2c-0.3,0.8-0.4,1.6-0.4,2.5c0,0.8,0.1,1.6,0.4,2.3c0.3,0.7,0.6,1.4,1.1,1.9s1.1,1,1.8,1.3
			c0.7,0.3,1.5,0.5,2.4,0.5c0.9,0,1.7-0.2,2.4-0.5c0.7-0.4,1.2-0.9,1.7-1.5l1.8,1.3c-0.1,0.2-0.3,0.4-0.6,0.7s-0.7,0.6-1.2,0.9
			c-0.5,0.3-1.1,0.6-1.7,0.8c-0.7,0.2-1.5,0.3-2.4,0.3c-1.2,0-2.3-0.2-3.3-0.7c-1-0.5-1.8-1.1-2.5-1.8c-0.7-0.8-1.2-1.6-1.6-2.6
			c-0.4-1-0.5-1.9-0.5-2.9c0-1.2,0.2-2.3,0.6-3.3c0.4-1,0.9-1.9,1.7-2.6c0.7-0.7,1.6-1.3,2.6-1.7c1-0.4,2.1-0.6,3.3-0.6
			c1,0,2,0.2,3,0.6c1,0.4,1.8,1,2.4,1.8L282.8,1202.7z"/>
	</g>
	<g class="st9">
		<path d="M183.2,1228.9h10.1v2h-7.9v4.6h7.4v2h-7.4v5h8.3v2h-10.5V1228.9z"/>
		<path d="M196.6,1228.9h2.8l8.6,12.8h0v-12.8h2.1v15.6h-2.7l-8.7-12.8h0v12.8h-2.1V1228.9z"/>
		<path d="M217.4,1230.9h-5v-2h12.1v2h-5v13.6h-2.1V1230.9z"/>
		<path d="M226.7,1228.9h5.5c1,0,1.8,0.1,2.5,0.4s1.2,0.6,1.5,1s0.6,0.9,0.8,1.4s0.2,1,0.2,1.5c0,0.5-0.1,1-0.3,1.4
			c-0.2,0.5-0.4,0.9-0.8,1.3c-0.3,0.4-0.7,0.7-1.2,0.9c-0.5,0.3-1,0.4-1.6,0.5l4.4,7.1h-2.6l-4-6.9h-2.4v6.9h-2.1V1228.9z
			 M228.9,1235.8h2.8c0.4,0,0.8,0,1.2-0.1c0.4-0.1,0.8-0.2,1.1-0.4c0.3-0.2,0.6-0.4,0.8-0.8s0.3-0.8,0.3-1.3c0-0.5-0.1-1-0.3-1.3
			s-0.4-0.6-0.8-0.8c-0.3-0.2-0.7-0.3-1.1-0.4c-0.4-0.1-0.8-0.1-1.2-0.1h-2.8V1235.8z"/>
		<path d="M245.1,1228.9h1.9l6.7,15.6h-2.5l-1.6-3.8h-7.4l-1.5,3.8h-2.5L245.1,1228.9z M248.8,1238.8l-2.9-7.1h0l-2.9,7.1H248.8z"/>
		<path d="M255.7,1228.9h2.8l8.6,12.8h0v-12.8h2.1v15.6h-2.7l-8.7-12.8h0v12.8h-2.1V1228.9z"/>
		<path d="M284,1232.3c-0.4-0.6-1-1-1.7-1.3c-0.7-0.3-1.4-0.5-2.1-0.5c-0.9,0-1.7,0.2-2.4,0.5c-0.7,0.3-1.3,0.8-1.8,1.4
			c-0.5,0.6-0.9,1.2-1.2,2c-0.3,0.8-0.4,1.6-0.4,2.5c0,0.8,0.1,1.6,0.4,2.3c0.3,0.7,0.6,1.4,1.1,1.9s1.1,1,1.8,1.3
			c0.7,0.3,1.5,0.5,2.4,0.5c0.9,0,1.7-0.2,2.4-0.5c0.7-0.4,1.2-0.9,1.7-1.5l1.8,1.3c-0.1,0.2-0.3,0.4-0.6,0.7s-0.7,0.6-1.2,0.9
			c-0.5,0.3-1.1,0.6-1.7,0.8c-0.7,0.2-1.5,0.3-2.4,0.3c-1.2,0-2.3-0.2-3.3-0.7c-1-0.5-1.8-1.1-2.5-1.8c-0.7-0.8-1.2-1.6-1.6-2.6
			c-0.4-1-0.5-1.9-0.5-2.9c0-1.2,0.2-2.3,0.6-3.3c0.4-1,0.9-1.9,1.7-2.6c0.7-0.7,1.6-1.3,2.6-1.7c1-0.4,2.1-0.6,3.3-0.6
			c1,0,2,0.2,3,0.6c1,0.4,1.8,1,2.4,1.8L284,1232.3z"/>
		<path d="M288.7,1228.9h10.1v2h-7.9v4.6h7.4v2h-7.4v5h8.3v2h-10.5V1228.9z"/>
	</g>
	<g class="st9">
		<path d="M100,852.4h5.5c1,0,1.8,0.1,2.5,0.4s1.2,0.6,1.5,1s0.6,0.9,0.8,1.4s0.2,1,0.2,1.5c0,0.5-0.1,1-0.3,1.4
			c-0.2,0.5-0.4,0.9-0.8,1.3c-0.3,0.4-0.7,0.7-1.2,0.9c-0.5,0.3-1,0.4-1.6,0.5l4.4,7.1h-2.6l-4-6.9h-2.4v6.9H100V852.4z
			 M102.1,859.2h2.8c0.4,0,0.8,0,1.2-0.1c0.4-0.1,0.8-0.2,1.1-0.4c0.3-0.2,0.6-0.4,0.8-0.8s0.3-0.8,0.3-1.3c0-0.5-0.1-1-0.3-1.3
			s-0.4-0.6-0.8-0.8c-0.3-0.2-0.7-0.3-1.1-0.4c-0.4-0.1-0.8-0.1-1.2-0.1h-2.8V859.2z"/>
		<path d="M113.4,852.4h10.1v2h-7.9v4.6h7.4v2h-7.4v5h8.3v2h-10.5V852.4z"/>
		<path d="M127.3,864.7c0.4,0.6,0.9,1,1.5,1.3c0.6,0.3,1.2,0.4,1.8,0.4c0.4,0,0.7-0.1,1.1-0.2s0.7-0.3,1-0.5s0.5-0.5,0.7-0.8
			c0.2-0.3,0.3-0.7,0.3-1.1c0-0.6-0.2-1.1-0.6-1.4s-0.9-0.6-1.4-0.8c-0.6-0.2-1.2-0.4-1.8-0.6s-1.3-0.5-1.8-0.8
			c-0.6-0.4-1-0.8-1.4-1.4s-0.6-1.4-0.6-2.4c0-0.5,0.1-0.9,0.3-1.5c0.2-0.5,0.5-1,0.9-1.4c0.4-0.4,1-0.8,1.6-1.1
			c0.7-0.3,1.5-0.4,2.4-0.4c0.9,0,1.7,0.1,2.4,0.4c0.8,0.2,1.5,0.7,2,1.4l-1.7,1.6c-0.3-0.4-0.6-0.7-1.1-1c-0.5-0.2-1-0.4-1.7-0.4
			c-0.6,0-1.1,0.1-1.5,0.2c-0.4,0.2-0.7,0.4-0.9,0.6s-0.4,0.5-0.5,0.8c-0.1,0.3-0.1,0.5-0.1,0.8c0,0.7,0.2,1.2,0.6,1.5
			c0.4,0.4,0.9,0.6,1.4,0.9c0.6,0.2,1.2,0.4,1.8,0.6c0.7,0.2,1.3,0.4,1.8,0.7c0.6,0.3,1,0.7,1.4,1.3c0.4,0.5,0.6,1.3,0.6,2.2
			c0,0.7-0.1,1.4-0.4,2c-0.3,0.6-0.7,1.1-1.2,1.5c-0.5,0.4-1.1,0.7-1.7,0.9c-0.7,0.2-1.4,0.3-2.1,0.3c-1,0-1.9-0.2-2.8-0.5
			c-0.9-0.4-1.6-0.9-2.1-1.6L127.3,864.7z"/>
		<path d="M142.3,854.4h-5v-2h12.1v2h-5V868h-2.1V854.4z"/>
	</g>
	<g class="st9">
		<path d="M84.1,878.2h5.5c1,0,1.8,0.1,2.5,0.4s1.2,0.6,1.5,1s0.6,0.9,0.8,1.4s0.2,1,0.2,1.5c0,0.5-0.1,1-0.3,1.4
			c-0.2,0.5-0.4,0.9-0.8,1.3c-0.3,0.4-0.7,0.7-1.2,0.9c-0.5,0.3-1,0.4-1.6,0.5l4.4,7.1h-2.6l-4-6.9h-2.4v6.9h-2.1V878.2z M86.2,885
			H89c0.4,0,0.8,0,1.2-0.1c0.4-0.1,0.8-0.2,1.1-0.4c0.3-0.2,0.6-0.4,0.8-0.8s0.3-0.8,0.3-1.3c0-0.5-0.1-1-0.3-1.3s-0.4-0.6-0.8-0.8
			c-0.3-0.2-0.7-0.3-1.1-0.4c-0.4-0.1-0.8-0.1-1.2-0.1h-2.8V885z"/>
		<path d="M104.7,894.1c-1.2,0-2.3-0.2-3.3-0.6c-1-0.4-1.9-1-2.6-1.7s-1.3-1.6-1.7-2.6c-0.4-1-0.6-2.1-0.6-3.2
			c0-1.2,0.2-2.2,0.6-3.2c0.4-1,1-1.9,1.7-2.6s1.6-1.3,2.6-1.7c1-0.4,2.1-0.6,3.3-0.6s2.3,0.2,3.3,0.6c1,0.4,1.9,1,2.6,1.7
			c0.7,0.7,1.3,1.6,1.7,2.6c0.4,1,0.6,2.1,0.6,3.2c0,1.2-0.2,2.2-0.6,3.2c-0.4,1-1,1.9-1.7,2.6c-0.7,0.7-1.6,1.3-2.6,1.7
			C107,893.9,105.9,894.1,104.7,894.1z M104.7,892.1c0.9,0,1.7-0.2,2.4-0.5s1.3-0.8,1.8-1.3c0.5-0.6,0.9-1.2,1.2-2
			c0.3-0.8,0.4-1.6,0.4-2.4s-0.1-1.7-0.4-2.4c-0.3-0.8-0.7-1.4-1.2-2c-0.5-0.6-1.1-1-1.8-1.3s-1.5-0.5-2.4-0.5s-1.7,0.2-2.4,0.5
			c-0.7,0.3-1.3,0.8-1.8,1.3c-0.5,0.6-0.9,1.2-1.2,2c-0.3,0.8-0.4,1.6-0.4,2.4s0.1,1.7,0.4,2.4c0.3,0.8,0.7,1.4,1.2,2
			c0.5,0.6,1.1,1,1.8,1.3C103,892,103.8,892.1,104.7,892.1z"/>
		<path d="M123,894.1c-1.2,0-2.3-0.2-3.3-0.6c-1-0.4-1.9-1-2.6-1.7s-1.3-1.6-1.7-2.6c-0.4-1-0.6-2.1-0.6-3.2c0-1.2,0.2-2.2,0.6-3.2
			c0.4-1,1-1.9,1.7-2.6s1.6-1.3,2.6-1.7c1-0.4,2.1-0.6,3.3-0.6s2.3,0.2,3.3,0.6c1,0.4,1.9,1,2.6,1.7c0.7,0.7,1.3,1.6,1.7,2.6
			c0.4,1,0.6,2.1,0.6,3.2c0,1.2-0.2,2.2-0.6,3.2c-0.4,1-1,1.9-1.7,2.6c-0.7,0.7-1.6,1.3-2.6,1.7C125.3,893.9,124.2,894.1,123,894.1z
			 M123,892.1c0.9,0,1.7-0.2,2.4-0.5s1.3-0.8,1.8-1.3c0.5-0.6,0.9-1.2,1.2-2c0.3-0.8,0.4-1.6,0.4-2.4s-0.1-1.7-0.4-2.4
			c-0.3-0.8-0.7-1.4-1.2-2c-0.5-0.6-1.1-1-1.8-1.3s-1.5-0.5-2.4-0.5s-1.7,0.2-2.4,0.5c-0.7,0.3-1.3,0.8-1.8,1.3
			c-0.5,0.6-0.9,1.2-1.2,2c-0.3,0.8-0.4,1.6-0.4,2.4s0.1,1.7,0.4,2.4c0.3,0.8,0.7,1.4,1.2,2c0.5,0.6,1.1,1,1.8,1.3
			C121.3,892,122.1,892.1,123,892.1z"/>
		<path d="M134,878.2h3.1l4.9,11.8h0.1l4.9-11.8h3.1v15.6h-2.1v-12.8h0l-5.3,12.8h-1.4l-5.3-12.8h0v12.8H134V878.2z"/>
		<path d="M154.6,890.5c0.4,0.6,0.9,1,1.5,1.3c0.6,0.3,1.2,0.4,1.8,0.4c0.4,0,0.7-0.1,1.1-0.2s0.7-0.3,1-0.5s0.5-0.5,0.7-0.8
			c0.2-0.3,0.3-0.7,0.3-1.1c0-0.6-0.2-1.1-0.6-1.4s-0.9-0.6-1.4-0.8c-0.6-0.2-1.2-0.4-1.8-0.6s-1.3-0.5-1.8-0.8
			c-0.6-0.4-1-0.8-1.4-1.4s-0.6-1.4-0.6-2.4c0-0.5,0.1-0.9,0.3-1.5c0.2-0.5,0.5-1,0.9-1.4c0.4-0.4,1-0.8,1.6-1.1
			c0.7-0.3,1.5-0.4,2.4-0.4c0.9,0,1.7,0.1,2.4,0.4c0.8,0.2,1.5,0.7,2,1.4l-1.7,1.6c-0.3-0.4-0.6-0.7-1.1-1c-0.5-0.2-1-0.4-1.7-0.4
			c-0.6,0-1.1,0.1-1.5,0.2c-0.4,0.2-0.7,0.4-0.9,0.6s-0.4,0.5-0.5,0.8c-0.1,0.3-0.1,0.5-0.1,0.8c0,0.7,0.2,1.2,0.6,1.5
			c0.4,0.4,0.9,0.6,1.4,0.9c0.6,0.2,1.2,0.4,1.8,0.6c0.7,0.2,1.3,0.4,1.8,0.7c0.6,0.3,1,0.7,1.4,1.3c0.4,0.5,0.6,1.3,0.6,2.2
			c0,0.7-0.1,1.4-0.4,2c-0.3,0.6-0.7,1.1-1.2,1.5c-0.5,0.4-1.1,0.7-1.7,0.9c-0.7,0.2-1.4,0.3-2.1,0.3c-1,0-1.9-0.2-2.8-0.5
			c-0.9-0.4-1.6-0.9-2.1-1.6L154.6,890.5z"/>
	</g>
	<g class="st9">
		<path d="M103.6,1059.4c-1.2,0-2.3-0.2-3.3-0.6c-1-0.4-1.9-1-2.6-1.7s-1.3-1.6-1.7-2.6c-0.4-1-0.6-2.1-0.6-3.2
			c0-1.2,0.2-2.2,0.6-3.2c0.4-1,1-1.9,1.7-2.6s1.6-1.3,2.6-1.7c1-0.4,2.1-0.6,3.3-0.6s2.3,0.2,3.3,0.6c1,0.4,1.9,1,2.6,1.7
			c0.7,0.7,1.3,1.6,1.7,2.6c0.4,1,0.6,2.1,0.6,3.2c0,1.2-0.2,2.2-0.6,3.2c-0.4,1-1,1.9-1.7,2.6c-0.7,0.7-1.6,1.3-2.6,1.7
			C105.9,1059.2,104.8,1059.4,103.6,1059.4z M103.6,1057.4c0.9,0,1.7-0.2,2.4-0.5s1.3-0.8,1.8-1.3c0.5-0.6,0.9-1.2,1.2-2
			c0.3-0.8,0.4-1.6,0.4-2.4s-0.1-1.7-0.4-2.4c-0.3-0.8-0.7-1.4-1.2-2c-0.5-0.6-1.1-1-1.8-1.3s-1.5-0.5-2.4-0.5s-1.7,0.2-2.4,0.5
			c-0.7,0.3-1.3,0.8-1.8,1.3c-0.5,0.6-0.9,1.2-1.2,2c-0.3,0.8-0.4,1.6-0.4,2.4s0.1,1.7,0.4,2.4c0.3,0.8,0.7,1.4,1.2,2
			c0.5,0.6,1.1,1,1.8,1.3C101.9,1057.3,102.7,1057.4,103.6,1057.4z"/>
		<path d="M114.7,1043.4h9.8v2h-7.7v4.9h7.2v2h-7.2v6.7h-2.1V1043.4z"/>
		<path d="M127.4,1043.4h9.8v2h-7.7v4.9h7.2v2h-7.2v6.7h-2.1V1043.4z"/>
		<path d="M140,1043.4h2.1v15.6H140V1043.4z"/>
		<path d="M156.9,1046.8c-0.4-0.6-1-1-1.7-1.3c-0.7-0.3-1.4-0.5-2.1-0.5c-0.9,0-1.7,0.2-2.4,0.5c-0.7,0.3-1.3,0.8-1.8,1.4
			c-0.5,0.6-0.9,1.2-1.2,2c-0.3,0.8-0.4,1.6-0.4,2.5c0,0.8,0.1,1.6,0.4,2.3c0.3,0.7,0.6,1.4,1.1,1.9s1.1,1,1.8,1.3
			c0.7,0.3,1.5,0.5,2.4,0.5c0.9,0,1.7-0.2,2.4-0.5c0.7-0.4,1.2-0.9,1.7-1.5l1.8,1.3c-0.1,0.2-0.3,0.4-0.6,0.7s-0.7,0.6-1.2,0.9
			c-0.5,0.3-1.1,0.6-1.7,0.8c-0.7,0.2-1.5,0.3-2.4,0.3c-1.2,0-2.3-0.2-3.3-0.7c-1-0.5-1.8-1.1-2.5-1.8c-0.7-0.8-1.2-1.6-1.6-2.6
			c-0.4-1-0.5-1.9-0.5-2.9c0-1.2,0.2-2.3,0.6-3.3c0.4-1,0.9-1.9,1.7-2.6c0.7-0.7,1.6-1.3,2.6-1.7c1-0.4,2.1-0.6,3.3-0.6
			c1,0,2,0.2,3,0.6c1,0.4,1.8,1,2.4,1.8L156.9,1046.8z"/>
		<path d="M161.6,1043.4h10.1v2h-7.9v4.6h7.4v2h-7.4v5h8.3v2h-10.5V1043.4z"/>
	</g>
	<g class="st9">
		<path d="M1211.7,835.8h4.5c0.8,0,1.5,0.1,2,0.3c0.5,0.2,0.9,0.5,1.3,0.8c0.3,0.3,0.5,0.7,0.6,1.2c0.1,0.4,0.2,0.8,0.2,1.2
			c0,0.4-0.1,0.8-0.2,1.2c-0.1,0.4-0.4,0.7-0.6,1c-0.3,0.3-0.6,0.6-1,0.8s-0.8,0.3-1.3,0.4l3.6,5.8h-2.2l-3.2-5.6h-1.9v5.6h-1.7
			V835.8z M1213.4,841.4h2.3c0.3,0,0.7,0,1-0.1s0.6-0.2,0.9-0.3c0.3-0.1,0.5-0.4,0.6-0.6c0.2-0.3,0.2-0.6,0.2-1.1
			c0-0.4-0.1-0.8-0.2-1.1c-0.2-0.3-0.4-0.5-0.6-0.6c-0.3-0.1-0.6-0.2-0.9-0.3c-0.3-0.1-0.7-0.1-1-0.1h-2.3V841.4z"/>
		<path d="M1222.7,835.8h8.2v1.6h-6.5v3.8h6v1.6h-6v4.1h6.8v1.6h-8.6V835.8z"/>
		<path d="M1234.1,845.9c0.3,0.5,0.7,0.8,1.2,1s1,0.3,1.5,0.3c0.3,0,0.6,0,0.9-0.1c0.3-0.1,0.6-0.2,0.8-0.4s0.4-0.4,0.6-0.7
			c0.2-0.3,0.2-0.6,0.2-0.9c0-0.5-0.2-0.9-0.5-1.1c-0.3-0.3-0.7-0.5-1.2-0.6c-0.5-0.2-1-0.3-1.5-0.5c-0.5-0.2-1.1-0.4-1.5-0.7
			s-0.8-0.7-1.2-1.2c-0.3-0.5-0.5-1.1-0.5-2c0-0.4,0.1-0.8,0.2-1.2c0.2-0.4,0.4-0.8,0.8-1.2c0.3-0.3,0.8-0.6,1.3-0.9
			c0.5-0.2,1.2-0.4,2-0.4c0.7,0,1.4,0.1,2,0.3c0.6,0.2,1.2,0.6,1.7,1.2l-1.4,1.3c-0.2-0.3-0.5-0.6-0.9-0.8c-0.4-0.2-0.8-0.3-1.3-0.3
			c-0.5,0-0.9,0.1-1.2,0.2c-0.3,0.1-0.6,0.3-0.8,0.5c-0.2,0.2-0.3,0.4-0.4,0.6s-0.1,0.4-0.1,0.6c0,0.5,0.2,1,0.5,1.2
			c0.3,0.3,0.7,0.5,1.2,0.7c0.5,0.2,1,0.3,1.5,0.5c0.5,0.1,1,0.3,1.5,0.6s0.8,0.6,1.2,1c0.3,0.4,0.5,1,0.5,1.8
			c0,0.6-0.1,1.2-0.4,1.7c-0.2,0.5-0.5,0.9-0.9,1.2c-0.4,0.3-0.9,0.6-1.4,0.8c-0.5,0.2-1.1,0.3-1.7,0.3c-0.8,0-1.6-0.1-2.3-0.4
			s-1.3-0.7-1.7-1.3L1234.1,845.9z"/>
		<path d="M1246.4,837.4h-4.1v-1.6h9.9v1.6h-4.1v11.1h-1.7V837.4z"/>
	</g>
	<g class="st9">
		<path d="M1211,854h4.5c0.8,0,1.5,0.1,2,0.3c0.5,0.2,0.9,0.5,1.3,0.8c0.3,0.3,0.5,0.7,0.6,1.2c0.1,0.4,0.2,0.8,0.2,1.2
			c0,0.4-0.1,0.8-0.2,1.2c-0.1,0.4-0.4,0.7-0.6,1c-0.3,0.3-0.6,0.6-1,0.8s-0.8,0.3-1.3,0.4l3.6,5.8h-2.2l-3.2-5.6h-1.9v5.6h-1.7V854
			z M1212.7,859.6h2.3c0.3,0,0.7,0,1-0.1s0.6-0.2,0.9-0.3c0.3-0.1,0.5-0.4,0.6-0.6c0.2-0.3,0.2-0.6,0.2-1.1c0-0.4-0.1-0.8-0.2-1.1
			c-0.2-0.3-0.4-0.5-0.6-0.6c-0.3-0.1-0.6-0.2-0.9-0.3c-0.3-0.1-0.7-0.1-1-0.1h-2.3V859.6z"/>
		<path d="M1227.8,867.1c-1,0-1.9-0.2-2.7-0.5c-0.8-0.3-1.5-0.8-2.1-1.4c-0.6-0.6-1-1.3-1.4-2.1c-0.3-0.8-0.5-1.7-0.5-2.6
			c0-0.9,0.2-1.8,0.5-2.6c0.3-0.8,0.8-1.5,1.4-2.1c0.6-0.6,1.3-1.1,2.1-1.4c0.8-0.3,1.7-0.5,2.7-0.5c1,0,1.9,0.2,2.7,0.5
			c0.8,0.3,1.5,0.8,2.1,1.4c0.6,0.6,1,1.3,1.4,2.1c0.3,0.8,0.5,1.7,0.5,2.6c0,0.9-0.2,1.8-0.5,2.6c-0.3,0.8-0.8,1.5-1.4,2.1
			c-0.6,0.6-1.3,1.1-2.1,1.4C1229.7,866.9,1228.8,867.1,1227.8,867.1z M1227.8,865.5c0.7,0,1.4-0.1,2-0.4c0.6-0.3,1.1-0.6,1.5-1.1
			c0.4-0.5,0.7-1,1-1.6c0.2-0.6,0.3-1.3,0.3-2c0-0.7-0.1-1.4-0.3-2c-0.2-0.6-0.6-1.2-1-1.6c-0.4-0.5-0.9-0.8-1.5-1.1
			c-0.6-0.3-1.2-0.4-2-0.4c-0.7,0-1.4,0.1-2,0.4c-0.6,0.3-1.1,0.6-1.5,1.1s-0.7,1-1,1.6c-0.2,0.6-0.3,1.3-0.3,2c0,0.7,0.1,1.4,0.3,2
			c0.2,0.6,0.6,1.2,1,1.6s0.9,0.8,1.5,1.1C1226.4,865.3,1227.1,865.5,1227.8,865.5z"/>
		<path d="M1242.8,867.1c-1,0-1.9-0.2-2.7-0.5c-0.8-0.3-1.5-0.8-2.1-1.4c-0.6-0.6-1-1.3-1.4-2.1c-0.3-0.8-0.5-1.7-0.5-2.6
			c0-0.9,0.2-1.8,0.5-2.6c0.3-0.8,0.8-1.5,1.4-2.1c0.6-0.6,1.3-1.1,2.1-1.4c0.8-0.3,1.7-0.5,2.7-0.5c1,0,1.9,0.2,2.7,0.5
			c0.8,0.3,1.5,0.8,2.1,1.4c0.6,0.6,1,1.3,1.4,2.1c0.3,0.8,0.5,1.7,0.5,2.6c0,0.9-0.2,1.8-0.5,2.6c-0.3,0.8-0.8,1.5-1.4,2.1
			c-0.6,0.6-1.3,1.1-2.1,1.4C1244.7,866.9,1243.8,867.1,1242.8,867.1z M1242.8,865.5c0.7,0,1.4-0.1,2-0.4c0.6-0.3,1.1-0.6,1.5-1.1
			c0.4-0.5,0.7-1,1-1.6c0.2-0.6,0.3-1.3,0.3-2c0-0.7-0.1-1.4-0.3-2c-0.2-0.6-0.6-1.2-1-1.6c-0.4-0.5-0.9-0.8-1.5-1.1
			c-0.6-0.3-1.2-0.4-2-0.4c-0.7,0-1.4,0.1-2,0.4c-0.6,0.3-1.1,0.6-1.5,1.1s-0.7,1-1,1.6c-0.2,0.6-0.3,1.3-0.3,2c0,0.7,0.1,1.4,0.3,2
			c0.2,0.6,0.6,1.2,1,1.6s0.9,0.8,1.5,1.1C1241.4,865.3,1242.1,865.5,1242.8,865.5z"/>
		<path d="M1251.8,854h2.6l4,9.6h0.1l4-9.6h2.6v12.7h-1.7v-10.5h0l-4.3,10.5h-1.2l-4.3-10.5h0v10.5h-1.7V854z"/>
	</g>
	<g class="st9">
		<path d="M1211.7,884.8h4.5c0.8,0,1.5,0.1,2,0.3c0.5,0.2,0.9,0.5,1.3,0.8c0.3,0.3,0.5,0.7,0.6,1.2c0.1,0.4,0.2,0.8,0.2,1.2
			c0,0.4-0.1,0.8-0.2,1.2c-0.1,0.4-0.4,0.7-0.6,1c-0.3,0.3-0.6,0.6-1,0.8s-0.8,0.3-1.3,0.4l3.6,5.8h-2.2l-3.2-5.6h-1.9v5.6h-1.7
			V884.8z M1213.4,890.5h2.3c0.3,0,0.7,0,1-0.1s0.6-0.2,0.9-0.3c0.3-0.1,0.5-0.4,0.6-0.6c0.2-0.3,0.2-0.6,0.2-1.1
			c0-0.4-0.1-0.8-0.2-1.1c-0.2-0.3-0.4-0.5-0.6-0.6c-0.3-0.1-0.6-0.2-0.9-0.3c-0.3-0.1-0.7-0.1-1-0.1h-2.3V890.5z"/>
		<path d="M1222.7,884.8h8.2v1.6h-6.5v3.8h6v1.6h-6v4.1h6.8v1.6h-8.6V884.8z"/>
		<path d="M1234.1,894.9c0.3,0.5,0.7,0.8,1.2,1s1,0.3,1.5,0.3c0.3,0,0.6,0,0.9-0.1c0.3-0.1,0.6-0.2,0.8-0.4s0.4-0.4,0.6-0.7
			c0.2-0.3,0.2-0.6,0.2-0.9c0-0.5-0.2-0.9-0.5-1.1c-0.3-0.3-0.7-0.5-1.2-0.6c-0.5-0.2-1-0.3-1.5-0.5c-0.5-0.2-1.1-0.4-1.5-0.7
			s-0.8-0.7-1.2-1.2c-0.3-0.5-0.5-1.1-0.5-2c0-0.4,0.1-0.8,0.2-1.2c0.2-0.4,0.4-0.8,0.8-1.2c0.3-0.3,0.8-0.6,1.3-0.9
			c0.5-0.2,1.2-0.4,2-0.4c0.7,0,1.4,0.1,2,0.3c0.6,0.2,1.2,0.6,1.7,1.2l-1.4,1.3c-0.2-0.3-0.5-0.6-0.9-0.8c-0.4-0.2-0.8-0.3-1.3-0.3
			c-0.5,0-0.9,0.1-1.2,0.2c-0.3,0.1-0.6,0.3-0.8,0.5c-0.2,0.2-0.3,0.4-0.4,0.6s-0.1,0.4-0.1,0.6c0,0.5,0.2,1,0.5,1.2
			c0.3,0.3,0.7,0.5,1.2,0.7c0.5,0.2,1,0.3,1.5,0.5c0.5,0.1,1,0.3,1.5,0.6s0.8,0.6,1.2,1c0.3,0.4,0.5,1,0.5,1.8
			c0,0.6-0.1,1.2-0.4,1.7c-0.2,0.5-0.5,0.9-0.9,1.2c-0.4,0.3-0.9,0.6-1.4,0.8c-0.5,0.2-1.1,0.3-1.7,0.3c-0.8,0-1.6-0.1-2.3-0.4
			s-1.3-0.7-1.7-1.3L1234.1,894.9z"/>
		<path d="M1246.4,886.5h-4.1v-1.6h9.9v1.6h-4.1v11.1h-1.7V886.5z"/>
	</g>
	<g class="st9">
		<path d="M1211,903.1h4.5c0.8,0,1.5,0.1,2,0.3c0.5,0.2,0.9,0.5,1.3,0.8c0.3,0.3,0.5,0.7,0.6,1.2c0.1,0.4,0.2,0.8,0.2,1.2
			c0,0.4-0.1,0.8-0.2,1.2c-0.1,0.4-0.4,0.7-0.6,1c-0.3,0.3-0.6,0.6-1,0.8s-0.8,0.3-1.3,0.4l3.6,5.8h-2.2l-3.2-5.6h-1.9v5.6h-1.7
			V903.1z M1212.7,908.7h2.3c0.3,0,0.7,0,1-0.1s0.6-0.2,0.9-0.3c0.3-0.1,0.5-0.4,0.6-0.6c0.2-0.3,0.2-0.6,0.2-1.1
			c0-0.4-0.1-0.8-0.2-1.1c-0.2-0.3-0.4-0.5-0.6-0.6c-0.3-0.1-0.6-0.2-0.9-0.3c-0.3-0.1-0.7-0.1-1-0.1h-2.3V908.7z"/>
		<path d="M1227.8,916.1c-1,0-1.9-0.2-2.7-0.5c-0.8-0.3-1.5-0.8-2.1-1.4c-0.6-0.6-1-1.3-1.4-2.1c-0.3-0.8-0.5-1.7-0.5-2.6
			c0-0.9,0.2-1.8,0.5-2.6c0.3-0.8,0.8-1.5,1.4-2.1c0.6-0.6,1.3-1.1,2.1-1.4c0.8-0.3,1.7-0.5,2.7-0.5c1,0,1.9,0.2,2.7,0.5
			c0.8,0.3,1.5,0.8,2.1,1.4c0.6,0.6,1,1.3,1.4,2.1c0.3,0.8,0.5,1.7,0.5,2.6c0,0.9-0.2,1.8-0.5,2.6c-0.3,0.8-0.8,1.5-1.4,2.1
			c-0.6,0.6-1.3,1.1-2.1,1.4C1229.7,916,1228.8,916.1,1227.8,916.1z M1227.8,914.5c0.7,0,1.4-0.1,2-0.4c0.6-0.3,1.1-0.6,1.5-1.1
			c0.4-0.5,0.7-1,1-1.6c0.2-0.6,0.3-1.3,0.3-2c0-0.7-0.1-1.4-0.3-2c-0.2-0.6-0.6-1.2-1-1.6c-0.4-0.5-0.9-0.8-1.5-1.1
			c-0.6-0.3-1.2-0.4-2-0.4c-0.7,0-1.4,0.1-2,0.4c-0.6,0.3-1.1,0.6-1.5,1.1s-0.7,1-1,1.6c-0.2,0.6-0.3,1.3-0.3,2c0,0.7,0.1,1.4,0.3,2
			c0.2,0.6,0.6,1.2,1,1.6s0.9,0.8,1.5,1.1C1226.4,914.4,1227.1,914.5,1227.8,914.5z"/>
		<path d="M1242.8,916.1c-1,0-1.9-0.2-2.7-0.5c-0.8-0.3-1.5-0.8-2.1-1.4c-0.6-0.6-1-1.3-1.4-2.1c-0.3-0.8-0.5-1.7-0.5-2.6
			c0-0.9,0.2-1.8,0.5-2.6c0.3-0.8,0.8-1.5,1.4-2.1c0.6-0.6,1.3-1.1,2.1-1.4c0.8-0.3,1.7-0.5,2.7-0.5c1,0,1.9,0.2,2.7,0.5
			c0.8,0.3,1.5,0.8,2.1,1.4c0.6,0.6,1,1.3,1.4,2.1c0.3,0.8,0.5,1.7,0.5,2.6c0,0.9-0.2,1.8-0.5,2.6c-0.3,0.8-0.8,1.5-1.4,2.1
			c-0.6,0.6-1.3,1.1-2.1,1.4C1244.7,916,1243.8,916.1,1242.8,916.1z M1242.8,914.5c0.7,0,1.4-0.1,2-0.4c0.6-0.3,1.1-0.6,1.5-1.1
			c0.4-0.5,0.7-1,1-1.6c0.2-0.6,0.3-1.3,0.3-2c0-0.7-0.1-1.4-0.3-2c-0.2-0.6-0.6-1.2-1-1.6c-0.4-0.5-0.9-0.8-1.5-1.1
			c-0.6-0.3-1.2-0.4-2-0.4c-0.7,0-1.4,0.1-2,0.4c-0.6,0.3-1.1,0.6-1.5,1.1s-0.7,1-1,1.6c-0.2,0.6-0.3,1.3-0.3,2c0,0.7,0.1,1.4,0.3,2
			c0.2,0.6,0.6,1.2,1,1.6s0.9,0.8,1.5,1.1C1241.4,914.4,1242.1,914.5,1242.8,914.5z"/>
		<path d="M1251.8,903.1h2.6l4,9.6h0.1l4-9.6h2.6v12.7h-1.7v-10.5h0l-4.3,10.5h-1.2l-4.3-10.5h0v10.5h-1.7V903.1z"/>
	</g>
	<g class="st9">
		<path d="M1107.8,990c-0.6-0.1-1.2,0-1.7,0.2c-0.6,0.2-1.1,0.5-1.5,0.9c-0.5,0.5-0.9,1.1-1.1,1.7c-0.2,0.6-0.3,1.2-0.3,1.8
			s0.2,1.2,0.5,1.8s0.7,1.2,1.2,1.7c0.5,0.5,1,0.8,1.6,1.1c0.6,0.3,1.2,0.4,1.8,0.5c0.6,0,1.2-0.1,1.8-0.3c0.6-0.2,1.2-0.6,1.7-1.1
			c0.5-0.5,0.9-1.1,1-1.7c0.2-0.6,0.2-1.2,0.1-1.9l1.8-0.3c0,0.2,0,0.4,0,0.8c0,0.3,0,0.7-0.2,1.2s-0.3,0.9-0.6,1.5s-0.7,1-1.2,1.6
			c-0.7,0.7-1.5,1.2-2.3,1.5c-0.8,0.3-1.7,0.4-2.5,0.4c-0.8,0-1.7-0.2-2.4-0.6c-0.8-0.3-1.4-0.8-2-1.4c-0.7-0.7-1.2-1.5-1.6-2.3
			c-0.4-0.8-0.5-1.6-0.6-2.5c0-0.8,0.1-1.7,0.5-2.5c0.3-0.8,0.9-1.6,1.6-2.3c0.6-0.6,1.3-1.1,2.1-1.4c0.8-0.3,1.6-0.5,2.5-0.3
			L1107.8,990z"/>
		<path d="M1108.6,985.4l1.2-1.2l9,9l-1.2,1.2L1108.6,985.4z"/>
		<path d="M1112.1,981.9l3.2-3.2c0.6-0.6,1.1-1,1.7-1.2c0.5-0.2,1-0.3,1.5-0.3c0.5,0,0.9,0.1,1.3,0.4c0.4,0.2,0.7,0.5,1,0.7
			c0.3,0.3,0.5,0.6,0.7,1c0.2,0.4,0.3,0.8,0.3,1.2c0,0.4,0,0.8-0.2,1.2c-0.1,0.4-0.3,0.8-0.6,1.2l6.7,1.6l-1.5,1.5l-6.3-1.7
			l-1.4,1.4l4,4l-1.2,1.2L1112.1,981.9z M1117.3,984.6l1.6-1.6c0.2-0.2,0.5-0.5,0.6-0.8c0.2-0.3,0.3-0.5,0.4-0.8
			c0.1-0.3,0.1-0.6,0-0.9c-0.1-0.3-0.3-0.6-0.6-0.9c-0.3-0.3-0.6-0.5-0.9-0.6c-0.3-0.1-0.6-0.1-0.9,0c-0.3,0.1-0.6,0.2-0.8,0.4
			c-0.3,0.2-0.5,0.4-0.8,0.7l-1.6,1.6L1117.3,984.6z"/>
		<path d="M1128.1,969.8c-0.6-0.1-1.2,0-1.7,0.2c-0.6,0.2-1.1,0.5-1.5,0.9c-0.5,0.5-0.9,1.1-1.1,1.7c-0.2,0.6-0.3,1.2-0.3,1.8
			s0.2,1.2,0.5,1.8c0.3,0.6,0.7,1.2,1.2,1.7c0.5,0.5,1,0.8,1.6,1.1c0.6,0.3,1.2,0.4,1.8,0.5c0.6,0,1.2-0.1,1.8-0.3
			c0.6-0.2,1.2-0.6,1.7-1.1c0.5-0.5,0.9-1.1,1-1.7c0.2-0.6,0.2-1.2,0.1-1.9l1.8-0.3c0,0.2,0,0.4,0,0.8c0,0.3,0,0.7-0.2,1.2
			s-0.3,0.9-0.6,1.5s-0.7,1-1.2,1.6c-0.7,0.7-1.5,1.2-2.3,1.5c-0.8,0.3-1.7,0.4-2.5,0.4c-0.8,0-1.7-0.2-2.4-0.6
			c-0.8-0.3-1.4-0.8-2-1.4c-0.7-0.7-1.2-1.5-1.6-2.3c-0.4-0.8-0.5-1.6-0.6-2.5c0-0.8,0.1-1.7,0.5-2.5c0.3-0.8,0.9-1.6,1.6-2.3
			c0.6-0.6,1.3-1.1,2.1-1.4c0.8-0.3,1.6-0.5,2.5-0.3L1128.1,969.8z"/>
		<path d="M1129.9,964.1l5.5,5.5c0.3,0.3,0.6,0.5,1,0.8c0.4,0.2,0.8,0.4,1.2,0.5c0.4,0.1,0.9,0,1.3-0.1c0.4-0.1,0.9-0.4,1.3-0.8
			c0.4-0.4,0.7-0.9,0.8-1.3c0.1-0.5,0.2-0.9,0.1-1.3c-0.1-0.4-0.2-0.8-0.5-1.2c-0.2-0.4-0.5-0.7-0.8-1l-5.5-5.5l1.2-1.2l5.7,5.7
			c0.5,0.5,0.9,1.1,1.2,1.7c0.3,0.6,0.4,1.2,0.4,1.9c0,0.6-0.1,1.2-0.4,1.8c-0.3,0.6-0.6,1.1-1.1,1.6s-1,0.9-1.6,1.1
			c-0.6,0.3-1.2,0.4-1.8,0.4c-0.6,0-1.2-0.1-1.9-0.4c-0.6-0.2-1.2-0.6-1.7-1.2l-5.7-5.7L1129.9,964.1z"/>
		<path d="M1137.8,956.2l1.2-1.2l7.9,7.9l4.1-4.1l1.1,1.1l-5.4,5.4L1137.8,956.2z"/>
		<path d="M1147.2,946.7l1.1-1.1l12.9,5.2l-1.4,1.4l-3.1-1.3l-4.3,4.3l1.3,3.1l-1.4,1.4L1147.2,946.7z M1155.1,950.3l-5.8-2.5l0,0
			l2.4,5.8L1155.1,950.3z"/>
		<path d="M1153.4,940.6l3.2-3.2c0.6-0.6,1.1-1,1.7-1.2c0.5-0.2,1-0.3,1.5-0.3c0.5,0,0.9,0.1,1.3,0.4c0.4,0.2,0.7,0.5,1,0.7
			c0.3,0.3,0.5,0.6,0.7,1c0.2,0.4,0.3,0.8,0.3,1.2c0,0.4,0,0.8-0.2,1.2c-0.1,0.4-0.3,0.8-0.6,1.2l6.7,1.6l-1.5,1.5l-6.3-1.7
			l-1.4,1.4l4,4l-1.2,1.2L1153.4,940.6z M1158.6,943.3l1.6-1.6c0.2-0.2,0.5-0.5,0.6-0.8c0.2-0.3,0.3-0.5,0.4-0.8
			c0.1-0.3,0.1-0.6,0-0.9c-0.1-0.3-0.3-0.6-0.6-0.9c-0.3-0.3-0.6-0.5-0.9-0.6c-0.3-0.1-0.6-0.1-0.9,0c-0.3,0.1-0.6,0.2-0.8,0.4
			s-0.5,0.4-0.8,0.6l-1.6,1.6L1158.6,943.3z"/>
	</g>
	<g class="st9">
		<path d="M1133.3,991.3l3.1-3.1c0.4-0.4,0.8-0.7,1.2-0.9c0.4-0.2,0.9-0.4,1.3-0.5c0.4-0.1,0.8,0,1.3,0.1c0.4,0.1,0.8,0.4,1.2,0.8
			c0.5,0.5,0.8,1.1,0.8,1.7c0,0.6-0.1,1.2-0.4,1.8l0,0c0.3-0.3,0.6-0.4,1-0.6c0.4-0.1,0.7-0.2,1.1-0.1c0.4,0,0.7,0.1,1.1,0.3
			c0.4,0.2,0.7,0.4,1,0.7c0.4,0.4,0.7,0.8,0.8,1.3c0.1,0.5,0.2,1,0.1,1.5c-0.1,0.5-0.2,1-0.5,1.5c-0.3,0.5-0.6,1-1.1,1.4l-3.1,3.1
			L1133.3,991.3z M1138.2,993.8l1.7-1.7c0.2-0.2,0.4-0.5,0.6-0.7c0.2-0.3,0.3-0.5,0.3-0.8c0-0.3,0-0.5-0.1-0.8
			c-0.1-0.3-0.2-0.5-0.5-0.8c-0.4-0.4-0.8-0.6-1.3-0.6c-0.5,0-1,0.2-1.5,0.7l-1.9,1.9L1138.2,993.8z M1142.4,998l1.8-1.8
			c0.2-0.2,0.4-0.4,0.6-0.7c0.2-0.3,0.3-0.5,0.4-0.9s0.1-0.6,0-1c-0.1-0.3-0.2-0.7-0.6-1c-0.5-0.5-1.1-0.8-1.7-0.7
			c-0.6,0.1-1.2,0.4-1.8,1l-1.8,1.8L1142.4,998z"/>
		<path d="M1144.1,980.4l1.1-1.1l12.9,5.2l-1.4,1.4l-3.1-1.3l-4.3,4.3l1.3,3.1l-1.4,1.4L1144.1,980.4z M1152,983.9l-5.8-2.5l0,0
			l2.4,5.8L1152,983.9z"/>
		<path d="M1150.2,974.3l3.2-3.2c0.6-0.6,1.1-1,1.7-1.2c0.5-0.2,1-0.3,1.5-0.3c0.5,0,0.9,0.1,1.3,0.4c0.4,0.2,0.7,0.5,1,0.7
			c0.3,0.3,0.5,0.6,0.7,1c0.2,0.4,0.3,0.8,0.3,1.2c0,0.4,0,0.8-0.2,1.2c-0.1,0.4-0.3,0.8-0.6,1.2l6.7,1.6l-1.5,1.5l-6.3-1.7
			l-1.4,1.4l4,4l-1.2,1.2L1150.2,974.3z M1155.4,977l1.6-1.6c0.2-0.2,0.5-0.5,0.6-0.8s0.3-0.5,0.4-0.8s0.1-0.6,0-0.9
			c-0.1-0.3-0.3-0.6-0.6-0.9s-0.6-0.5-0.9-0.6c-0.3-0.1-0.6-0.1-0.9,0s-0.6,0.2-0.8,0.4s-0.5,0.4-0.8,0.6l-1.6,1.6L1155.4,977z"/>
	</g>
	<g class="st9">
		<path d="M349.2,956.8v3.4c0,0.4-0.1,0.8-0.2,1.2c-0.1,0.4-0.3,0.7-0.5,1c-0.2,0.3-0.5,0.5-0.8,0.6c-0.3,0.2-0.7,0.2-1.1,0.2
			c-0.6,0-1-0.2-1.4-0.5s-0.6-0.7-0.8-1.2h0c0,0.3-0.1,0.6-0.2,0.8c-0.1,0.3-0.3,0.5-0.5,0.7s-0.5,0.3-0.8,0.5
			c-0.3,0.1-0.6,0.2-0.9,0.2c-0.4,0-0.8-0.1-1.2-0.3c-0.3-0.2-0.6-0.4-0.9-0.7s-0.4-0.7-0.5-1.1c-0.1-0.4-0.2-0.9-0.2-1.4v-3.4
			H349.2z M340.5,958.1v2c0,0.2,0,0.4,0.1,0.7c0,0.2,0.1,0.5,0.3,0.7s0.3,0.4,0.5,0.5s0.5,0.2,0.9,0.2c0.6,0,1-0.2,1.3-0.6
			c0.3-0.4,0.4-0.9,0.4-1.6v-2H340.5z M345.1,958.1v1.8c0,0.3,0,0.5,0.1,0.7s0.1,0.4,0.3,0.6c0.1,0.2,0.3,0.3,0.5,0.4
			c0.2,0.1,0.4,0.1,0.7,0.1c0.4,0,0.7-0.1,1-0.4c0.3-0.3,0.4-0.6,0.4-1.2v-2.1H345.1z"/>
		<path d="M349.2,968.7v1.2l-9.9,4.2v-1.6l2.5-1v-4.7l-2.5-1v-1.6L349.2,968.7z M343,971.1l4.5-1.8v0l-4.5-1.9V971.1z"/>
		<path d="M349.2,975.4v3.5c0,0.6-0.1,1.2-0.3,1.6c-0.2,0.4-0.4,0.7-0.7,1c-0.3,0.2-0.6,0.4-0.9,0.5c-0.3,0.1-0.7,0.1-1,0.1
			c-0.3,0-0.6-0.1-0.9-0.2c-0.3-0.1-0.6-0.3-0.8-0.5c-0.2-0.2-0.4-0.5-0.6-0.8c-0.2-0.3-0.3-0.6-0.3-1l-4.5,2.8v-1.7l4.4-2.5v-1.5
			h-4.4v-1.3H349.2z M344.9,976.8v1.8c0,0.3,0,0.5,0.1,0.8s0.1,0.5,0.2,0.7c0.1,0.2,0.3,0.4,0.5,0.5s0.5,0.2,0.8,0.2
			s0.6-0.1,0.8-0.2s0.4-0.3,0.5-0.5c0.1-0.2,0.2-0.4,0.2-0.7s0.1-0.5,0.1-0.8v-1.8H344.9z"/>
	</g>
	<g class="st9">
		<path d="M1155.2,544.5v6.4h-1.3v-5.1h-3v4.7h-1.3v-4.7h-3.2v5.3h-1.3v-6.6H1155.2z"/>
		<path d="M1155.2,553.1v1.8l-8.1,5.5v0h8.1v1.3h-9.9V560l8.1-5.5v0h-8.1v-1.3H1155.2z"/>
		<path d="M1154,566.3v-3.2h1.3v7.7h-1.3v-3.2h-8.7v-1.3H1154z"/>
		<path d="M1155.2,572.3v3.5c0,0.6-0.1,1.2-0.3,1.6c-0.2,0.4-0.4,0.7-0.7,1c-0.3,0.2-0.6,0.4-0.9,0.5c-0.3,0.1-0.7,0.1-1,0.1
			c-0.3,0-0.6-0.1-0.9-0.2c-0.3-0.1-0.6-0.3-0.8-0.5s-0.4-0.5-0.6-0.8c-0.2-0.3-0.3-0.6-0.3-1l-4.5,2.8v-1.7l4.4-2.5v-1.5h-4.4v-1.3
			H1155.2z M1150.9,573.6v1.8c0,0.3,0,0.5,0.1,0.8s0.1,0.5,0.2,0.7c0.1,0.2,0.3,0.4,0.5,0.5s0.5,0.2,0.8,0.2s0.6-0.1,0.8-0.2
			s0.4-0.3,0.5-0.5c0.1-0.2,0.2-0.4,0.2-0.7s0.1-0.5,0.1-0.8v-1.8H1150.9z"/>
		<path d="M1155.2,583.9v1.2l-9.9,4.2v-1.6l2.5-1v-4.7l-2.5-1v-1.6L1155.2,583.9z M1149,586.3l4.5-1.8v0l-4.5-1.9V586.3z"/>
		<path d="M1155.2,590.7v1.8l-8.1,5.5v0h8.1v1.3h-9.9v-1.7l8.1-5.5v0h-8.1v-1.3H1155.2z"/>
		<path d="M1153.1,608.7c0.4-0.3,0.6-0.6,0.8-1.1c0.2-0.4,0.3-0.9,0.3-1.3c0-0.6-0.1-1.1-0.3-1.5c-0.2-0.5-0.5-0.8-0.9-1.2
			c-0.4-0.3-0.8-0.6-1.3-0.7c-0.5-0.2-1-0.3-1.6-0.3c-0.5,0-1,0.1-1.5,0.3s-0.9,0.4-1.2,0.7c-0.4,0.3-0.6,0.7-0.8,1.2
			c-0.2,0.5-0.3,1-0.3,1.6c0,0.6,0.1,1.1,0.4,1.5c0.2,0.4,0.6,0.8,1,1.1l-0.9,1.1c-0.1-0.1-0.2-0.2-0.4-0.4
			c-0.2-0.2-0.4-0.4-0.6-0.7s-0.4-0.7-0.5-1.1c-0.1-0.4-0.2-0.9-0.2-1.5c0-0.8,0.1-1.5,0.4-2.1c0.3-0.6,0.7-1.2,1.2-1.6
			c0.5-0.4,1-0.8,1.6-1s1.2-0.3,1.9-0.3c0.8,0,1.5,0.1,2.1,0.4c0.6,0.3,1.2,0.6,1.7,1.1c0.5,0.5,0.8,1,1.1,1.6
			c0.3,0.6,0.4,1.3,0.4,2.1c0,0.7-0.1,1.3-0.4,1.9s-0.6,1.1-1.2,1.5L1153.1,608.7z"/>
		<path d="M1155.2,611.7v6.4h-1.3V613h-3v4.7h-1.3V613h-3.2v5.3h-1.3v-6.6H1155.2z"/>
	</g>
	<g class="st9">
		<path d="M325.2,892.8v3.4c0,0.4-0.1,0.8-0.2,1.2c-0.1,0.4-0.3,0.7-0.5,1c-0.2,0.3-0.5,0.5-0.8,0.6c-0.3,0.2-0.7,0.2-1.1,0.2
			c-0.6,0-1-0.2-1.4-0.5s-0.6-0.7-0.8-1.2h0c0,0.3-0.1,0.6-0.2,0.8c-0.1,0.3-0.3,0.5-0.5,0.7s-0.5,0.3-0.8,0.5
			c-0.3,0.1-0.6,0.2-0.9,0.2c-0.4,0-0.8-0.1-1.2-0.3c-0.3-0.2-0.6-0.4-0.9-0.7s-0.4-0.7-0.5-1.1c-0.1-0.4-0.2-0.9-0.2-1.4v-3.4
			H325.2z M316.5,894.1v2c0,0.2,0,0.4,0.1,0.7c0,0.2,0.1,0.5,0.3,0.7s0.3,0.4,0.5,0.5s0.5,0.2,0.9,0.2c0.6,0,1-0.2,1.3-0.6
			c0.3-0.4,0.4-0.9,0.4-1.6v-2H316.5z M321.1,894.1v1.8c0,0.3,0,0.5,0.1,0.7s0.1,0.4,0.3,0.6c0.1,0.2,0.3,0.3,0.5,0.4
			c0.2,0.1,0.4,0.1,0.7,0.1c0.4,0,0.7-0.1,1-0.4c0.3-0.3,0.4-0.6,0.4-1.2v-2.1H321.1z"/>
		<path d="M325.2,904.7v1.2l-9.9,4.2v-1.6l2.5-1v-4.7l-2.5-1v-1.6L325.2,904.7z M319,907.1l4.5-1.8v0l-4.5-1.9V907.1z"/>
		<path d="M325.2,911.4v3.5c0,0.6-0.1,1.2-0.3,1.6c-0.2,0.4-0.4,0.7-0.7,1c-0.3,0.2-0.6,0.4-0.9,0.5c-0.3,0.1-0.7,0.1-1,0.1
			c-0.3,0-0.6-0.1-0.9-0.2c-0.3-0.1-0.6-0.3-0.8-0.5c-0.2-0.2-0.4-0.5-0.6-0.8c-0.2-0.3-0.3-0.6-0.3-1l-4.5,2.8v-1.7l4.4-2.5v-1.5
			h-4.4v-1.3H325.2z M320.9,912.8v1.8c0,0.3,0,0.5,0.1,0.8s0.1,0.5,0.2,0.7c0.1,0.2,0.3,0.4,0.5,0.5s0.5,0.2,0.8,0.2
			s0.6-0.1,0.8-0.2s0.4-0.3,0.5-0.5c0.1-0.2,0.2-0.4,0.2-0.7s0.1-0.5,0.1-0.8v-1.8H320.9z"/>
	</g>
	<g class="st9">
		<path d="M325.2,754.7v1.4l-7.9,2.2v0l7.9,2.3v1.5l-7.9,2.3v0l7.9,2.2v1.4l-9.9-2.9v-1.4l8.1-2.4v0l-8.1-2.4v-1.4L325.2,754.7z"/>
		<path d="M325.2,772.2v1.2l-9.9,4.2v-1.6l2.5-1v-4.7l-2.5-1v-1.6L325.2,772.2z M319,774.6l4.5-1.8v0l-4.5-1.9V774.6z"/>
		<path d="M324,779.7v-3.2h1.3v7.7H324v-3.2h-8.7v-1.3H324z"/>
		<path d="M325.2,785.7v6.4H324V787h-3v4.7h-1.3V787h-3.2v5.3h-1.3v-6.6H325.2z"/>
		<path d="M325.2,794.2v3.5c0,0.6-0.1,1.2-0.3,1.6c-0.2,0.4-0.4,0.7-0.7,1c-0.3,0.2-0.6,0.4-0.9,0.5c-0.3,0.1-0.7,0.1-1,0.1
			c-0.3,0-0.6-0.1-0.9-0.2c-0.3-0.1-0.6-0.3-0.8-0.5c-0.2-0.2-0.4-0.5-0.6-0.8c-0.2-0.3-0.3-0.6-0.3-1l-4.5,2.8v-1.7l4.4-2.5v-1.5
			h-4.4v-1.3H325.2z M320.9,795.6v1.8c0,0.3,0,0.5,0.1,0.8s0.1,0.5,0.2,0.7c0.1,0.2,0.3,0.4,0.5,0.5s0.5,0.2,0.8,0.2
			s0.6-0.1,0.8-0.2s0.4-0.3,0.5-0.5c0.1-0.2,0.2-0.4,0.2-0.7s0.1-0.5,0.1-0.8v-1.8H320.9z"/>
		<path d="M325.2,802.8v6.2H324v-4.9h-3.1v4.5h-1.3v-4.5h-4.3v-1.3H325.2z"/>
		<path d="M325.2,813.2v1.2l-9.9,4.2v-1.6l2.5-1v-4.7l-2.5-1v-1.6L325.2,813.2z M319,815.6l4.5-1.8v0l-4.5-1.9V815.6z"/>
		<path d="M325.2,819.9v1.3h-8.7v4.5h-1.3v-5.9H325.2z"/>
		<path d="M325.2,827.2v1.3h-8.7v4.5h-1.3v-5.9H325.2z"/>
	</g>
	<g class="st9">
		<path d="M1347.2,276.5v6.4h-1.3v-5.1h-3v4.7h-1.3v-4.7h-3.2v5.3h-1.3v-6.6H1347.2z"/>
		<path d="M1347.2,285.1v1.8l-8.1,5.5v0h8.1v1.3h-9.9V292l8.1-5.5v0h-8.1v-1.3H1347.2z"/>
		<path d="M1346,298.3v-3.2h1.3v7.7h-1.3v-3.2h-8.7v-1.3H1346z"/>
		<path d="M1347.2,304.3v3.5c0,0.6-0.1,1.2-0.3,1.6c-0.2,0.4-0.4,0.7-0.7,1c-0.3,0.2-0.6,0.4-0.9,0.5c-0.3,0.1-0.7,0.1-1,0.1
			c-0.3,0-0.6-0.1-0.9-0.2s-0.6-0.3-0.8-0.5s-0.4-0.5-0.6-0.8c-0.2-0.3-0.3-0.6-0.3-1l-4.5,2.8v-1.7l4.4-2.5v-1.5h-4.4v-1.3H1347.2z
			 M1342.9,305.6v1.8c0,0.3,0,0.5,0.1,0.8c0,0.3,0.1,0.5,0.2,0.7c0.1,0.2,0.3,0.4,0.5,0.5c0.2,0.1,0.5,0.2,0.8,0.2s0.6-0.1,0.8-0.2
			c0.2-0.1,0.4-0.3,0.5-0.5c0.1-0.2,0.2-0.4,0.2-0.7c0-0.3,0.1-0.5,0.1-0.8v-1.8H1342.9z"/>
		<path d="M1347.2,315.9v1.2l-9.9,4.2v-1.6l2.5-1v-4.7l-2.5-1v-1.6L1347.2,315.9z M1341,318.3l4.5-1.8v0l-4.5-1.9V318.3z"/>
		<path d="M1347.2,322.7v1.8l-8.1,5.5v0h8.1v1.3h-9.9v-1.7l8.1-5.5v0h-8.1v-1.3H1347.2z"/>
		<path d="M1345.1,340.7c0.4-0.3,0.6-0.6,0.8-1.1c0.2-0.4,0.3-0.9,0.3-1.3c0-0.6-0.1-1.1-0.3-1.5c-0.2-0.5-0.5-0.8-0.9-1.2
			c-0.4-0.3-0.8-0.6-1.3-0.7c-0.5-0.2-1-0.3-1.6-0.3c-0.5,0-1,0.1-1.5,0.3s-0.9,0.4-1.2,0.7c-0.4,0.3-0.6,0.7-0.8,1.2
			c-0.2,0.5-0.3,1-0.3,1.6c0,0.6,0.1,1.1,0.4,1.5c0.2,0.4,0.6,0.8,1,1.1l-0.9,1.1c-0.1-0.1-0.2-0.2-0.4-0.4
			c-0.2-0.2-0.4-0.4-0.6-0.7s-0.4-0.7-0.5-1.1c-0.1-0.4-0.2-0.9-0.2-1.5c0-0.8,0.1-1.5,0.4-2.1c0.3-0.6,0.7-1.2,1.2-1.6
			c0.5-0.4,1-0.8,1.6-1s1.2-0.3,1.9-0.3c0.8,0,1.5,0.1,2.1,0.4c0.6,0.3,1.2,0.6,1.7,1.1c0.5,0.5,0.8,1,1.1,1.6
			c0.3,0.6,0.4,1.3,0.4,2.1c0,0.7-0.1,1.3-0.4,1.9s-0.6,1.1-1.2,1.5L1345.1,340.7z"/>
		<path d="M1347.2,343.7v6.4h-1.3V345h-3v4.7h-1.3V345h-3.2v5.3h-1.3v-6.6H1347.2z"/>
	</g>
	<g>
		<g class="st9">
			<path d="M1160.4,386.3v-4.1h1.6v9.9h-1.6V388h-11.1v-1.7H1160.4z"/>
			<path d="M1162.1,392.3v1.8l-10.2,2.8v0l10.2,3v2l-10.2,3v0l10.2,2.8v1.8l-12.7-3.7V404l10.4-3.1v0l-10.4-3.1V396L1162.1,392.3z"
				/>
			<path d="M1149,417.1c0-1,0.2-1.9,0.5-2.7c0.3-0.8,0.8-1.5,1.4-2.1c0.6-0.6,1.3-1,2.1-1.4c0.8-0.3,1.7-0.5,2.6-0.5
				c0.9,0,1.8,0.2,2.6,0.5c0.8,0.3,1.5,0.8,2.1,1.4c0.6,0.6,1.1,1.3,1.4,2.1c0.3,0.8,0.5,1.7,0.5,2.7c0,1-0.2,1.9-0.5,2.7
				c-0.3,0.8-0.8,1.5-1.4,2.1c-0.6,0.6-1.3,1-2.1,1.4c-0.8,0.3-1.7,0.5-2.6,0.5c-0.9,0-1.8-0.2-2.6-0.5c-0.8-0.3-1.5-0.8-2.1-1.4
				c-0.6-0.6-1.1-1.3-1.4-2.1C1149.2,419,1149,418.1,1149,417.1z M1150.6,417.1c0,0.7,0.1,1.4,0.4,2c0.3,0.6,0.6,1.1,1.1,1.5
				c0.5,0.4,1,0.7,1.6,1c0.6,0.2,1.3,0.3,2,0.3c0.7,0,1.4-0.1,2-0.3c0.6-0.2,1.2-0.6,1.6-1c0.5-0.4,0.8-0.9,1.1-1.5
				c0.3-0.6,0.4-1.2,0.4-2c0-0.7-0.1-1.4-0.4-2c-0.3-0.6-0.6-1.1-1.1-1.5s-1-0.7-1.6-1c-0.6-0.2-1.3-0.3-2-0.3c-0.7,0-1.4,0.1-2,0.3
				c-0.6,0.2-1.2,0.6-1.6,1s-0.8,0.9-1.1,1.5C1150.8,415.7,1150.6,416.4,1150.6,417.1z"/>
			<path d="M1162.1,431.2v8h-1.6V433h-4v5.8h-1.6V433h-5.5v-1.7H1162.1z"/>
			<path d="M1162.1,444.6v1.6l-12.7,5.5v-2l3.2-1.3v-6.1l-3.2-1.3v-2L1162.1,444.6z M1154,447.7l5.8-2.4v0l-5.8-2.4V447.7z"/>
			<path d="M1159.3,462.1c0.5-0.4,0.8-0.8,1.1-1.4c0.3-0.6,0.4-1.1,0.4-1.7c0-0.7-0.1-1.4-0.4-2c-0.3-0.6-0.6-1.1-1.1-1.5
				c-0.5-0.4-1-0.7-1.6-1c-0.6-0.2-1.3-0.3-2-0.3c-0.7,0-1.3,0.1-1.9,0.3c-0.6,0.2-1.1,0.5-1.6,0.9c-0.5,0.4-0.8,0.9-1.1,1.5
				c-0.3,0.6-0.4,1.3-0.4,2c0,0.7,0.2,1.4,0.5,1.9c0.3,0.6,0.7,1,1.3,1.4l-1.1,1.5c-0.1-0.1-0.3-0.3-0.6-0.5s-0.5-0.6-0.7-1
				c-0.2-0.4-0.5-0.9-0.6-1.4s-0.3-1.2-0.3-1.9c0-1,0.2-1.9,0.6-2.7c0.4-0.8,0.9-1.5,1.5-2.1c0.6-0.6,1.3-1,2.1-1.3s1.6-0.5,2.4-0.5
				c1,0,1.9,0.2,2.7,0.5s1.6,0.8,2.2,1.4c0.6,0.6,1.1,1.3,1.4,2.1c0.3,0.8,0.5,1.7,0.5,2.7c0,0.8-0.2,1.7-0.5,2.5
				c-0.3,0.8-0.8,1.5-1.5,2L1159.3,462.1z"/>
			<path d="M1162.1,465.9v8.2h-1.6v-6.5h-3.8v6h-1.6v-6h-4.1v6.8h-1.6v-8.6H1162.1z"/>
		</g>
		<g class="st9">
			<path d="M1140.5,413.2v4.4c0,0.6-0.1,1.1-0.2,1.5c-0.1,0.5-0.3,0.9-0.6,1.2s-0.6,0.6-1,0.8c-0.4,0.2-0.9,0.3-1.4,0.3
				c-0.7,0-1.3-0.2-1.8-0.6c-0.5-0.4-0.8-0.9-1-1.6h0c0,0.4-0.1,0.7-0.3,1.1s-0.4,0.6-0.7,0.9c-0.3,0.2-0.6,0.4-1,0.6
				c-0.4,0.1-0.8,0.2-1.2,0.2c-0.6,0-1.1-0.1-1.5-0.4c-0.4-0.2-0.8-0.6-1.1-1s-0.5-0.9-0.7-1.4c-0.2-0.5-0.2-1.1-0.2-1.7v-4.4
				H1140.5z M1129.2,414.9v2.5c0,0.3,0,0.6,0.1,0.9c0.1,0.3,0.2,0.6,0.3,0.9s0.4,0.5,0.7,0.7c0.3,0.2,0.6,0.3,1.1,0.3
				c0.8,0,1.3-0.2,1.7-0.7s0.6-1.2,0.6-2v-2.6H1129.2z M1135.2,414.9v2.4c0,0.3,0,0.6,0.1,0.9c0.1,0.3,0.2,0.5,0.3,0.8
				c0.2,0.2,0.4,0.4,0.6,0.5c0.2,0.1,0.5,0.2,0.9,0.2c0.5,0,0.9-0.2,1.3-0.5s0.6-0.8,0.6-1.5v-2.7H1135.2z"/>
			<path d="M1140.5,428.5v1.6l-12.7,5.5v-2l3.2-1.3v-6.1l-3.2-1.3v-2L1140.5,428.5z M1132.4,431.6l5.8-2.4v0l-5.8-2.4V431.6z"/>
			<path d="M1140.5,437.2v4.5c0,0.8-0.1,1.5-0.3,2c-0.2,0.5-0.5,0.9-0.8,1.3c-0.3,0.3-0.7,0.5-1.2,0.6c-0.4,0.1-0.8,0.2-1.2,0.2
				c-0.4,0-0.8-0.1-1.2-0.2c-0.4-0.1-0.7-0.4-1-0.6c-0.3-0.3-0.6-0.6-0.8-1s-0.3-0.8-0.4-1.3l-5.8,3.6v-2.2l5.6-3.2v-1.9h-5.6v-1.7
				H1140.5z M1134.9,438.9v2.3c0,0.3,0,0.7,0.1,1s0.2,0.6,0.3,0.9c0.1,0.3,0.4,0.5,0.6,0.6c0.3,0.2,0.6,0.2,1.1,0.2
				c0.4,0,0.8-0.1,1.1-0.2c0.3-0.2,0.5-0.4,0.6-0.6c0.1-0.3,0.2-0.6,0.3-0.9c0.1-0.3,0.1-0.7,0.1-1v-2.3H1134.9z"/>
		</g>
	</g>
	<g class="st9">
		<path d="M1362.4,543c0.6-0.4,1-1,1.3-1.7c0.3-0.7,0.5-1.4,0.5-2.1c0-0.9-0.2-1.7-0.5-2.4c-0.3-0.7-0.8-1.3-1.4-1.8
			c-0.6-0.5-1.2-0.9-2-1.2c-0.8-0.3-1.6-0.4-2.5-0.4c-0.8,0-1.6,0.1-2.3,0.4c-0.7,0.3-1.4,0.6-1.9,1.1c-0.6,0.5-1,1.1-1.3,1.8
			c-0.3,0.7-0.5,1.5-0.5,2.4c0,0.9,0.2,1.7,0.5,2.4c0.4,0.7,0.9,1.2,1.5,1.7l-1.3,1.8c-0.2-0.1-0.4-0.3-0.7-0.6
			c-0.3-0.3-0.6-0.7-0.9-1.2c-0.3-0.5-0.6-1.1-0.8-1.7c-0.2-0.7-0.3-1.5-0.3-2.4c0-1.2,0.2-2.3,0.7-3.3c0.5-1,1.1-1.8,1.8-2.5
			c0.8-0.7,1.6-1.2,2.6-1.6c1-0.4,1.9-0.5,2.9-0.5c1.2,0,2.3,0.2,3.3,0.6c1,0.4,1.9,0.9,2.6,1.7c0.7,0.7,1.3,1.6,1.7,2.6
			c0.4,1,0.6,2.1,0.6,3.3c0,1-0.2,2-0.6,3c-0.4,1-1,1.8-1.8,2.4L1362.4,543z"/>
		<path d="M1365.8,552.6v1.9l-15.6,6.7v-2.5l3.8-1.6v-7.4l-3.8-1.5v-2.5L1365.8,552.6z M1355.9,556.3l7.1-2.9v0l-7.1-2.9V556.3z"/>
		<path d="M1365.8,563.2v2.8l-12.8,8.6v0h12.8v2.1h-15.6V574l12.8-8.7v0h-12.8v-2.1H1365.8z"/>
		<path d="M1349.8,587.8c0-1.2,0.2-2.3,0.6-3.3c0.4-1,1-1.9,1.7-2.6c0.7-0.7,1.6-1.3,2.6-1.7s2.1-0.6,3.2-0.6c1.2,0,2.2,0.2,3.2,0.6
			c1,0.4,1.9,1,2.6,1.7c0.7,0.7,1.3,1.6,1.7,2.6c0.4,1,0.6,2.1,0.6,3.3c0,1.2-0.2,2.3-0.6,3.3s-1,1.9-1.7,2.6
			c-0.7,0.7-1.6,1.3-2.6,1.7c-1,0.4-2.1,0.6-3.2,0.6c-1.2,0-2.2-0.2-3.2-0.6s-1.9-1-2.6-1.7c-0.7-0.7-1.3-1.6-1.7-2.6
			S1349.8,589,1349.8,587.8z M1351.8,587.8c0,0.9,0.2,1.7,0.5,2.4c0.3,0.7,0.8,1.3,1.3,1.8c0.6,0.5,1.2,0.9,2,1.2
			c0.8,0.3,1.6,0.4,2.4,0.4s1.7-0.1,2.4-0.4c0.8-0.3,1.4-0.7,2-1.2s1-1.1,1.3-1.8c0.3-0.7,0.5-1.5,0.5-2.4c0-0.9-0.2-1.7-0.5-2.4
			c-0.3-0.7-0.8-1.3-1.3-1.8s-1.2-0.9-2-1.2c-0.8-0.3-1.6-0.4-2.4-0.4s-1.7,0.1-2.4,0.4c-0.8,0.3-1.4,0.7-2,1.2
			c-0.6,0.5-1,1.1-1.3,1.8C1352,586.1,1351.8,586.9,1351.8,587.8z"/>
		<path d="M1365.8,599v5.5c0,1-0.1,1.8-0.4,2.5c-0.3,0.6-0.6,1.2-1,1.5s-0.9,0.6-1.4,0.8s-1,0.2-1.5,0.2c-0.5,0-1-0.1-1.5-0.2
			s-1-0.4-1.4-0.8s-0.8-0.9-1-1.5c-0.3-0.6-0.4-1.5-0.4-2.5v-3.4h-6.9V599H1365.8z M1358.9,601.1v2.8c0,0.4,0,0.8,0.1,1.2
			c0.1,0.4,0.2,0.8,0.4,1.1s0.4,0.6,0.8,0.8c0.3,0.2,0.8,0.3,1.3,0.3c0.5,0,1-0.1,1.3-0.3c0.3-0.2,0.6-0.4,0.8-0.8
			c0.2-0.3,0.3-0.7,0.4-1.1c0.1-0.4,0.1-0.8,0.1-1.2v-2.8H1358.9z"/>
		<path d="M1356.9,615.7l8.9-5.9v2.7l-6.8,4.2l6.8,4.4v2.6l-8.9-5.9h-6.6v-2.1H1356.9z"/>
	</g>
</g>
</svg>
