<?xml version="1.0" encoding="utf-8"?>
<!-- Generator: Adobe Illustrator 24.1.2, SVG Export Plug-In . SVG Version: 6.00 Build 0)  -->
<svg version="1.1" id="Layer_1" xmlns="http://www.w3.org/2000/svg" xmlns:xlink="http://www.w3.org/1999/xlink" x="0px" y="0px"
	 viewBox="0 0 44 44" enable-background="new 0 0 44 44" xml:space="preserve">
<path id="Path_63" fill="#A7A7A9" d="M34.3,0.8v0.3h0.1l0.1,0.1l0.2-0.2l-0.1-0.1l-0.1,0H34.3z"/>
<path id="Path_64" fill="#A7A7A9" d="M43.4,33.6h-0.3v-0.3h0.3V33.6z M43.4,32.7h-0.3v-0.3h0.3V32.7z M43.4,31.9h-0.3v-0.3h0.3V31.9
	z M43.4,31.1h-0.3v-0.3h0.3V31.1z M43.4,30.2h-0.3v-0.3h0.3V30.2z M43.4,29.4h-0.3v-0.3h0.3V29.4z M43.4,28.5h-0.3v-0.3h0.3V28.5z
	 M43.4,27.7h-0.3v-0.3h0.3V27.7z M43.4,26.9h-0.3v-0.3h0.3V26.9z M43.4,26h-0.3v-0.3h0.3V26z M43.4,25.2h-0.3v-0.3h0.3V25.2z
	 M43.4,24.3h-0.3v-0.3h0.3V24.3z M43.4,23.5h-0.3v-0.3h0.3V23.5z M43.4,22.7h-0.3v-0.3h0.3V22.7z M43.4,21.8h-0.3v-0.3h0.3V21.8z
	 M43.4,21h-0.3v-0.3h0.3V21z M43.4,20.1h-0.3v-0.3h0.3V20.1z M43.4,19.3h-0.3V19h0.3V19.3z M43.4,18.5h-0.3v-0.3h0.3V18.5z
	 M43.4,17.6h-0.3v-0.3h0.3V17.6z M43.4,16.8h-0.3v-0.3h0.3V16.8z M43.4,15.9h-0.3v-0.3h0.3V15.9z M43.4,15.1h-0.3v-0.3h0.3V15.1z
	 M43.4,14.3h-0.3V14h0.3V14.3z M43.4,13.4h-0.3v-0.3h0.3V13.4z M43.4,12.6h-0.3v-0.3h0.3V12.6z M43.4,11.7h-0.3v-0.3h0.3V11.7z
	 M43.4,10.9h-0.3v-0.3h0.3V10.9z M43.4,10.1h-0.3V9.8h0.3V10.1z M42.7,9.5l-0.2-0.2l0.2-0.2l0.2,0.2L42.7,9.5z M42.1,8.9l-0.2-0.2
	l0.2-0.2l0.2,0.2L42.1,8.9z M41.6,8.3l-0.2-0.2l0.2-0.2l0.2,0.2L41.6,8.3z M41,7.7l-0.2-0.2L41,7.3l0.2,0.2L41,7.7z M40.4,7.1
	l-0.2-0.2l0.2-0.2l0.2,0.2L40.4,7.1z M39.8,6.5l-0.2-0.2l0.2-0.2L40,6.3L39.8,6.5z M39.2,5.9L39,5.7l0.2-0.2l0.2,0.2L39.2,5.9z
	 M38.6,5.3l-0.2-0.2l0.2-0.2l0.2,0.2L38.6,5.3z M38,4.7l-0.2-0.2L38,4.3l0.2,0.2L38,4.7z M37.4,4.1l-0.2-0.2l0.2-0.2l0.2,0.2
	L37.4,4.1z M36.8,3.5l-0.2-0.2l0.2-0.2L37,3.3L36.8,3.5z M36.2,2.9L36,2.7l0.2-0.2l0.2,0.2L36.2,2.9z M35.6,2.3l-0.2-0.2l0.2-0.2
	l0.2,0.2L35.6,2.3z M35,1.7l-0.2-0.2L35,1.3l0.2,0.2L35,1.7z"/>
<path id="Path_65" fill="#A7A7A9" d="M43.1,34.1L43.1,34.1L43,34.3l0.2,0.2l0.1-0.1l0-0.1v-0.1H43.1z"/>
<path id="Path_67" fill="#A7A7A9" d="M9.7,43.1l0.1,0.1l0.1,0H10v-0.3H10l-0.1-0.1L9.7,43.1z"/>
<path id="Path_69" fill="#A7A7A9" d="M9.9,0.8L9.9,0.8L9.7,1l0.2,0.2L10,1.1H10V0.8H9.9z"/>
<path id="Path_71" fill="#A7A7A9" d="M1,34.2l0.2,0.2l0.1-0.1l0,0l0,0l-0.1-0.1l-0.1-0.1l0,0L1,34.2L1,34.2z"/>
<path id="Path_72" fill="#A7A7A9" d="M1.8,34.1l-0.1-0.3l0.3-0.1L2.1,34L1.8,34.1z M2.6,33.7l-0.1-0.2l0.2-0.1l0.1,0.3L2.6,33.7z
	 M3.3,33.3l-0.1-0.2L3.4,33l0.1,0.3L3.3,33.3z M4.1,33l-0.1-0.2l0.3-0.1l0.1,0.3L4.1,33z M4.8,32.6l-0.1-0.3L5,32.2l0.1,0.2
	L4.8,32.6z M5.6,32.2L5.5,32l0.3-0.1l0.1,0.3L5.6,32.2z M6.3,31.8l-0.1-0.3l0.3-0.1l0.1,0.2L6.3,31.8z M7.1,31.5L7,31.2l0.3-0.1
	l0.1,0.2L7.1,31.5z M7.9,31.1l-0.1-0.2L8,30.7L8.1,31L7.9,31.1z M8.6,30.7l-0.1-0.3l0.2-0.1l0.1,0.2L8.6,30.7z M9.4,30.3l-0.1-0.2
	L9.5,30l0.1,0.2L9.4,30.3z M10.1,30L10,29.7l0.3-0.1l0.1,0.2L10.1,30z M10.9,29.6l-0.1-0.2l0.3-0.1l0.1,0.2L10.9,29.6z M11.6,29.2
	L11.5,29l0.3-0.1l0.1,0.3L11.6,29.2z M12.4,28.8l-0.1-0.2l0.3-0.1l0.1,0.3L12.4,28.8z M13.1,28.5L13,28.2l0.3-0.1l0.1,0.3L13.1,28.5
	z M13.9,28.1l-0.1-0.2l0.3-0.1l0.1,0.3L13.9,28.1z M14.7,27.7l-0.1-0.2l0.3-0.1l0.1,0.3L14.7,27.7z M15.4,27.4l-0.1-0.2l0.3-0.1
	l0.1,0.3L15.4,27.4z M16.2,27L16,26.7l0.3-0.1l0.1,0.2L16.2,27z M16.9,26.6l-0.1-0.3l0.3-0.1l0.1,0.2L16.9,26.6z M17.7,26.2L17.6,26
	l0.3-0.1l0.1,0.2L17.7,26.2z"/>
<path id="Path_73" fill="#A7A7A9" d="M18.3,25.6L18.3,25.6v0.1l0.1,0l0,0.1l0.1,0l0.1,0l0.1-0.1l-0.2-0.2L18.3,25.6z"/>
<path id="Path_74" fill="#A7A7A9" d="M10.3,42.5l-0.2-0.1l0.1-0.3l0.2,0.1L10.3,42.5z M10.7,41.7l-0.2-0.1l0.1-0.3l0.2,0.1
	L10.7,41.7z M11.1,41l-0.2-0.1l0.1-0.3l0.3,0.1L11.1,41z M11.5,40.2l-0.2-0.1l0.1-0.3l0.3,0.1L11.5,40.2z M11.8,39.5l-0.2-0.1
	l0.1-0.3l0.3,0.1L11.8,39.5z M12.2,38.7L12,38.6l0.1-0.3l0.3,0.1L12.2,38.7z M12.6,38l-0.2-0.1l0.1-0.3l0.2,0.1L12.6,38z M13,37.2
	l-0.2-0.1l0.1-0.3l0.3,0.1L13,37.2z M13.3,36.4l-0.2-0.1l0.1-0.3l0.3,0.1L13.3,36.4z M13.7,35.7l-0.2-0.1l0.1-0.3l0.3,0.1L13.7,35.7
	z M14.1,34.9l-0.3-0.1l0.1-0.3l0.2,0.1L14.1,34.9z M14.5,34.2l-0.2-0.1l0.1-0.3l0.2,0.1L14.5,34.2z M14.8,33.4l-0.3-0.1l0.1-0.3
	l0.2,0.1L14.8,33.4z M15.2,32.7L15,32.5l0.1-0.3l0.2,0.1L15.2,32.7z M15.6,31.9l-0.3-0.1l0.1-0.3l0.2,0.1L15.6,31.9z M16,31.2
	L15.7,31l0.1-0.3l0.2,0.1L16,31.2z M16.3,30.4l-0.2-0.1l0.1-0.3l0.2,0.1L16.3,30.4z M16.7,29.6l-0.2-0.1l0.1-0.3l0.2,0.1L16.7,29.6z
	 M17.1,28.9l-0.2-0.1l0.1-0.3l0.3,0.1L17.1,28.9z M17.4,28.1L17.2,28l0.1-0.3l0.3,0.1L17.4,28.1z M17.8,27.4l-0.2-0.1l0.1-0.3
	l0.3,0.1L17.8,27.4z M18.2,26.6l-0.2-0.1l0.1-0.3l0.3,0.1L18.2,26.6z"/>
<path id="Path_75" fill="#A7A7A9" d="M9.9,42.9L9.9,42.9L9.8,43l0.2,0.2l0.1-0.1l0,0l0,0L10,43L9.9,42.9L9.9,42.9z"/>
<path id="Path_76" fill="#A7A7A9" d="M10.5,42.6l-0.2-0.2l0.2-0.2l0.2,0.2L10.5,42.6z M11,42l-0.2-0.2l0.2-0.2l0.2,0.2L11,42z
	 M11.6,41.4l-0.2-0.2l0.2-0.2l0.2,0.2L11.6,41.4z M12.1,40.7l-0.2-0.2l0.2-0.2l0.2,0.2L12.1,40.7z M12.7,40.1l-0.2-0.2l0.2-0.2
	l0.2,0.2L12.7,40.1z M13.3,39.5L13,39.3l0.2-0.2l0.2,0.2L13.3,39.5z M13.8,38.9l-0.2-0.2l0.2-0.2l0.2,0.2L13.8,38.9z M14.4,38.2
	l-0.2-0.2l0.2-0.2l0.2,0.2L14.4,38.2z M14.9,37.6l-0.2-0.2l0.2-0.2l0.2,0.2L14.9,37.6z M15.5,37l-0.2-0.2l0.2-0.2l0.2,0.2L15.5,37z
	 M16,36.3l-0.2-0.2L16,36l0.2,0.2L16,36.3z M16.6,35.7l-0.2-0.2l0.2-0.2l0.2,0.2L16.6,35.7z M17.2,35.1L17,34.9l0.2-0.2l0.2,0.2
	L17.2,35.1z M17.7,34.5l-0.2-0.2l0.2-0.2l0.2,0.2L17.7,34.5z M18.3,33.8l-0.2-0.2l0.2-0.2l0.2,0.2L18.3,33.8z M18.8,33.2L18.6,33
	l0.2-0.2L19,33L18.8,33.2z M19.4,32.6l-0.2-0.2l0.2-0.2l0.2,0.2L19.4,32.6z M19.9,31.9l-0.2-0.2l0.2-0.2l0.2,0.2L19.9,31.9z
	 M20.5,31.3l-0.2-0.2l0.2-0.2l0.2,0.2L20.5,31.3z M21.1,30.7l-0.2-0.2l0.2-0.2l0.2,0.2L21.1,30.7z M21.6,30l-0.2-0.2l0.2-0.2
	l0.2,0.2L21.6,30z"/>
<path id="Path_77" fill="#A7A7A9" d="M22.1,29.1L22,29.2l0.1,0.1l0.1,0.1l0,0l0,0l0.1-0.1l0.1-0.1l-0.1-0.1H22.1z"/>
<path id="Path_78" fill="#A7A7A9" d="M33.9,42.6l-0.2-0.2l0.2-0.2l0.2,0.2L33.9,42.6z M33.3,42l-0.2-0.2l0.2-0.2l0.2,0.2L33.3,42z
	 M32.7,41.4l-0.2-0.2l0.2-0.2l0.2,0.2L32.7,41.4z M32.2,40.8L32,40.5l0.2-0.2l0.2,0.2L32.2,40.8z M31.6,40.1l-0.2-0.2l0.2-0.2
	l0.2,0.2L31.6,40.1z M31.1,39.5l-0.2-0.2l0.2-0.2l0.2,0.2L31.1,39.5z M30.5,38.9l-0.2-0.2l0.2-0.2l0.2,0.2L30.5,38.9z M30,38.2
	L29.8,38l0.2-0.2l0.2,0.2L30,38.2z M29.4,37.6l-0.2-0.2l0.2-0.2l0.2,0.2L29.4,37.6z M28.8,37l-0.2-0.2l0.2-0.2l0.2,0.2L28.8,37z
	 M28.3,36.3l-0.2-0.2l0.2-0.2l0.2,0.2L28.3,36.3z M27.7,35.7l-0.2-0.2l0.2-0.2l0.2,0.2L27.7,35.7z M27.2,35.1L27,34.9l0.2-0.2
	l0.2,0.2L27.2,35.1z M26.6,34.5l-0.2-0.2l0.2-0.2l0.2,0.2L26.6,34.5z M26.1,33.8l-0.2-0.2l0.2-0.2l0.2,0.2L26.1,33.8z M25.5,33.2
	L25.3,33l0.2-0.2l0.2,0.2L25.5,33.2z M24.9,32.6l-0.2-0.2l0.2-0.2l0.2,0.2L24.9,32.6z M24.4,31.9l-0.2-0.2l0.2-0.2l0.2,0.2
	L24.4,31.9z M23.8,31.3l-0.2-0.2l0.2-0.2l0.2,0.2L23.8,31.3z M23.3,30.7l-0.2-0.2l0.2-0.2l0.2,0.2L23.3,30.7z M22.7,30.1l-0.2-0.2
	l0.2-0.2l0.2,0.2L22.7,30.1z"/>
<path id="Path_79" fill="#A7A7A9" d="M34.3,43L34.2,43L34.3,43l-0.1,0.1l0.1,0.1l0.2-0.2l-0.1-0.1l0,0L34.3,43L34.3,43z"/>
<path id="Path_80" fill="#A7A7A9" d="M34,42.5l-0.1-0.3l0.2-0.1l0.1,0.3L34,42.5z M33.6,41.7l-0.1-0.3l0.2-0.1l0.1,0.3L33.6,41.7z
	 M33.2,41l-0.1-0.2l0.2-0.1l0.1,0.3L33.2,41z M32.9,40.2L32.7,40l0.2-0.1l0.1,0.3L32.9,40.2z M32.5,39.5l-0.1-0.3l0.3-0.1l0.1,0.3
	L32.5,39.5z M32.1,38.7L32,38.5l0.3-0.1l0.1,0.3L32.1,38.7z M31.7,38l-0.1-0.3l0.2-0.1l0.1,0.3L31.7,38z M31.4,37.2L31.2,37l0.2-0.1
	l0.1,0.3L31.4,37.2z M31,36.4l-0.1-0.3l0.2-0.1l0.1,0.3L31,36.4z M30.6,35.7l-0.1-0.3l0.2-0.1l0.1,0.3L30.6,35.7z M30.2,34.9
	l-0.1-0.3l0.2-0.1l0.1,0.3L30.2,34.9z M29.9,34.2l-0.1-0.3l0.2-0.1l0.1,0.3L29.9,34.2z M29.5,33.4l-0.1-0.3l0.2-0.1l0.1,0.3
	L29.5,33.4z M29.1,32.7L29,32.4l0.2-0.1l0.1,0.3L29.1,32.7z M28.8,31.9l-0.1-0.3l0.2-0.1l0.1,0.3L28.8,31.9z M28.4,31.2l-0.1-0.3
	l0.2-0.1l0.1,0.3L28.4,31.2z M28,30.4l-0.1-0.3l0.2-0.1l0.1,0.3L28,30.4z M27.6,29.6l-0.1-0.3l0.2-0.1l0.1,0.3L27.6,29.6z
	 M27.3,28.9l-0.1-0.3l0.3-0.1l0.1,0.3L27.3,28.9z M26.9,28.1l-0.1-0.3l0.3-0.1l0.1,0.3L26.9,28.1z M26.5,27.4l-0.1-0.3l0.3-0.1
	l0.1,0.3L26.5,27.4z M26.1,26.6L26,26.4l0.3-0.1l0.1,0.3L26.1,26.6z"/>
<path id="Path_81" fill="#A7A7A9" d="M25.7,25.7l0.1,0.1l0.1,0l0.1,0l0-0.1l0.1,0l0-0.1l0-0.1l-0.1-0.1L25.7,25.7z"/>
<path id="Path_82" fill="#A7A7A9" d="M42.5,34.1L42.3,34l0.1-0.3l0.3,0.1L42.5,34.1z M41.8,33.7l-0.3-0.1l0.1-0.3l0.3,0.1L41.8,33.7
	z M41,33.3l-0.3-0.1l0.1-0.3l0.3,0.1L41,33.3z M40.3,33L40,32.8l0.1-0.2l0.3,0.1L40.3,33z M39.5,32.6l-0.3-0.1l0.1-0.3l0.3,0.1
	L39.5,32.6z M38.7,32.2l-0.3-0.1l0.1-0.2l0.3,0.1L38.7,32.2z M38,31.8l-0.3-0.1l0.1-0.2l0.3,0.1L38,31.8z M37.2,31.5L37,31.3
	l0.1-0.2l0.3,0.1L37.2,31.5z M36.5,31.1L36.2,31l0.1-0.2l0.3,0.1L36.5,31.1z M35.7,30.7l-0.3-0.1l0.1-0.2l0.3,0.1L35.7,30.7z
	 M35,30.3l-0.3-0.1l0.1-0.2l0.3,0.1L35,30.3z M34.2,30L34,29.8l0.1-0.2l0.3,0.1L34.2,30z M33.5,29.6l-0.3-0.1l0.1-0.2l0.3,0.1
	L33.5,29.6z M32.7,29.2l-0.3-0.1l0.1-0.2l0.3,0.1L32.7,29.2z M31.9,28.8l-0.3-0.1l0.1-0.2l0.3,0.1L31.9,28.8z M31.2,28.5l-0.3-0.1
	l0.1-0.2l0.3,0.1L31.2,28.5z M30.4,28.1L30.2,28l0.1-0.2l0.3,0.1L30.4,28.1z M29.7,27.7l-0.3-0.1l0.1-0.3l0.3,0.1L29.7,27.7z
	 M28.9,27.4l-0.3-0.1l0.1-0.3l0.3,0.1L28.9,27.4z M28.2,27l-0.3-0.1l0.1-0.3l0.3,0.1L28.2,27z M27.4,26.6l-0.3-0.1l0.1-0.3l0.3,0.1
	L27.4,26.6z M26.6,26.2l-0.3-0.1l0.1-0.3l0.3,0.1L26.6,26.2z"/>
<path id="Path_83" fill="#A7A7A9" d="M43.2,34.1L43.2,34.1L43.2,34.1L43,34.3l0,0l0,0l0.1,0.1l0.2-0.2L43.2,34.1L43.2,34.1z"/>
<path id="Path_84" fill="#A7A7A9" d="M42.6,33.9l-0.2-0.2l0.2-0.2l0.2,0.2L42.6,33.9z M42,33.4l-0.2-0.2L42,33l0.2,0.2L42,33.4z
	 M41.3,32.8l-0.2-0.2l0.2-0.2l0.2,0.2L41.3,32.8z M40.7,32.2l-0.2-0.2l0.2-0.2l0.2,0.2L40.7,32.2z M40.1,31.7l-0.2-0.2l0.2-0.2
	l0.2,0.2L40.1,31.7z M39.5,31.1l-0.2-0.2l0.2-0.2l0.2,0.2L39.5,31.1z M38.8,30.6l-0.2-0.2l0.2-0.2l0.2,0.2L38.8,30.6z M38.2,30
	L38,29.8l0.2-0.2l0.2,0.2L38.2,30z M37.6,29.5l-0.2-0.2l0.2-0.2l0.2,0.2L37.6,29.5z M36.9,28.9l-0.2-0.2l0.2-0.2l0.2,0.2L36.9,28.9z
	 M36.3,28.3l-0.2-0.2l0.2-0.2l0.2,0.2L36.3,28.3z M35.7,27.8l-0.2-0.2l0.2-0.2l0.2,0.2L35.7,27.8z M35.1,27.2L34.8,27l0.2-0.2
	l0.2,0.2L35.1,27.2z M34.4,26.7l-0.2-0.2l0.2-0.2l0.2,0.2L34.4,26.7z M33.8,26.1l-0.2-0.2l0.2-0.2l0.2,0.2L33.8,26.1z M33.2,25.6
	L33,25.4l0.2-0.2l0.2,0.2L33.2,25.6z M32.5,25l-0.2-0.2l0.2-0.2l0.2,0.2L32.5,25z M31.9,24.4l-0.2-0.2l0.2-0.2l0.2,0.2L31.9,24.4z
	 M31.3,23.9l-0.2-0.2l0.2-0.2l0.2,0.2L31.3,23.9z M30.6,23.3l-0.2-0.2l0.2-0.2l0.2,0.2L30.6,23.3z M30,22.8l-0.2-0.2l0.2-0.2
	l0.2,0.2L30,22.8z"/>
<path id="Path_85" fill="#A7A7A9" d="M29.3,21.9v0.2l0.1,0.1l0.1-0.1l0.1-0.1l0,0l0,0l-0.1-0.1L29.3,21.9L29.3,21.9z"/>
<path id="Path_86" fill="#A7A7A9" d="M30,21.7l-0.2-0.2l0.2-0.2l0.2,0.2L30,21.7z M30.6,21.1l-0.2-0.2l0.2-0.2l0.2,0.2L30.6,21.1z
	 M31.3,20.5l-0.2-0.2l0.2-0.2l0.2,0.2L31.3,20.5z M31.9,20l-0.2-0.2l0.2-0.2l0.2,0.2L31.9,20z M32.5,19.4l-0.2-0.2l0.2-0.2l0.2,0.2
	L32.5,19.4z M33.1,18.9L33,18.7l0.2-0.2l0.2,0.2L33.1,18.9z M33.8,18.3l-0.2-0.2l0.2-0.2l0.2,0.2L33.8,18.3z M34.4,17.7l-0.2-0.2
	l0.2-0.2l0.2,0.2L34.4,17.7z M35,17.2L34.9,17l0.2-0.2l0.2,0.2L35,17.2z M35.7,16.6l-0.2-0.2l0.2-0.2l0.2,0.2L35.7,16.6z M36.3,16.1
	l-0.2-0.2l0.2-0.2l0.2,0.2L36.3,16.1z M36.9,15.5l-0.2-0.2l0.2-0.2l0.2,0.2L36.9,15.5z M37.6,15l-0.2-0.2l0.2-0.2l0.2,0.2L37.6,15z
	 M38.2,14.4L38,14.2l0.2-0.2l0.2,0.2L38.2,14.4z M38.8,13.8l-0.2-0.2l0.2-0.2l0.2,0.2L38.8,13.8z M39.4,13.3l-0.2-0.2l0.2-0.2
	l0.2,0.2L39.4,13.3z M40.1,12.7l-0.2-0.2l0.2-0.2l0.2,0.2L40.1,12.7z M40.7,12.2L40.5,12l0.2-0.2l0.2,0.2L40.7,12.2z M41.3,11.6
	l-0.2-0.2l0.2-0.2l0.2,0.2L41.3,11.6z M42,11.1l-0.2-0.2l0.2-0.2l0.2,0.2L42,11.1z M42.6,10.5l-0.2-0.2l0.2-0.2l0.2,0.2L42.6,10.5z"
	/>
<path id="Path_87" fill="#A7A7A9" d="M43,9.7L43,9.7L43,9.7l0.1,0.1l0.1,0.1l0,0l0,0l0.1-0.1l-0.2-0.2L43,9.7z"/>
<path id="Path_88" fill="#A7A7A9" d="M26.5,18.2l-0.1-0.3l0.3-0.1l0.1,0.3L26.5,18.2z M27.3,17.8l-0.1-0.2l0.2-0.1l0.1,0.3
	L27.3,17.8z M28,17.4l-0.1-0.2l0.3-0.1l0.1,0.3L28,17.4z M28.8,17l-0.1-0.3l0.3-0.1l0.1,0.2L28.8,17z M29.5,16.7l-0.1-0.3l0.3-0.1
	l0.1,0.2L29.5,16.7z M30.3,16.3L30.2,16l0.3-0.1l0.1,0.2L30.3,16.3z M31,15.9l-0.1-0.3l0.3-0.1l0.1,0.2L31,15.9z M31.8,15.5
	l-0.1-0.3l0.3-0.1l0.1,0.2L31.8,15.5z M32.6,15.2l-0.1-0.2l0.3-0.1l0.1,0.2L32.6,15.2z M33.3,14.8l-0.1-0.3l0.2-0.1l0.1,0.2
	L33.3,14.8z M34.1,14.4L34,14.2l0.3-0.1l0.1,0.2L34.1,14.4z M34.8,14.1l-0.1-0.2l0.3-0.1l0.1,0.2L34.8,14.1z M35.6,13.7l-0.1-0.2
	l0.3-0.1l0.1,0.2L35.6,13.7z M36.3,13.3l-0.1-0.2l0.3-0.1l0.1,0.2L36.3,13.3z M37.1,12.9L37,12.7l0.3-0.1l0.1,0.2L37.1,12.9z
	 M37.9,12.6l-0.1-0.2l0.3-0.1l0.1,0.3L37.9,12.6z M38.6,12.2l-0.1-0.2l0.3-0.1l0.1,0.3L38.6,12.2z M39.4,11.8l-0.1-0.2l0.3-0.1
	l0.1,0.3L39.4,11.8z M40.1,11.4L40,11.2l0.3-0.1l0.1,0.3L40.1,11.4z M40.9,11.1l-0.1-0.2l0.3-0.1l0.1,0.3L40.9,11.1z M41.6,10.7
	l-0.1-0.2l0.3-0.1l0.1,0.3L41.6,10.7z M42.4,10.3l-0.1-0.2l0.3-0.1l0.1,0.3L42.4,10.3z"/>
<path id="Path_89" fill="#A7A7A9" d="M25.8,18.2L25.8,18.2l-0.1,0.1l0.2,0.2l0.1-0.1l0-0.1l0-0.1l-0.1,0L25.8,18.2L25.8,18.2z"/>
<path id="Path_90" fill="#A7A7A9" d="M26.3,17.8L26,17.7l0.1-0.3l0.2,0.1L26.3,17.8z M26.6,17l-0.2-0.1l0.1-0.3l0.2,0.1L26.6,17z
	 M27,16.3l-0.2-0.1l0.1-0.3l0.3,0.1L27,16.3z M27.4,15.5l-0.2-0.1l0.1-0.3l0.2,0.1L27.4,15.5z M27.7,14.8l-0.2-0.1l0.1-0.3l0.2,0.1
	L27.7,14.8z M28.1,14l-0.2-0.1l0.1-0.3l0.3,0.1L28.1,14z M28.5,13.2l-0.2-0.1l0.1-0.3l0.2,0.1L28.5,13.2z M28.9,12.5l-0.2-0.1
	l0.1-0.3l0.3,0.1L28.9,12.5z M29.2,11.7L29,11.6l0.1-0.3l0.3,0.1L29.2,11.7z M29.6,11l-0.2-0.1l0.1-0.3l0.3,0.1L29.6,11z M30,10.2
	l-0.2-0.1l0.1-0.3l0.2,0.1L30,10.2z M30.4,9.5l-0.2-0.1l0.1-0.3l0.3,0.1L30.4,9.5z M30.7,8.7l-0.3-0.1l0.1-0.3l0.2,0.1L30.7,8.7z
	 M31.1,8l-0.2-0.1L31,7.6l0.2,0.1L31.1,8z M31.5,7.2l-0.3-0.1l0.1-0.3l0.2,0.1L31.5,7.2z M31.9,6.4l-0.3-0.1l0.1-0.3L32,6.2
	L31.9,6.4z M32.2,5.7L32,5.6l0.1-0.3l0.2,0.1L32.2,5.7z M32.6,4.9l-0.2-0.1l0.1-0.3l0.2,0.1L32.6,4.9z M33,4.2L32.7,4l0.1-0.3
	l0.2,0.1L33,4.2z M33.4,3.4l-0.2-0.1L33.2,3l0.2,0.1L33.4,3.4z M33.7,2.7l-0.2-0.1l0.1-0.3l0.2,0.1L33.7,2.7z M34.1,1.9l-0.2-0.1
	L34,1.5l0.2,0.1L34.1,1.9z"/>
<path id="Path_91" fill="#A7A7A9" d="M34.2,1L34.2,1L34.2,1l0.1,0.1l0.1,0.1l0,0l0,0L34.6,1l-0.2-0.2L34.2,1z"/>
<path id="Path_92" fill="#A7A7A9" d="M22.7,14.4l-0.2-0.2l0.2-0.2l0.2,0.2L22.7,14.4z M23.3,13.7l-0.2-0.2l0.2-0.2l0.2,0.2
	L23.3,13.7z M23.9,13.1l-0.2-0.2l0.2-0.2l0.2,0.2L23.9,13.1z M24.4,12.5l-0.2-0.2l0.2-0.2l0.2,0.2L24.4,12.5z M25,11.8l-0.2-0.2
	l0.2-0.2l0.2,0.2L25,11.8z M25.5,11.2L25.3,11l0.2-0.2l0.2,0.2L25.5,11.2z M26.1,10.6l-0.2-0.2l0.2-0.2l0.2,0.2L26.1,10.6z M26.6,10
	l-0.2-0.2l0.2-0.2l0.2,0.2L26.6,10z M27.2,9.3L27,9.1l0.2-0.2l0.2,0.2L27.2,9.3z M27.7,8.7l-0.2-0.2l0.2-0.2l0.2,0.2L27.7,8.7z
	 M28.3,8.1l-0.2-0.2l0.2-0.2l0.2,0.2L28.3,8.1z M28.9,7.4l-0.2-0.2l0.2-0.2l0.2,0.2L28.9,7.4z M29.4,6.8l-0.2-0.2l0.2-0.2l0.2,0.2
	L29.4,6.8z M30,6.2L29.8,6L30,5.8L30.2,6L30,6.2z M30.5,5.6l-0.2-0.2l0.2-0.2l0.2,0.2L30.5,5.6z M31.1,4.9l-0.2-0.2l0.2-0.2l0.2,0.2
	L31.1,4.9z M31.7,4.3l-0.2-0.2l0.2-0.2l0.2,0.2L31.7,4.3z M32.2,3.7L32,3.5l0.2-0.2l0.2,0.2L32.2,3.7z M32.8,3l-0.2-0.2l0.2-0.2
	L33,2.8L32.8,3z M33.3,2.4l-0.2-0.2L33.3,2l0.2,0.2L33.3,2.4z M33.9,1.8l-0.2-0.2l0.2-0.2l0.2,0.2L33.9,1.8z"/>
<path id="Path_93" fill="#A7A7A9" d="M22.2,14.6L22.2,14.6L22.2,14.6L22,14.8l0.1,0.1h0.2l0.1-0.1L22.2,14.6L22.2,14.6L22.2,14.6z"
	/>
<path id="Path_94" fill="#A7A7A9" d="M21.6,14.4l-0.2-0.2l0.2-0.2l0.2,0.2L21.6,14.4z M21,13.7l-0.2-0.2l0.2-0.2l0.2,0.2L21,13.7z
	 M20.5,13.1l-0.2-0.2l0.2-0.2l0.2,0.2L20.5,13.1z M19.9,12.5l-0.2-0.2l0.2-0.2l0.2,0.2L19.9,12.5z M19.4,11.8l-0.2-0.2l0.2-0.2
	l0.2,0.2L19.4,11.8z M18.8,11.2L18.6,11l0.2-0.2L19,11L18.8,11.2z M18.3,10.6l-0.2-0.2l0.2-0.2l0.2,0.2L18.3,10.6z M17.7,10
	l-0.2-0.2l0.2-0.2l0.2,0.2L17.7,10z M17.1,9.3L17,9.1l0.2-0.2l0.2,0.2L17.1,9.3z M16.6,8.7l-0.2-0.2l0.2-0.2l0.2,0.2L16.6,8.7z
	 M16,8.1l-0.2-0.2L16,7.7l0.2,0.2L16,8.1z M15.5,7.4l-0.2-0.2L15.5,7l0.2,0.2L15.5,7.4z M14.9,6.8l-0.2-0.2l0.2-0.2l0.2,0.2
	L14.9,6.8z M14.4,6.2L14.2,6l0.2-0.2L14.6,6L14.4,6.2z M13.8,5.6l-0.2-0.2l0.2-0.2L14,5.4L13.8,5.6z M13.2,4.9L13,4.7l0.2-0.2
	l0.2,0.2L13.2,4.9z M12.7,4.3l-0.2-0.2l0.2-0.2l0.2,0.2L12.7,4.3z M12.1,3.7l-0.2-0.2l0.2-0.2l0.2,0.2L12.1,3.7z M11.6,3l-0.2-0.2
	l0.2-0.2l0.2,0.2L11.6,3z M11,2.4l-0.2-0.2L11,2l0.2,0.2L11,2.4z M10.4,1.8l-0.2-0.2l0.2-0.2l0.2,0.2L10.4,1.8z"/>
<path id="Path_95" fill="#A7A7A9" d="M9.8,1l0.1,0.1l0,0l0,0L10,1.1L10.1,1l0,0l0,0L10,0.9L9.8,1z"/>
<path id="Path_96" fill="#A7A7A9" d="M18.1,17.8L18,17.5l0.2-0.1l0.1,0.3L18.1,17.8z M17.7,17l-0.1-0.3l0.2-0.1l0.1,0.3L17.7,17z
	 M17.3,16.3L17.2,16l0.2-0.1l0.1,0.3L17.3,16.3z M17,15.5l-0.1-0.3l0.3-0.1l0.1,0.3L17,15.5z M16.6,14.8l-0.1-0.3l0.3-0.1l0.1,0.3
	L16.6,14.8z M16.2,14l-0.1-0.3l0.3-0.1l0.1,0.3L16.2,14z M15.8,13.2L15.7,13l0.3-0.1l0.1,0.3L15.8,13.2z M15.5,12.5l-0.1-0.3
	l0.3-0.1l0.1,0.3L15.5,12.5z M15.1,11.7L15,11.5l0.3-0.1l0.1,0.3L15.1,11.7z M14.7,11l-0.1-0.3l0.3-0.1l0.1,0.3L14.7,11z M14.3,10.2
	L14.2,10l0.2-0.1l0.1,0.3L14.3,10.2z M14,9.5l-0.1-0.3l0.2-0.1l0.1,0.3L14,9.5z M13.6,8.7l-0.1-0.3l0.2-0.1l0.1,0.3L13.6,8.7z
	 M13.2,8l-0.1-0.3l0.2-0.1l0.1,0.3L13.2,8z M12.8,7.2l-0.1-0.3L13,6.8l0.1,0.3L12.8,7.2z M12.5,6.4l-0.1-0.3l0.2-0.1l0.1,0.3
	L12.5,6.4z M12.1,5.7L12,5.4l0.2-0.1l0.1,0.3L12.1,5.7z M11.7,4.9l-0.1-0.3l0.2-0.1L12,4.8L11.7,4.9z M11.3,4.2l-0.1-0.3l0.3-0.1
	L11.6,4L11.3,4.2z M11,3.4l-0.1-0.3L11.1,3l0.1,0.3L11,3.4z M10.6,2.7l-0.1-0.3l0.3-0.1l0.1,0.3L10.6,2.7z M10.2,1.9l-0.1-0.3
	l0.3-0.1l0.1,0.3L10.2,1.9z"/>
<path id="Path_97" fill="#A7A7A9" d="M18.5,18.2L18.5,18.2l-0.1,0.1l-0.1,0l0,0.1l0,0.1l0.1,0.1l0.2-0.2L18.5,18.2L18.5,18.2z"/>
<path id="Path_98" fill="#A7A7A9" d="M17.8,18.2L17.6,18l0.1-0.3l0.3,0.1L17.8,18.2z M17.1,17.8l-0.3-0.1l0.1-0.3l0.3,0.1L17.1,17.8
	z M16.3,17.4l-0.3-0.1l0.1-0.3l0.3,0.1L16.3,17.4z M15.5,17l-0.3-0.1l0.1-0.2l0.3,0.1L15.5,17z M14.8,16.7l-0.3-0.1l0.1-0.2l0.3,0.1
	L14.8,16.7z M14,16.3l-0.3-0.1l0.1-0.2l0.3,0.1L14,16.3z M13.3,15.9L13,15.8l0.1-0.2l0.3,0.1L13.3,15.9z M12.5,15.5l-0.3-0.1
	l0.1-0.2l0.3,0.1L12.5,15.5z M11.8,15.2l-0.3-0.1l0.1-0.2l0.3,0.1L11.8,15.2z M11,14.8l-0.3-0.1l0.1-0.2l0.3,0.1L11,14.8z
	 M10.3,14.4L10,14.3l0.1-0.2l0.3,0.1L10.3,14.4z M9.5,14.1l-0.3-0.1l0.1-0.2l0.3,0.1L9.5,14.1z M8.7,13.7l-0.3-0.1l0.1-0.3l0.3,0.1
	L8.7,13.7z M8,13.3l-0.3-0.1l0.1-0.3l0.3,0.1L8,13.3z M7.2,12.9L7,12.8l0.1-0.3l0.3,0.1L7.2,12.9z M6.5,12.6l-0.3-0.1l0.1-0.3
	l0.3,0.1L6.5,12.6z M5.7,12.2l-0.3-0.1l0.1-0.3l0.3,0.1L5.7,12.2z M5,11.8l-0.3-0.1l0.1-0.3l0.3,0.1L5,11.8z M4.2,11.4l-0.3-0.1
	l0.1-0.3l0.3,0.1L4.2,11.4z M3.4,11.1l-0.3-0.1l0.1-0.3l0.3,0.1L3.4,11.1z M2.7,10.7l-0.3-0.1l0.1-0.2l0.3,0.1L2.7,10.7z M1.9,10.3
	l-0.3-0.1l0.1-0.2l0.3,0.1L1.9,10.3z"/>
<path id="Path_99" fill="#A7A7A9" d="M1,9.9L1,9.9l0.1,0.1l0,0l0.1-0.1l0.1-0.1l0,0l0,0L1.2,9.6L1,9.9z"/>
<path id="Path_100" fill="#A7A7A9" d="M14.3,21.7l-0.2-0.2l0.2-0.2l0.2,0.2L14.3,21.7z M13.7,21.1l-0.2-0.2l0.2-0.2l0.2,0.2
	L13.7,21.1z M13.1,20.5l-0.2-0.2l0.2-0.2l0.2,0.2L13.1,20.5z M12.4,20l-0.2-0.2l0.2-0.2l0.2,0.2L12.4,20z M11.8,19.4l-0.2-0.2
	l0.2-0.2l0.2,0.2L11.8,19.4z M11.2,18.9L11,18.7l0.2-0.2l0.2,0.2L11.2,18.9z M10.6,18.3l-0.2-0.2l0.2-0.2l0.2,0.2L10.6,18.3z
	 M9.9,17.7l-0.2-0.2l0.2-0.2l0.2,0.2L9.9,17.7z M9.3,17.2L9.1,17l0.2-0.2L9.5,17L9.3,17.2z M8.7,16.6l-0.2-0.2l0.2-0.2l0.2,0.2
	L8.7,16.6z M8,16.1l-0.2-0.2L8,15.7l0.2,0.2L8,16.1z M7.4,15.5l-0.2-0.2l0.2-0.2l0.2,0.2L7.4,15.5z M6.8,15l-0.2-0.2l0.2-0.2L7,14.8
	L6.8,15z M6.1,14.4l-0.2-0.2L6.1,14l0.2,0.2L6.1,14.4z M5.5,13.8l-0.2-0.2l0.2-0.2l0.2,0.2L5.5,13.8z M4.9,13.3l-0.2-0.2l0.2-0.2
	l0.2,0.2L4.9,13.3z M4.3,12.7L4,12.5l0.2-0.2l0.2,0.2L4.3,12.7z M3.6,12.2L3.4,12l0.2-0.2L3.8,12L3.6,12.2z M3,11.6l-0.2-0.2L3,11.2
	l0.2,0.2L3,11.6z M2.4,11.1l-0.2-0.2l0.2-0.2l0.2,0.2L2.4,11.1z M1.7,10.5l-0.2-0.2l0.2-0.2l0.2,0.2L1.7,10.5z"/>
<path id="Path_101" fill="#A7A7A9" d="M14.8,21.9L14.7,22L14.8,21.9L14.7,22l0.1,0.1l0.1,0.1l0.1-0.1v-0.2L14.8,21.9L14.8,21.9z"/>
<path id="Path_102" fill="#A7A7A9" d="M1.7,33.9l-0.2-0.2l0.2-0.2l0.2,0.2L1.7,33.9z M2.4,33.4l-0.2-0.2L2.4,33l0.2,0.2L2.4,33.4z
	 M3,32.8l-0.2-0.2L3,32.4l0.2,0.2L3,32.8z M3.6,32.2L3.4,32l0.2-0.2l0.2,0.2L3.6,32.2z M4.2,31.7l-0.2-0.2l0.2-0.2l0.2,0.2L4.2,31.7
	z M4.9,31.1l-0.2-0.2l0.2-0.2l0.2,0.2L4.9,31.1z M5.5,30.6l-0.2-0.2l0.2-0.2l0.2,0.2L5.5,30.6z M6.1,30l-0.2-0.2l0.2-0.2l0.2,0.2
	L6.1,30z M6.8,29.5l-0.2-0.2l0.2-0.2L7,29.3L6.8,29.5z M7.4,28.9l-0.2-0.2l0.2-0.2l0.2,0.2L7.4,28.9z M8,28.3l-0.2-0.2L8,27.9
	l0.2,0.2L8,28.3z M8.6,27.8l-0.2-0.2l0.2-0.2l0.2,0.2L8.6,27.8z M9.3,27.2L9.1,27l0.2-0.2L9.5,27L9.3,27.2z M9.9,26.7l-0.2-0.2
	l0.2-0.2l0.2,0.2L9.9,26.7z M10.5,26.1l-0.2-0.2l0.2-0.2l0.2,0.2L10.5,26.1z M11.2,25.6L11,25.3l0.2-0.2l0.2,0.2L11.2,25.6z
	 M11.8,25l-0.2-0.2l0.2-0.2l0.2,0.2L11.8,25z M12.4,24.4l-0.2-0.2l0.2-0.2l0.2,0.2L12.4,24.4z M13.1,23.9l-0.2-0.2l0.2-0.2l0.2,0.2
	L13.1,23.9z M13.7,23.3l-0.2-0.2l0.2-0.2l0.2,0.2L13.7,23.3z M14.3,22.8l-0.2-0.2l0.2-0.2l0.2,0.2L14.3,22.8z"/>
<path id="Path_103" fill="#A7A7A9" d="M22,14.9h0.3v-0.1H22L22,14.9z"/>
<path id="Path_105" fill="#A7A7A9" d="M22,29.2h0.3v-0.1H22L22,29.2z"/>
<path id="Path_106" fill="#A7A7A9" d="M14.9,22.1h0.1v-0.3h-0.1V22.1z"/>
<path id="Path_108" fill="#A7A7A9" d="M29.2,22.1h0.1v-0.3h-0.1V22.1z"/>
<path id="Path_109" fill="#A7A7A9" d="M25.6,18.4l0.2,0.2l0.1-0.1l-0.2-0.2L25.6,18.4z"/>
<path id="Path_111" fill="#A7A7A9" d="M18.4,25.6l0.2,0.2l0.1-0.1l-0.2-0.2L18.4,25.6z"/>
<path id="Path_112" fill="#A7A7A9" d="M25.6,25.7l0.1,0.1l0.2-0.2l-0.1-0.1L25.6,25.7z"/>
<path id="Path_114" fill="#A7A7A9" d="M18.4,18.5l0.1,0.1l0.2-0.2l-0.1-0.1L18.4,18.5z"/>
<path id="Path_115" fill="#7B7879" d="M9.9,0.5L9.6,0.7L0.8,9.5L0.7,9.8v24.5l0.1,0.3l8.8,8.8l0.3,0.1h24.5l0.3-0.1l8.8-8.8l0.1-0.3
	V9.7l-0.1-0.3l-8.8-8.8l-0.3-0.1H9.9z M1.5,34.1V9.9l8.6-8.6h24.2l8.6,8.6v24.2l-8.6,8.6H10.1L1.5,34.1z"/>
<path id="Path_116" fill="#7B7879" d="M11.9,4.7L9.8,1L10,0.9l2.2,3.7L11.9,4.7z"/>
<path id="Path_117" fill="#7B7879" d="M1,9.9L4.8,12l0.1-0.2L1.2,9.6L1,9.9z"/>
<path id="Path_118" fill="#7B7879" d="M32.4,4.7l-0.2-0.1l2.2-3.7L34.5,1L32.4,4.7z"/>
<path id="Path_119" fill="#7B7879" d="M39.6,12.1l-0.1-0.2l3.7-2.2l0.1,0.2L39.6,12.1z"/>
<path id="Path_120" fill="#7B7879" d="M1,34.2l0.1,0.2l3.7-2.1L4.8,32L1,34.2z"/>
<path id="Path_121" fill="#7B7879" d="M9.8,43l0.2,0.1l2.2-3.7l-0.2-0.1L9.8,43z"/>
<path id="Path_122" fill="#7B7879" d="M32.2,39.4l2.1,3.7l0.2-0.1l-2.1-3.7L32.2,39.4z"/>
<path id="Path_123" fill="#7B7879" d="M43.2,34.4l-3.7-2.2l0.1-0.2l3.7,2.2L43.2,34.4z"/>
<path id="Path_124" fill="#7B7879" d="M32.4,39.5H12l-7.3-7.3V11.9L12,4.5h20.3l7.3,7.3v20.3L32.4,39.5z M12.1,39.2h20.1l7.2-7.2V12
	l-7.2-7.2H12.1L5,12v20.1L12.1,39.2z"/>
<rect x="0.7" y="0.5" fill="none" width="43" height="43"/>
<path id="Path_125" fill="#7B7879" d="M39.4,32.2c-6.1-16.2-7.3-27.4-7.3-27.5l0.3,0c0,0.1,1.2,11.2,7.3,27.4L39.4,32.2z"/>
<path id="Path_126" fill="#7B7879" d="M32.4,39.4l-0.3,0c0-0.1,1.2-11.2,7.3-27.5l0.3,0.1C33.6,28.2,32.4,39.3,32.4,39.4"/>
<path id="Path_127" fill="#7B7879" d="M5,32.2l-0.3-0.1C10.8,15.9,12,4.8,12,4.7l0.3,0C12.2,4.8,11.1,15.9,5,32.2"/>
<path id="Path_128" fill="#7B7879" d="M12,39.4c0-0.1-1.2-11.2-7.3-27.4L5,11.9c6.1,16.2,7.3,27.4,7.3,27.5L12,39.4z"/>
<path id="Path_129" fill="#7B7879" d="M12.1,39.5L12,39.2c16.2-6.1,27.4-7.3,27.5-7.3l0,0.3C39.4,32.2,28.3,33.4,12.1,39.5"/>
<path id="Path_130" fill="#7B7879" d="M32.2,39.5C16,33.4,4.9,32.2,4.8,32.2l0-0.3c0.1,0,11.2,1.2,27.5,7.3L32.2,39.5z"/>
<path id="Path_131" fill="#7B7879" d="M39.5,12.1c-0.1,0-11.2-1.2-27.5-7.3l0.1-0.3c16.2,6.1,27.3,7.2,27.4,7.3L39.5,12.1z"/>
<path id="Path_132" fill="#7B7879" d="M4.9,12.1l0-0.3c0.1,0,11.2-1.2,27.4-7.3l0.1,0.3C16.1,10.9,5,12.1,4.9,12.1"/>
<g>
	<g>
		<line fill="none" stroke="#A7A7A9" stroke-width="0.25" stroke-miterlimit="10" x1="15" y1="22" x2="15.1" y2="22"/>
		
			<line fill="none" stroke="#A7A7A9" stroke-width="0.25" stroke-miterlimit="10" stroke-dasharray="0.2455,0.4911" x1="15.6" y1="22" x2="28.6" y2="22"/>
		<line fill="none" stroke="#A7A7A9" stroke-width="0.25" stroke-miterlimit="10" x1="28.9" y1="22" x2="29" y2="22"/>
	</g>
</g>
<g>
	<g>
		<line fill="none" stroke="#A7A7A9" stroke-width="0.25" stroke-miterlimit="10" x1="22" y1="15" x2="22" y2="15.1"/>
		
			<line fill="none" stroke="#A7A7A9" stroke-width="0.25" stroke-miterlimit="10" stroke-dasharray="0.2455,0.4911" x1="22" y1="15.6" x2="22" y2="28.6"/>
		<line fill="none" stroke="#A7A7A9" stroke-width="0.25" stroke-miterlimit="10" x1="22" y1="28.9" x2="22" y2="29"/>
	</g>
</g>
<g>
	<g>
		<line fill="none" stroke="#A7A7A9" stroke-width="0.25" stroke-miterlimit="10" x1="18.5" y1="18.5" x2="18.6" y2="18.6"/>
		
			<line fill="none" stroke="#A7A7A9" stroke-width="0.25" stroke-miterlimit="10" stroke-dasharray="0.2539,0.5079" x1="18.9" y1="18.9" x2="25.2" y2="25.2"/>
		<line fill="none" stroke="#A7A7A9" stroke-width="0.25" stroke-miterlimit="10" x1="25.4" y1="25.4" x2="25.5" y2="25.5"/>
	</g>
</g>
<g>
	<g>
		<line fill="none" stroke="#A7A7A9" stroke-width="0.25" stroke-miterlimit="10" x1="18.5" y1="25.5" x2="18.6" y2="25.4"/>
		
			<line fill="none" stroke="#A7A7A9" stroke-width="0.25" stroke-miterlimit="10" stroke-dasharray="0.2539,0.5079" x1="18.9" y1="25.1" x2="25.2" y2="18.8"/>
		<line fill="none" stroke="#A7A7A9" stroke-width="0.25" stroke-miterlimit="10" x1="25.4" y1="18.6" x2="25.5" y2="18.5"/>
	</g>
</g>
</svg>
