<?xml version="1.0" encoding="utf-8"?>
<!-- Generator: Adobe Illustrator 24.1.2, SVG Export Plug-In . SVG Version: 6.00 Build 0)  -->
<svg version="1.1" id="Layer_1" xmlns="http://www.w3.org/2000/svg" xmlns:xlink="http://www.w3.org/1999/xlink" x="0px" y="0px"
	 viewBox="0 0 44 44" enable-background="new 0 0 44 44" xml:space="preserve">
<g>
	<g>
		<line fill="none" stroke="#85868A" stroke-width="0.25" stroke-miterlimit="10" x1="43.3" y1="22.1" x2="43.2" y2="22.1"/>
		
			<line fill="none" stroke="#85868A" stroke-width="0.25" stroke-miterlimit="10" stroke-dasharray="0.25,0.5" x1="42.7" y1="22.1" x2="1.7" y2="22.1"/>
		<line fill="none" stroke="#85868A" stroke-width="0.25" stroke-miterlimit="10" x1="1.5" y1="22.1" x2="1.3" y2="22.1"/>
	</g>
</g>
<g>
	<g>
		<line fill="none" stroke="#85868A" stroke-width="0.25" stroke-miterlimit="10" x1="22.3" y1="1.1" x2="22.3" y2="1.3"/>
		
			<line fill="none" stroke="#85868A" stroke-width="0.25" stroke-miterlimit="10" stroke-dasharray="0.25,0.5" x1="22.3" y1="1.8" x2="22.3" y2="42.8"/>
		<line fill="none" stroke="#85868A" stroke-width="0.25" stroke-miterlimit="10" x1="22.3" y1="43" x2="22.3" y2="43.1"/>
	</g>
</g>
<path id="Path_547" fill="#85868A" d="M30.8,1.1v0.3h0.1L31,1.5l0.2-0.2l-0.1-0.1l-0.1,0H30.8z"/>
<path id="Path_549" fill="#85868A" d="M30.9,42.9L30.9,42.9l-0.1,0.3H31l0.1,0l0.1-0.1L30.9,42.9L30.9,42.9z"/>
<path id="Path_551" fill="#85868A" d="M13.5,43l0.1,0.1l0.1,0h0.1v-0.3h-0.1l-0.1-0.1L13.5,43z"/>
<path id="Path_553" fill="#85868A" d="M13.7,1.1l-0.1,0l-0.1,0.1l0.2,0.2l0.1-0.1h0.1V1.1H13.7z"/>
<path id="Path_555" fill="#85868A" d="M22.2,1.4h0.3V1.3h-0.3V1.4z"/>
<path id="Path_557" fill="#85868A" d="M22.2,43h0.3v-0.1h-0.3V43z"/>
<path id="Path_558" fill="#85868A" d="M43.1,22.3h0.1V22h-0.1V22.3z"/>
<path id="Path_560" fill="#85868A" d="M1.5,22.3h0.1V22H1.5V22.3z"/>
<path id="Path_561" fill="#85868A" d="M7.5,7.5l0.1,0.1l0.2-0.2L7.7,7.3L7.5,7.5z"/>
<path id="Path_562" fill="#85868A" d="M36.5,36.5l-0.2-0.2l0.2-0.2l0.2,0.2L36.5,36.5z M35.9,35.9l-0.2-0.2l0.2-0.2l0.2,0.2
	L35.9,35.9z M35.3,35.3l-0.2-0.2l0.2-0.2l0.2,0.2L35.3,35.3z M34.7,34.7l-0.2-0.2l0.2-0.2l0.2,0.2L34.7,34.7z M34.1,34.1l-0.2-0.2
	l0.2-0.2l0.2,0.2L34.1,34.1z M33.6,33.5l-0.2-0.2l0.2-0.2l0.2,0.2L33.6,33.5z M33,33l-0.2-0.2l0.2-0.2l0.2,0.2L33,33z M32.4,32.4
	l-0.2-0.2l0.2-0.2l0.2,0.2L32.4,32.4z M31.8,31.8l-0.2-0.2l0.2-0.2l0.2,0.2L31.8,31.8z M31.2,31.2L31,31l0.2-0.2l0.2,0.2L31.2,31.2z
	 M30.6,30.6l-0.2-0.2l0.2-0.2l0.2,0.2L30.6,30.6z M30,30l-0.2-0.2l0.2-0.2l0.2,0.2L30,30z M29.4,29.4l-0.2-0.2l0.2-0.2l0.2,0.2
	L29.4,29.4z M28.8,28.8l-0.2-0.2l0.2-0.2l0.2,0.2L28.8,28.8z M28.2,28.2L28,28l0.2-0.2l0.2,0.2L28.2,28.2z M27.6,27.6l-0.2-0.2
	l0.2-0.2l0.2,0.2L27.6,27.6z M27.1,27.1l-0.2-0.2l0.2-0.2l0.2,0.2L27.1,27.1z M26.5,26.5l-0.2-0.2l0.2-0.2l0.2,0.2L26.5,26.5z
	 M25.9,25.9l-0.2-0.2l0.2-0.2l0.2,0.2L25.9,25.9z M25.3,25.3l-0.2-0.2l0.2-0.2l0.2,0.2L25.3,25.3z M24.7,24.7l-0.2-0.2l0.2-0.2
	l0.2,0.2L24.7,24.7z M24.1,24.1l-0.2-0.2l0.2-0.2l0.2,0.2L24.1,24.1z M23.5,23.5l-0.2-0.2l0.2-0.2l0.2,0.2L23.5,23.5z M22.9,22.9
	l-0.2-0.2l0.2-0.2l0.2,0.2L22.9,22.9z M22.3,22.3l-0.2-0.2l0.2-0.2l0.2,0.2L22.3,22.3z M21.7,21.7l-0.2-0.2l0.2-0.2l0.2,0.2
	L21.7,21.7z M21.2,21.1L21,20.9l0.2-0.2l0.2,0.2L21.2,21.1z M20.6,20.6l-0.2-0.2l0.2-0.2l0.2,0.2L20.6,20.6z M20,20l-0.2-0.2
	l0.2-0.2l0.2,0.2L20,20z M19.4,19.4l-0.2-0.2l0.2-0.2l0.2,0.2L19.4,19.4z M18.8,18.8l-0.2-0.2l0.2-0.2l0.2,0.2L18.8,18.8z
	 M18.2,18.2L18,18l0.2-0.2l0.2,0.2L18.2,18.2z M17.6,17.6l-0.2-0.2l0.2-0.2l0.2,0.2L17.6,17.6z M17,17l-0.2-0.2l0.2-0.2l0.2,0.2
	L17,17z M16.4,16.4l-0.2-0.2l0.2-0.2l0.2,0.2L16.4,16.4z M15.8,15.8l-0.2-0.2l0.2-0.2l0.2,0.2L15.8,15.8z M15.3,15.2L15.1,15
	l0.2-0.2l0.2,0.2L15.3,15.2z M14.7,14.7l-0.2-0.2l0.2-0.2l0.2,0.2L14.7,14.7z M14.1,14.1l-0.2-0.2l0.2-0.2l0.2,0.2L14.1,14.1z
	 M13.5,13.5l-0.2-0.2l0.2-0.2l0.2,0.2L13.5,13.5z M12.9,12.9l-0.2-0.2l0.2-0.2l0.2,0.2L12.9,12.9z M12.3,12.3l-0.2-0.2l0.2-0.2
	l0.2,0.2L12.3,12.3z M11.7,11.7l-0.2-0.2l0.2-0.2l0.2,0.2L11.7,11.7z M11.1,11.1l-0.2-0.2l0.2-0.2l0.2,0.2L11.1,11.1z M10.5,10.5
	l-0.2-0.2l0.2-0.2l0.2,0.2L10.5,10.5z M9.9,9.9L9.7,9.7l0.2-0.2l0.2,0.2L9.9,9.9z M9.4,9.3L9.2,9.1l0.2-0.2l0.2,0.2L9.4,9.3z
	 M8.8,8.8L8.6,8.6l0.2-0.2L9,8.6L8.8,8.8z M8.2,8.2L8,8l0.2-0.2L8.4,8L8.2,8.2z"/>
<path id="Path_563" fill="#85868A" d="M36.9,36.9L37,37l0.2-0.2l-0.1-0.1L36.9,36.9z"/>
<path id="Path_564" fill="#85868A" d="M7.5,36.8L7.7,37l0.1-0.1l-0.2-0.2L7.5,36.8z"/>
<path id="Path_565" fill="#85868A" d="M8.2,36.5L8,36.3l0.2-0.2l0.2,0.2L8.2,36.5z M8.8,35.9l-0.2-0.2l0.2-0.2L9,35.7L8.8,35.9z
	 M9.4,35.3l-0.2-0.2l0.2-0.2l0.2,0.2L9.4,35.3z M10,34.7l-0.2-0.2l0.2-0.2l0.2,0.2L10,34.7z M10.5,34.1l-0.2-0.2l0.2-0.2l0.2,0.2
	L10.5,34.1z M11.1,33.5l-0.2-0.2l0.2-0.2l0.2,0.2L11.1,33.5z M11.7,33l-0.2-0.2l0.2-0.2l0.2,0.2L11.7,33z M12.3,32.4l-0.2-0.2
	l0.2-0.2l0.2,0.2L12.3,32.4z M12.9,31.8l-0.2-0.2l0.2-0.2l0.2,0.2L12.9,31.8z M13.5,31.2L13.3,31l0.2-0.2l0.2,0.2L13.5,31.2z
	 M14.1,30.6l-0.2-0.2l0.2-0.2l0.2,0.2L14.1,30.6z M14.7,30l-0.2-0.2l0.2-0.2l0.2,0.2L14.7,30z M15.3,29.4l-0.2-0.2l0.2-0.2l0.2,0.2
	L15.3,29.4z M15.9,28.8l-0.2-0.2l0.2-0.2l0.2,0.2L15.9,28.8z M16.4,28.2L16.2,28l0.2-0.2l0.2,0.2L16.4,28.2z M17,27.6l-0.2-0.2
	l0.2-0.2l0.2,0.2L17,27.6z M17.6,27.1l-0.2-0.2l0.2-0.2l0.2,0.2L17.6,27.1z M18.2,26.5L18,26.3l0.2-0.2l0.2,0.2L18.2,26.5z
	 M18.8,25.9l-0.2-0.2l0.2-0.2l0.2,0.2L18.8,25.9z M19.4,25.3l-0.2-0.2l0.2-0.2l0.2,0.2L19.4,25.3z M20,24.7l-0.2-0.2l0.2-0.2
	l0.2,0.2L20,24.7z M20.6,24.1l-0.2-0.2l0.2-0.2l0.2,0.2L20.6,24.1z M21.2,23.5L21,23.3l0.2-0.2l0.2,0.2L21.2,23.5z M21.8,22.9
	l-0.2-0.2l0.2-0.2l0.2,0.2L21.8,22.9z M22.3,22.3l-0.2-0.2l0.2-0.2l0.2,0.2L22.3,22.3z M22.9,21.7l-0.2-0.2l0.2-0.2l0.2,0.2
	L22.9,21.7z M23.5,21.1l-0.2-0.2l0.2-0.2l0.2,0.2L23.5,21.1z M24.1,20.6l-0.2-0.2l0.2-0.2l0.2,0.2L24.1,20.6z M24.7,20l-0.2-0.2
	l0.2-0.2l0.2,0.2L24.7,20z M25.3,19.4l-0.2-0.2l0.2-0.2l0.2,0.2L25.3,19.4z M25.9,18.8l-0.2-0.2l0.2-0.2l0.2,0.2L25.9,18.8z
	 M26.5,18.2L26.3,18l0.2-0.2l0.2,0.2L26.5,18.2z M27.1,17.6l-0.2-0.2l0.2-0.2l0.2,0.2L27.1,17.6z M27.7,17l-0.2-0.2l0.2-0.2l0.2,0.2
	L27.7,17z M28.2,16.4L28,16.2l0.2-0.2l0.2,0.2L28.2,16.4z M28.8,15.8l-0.2-0.2l0.2-0.2l0.2,0.2L28.8,15.8z M29.4,15.2L29.2,15
	l0.2-0.2l0.2,0.2L29.4,15.2z M30,14.7l-0.2-0.2l0.2-0.2l0.2,0.2L30,14.7z M30.6,14.1l-0.2-0.2l0.2-0.2l0.2,0.2L30.6,14.1z
	 M31.2,13.5L31,13.3l0.2-0.2l0.2,0.2L31.2,13.5z M31.8,12.9l-0.2-0.2l0.2-0.2l0.2,0.2L31.8,12.9z M32.4,12.3l-0.2-0.2l0.2-0.2
	l0.2,0.2L32.4,12.3z M33,11.7l-0.2-0.2l0.2-0.2l0.2,0.2L33,11.7z M33.6,11.1l-0.2-0.2l0.2-0.2l0.2,0.2L33.6,11.1z M34.2,10.5
	L34,10.3l0.2-0.2l0.2,0.2L34.2,10.5z M34.7,9.9l-0.2-0.2l0.2-0.2l0.2,0.2L34.7,9.9z M35.3,9.3l-0.2-0.2l0.2-0.2l0.2,0.2L35.3,9.3z
	 M35.9,8.8l-0.2-0.2l0.2-0.2l0.2,0.2L35.9,8.8z M36.5,8.2L36.3,8l0.2-0.2L36.7,8L36.5,8.2z"/>
<path id="Path_566" fill="#85868A" d="M36.9,7.4l0.2,0.2l0.1-0.1L37,7.3L36.9,7.4z"/>
<path id="Path_567" fill="#85868A" d="M43.1,30.6L43.1,30.6l-0.1,0.1L43,30.8l0,0l0,0l0.1,0l0.1-0.3L43.1,30.6L43.1,30.6z"/>
<path id="Path_568" fill="#85868A" d="M42.5,30.7l-0.3-0.1l0.1-0.3l0.3,0.1L42.5,30.7z M41.7,30.4l-0.3-0.1l0.1-0.3l0.3,0.1
	L41.7,30.4z M40.9,30.2l-0.3-0.1l0.1-0.3l0.3,0.1L40.9,30.2z M40.1,29.9l-0.3-0.1l0.1-0.3l0.3,0.1L40.1,29.9z M39.3,29.7l-0.3-0.1
	l0.1-0.3l0.3,0.1L39.3,29.7z M38.5,29.4l-0.3-0.1l0.1-0.3l0.3,0.1L38.5,29.4z M37.7,29.1L37.5,29l0.1-0.3l0.3,0.1L37.7,29.1z
	 M37,28.9l-0.3-0.1l0.1-0.3l0.3,0.1L37,28.9z M36.2,28.6l-0.3-0.1l0.1-0.3l0.3,0.1L36.2,28.6z M35.4,28.4l-0.3-0.1l0.1-0.3l0.3,0.1
	L35.4,28.4z M34.6,28.1L34.3,28l0.1-0.3l0.3,0.1L34.6,28.1z M33.8,27.8l-0.3-0.1l0.1-0.3l0.3,0.1L33.8,27.8z M33,27.6l-0.3-0.1
	l0.1-0.3l0.3,0.1L33,27.6z M32.2,27.3l-0.3-0.1L32,27l0.3,0.1L32.2,27.3z M31.4,27.1L31.2,27l0.1-0.3l0.3,0.1L31.4,27.1z M30.6,26.8
	l-0.3-0.1l0.1-0.3l0.3,0.1L30.6,26.8z M29.8,26.5l-0.3-0.1l0.1-0.3l0.3,0.1L29.8,26.5z M29,26.3l-0.3-0.1l0.1-0.3l0.3,0.1L29,26.3z
	 M28.3,26L28,25.9l0.1-0.3l0.3,0.1L28.3,26z M27.5,25.8l-0.3-0.1l0.1-0.3l0.3,0.1L27.5,25.8z M26.7,25.5l-0.3-0.1l0.1-0.3l0.3,0.1
	L26.7,25.5z M25.9,25.2l-0.3-0.1l0.1-0.3L26,25L25.9,25.2z"/>
<path id="Path_569" fill="#85868A" d="M24.9,24.8l0,0.1l0.1,0l0.1,0l0-0.1l0.1,0l0-0.1l0-0.1l-0.1,0L24.9,24.8z"/>
<path id="Path_570" fill="#85868A" d="M30.6,42.4l-0.1-0.3l0.3-0.1l0.1,0.3L30.6,42.4z M30.4,41.6l-0.1-0.3l0.3-0.1l0.1,0.3
	L30.4,41.6z M30.1,40.8L30,40.5l0.3-0.1l0.1,0.3L30.1,40.8z M29.9,40l-0.1-0.3l0.3-0.1l0.1,0.3L29.9,40z M29.6,39.2l-0.1-0.3
	l0.3-0.1l0.1,0.3L29.6,39.2z M29.3,38.4l-0.1-0.3l0.3-0.1l0.1,0.3L29.3,38.4z M29.1,37.6L29,37.4l0.3-0.1l0.1,0.3L29.1,37.6z
	 M28.8,36.8l-0.1-0.3l0.3-0.1l0.1,0.3L28.8,36.8z M28.6,36l-0.1-0.3l0.3-0.1l0.1,0.3L28.6,36z M28.3,35.3L28.2,35l0.3-0.1l0.1,0.3
	L28.3,35.3z M28,34.5l-0.1-0.3l0.3-0.1l0.1,0.3L28,34.5z M27.8,33.7l-0.1-0.3l0.3-0.1l0.1,0.3L27.8,33.7z M27.5,32.9l-0.1-0.3
	l0.3-0.1l0.1,0.3L27.5,32.9z M27.3,32.1l-0.1-0.3l0.3-0.1l0.1,0.3L27.3,32.1z M27,31.3L26.9,31l0.3-0.1l0.1,0.3L27,31.3z M26.7,30.5
	l-0.1-0.3l0.3-0.1l0.1,0.3L26.7,30.5z M26.5,29.7l-0.1-0.3l0.3-0.1l0.1,0.3L26.5,29.7z M26.2,28.9l-0.1-0.3l0.3-0.1l0.1,0.3
	L26.2,28.9z M26,28.1l-0.1-0.3l0.3-0.1l0.1,0.3L26,28.1z M25.7,27.3l-0.1-0.3l0.3-0.1l0.1,0.3L25.7,27.3z M25.4,26.5l-0.1-0.3
	l0.3-0.1l0.1,0.3L25.4,26.5z M25.2,25.8l-0.1-0.3l0.3-0.1l0.1,0.3L25.2,25.8z"/>
<path id="Path_571" fill="#85868A" d="M30.9,42.9l-0.1,0l0,0l0,0l0.1,0.1l0.3-0.1l0-0.1l0,0l0,0L30.9,42.9z"/>
<path id="Path_572" fill="#85868A" d="M30.5,42.4l-0.1-0.2l0.2-0.1l0.1,0.2L30.5,42.4z M30.2,41.7L30,41.4l0.2-0.1l0.1,0.2
	L30.2,41.7z M29.8,40.9l-0.1-0.2l0.2-0.1l0.1,0.2L29.8,40.9z M29.4,40.2L29.3,40l0.2-0.1l0.1,0.2L29.4,40.2z M29,39.5l-0.1-0.2
	l0.2-0.1l0.1,0.2L29,39.5z M28.7,38.7l-0.1-0.2l0.2-0.1l0.1,0.2L28.7,38.7z M28.3,38l-0.1-0.2l0.2-0.1l0.1,0.2L28.3,38z M27.9,37.2
	L27.8,37l0.2-0.1l0.1,0.2L27.9,37.2z M27.5,36.5l-0.1-0.2l0.2-0.1l0.1,0.2L27.5,36.5z M27.2,35.7L27,35.5l0.2-0.1l0.1,0.2L27.2,35.7
	z M26.8,35l-0.1-0.2l0.2-0.1l0.1,0.2L26.8,35z M26.4,34.3L26.3,34l0.2-0.1l0.1,0.2L26.4,34.3z M26,33.5l-0.1-0.2l0.2-0.1l0.1,0.2
	L26,33.5z M25.7,32.8l-0.1-0.2l0.2-0.1l0.1,0.2L25.7,32.8z M25.3,32l-0.1-0.2l0.2-0.1l0.1,0.2L25.3,32z M24.9,31.3L24.8,31l0.2-0.1
	l0.1,0.2L24.9,31.3z M24.5,30.5l-0.1-0.2l0.2-0.1l0.1,0.2L24.5,30.5z M24.2,29.8L24,29.6l0.2-0.1l0.1,0.2L24.2,29.8z M23.8,29.1
	l-0.1-0.2l0.2-0.1l0.1,0.2L23.8,29.1z M23.4,28.3l-0.1-0.2l0.2-0.1l0.1,0.2L23.4,28.3z M23,27.6l-0.1-0.2l0.2-0.1l0.1,0.2L23,27.6z
	 M22.7,26.8l-0.1-0.2l0.2-0.1l0.1,0.2L22.7,26.8z"/>
<path id="Path_573" fill="#85868A" d="M22.2,25.8L22.2,26l0.1,0l0,0.1l0.1,0l0.1,0l0-0.1l0.1,0l-0.1-0.1H22.2z"/>
<path id="Path_574" fill="#85868A" d="M14.1,42.4l-0.2-0.1l0.1-0.2l0.2,0.1L14.1,42.4z M14.5,41.7l-0.2-0.1l0.1-0.2l0.2,0.1
	L14.5,41.7z M14.9,40.9l-0.2-0.1l0.1-0.2l0.2,0.1L14.9,40.9z M15.3,40.2L15,40.1l0.1-0.2l0.2,0.1L15.3,40.2z M15.6,39.5l-0.2-0.1
	l0.1-0.2l0.2,0.1L15.6,39.5z M16,38.7l-0.2-0.1l0.1-0.2l0.2,0.1L16,38.7z M16.4,38l-0.2-0.1l0.1-0.2l0.2,0.1L16.4,38z M16.8,37.2
	l-0.2-0.1l0.1-0.2l0.2,0.1L16.8,37.2z M17.1,36.5l-0.2-0.1l0.1-0.2l0.2,0.1L17.1,36.5z M17.5,35.7l-0.2-0.1l0.1-0.2l0.2,0.1
	L17.5,35.7z M17.9,35l-0.2-0.1l0.1-0.2l0.2,0.1L17.9,35z M18.3,34.3L18,34.1l0.1-0.2l0.2,0.1L18.3,34.3z M18.7,33.5l-0.2-0.1
	l0.1-0.2l0.2,0.1L18.7,33.5z M19,32.8l-0.3-0.1l0.1-0.2l0.2,0.1L19,32.8z M19.4,32l-0.2-0.1l0.1-0.2l0.2,0.1L19.4,32z M19.8,31.3
	l-0.2-0.1l0.1-0.2l0.2,0.1L19.8,31.3z M20.2,30.5l-0.2-0.1l0.1-0.2l0.2,0.1L20.2,30.5z M20.5,29.8l-0.2-0.1l0.1-0.2l0.2,0.1
	L20.5,29.8z M20.9,29.1l-0.2-0.1l0.1-0.2l0.2,0.1L20.9,29.1z M21.3,28.3L21,28.2l0.1-0.2l0.2,0.1L21.3,28.3z M21.7,27.6l-0.3-0.1
	l0.1-0.2l0.2,0.1L21.7,27.6z M22,26.8l-0.2-0.1l0.1-0.2l0.2,0.1L22,26.8z"/>
<path id="Path_575" fill="#85868A" d="M13.6,42.8L13.6,42.8L13.6,43l0.3,0.1l0.1-0.1l0,0l0,0l-0.1,0L13.6,42.8L13.6,42.8z"/>
<path id="Path_576" fill="#85868A" d="M14.1,42.4l-0.3-0.1l0.1-0.3l0.3,0.1L14.1,42.4z M14.3,41.6L14,41.5l0.1-0.3l0.3,0.1
	L14.3,41.6z M14.6,40.8l-0.3-0.1l0.1-0.3l0.3,0.1L14.6,40.8z M14.8,40l-0.3-0.1l0.1-0.3l0.3,0.1L14.8,40z M15.1,39.2l-0.3-0.1
	l0.1-0.3l0.3,0.1L15.1,39.2z M15.3,38.4l-0.3-0.1l0.1-0.3l0.3,0.1L15.3,38.4z M15.6,37.6l-0.3-0.1l0.1-0.3l0.3,0.1L15.6,37.6z
	 M15.9,36.8l-0.3-0.1l0.1-0.3l0.3,0.1L15.9,36.8z M16.1,36L15.9,36l0.1-0.3l0.3,0.1L16.1,36z M16.4,35.3l-0.3-0.1l0.1-0.3l0.3,0.1
	L16.4,35.3z M16.6,34.5l-0.3-0.1l0.1-0.3l0.3,0.1L16.6,34.5z M16.9,33.7l-0.3-0.1l0.1-0.3l0.3,0.1L16.9,33.7z M17.2,32.9l-0.3-0.1
	l0.1-0.3l0.3,0.1L17.2,32.9z M17.4,32.1L17.2,32l0.1-0.3l0.3,0.1L17.4,32.1z M17.7,31.3l-0.3-0.1l0.1-0.3l0.3,0.1L17.7,31.3z
	 M17.9,30.5l-0.3-0.1l0.1-0.3l0.3,0.1L17.9,30.5z M18.2,29.7l-0.3-0.1l0.1-0.3l0.3,0.1L18.2,29.7z M18.5,28.9l-0.3-0.1l0.1-0.3
	l0.3,0.1L18.5,28.9z M18.7,28.1L18.5,28l0.1-0.3l0.3,0.1L18.7,28.1z M19,27.3l-0.3-0.1l0.1-0.3l0.3,0.1L19,27.3z M19.2,26.6L19,26.5
	l0.1-0.3l0.3,0.1L19.2,26.6z M19.5,25.8l-0.3-0.1l0.1-0.3l0.3,0.1L19.5,25.8z"/>
<path id="Path_577" fill="#85868A" d="M19.5,24.7L19.5,24.7v0.2l0.1,0l0,0.1l0.1,0l0.1,0l0-0.1l-0.2-0.2L19.5,24.7z"/>
<path id="Path_578" fill="#85868A" d="M2.2,30.7l-0.1-0.3l0.3-0.1l0.1,0.3L2.2,30.7z M3,30.4l-0.1-0.3l0.3-0.1l0.1,0.3L3,30.4z
	 M3.8,30.2l-0.1-0.3l0.3-0.1L4,30.1L3.8,30.2z M4.6,29.9l-0.1-0.3l0.3-0.1l0.1,0.3L4.6,29.9z M5.4,29.7l-0.1-0.3l0.3-0.1l0.1,0.3
	L5.4,29.7z M6.1,29.4l-0.1-0.3L6.3,29l0.1,0.3L6.1,29.4z M6.9,29.1l-0.1-0.3l0.3-0.1L7.2,29L6.9,29.1z M7.7,28.9l-0.1-0.3l0.3-0.1
	L8,28.8L7.7,28.9z M8.5,28.6l-0.1-0.3l0.3-0.1l0.1,0.3L8.5,28.6z M9.3,28.4l-0.1-0.3L9.5,28l0.1,0.3L9.3,28.4z M10.1,28.1L10,27.8
	l0.3-0.1l0.1,0.3L10.1,28.1z M10.9,27.8l-0.1-0.3l0.3-0.1l0.1,0.3L10.9,27.8z M11.7,27.6l-0.1-0.3l0.3-0.1l0.1,0.3L11.7,27.6z
	 M12.5,27.3L12.4,27l0.3-0.1l0.1,0.3L12.5,27.3z M13.3,27.1l-0.1-0.3l0.3-0.1l0.1,0.3L13.3,27.1z M14.1,26.8L14,26.5l0.3-0.1
	l0.1,0.3L14.1,26.8z M14.9,26.5l-0.1-0.3l0.3-0.1l0.1,0.3L14.9,26.5z M15.6,26.3L15.6,26l0.3-0.1l0.1,0.3L15.6,26.3z M16.4,26
	l-0.1-0.3l0.3-0.1l0.1,0.3L16.4,26z M17.2,25.8l-0.1-0.3l0.3-0.1l0.1,0.3L17.2,25.8z M18,25.5l-0.1-0.3l0.3-0.1l0.1,0.3L18,25.5z
	 M18.8,25.2L18.7,25l0.3-0.1l0.1,0.3L18.8,25.2z"/>
<path id="Path_579" fill="#85868A" d="M1.4,30.7l0.1,0.3l0.1,0l0,0l0,0l-0.1-0.1l0-0.1l0,0l0,0L1.4,30.7z"/>
<path id="Path_580" fill="#85868A" d="M2.2,30.6L2,30.3l0.2-0.1l0.1,0.2L2.2,30.6z M2.9,30.2L2.8,30L3,29.8l0.1,0.2L2.9,30.2z
	 M3.7,29.8l-0.1-0.2l0.2-0.1l0.1,0.2L3.7,29.8z M4.4,29.5l-0.1-0.2l0.2-0.1l0.1,0.2L4.4,29.5z M5.1,29.1L5,28.8l0.2-0.1L5.4,29
	L5.1,29.1z M5.9,28.7l-0.1-0.2L6,28.3l0.1,0.2L5.9,28.7z M6.6,28.3l-0.1-0.2L6.8,28l0.1,0.2L6.6,28.3z M7.4,28l-0.1-0.2l0.2-0.1
	l0.1,0.2L7.4,28z M8.1,27.6L8,27.3l0.2-0.1l0.1,0.2L8.1,27.6z M8.9,27.2L8.7,27L9,26.8l0.1,0.2L8.9,27.2z M9.6,26.8l-0.1-0.2
	l0.2-0.1l0.1,0.2L9.6,26.8z M10.3,26.5l-0.1-0.2l0.2-0.1l0.1,0.2L10.3,26.5z M11.1,26.1L11,25.8l0.2-0.1l0.1,0.2L11.1,26.1z
	 M11.8,25.7l-0.1-0.2l0.2-0.1l0.1,0.2L11.8,25.7z M12.6,25.3l-0.1-0.2l0.2-0.1l0.1,0.2L12.6,25.3z M13.3,25l-0.1-0.2l0.2-0.1
	l0.1,0.2L13.3,25z M14.1,24.6l-0.1-0.2l0.2-0.1l0.1,0.2L14.1,24.6z M14.8,24.2L14.7,24l0.2-0.1l0.1,0.2L14.8,24.2z M15.6,23.8
	l-0.1-0.2l0.2-0.1l0.1,0.2L15.6,23.8z M16.3,23.5l-0.1-0.2l0.2-0.1l0.1,0.2L16.3,23.5z M17,23.1l-0.1-0.2l0.2-0.1l0.1,0.2L17,23.1z
	 M17.8,22.7l-0.1-0.2l0.2-0.1l0.1,0.2L17.8,22.7z"/>
<path id="Path_581" fill="#85868A" d="M18.5,22L18.5,22l-0.1,0.1l0,0.1l0.1,0l0,0.1l0.1-0.1V22L18.5,22L18.5,22z"/>
<path id="Path_582" fill="#85868A" d="M17.9,21.9l-0.2-0.1l0.1-0.2l0.2,0.1L17.9,21.9z M17.2,21.6l-0.2-0.1l0.1-0.2l0.2,0.1
	L17.2,21.6z M16.4,21.2l-0.2-0.1l0.1-0.2l0.2,0.1L16.4,21.2z M15.7,20.8l-0.2-0.1l0.1-0.2l0.2,0.1L15.7,20.8z M14.9,20.4l-0.3-0.1
	l0.1-0.2l0.2,0.1L14.9,20.4z M14.2,20.1l-0.2-0.1l0.1-0.2l0.2,0.1L14.2,20.1z M13.4,19.7l-0.2-0.1l0.1-0.2l0.2,0.1L13.4,19.7z
	 M12.7,19.3l-0.2-0.1l0.1-0.2l0.2,0.1L12.7,19.3z M12,18.9l-0.2-0.1l0.1-0.2l0.2,0.1L12,18.9z M11.2,18.6L11,18.4l0.1-0.2l0.2,0.1
	L11.2,18.6z M10.5,18.2l-0.2-0.1l0.1-0.2l0.2,0.1L10.5,18.2z M9.7,17.8l-0.3-0.1l0.1-0.2l0.2,0.1L9.7,17.8z M9,17.4l-0.2-0.1
	l0.1-0.2l0.2,0.1L9,17.4z M8.2,17.1L8,16.9l0.1-0.2l0.2,0.1L8.2,17.1z M7.5,16.7l-0.2-0.1l0.1-0.2l0.2,0.1L7.5,16.7z M6.8,16.3
	l-0.2-0.1l0.1-0.2l0.2,0.1L6.8,16.3z M6,15.9l-0.2-0.1l0.1-0.2l0.2,0.1L6,15.9z M5.3,15.6L5,15.4l0.1-0.2l0.2,0.1L5.3,15.6z
	 M4.5,15.2l-0.3-0.1l0.1-0.2l0.2,0.1L4.5,15.2z M3.8,14.8l-0.2-0.1l0.1-0.2l0.2,0.1L3.8,14.8z M3,14.4l-0.2-0.1l0.1-0.2l0.2,0.1
	L3,14.4z M2.3,14.1l-0.2-0.1l0.1-0.2l0.2,0.1L2.3,14.1z"/>
<path id="Path_583" fill="#85868A" d="M1.4,13.6l0.1,0.1l0,0l0,0l0-0.1l0.1-0.1l0,0l0,0l-0.1,0L1.4,13.6z"/>
<path id="Path_584" fill="#85868A" d="M19,19.4l-0.3-0.1l0.1-0.3l0.3,0.1L19,19.4z M18.2,19.1L17.9,19l0.1-0.3l0.3,0.1L18.2,19.1z
	 M17.4,18.9l-0.3-0.1l0.1-0.3l0.3,0.1L17.4,18.9z M16.6,18.6l-0.3-0.1l0.1-0.3l0.3,0.1L16.6,18.6z M15.8,18.4l-0.3-0.1l0.1-0.3
	l0.3,0.1L15.8,18.4z M15,18.1L14.8,18l0.1-0.3l0.3,0.1L15,18.1z M14.2,17.8L14,17.7l0.1-0.3l0.3,0.1L14.2,17.8z M13.4,17.6l-0.3-0.1
	l0.1-0.3l0.3,0.1L13.4,17.6z M12.6,17.3l-0.3-0.1l0.1-0.3l0.3,0.1L12.6,17.3z M11.9,17.1L11.6,17l0.1-0.3l0.3,0.1L11.9,17.1z
	 M11.1,16.8l-0.3-0.1l0.1-0.3l0.3,0.1L11.1,16.8z M10.3,16.5L10,16.4l0.1-0.3l0.3,0.1L10.3,16.5z M9.5,16.3l-0.3-0.1l0.1-0.3L9.6,16
	L9.5,16.3z M8.7,16l-0.3-0.1l0.1-0.3l0.3,0.1L8.7,16z M7.9,15.8l-0.3-0.1l0.1-0.3L8,15.5L7.9,15.8z M7.1,15.5l-0.3-0.1l0.1-0.3
	l0.3,0.1L7.1,15.5z M6.3,15.2l-0.3-0.1l0.1-0.3L6.4,15L6.3,15.2z M5.5,15l-0.3-0.1l0.1-0.3l0.3,0.1L5.5,15z M4.7,14.7l-0.3-0.1
	l0.1-0.3l0.3,0.1L4.7,14.7z M3.9,14.5l-0.3-0.1l0.1-0.3L4,14.2L3.9,14.5z M3.2,14.2l-0.3-0.1L3,13.8l0.3,0.1L3.2,14.2z M2.4,13.9
	l-0.3-0.1l0.1-0.3l0.3,0.1L2.4,13.9z"/>
<path id="Path_585" fill="#85868A" d="M19.7,19.3L19.7,19.3l-0.1,0l-0.1,0l0,0.1l0,0.1l0.1,0l0.2-0.2L19.7,19.3L19.7,19.3z"/>
<path id="Path_586" fill="#85868A" d="M19.3,18.9l-0.1-0.3l0.3-0.1l0.1,0.3L19.3,18.9z M19.1,18.1L19,17.8l0.3-0.1l0.1,0.3
	L19.1,18.1z M18.8,17.3L18.7,17l0.3-0.1l0.1,0.3L18.8,17.3z M18.6,16.5l-0.1-0.3l0.3-0.1l0.1,0.3L18.6,16.5z M18.3,15.7l-0.1-0.3
	l0.3-0.1l0.1,0.3L18.3,15.7z M18,14.9l-0.1-0.3l0.3-0.1l0.1,0.3L18,14.9z M17.8,14.1l-0.1-0.3l0.3-0.1L18,14L17.8,14.1z M17.5,13.3
	l-0.1-0.3l0.3-0.1l0.1,0.3L17.5,13.3z M17.3,12.5l-0.1-0.3l0.3-0.1l0.1,0.3L17.3,12.5z M17,11.7l-0.1-0.3l0.3-0.1l0.1,0.3L17,11.7z
	 M16.7,10.9l-0.1-0.3l0.3-0.1l0.1,0.3L16.7,10.9z M16.5,10.2l-0.1-0.3l0.3-0.1l0.1,0.3L16.5,10.2z M16.2,9.4l-0.1-0.3L16.4,9
	l0.1,0.3L16.2,9.4z M16,8.6l-0.1-0.3l0.3-0.1l0.1,0.3L16,8.6z M15.7,7.8l-0.1-0.3l0.3-0.1L16,7.7L15.7,7.8z M15.4,7l-0.1-0.3
	l0.3-0.1l0.1,0.3L15.4,7z M15.2,6.2l-0.1-0.3l0.3-0.1l0.1,0.3L15.2,6.2z M14.9,5.4l-0.1-0.3l0.3-0.1l0.1,0.3L14.9,5.4z M14.7,4.6
	l-0.1-0.3l0.3-0.1l0.1,0.3L14.7,4.6z M14.4,3.8l-0.1-0.3l0.3-0.1l0.1,0.3L14.4,3.8z M14.1,3L14,2.8l0.3-0.1l0.1,0.3L14.1,3z
	 M13.9,2.2L13.8,2l0.3-0.1l0.1,0.3L13.9,2.2z"/>
<path id="Path_587" fill="#85868A" d="M13.6,1.3l0,0.1h0l0,0l0.1-0.1l0.1,0l0,0l0,0l-0.1-0.1L13.6,1.3z"/>
<path id="Path_588" fill="#85868A" d="M21.9,17.8l-0.1-0.2l0.2-0.1l0.1,0.2L21.9,17.8z M21.5,17.1l-0.1-0.2l0.2-0.1l0.1,0.2
	L21.5,17.1z M21.2,16.3L21,16.1l0.2-0.1l0.1,0.2L21.2,16.3z M20.8,15.6l-0.1-0.2l0.2-0.1l0.1,0.2L20.8,15.6z M20.4,14.8l-0.1-0.2
	l0.2-0.1l0.1,0.2L20.4,14.8z M20,14.1l-0.1-0.2l0.2-0.1l0.1,0.2L20,14.1z M19.7,13.4l-0.1-0.2l0.2-0.1l0.1,0.2L19.7,13.4z
	 M19.3,12.6l-0.1-0.2l0.2-0.1l0.1,0.2L19.3,12.6z M18.9,11.9l-0.1-0.2l0.2-0.1l0.1,0.2L18.9,11.9z M18.5,11.1l-0.1-0.2l0.2-0.1
	l0.1,0.2L18.5,11.1z M18.1,10.4L18,10.1l0.2-0.1l0.1,0.2L18.1,10.4z M17.8,9.6l-0.1-0.2l0.2-0.1L18,9.5L17.8,9.6z M17.4,8.9
	l-0.1-0.2l0.2-0.1l0.1,0.2L17.4,8.9z M17,8.2l-0.1-0.2l0.2-0.1L17.3,8L17,8.2z M16.6,7.4l-0.1-0.2L16.8,7l0.1,0.2L16.6,7.4z
	 M16.3,6.7l-0.1-0.2l0.2-0.1l0.1,0.2L16.3,6.7z M15.9,5.9l-0.1-0.2L16,5.6l0.1,0.2L15.9,5.9z M15.5,5.2l-0.1-0.2l0.2-0.1l0.1,0.2
	L15.5,5.2z M15.1,4.4L15,4.2l0.2-0.1l0.1,0.2L15.1,4.4z M14.8,3.7l-0.1-0.2l0.2-0.1L15,3.6L14.8,3.7z M14.4,3l-0.1-0.2l0.2-0.1
	l0.1,0.2L14.4,3z M14,2.2L13.9,2l0.2-0.1l0.1,0.2L14,2.2z"/>
<path id="Path_589" fill="#85868A" d="M22.3,18.2L22.3,18.2l-0.1,0.1l-0.1,0l0.1,0.1h0.2l0.1-0.1l-0.1,0L22.3,18.2L22.3,18.2z"/>
<path id="Path_590" fill="#85868A" d="M22.8,17.8l-0.2-0.1l0.1-0.2l0.2,0.1L22.8,17.8z M23.2,17.1L22.9,17l0.1-0.2l0.2,0.1
	L23.2,17.1z M23.5,16.3l-0.2-0.1l0.1-0.2l0.2,0.1L23.5,16.3z M23.9,15.6l-0.2-0.1l0.1-0.2l0.2,0.1L23.9,15.6z M24.3,14.8L24,14.7
	l0.1-0.2l0.2,0.1L24.3,14.8z M24.7,14.1L24.4,14l0.1-0.2l0.2,0.1L24.7,14.1z M25,13.4l-0.2-0.1l0.1-0.2l0.2,0.1L25,13.4z M25.4,12.6
	l-0.2-0.1l0.1-0.2l0.2,0.1L25.4,12.6z M25.8,11.9l-0.2-0.1l0.1-0.2l0.2,0.1L25.8,11.9z M26.2,11.1L25.9,11l0.1-0.2l0.2,0.1
	L26.2,11.1z M26.5,10.4l-0.2-0.1l0.1-0.2l0.2,0.1L26.5,10.4z M26.9,9.6l-0.2-0.1l0.1-0.2L27,9.4L26.9,9.6z M27.3,8.9L27,8.8l0.1-0.2
	l0.2,0.1L27.3,8.9z M27.7,8.2L27.4,8l0.1-0.2l0.2,0.1L27.7,8.2z M28,7.4l-0.2-0.1L27.9,7l0.2,0.1L28,7.4z M28.4,6.7l-0.2-0.1
	l0.1-0.2l0.2,0.1L28.4,6.7z M28.8,5.9l-0.2-0.1l0.1-0.2l0.2,0.1L28.8,5.9z M29.2,5.2l-0.2-0.1L29,4.8l0.2,0.1L29.2,5.2z M29.5,4.4
	l-0.2-0.1l0.1-0.2l0.2,0.1L29.5,4.4z M29.9,3.7l-0.2-0.1l0.1-0.2L30,3.5L29.9,3.7z M30.3,3L30,2.8l0.1-0.2l0.2,0.1L30.3,3z
	 M30.7,2.2l-0.2-0.1l0.1-0.2L30.8,2L30.7,2.2z"/>
<path id="Path_591" fill="#85868A" d="M30.8,1.3L30.8,1.3L30.8,1.3l0.1,0.1L31,1.5l0,0l0,0l0-0.1l-0.3-0.1L30.8,1.3z"/>
<path id="Path_592" fill="#85868A" d="M25.4,18.9l-0.3-0.1l0.1-0.3l0.3,0.1L25.4,18.9z M25.6,18.1L25.3,18l0.1-0.3l0.3,0.1
	L25.6,18.1z M25.9,17.3l-0.3-0.1l0.1-0.3L26,17L25.9,17.3z M26.1,16.5l-0.3-0.1l0.1-0.3l0.3,0.1L26.1,16.5z M26.4,15.7l-0.3-0.1
	l0.1-0.3l0.3,0.1L26.4,15.7z M26.6,14.9l-0.3-0.1l0.1-0.3l0.3,0.1L26.6,14.9z M26.9,14.1L26.6,14l0.1-0.3l0.3,0.1L26.9,14.1z
	 M27.2,13.3l-0.3-0.1L27,13l0.3,0.1L27.2,13.3z M27.4,12.5l-0.3-0.1l0.1-0.3l0.3,0.1L27.4,12.5z M27.7,11.7l-0.3-0.1l0.1-0.3
	l0.3,0.1L27.7,11.7z M27.9,11l-0.3-0.1l0.1-0.3l0.3,0.1L27.9,11z M28.2,10.2l-0.3-0.1L28,9.8l0.3,0.1L28.2,10.2z M28.5,9.4l-0.3-0.1
	L28.3,9l0.3,0.1L28.5,9.4z M28.7,8.6l-0.3-0.1l0.1-0.3l0.3,0.1L28.7,8.6z M29,7.8l-0.3-0.1l0.1-0.3l0.3,0.1L29,7.8z M29.2,7L29,6.9
	l0.1-0.3l0.3,0.1L29.2,7z M29.5,6.2l-0.3-0.1l0.1-0.3l0.3,0.1L29.5,6.2z M29.8,5.4l-0.3-0.1l0.1-0.3l0.3,0.1L29.8,5.4z M30,4.6
	l-0.3-0.1l0.1-0.3l0.3,0.1L30,4.6z M30.3,3.8L30,3.7l0.1-0.3l0.3,0.1L30.3,3.8z M30.5,3L30.3,3l0.1-0.3l0.3,0.1L30.5,3z M30.8,2.2
	l-0.3-0.1l0.1-0.3L30.9,2L30.8,2.2z"/>
<path id="Path_593" fill="#85868A" d="M25,19.3L25,19.3l-0.1,0.1l0.2,0.2l0.1,0l0-0.1l0-0.1l-0.1,0L25,19.3L25,19.3z"/>
<path id="Path_594" fill="#85868A" d="M25.7,19.4l-0.1-0.3l0.3-0.1l0.1,0.3L25.7,19.4z M26.5,19.1l-0.1-0.3l0.3-0.1l0.1,0.3
	L26.5,19.1z M27.3,18.9l-0.1-0.3l0.3-0.1l0.1,0.3L27.3,18.9z M28.1,18.6L28,18.3l0.3-0.1l0.1,0.3L28.1,18.6z M28.9,18.4l-0.1-0.3
	L29,18l0.1,0.3L28.9,18.4z M29.7,18.1l-0.1-0.3l0.3-0.1l0.1,0.3L29.7,18.1z M30.5,17.8l-0.1-0.3l0.3-0.1l0.1,0.3L30.5,17.8z
	 M31.2,17.6l-0.1-0.3l0.3-0.1l0.1,0.3L31.2,17.6z M32,17.3l-0.1-0.3l0.3-0.1l0.1,0.3L32,17.3z M32.8,17.1l-0.1-0.3l0.3-0.1l0.1,0.3
	L32.8,17.1z M33.6,16.8l-0.1-0.3l0.3-0.1l0.1,0.3L33.6,16.8z M34.4,16.5l-0.1-0.3l0.3-0.1l0.1,0.3L34.4,16.5z M35.2,16.3L35.1,16
	l0.3-0.1l0.1,0.3L35.2,16.3z M36,16l-0.1-0.3l0.3-0.1l0.1,0.3L36,16z M36.8,15.8l-0.1-0.3l0.3-0.1l0.1,0.3L36.8,15.8z M37.6,15.5
	l-0.1-0.3l0.3-0.1l0.1,0.3L37.6,15.5z M38.4,15.2L38.3,15l0.3-0.1l0.1,0.3L38.4,15.2z M39.2,15l-0.1-0.3l0.3-0.1l0.1,0.3L39.2,15z
	 M39.9,14.7l-0.1-0.3l0.3-0.1l0.1,0.3L39.9,14.7z M40.7,14.5l-0.1-0.3l0.3-0.1l0.1,0.3L40.7,14.5z M41.5,14.2l-0.1-0.3l0.3-0.1
	l0.1,0.3L41.5,14.2z M42.3,13.9l-0.1-0.3l0.3-0.1l0.1,0.3L42.3,13.9z"/>
<path id="Path_595" fill="#85868A" d="M43,13.4L43,13.4L43,13.4l0,0.1l0,0.1l0,0l0,0l0.1-0.1l-0.1-0.3L43,13.4z"/>
<path id="Path_596" fill="#85868A" d="M26.8,21.9l-0.1-0.2l0.2-0.1l0.1,0.2L26.8,21.9z M27.5,21.6l-0.1-0.2l0.2-0.1l0.1,0.2
	L27.5,21.6z M28.3,21.2l-0.1-0.2l0.2-0.1l0.1,0.2L28.3,21.2z M29,20.8l-0.1-0.2l0.2-0.1l0.1,0.2L29,20.8z M29.8,20.4l-0.1-0.2
	l0.2-0.1l0.1,0.2L29.8,20.4z M30.5,20.1l-0.1-0.2l0.2-0.1l0.1,0.2L30.5,20.1z M31.2,19.7l-0.1-0.2l0.2-0.1l0.1,0.2L31.2,19.7z
	 M32,19.3l-0.1-0.2l0.2-0.1l0.1,0.2L32,19.3z M32.7,18.9l-0.1-0.2l0.2-0.1l0.1,0.2L32.7,18.9z M33.5,18.6l-0.1-0.2l0.2-0.1l0.1,0.2
	L33.5,18.6z M34.2,18.2l-0.1-0.2l0.2-0.1l0.1,0.2L34.2,18.2z M35,17.8l-0.1-0.2l0.2-0.1l0.1,0.2L35,17.8z M35.7,17.4l-0.1-0.2
	l0.2-0.1l0.1,0.2L35.7,17.4z M36.5,17.1l-0.1-0.2l0.2-0.1l0.1,0.2L36.5,17.1z M37.2,16.7l-0.1-0.2l0.2-0.1l0.1,0.2L37.2,16.7z
	 M37.9,16.3l-0.1-0.2l0.2-0.1l0.1,0.2L37.9,16.3z M38.7,15.9l-0.1-0.2l0.2-0.1l0.1,0.2L38.7,15.9z M39.4,15.6l-0.1-0.2l0.2-0.1
	l0.1,0.2L39.4,15.6z M40.2,15.2L40,14.9l0.2-0.1l0.1,0.2L40.2,15.2z M40.9,14.8l-0.1-0.2l0.2-0.1l0.1,0.2L40.9,14.8z M41.7,14.4
	l-0.1-0.2l0.2-0.1l0.1,0.2L41.7,14.4z M42.4,14.1l-0.1-0.2l0.2-0.1l0.1,0.2L42.4,14.1z"/>
<path id="Path_597" fill="#85868A" d="M26,22v0.2l0.1,0.1l0-0.1l0.1,0l0-0.1l0-0.1l-0.1,0l0-0.1L26,22z"/>
<path id="Path_598" fill="#85868A" d="M42.5,30.6l-0.2-0.1l0.1-0.2l0.2,0.1L42.5,30.6z M41.8,30.2l-0.2-0.1l0.1-0.2l0.2,0.1
	L41.8,30.2z M41,29.8l-0.2-0.1l0.1-0.2l0.2,0.1L41,29.8z M40.3,29.5L40,29.3l0.1-0.2l0.2,0.1L40.3,29.5z M39.5,29.1L39.3,29l0.1-0.2
	l0.2,0.1L39.5,29.1z M38.8,28.7l-0.2-0.1l0.1-0.2l0.2,0.1L38.8,28.7z M38.1,28.3l-0.2-0.1l0.1-0.2l0.2,0.1L38.1,28.3z M37.3,28
	l-0.2-0.1l0.1-0.2l0.2,0.1L37.3,28z M36.6,27.6l-0.2-0.1l0.1-0.2l0.2,0.1L36.6,27.6z M35.8,27.2l-0.2-0.1l0.1-0.2L36,27L35.8,27.2z
	 M35.1,26.8l-0.2-0.1l0.1-0.2l0.2,0.1L35.1,26.8z M34.3,26.5l-0.3-0.1l0.1-0.2l0.2,0.1L34.3,26.5z M33.6,26.1L33.4,26l0.1-0.2
	l0.2,0.1L33.6,26.1z M32.9,25.7l-0.2-0.1l0.1-0.2l0.2,0.1L32.9,25.7z M32.1,25.3l-0.2-0.1L32,25l0.2,0.1L32.1,25.3z M31.4,25
	l-0.2-0.1l0.1-0.2l0.2,0.1L31.4,25z M30.6,24.6l-0.2-0.1l0.1-0.2l0.2,0.1L30.6,24.6z M29.9,24.2l-0.2-0.1l0.1-0.2L30,24L29.9,24.2z
	 M29.1,23.8l-0.3-0.1l0.1-0.2l0.2,0.1L29.1,23.8z M28.4,23.5l-0.2-0.1l0.1-0.2l0.2,0.1L28.4,23.5z M27.6,23.1L27.4,23l0.1-0.2
	l0.2,0.1L27.6,23.1z M26.9,22.7l-0.2-0.1l0.1-0.2l0.2,0.1L26.9,22.7z"/>
<path id="Path_599" fill="#85868A" d="M13.7,0.9L13.4,1L1.2,13.2l-0.1,0.3v17.3l0.1,0.3l12.2,12.2l0.3,0.1H31l0.3-0.1l12.2-12.2
	l0.1-0.3V13.5l-0.1-0.3L31.3,1L31,0.9H13.7z M1.9,30.6V13.7l12-12h16.9l12,12v16.9l-12,12H13.9L1.9,30.6z"/>
<path id="Path_600" fill="#85868A" d="M22.3,5.1l-8.6-4l-0.2,0.1l-3.2,8.9l-8.9,3.3l-0.1,0.2l4,8.6l-4,8.6L1.4,31l8.9,3.2l3.3,8.9
	l0.2,0.1l8.6-4l8.6,4l0.2-0.1l3.2-8.9l8.9-3.3l0.1-0.2l-4-8.6l4-8.6l-0.1-0.2l-8.9-3.2l-3.3-8.9l-0.2-0.1L22.3,5.1z M22.4,5.4l8.5-4
	l3.2,8.8l0.1,0.1l8.8,3.2L39.1,22v0.1l4,8.5l-8.8,3.2L34.1,34l-3.2,8.8l-8.5-3.9h-0.1l-8.5,4L10.6,34l-0.1-0.1l-8.8-3.2l3.9-8.5
	v-0.1l-4-8.5l8.8-3.2l0.1-0.1l3.2-8.8l8.5,3.9L22.4,5.4z"/>
<path id="Path_601" fill="#85868A" d="M22.3,39.1L5.4,22.3v-0.2L22.2,5.2h0.2L39.3,22v0.2L22.5,39.1L22.3,39.1z M5.7,22.2l16.7,16.6
	L39,22.1L22.3,5.5L5.7,22.2z"/>
<path id="Path_602" fill="#85868A" d="M10.5,34.2l-0.1-0.1l0-23.8l0.1-0.1l23.8,0l0.1,0.1l0,23.8l-0.1,0.1L10.5,34.2z M10.5,10.4
	l0,23.5l23.6,0l0-23.6L10.5,10.4z"/>
</svg>
