<?xml version="1.0" encoding="utf-8"?>
<!-- Generator: Adobe Illustrator 24.1.2, SVG Export Plug-In . SVG Version: 6.00 Build 0)  -->
<svg version="1.1" id="Layer_1" xmlns="http://www.w3.org/2000/svg" xmlns:xlink="http://www.w3.org/1999/xlink" x="0px" y="0px"
	 viewBox="0 0 44 44" enable-background="new 0 0 44 44" xml:space="preserve">
<g>
	<g id="Group_170" transform="translate(14.885 0.14)">
		<path id="Path_489" fill="#A7A7A9" d="M14.5,0.1v0.2h0.1l0,0.1l0.2-0.2l-0.1-0.1l-0.1,0H14.5z"/>
	</g>
	<g id="Group_171" transform="translate(15.194 0.448)">
		<path id="Path_490" fill="#A7A7A9" d="M21.1,6.8l-0.2-0.2l0.2-0.2l0.2,0.2L21.1,6.8z M20.5,6.3l-0.2-0.2l0.2-0.2l0.2,0.2L20.5,6.3
			z M20,5.8l-0.2-0.2L20,5.4l0.2,0.2L20,5.8z M19.5,5.2l-0.2-0.2l0.2-0.2l0.2,0.2L19.5,5.2z M19,4.7l-0.2-0.2L19,4.4l0.2,0.2L19,4.7
			z M18.5,4.2L18.3,4l0.2-0.2L18.6,4L18.5,4.2z M17.9,3.7l-0.2-0.2l0.2-0.2l0.2,0.2L17.9,3.7z M17.4,3.2L17.3,3l0.2-0.2L17.6,3
			L17.4,3.2z M16.9,2.6l-0.2-0.2l0.2-0.2l0.2,0.2L16.9,2.6z M16.4,2.1L16.2,2l0.2-0.2L16.6,2L16.4,2.1z M15.9,1.6l-0.2-0.2l0.2-0.2
			L16,1.4L15.9,1.6z M15.4,1.1l-0.2-0.2l0.2-0.2l0.2,0.2L15.4,1.1z M14.8,0.6l-0.2-0.2l0.2-0.2L15,0.4L14.8,0.6z"/>
	</g>
	<g id="Group_172" transform="translate(14.885 28.705)">
		<path id="Path_492" fill="#A7A7A9" d="M14.6,14.8L14.6,14.8L14.5,15h0.1l0.1,0l0.1-0.1L14.6,14.8L14.6,14.8z"/>
	</g>
	<path id="Path_493" fill="#A7A7A9" d="M28.7,43.7h0.2v-0.2h-0.2V43.7z M28,43.7h0.2v-0.2H28V43.7z M27.2,43.7h0.2v-0.2h-0.2V43.7z
		 M26.5,43.7h0.2v-0.2h-0.2V43.7z M25.8,43.7h0.2v-0.2h-0.2V43.7z M25.1,43.7h0.2v-0.2h-0.2V43.7z M24.4,43.7h0.2v-0.2h-0.2V43.7z
		 M23.7,43.7h0.2v-0.2h-0.2V43.7z M23,43.7h0.2v-0.2H23V43.7z M22.2,43.7h0.2v-0.2h-0.2V43.7z M21.5,43.7h0.2v-0.2h-0.2V43.7z
		 M20.8,43.7H21v-0.2h-0.2V43.7z M20.1,43.7h0.2v-0.2h-0.2V43.7z M19.4,43.7h0.2v-0.2h-0.2V43.7z M18.7,43.7h0.2v-0.2h-0.2V43.7z
		 M18,43.7h0.2v-0.2H18V43.7z M17.2,43.7h0.2v-0.2h-0.2V43.7z M16.5,43.7h0.2v-0.2h-0.2V43.7z M15.8,43.7H16v-0.2h-0.2V43.7z
		 M15.1,43.7h0.2v-0.2h-0.2V43.7z"/>
	<g id="Group_173" transform="translate(4.925 28.705)">
		<path id="Path_494" fill="#A7A7A9" d="M9.4,14.9L9.4,14.9L9.6,15h0.1v-0.2H9.6l0-0.1L9.4,14.9z"/>
	</g>
	<g id="Group_175" transform="translate(4.925 0.14)">
		<path id="Path_496" fill="#A7A7A9" d="M9.6,0.1L9.6,0.1L9.4,0.2l0.2,0.2l0,0h0.1V0.1H9.6z"/>
	</g>
	<g id="Group_176" transform="translate(4.981 0.226)">
		<path id="Path_498" fill="#A7A7A9" d="M9.4,0.2l0.1,0.1l0.2-0.1L9.6,0.1L9.4,0.2z"/>
	</g>
	<g id="Group_177" transform="translate(5.168 0.58)">
		<path id="Path_499" fill="#A7A7A9" d="M16.4,13.4l-0.1-0.2l0.2-0.1l0.1,0.2L16.4,13.4z M16.1,12.8L16,12.6l0.2-0.1l0.1,0.2
			L16.1,12.8z M15.7,12.2L15.6,12l0.2-0.1L16,12L15.7,12.2z M15.4,11.5l-0.1-0.2l0.2-0.1l0.1,0.2L15.4,11.5z M15.1,10.9L15,10.7
			l0.2-0.1l0.1,0.2L15.1,10.9z M14.7,10.2L14.6,10l0.2-0.1l0.1,0.2L14.7,10.2z M14.4,9.6l-0.1-0.2l0.2-0.1l0.1,0.2L14.4,9.6z M14,9
			l-0.1-0.2l0.2-0.1l0.1,0.2L14,9z M13.7,8.3l-0.1-0.2L13.8,8l0.1,0.2L13.7,8.3z M13.4,7.7l-0.1-0.2l0.2-0.1l0.1,0.2L13.4,7.7z
			 M13,7l-0.1-0.2l0.2-0.1l0.1,0.2L13,7z M12.7,6.4l-0.1-0.2l0.2-0.1l0.1,0.2L12.7,6.4z"/>
	</g>
	<g id="Group_178" transform="translate(9.88 9.479)">
		<path id="Path_500" fill="#A7A7A9" d="M12.1,4.9L12.1,4.9L12.1,4.9L11.9,5L12,5l0,0.1L12,5.1L12.2,5L12.1,4.9L12.1,4.9z"/>
	</g>
	<g id="Group_179" transform="translate(0.589 5.158)">
		<path id="Path_501" fill="#A7A7A9" d="M20.8,9.2l-0.2-0.1l0.1-0.2L20.9,9L20.8,9.2z M20.1,8.9l-0.2-0.1L20,8.6l0.2,0.1L20.1,8.9z
			 M19.4,8.6l-0.2-0.1l0.1-0.2l0.2,0.1L19.4,8.6z M18.8,8.3l-0.2-0.1l0.1-0.2L18.9,8L18.8,8.3z M18.1,8l-0.2-0.1L18,7.6l0.2,0.1
			L18.1,8z M17.4,7.6l-0.2-0.1l0.1-0.2l0.2,0.1L17.4,7.6z M16.8,7.3l-0.2-0.1L16.6,7l0.2,0.1L16.8,7.3z M16.1,7l-0.2-0.1L16,6.7
			l0.2,0.1L16.1,7z M15.4,6.7l-0.2-0.1l0.1-0.2l0.2,0.1L15.4,6.7z M14.8,6.4l-0.2-0.1l0.1-0.2l0.2,0.1L14.8,6.4z M14.1,6.1L13.9,6
			L14,5.8l0.2,0.1L14.1,6.1z M13.4,5.8l-0.2-0.1l0.1-0.2l0.2,0.1L13.4,5.8z"/>
	</g>
	<g id="Group_180" transform="translate(0.221 4.987)">
		<path id="Path_502" fill="#A7A7A9" d="M7,2.8l0.1,0.1l0.1-0.2L7.1,2.6L7,2.8z"/>
	</g>
	<g id="Group_181" transform="translate(14.844 0.226)">
		<path id="Path_503" fill="#A7A7A9" d="M14.5,0.2l0.2,0.1l0.1-0.1l-0.2-0.1L14.5,0.2z"/>
	</g>
	<g id="Group_182" transform="translate(10.132 0.58)">
		<path id="Path_504" fill="#A7A7A9" d="M12.3,13.4l-0.2-0.1l0.1-0.2l0.2,0.1L12.3,13.4z M12.6,12.8l-0.2-0.1l0.1-0.2l0.2,0.1
			L12.6,12.8z M13,12.2L12.7,12l0.1-0.2l0.2,0.1L13,12.2z M13.3,11.5l-0.2-0.1l0.1-0.2l0.2,0.1L13.3,11.5z M13.6,10.9l-0.2-0.1
			l0.1-0.2l0.2,0.1L13.6,10.9z M14,10.2l-0.2-0.1l0.1-0.2l0.2,0.1L14,10.2z M14.3,9.6l-0.2-0.1l0.1-0.2l0.2,0.1L14.3,9.6z M14.7,9
			l-0.2-0.1l0.1-0.2l0.2,0.1L14.7,9z M15,8.3l-0.2-0.1L14.9,8l0.2,0.1L15,8.3z M15.3,7.7l-0.2-0.1l0.1-0.2l0.2,0.1L15.3,7.7z
			 M15.7,7l-0.2-0.1l0.1-0.2l0.2,0.1L15.7,7z M16,6.4l-0.2-0.1l0.1-0.2l0.2,0.1L16,6.4z"/>
	</g>
	<g id="Group_183" transform="translate(9.944 9.479)">
		<path id="Path_505" fill="#A7A7A9" d="M12,5l0.2,0.2l0.1-0.1l0-0.1l0-0.1l-0.1,0l0-0.1l-0.1,0l-0.1,0L12,5z"/>
	</g>
	<g id="Group_184" transform="translate(10.349 5.158)">
		<path id="Path_506" fill="#A7A7A9" d="M12.3,9.2L12.2,9l0.2-0.1l0.1,0.2L12.3,9.2z M12.9,8.9l-0.1-0.2l0.2-0.1l0.1,0.2L12.9,8.9z
			 M13.6,8.6l-0.1-0.2l0.2-0.1l0.1,0.2L13.6,8.6z M14.3,8.3L14.2,8l0.2-0.1l0.1,0.2L14.3,8.3z M15,8l-0.1-0.2l0.2-0.1l0.1,0.2L15,8z
			 M15.6,7.6l-0.1-0.2l0.2-0.1l0.1,0.2L15.6,7.6z M16.3,7.3l-0.1-0.2L16.4,7l0.1,0.2L16.3,7.3z M17,7l-0.1-0.2l0.2-0.1l0.1,0.2L17,7
			z M17.6,6.7l-0.1-0.2l0.2-0.1l0.1,0.2L17.6,6.7z M18.3,6.4l-0.1-0.2l0.2-0.1l0.1,0.2L18.3,6.4z M19,6.1l-0.1-0.2l0.2-0.1L19.2,6
			L19,6.1z"/>
	</g>
	<g id="Group_185" transform="translate(4.981 28.754)">
		<path id="Path_507" fill="#A7A7A9" d="M9.4,14.9L9.6,15l0.1-0.1l-0.2-0.1L9.4,14.9z"/>
	</g>
	<g id="Group_186" transform="translate(5.168 19.855)">
		<path id="Path_508" fill="#A7A7A9" d="M12.8,17.6l-0.2-0.1l0.1-0.2l0.2,0.1L12.8,17.6z M13.1,16.9l-0.2-0.1l0.1-0.2l0.2,0.1
			L13.1,16.9z M13.5,16.3l-0.2-0.1l0.1-0.2l0.2,0.1L13.5,16.3z M13.8,15.6l-0.2-0.1l0.1-0.2l0.2,0.1L13.8,15.6z M14.1,15l-0.2-0.1
			l0.1-0.2l0.2,0.1L14.1,15z M14.5,14.4l-0.2-0.1l0.1-0.2l0.2,0.1L14.5,14.4z M14.8,13.7l-0.2-0.1l0.1-0.2l0.2,0.1L14.8,13.7z
			 M15.2,13.1L15,13l0.1-0.2l0.2,0.1L15.2,13.1z M15.5,12.4l-0.2-0.1l0.1-0.2l0.2,0.1L15.5,12.4z M15.8,11.8l-0.2-0.1l0.1-0.2
			l0.2,0.1L15.8,11.8z M16.2,11.2L16,11l0.1-0.2l0.2,0.1L16.2,11.2z M16.5,10.5l-0.2-0.1l0.1-0.2l0.2,0.1L16.5,10.5z"/>
	</g>
	<g id="Group_187" transform="translate(9.88 19.465)">
		<path id="Path_509" fill="#A7A7A9" d="M11.9,10L11.9,10v0.1l0.1,0l0,0.1l0.1,0l0.1,0l0.1-0.1L12,10L11.9,10z"/>
	</g>
	<g id="Group_188" transform="translate(0.589 19.637)">
		<path id="Path_510" fill="#A7A7A9" d="M13.3,13.8l-0.1-0.2l0.2-0.1l0.1,0.2L13.3,13.8z M14,13.5l-0.1-0.2l0.2-0.1l0.1,0.2L14,13.5
			z M14.6,13.2L14.5,13l0.2-0.1l0.1,0.2L14.6,13.2z M15.3,12.9l-0.1-0.2l0.2-0.1l0.1,0.2L15.3,12.9z M16,12.6l-0.1-0.2l0.2-0.1
			l0.1,0.2L16,12.6z M16.6,12.3L16.5,12l0.2-0.1l0.1,0.2L16.6,12.3z M17.3,12l-0.1-0.2l0.2-0.1l0.1,0.2L17.3,12z M18,11.6l-0.1-0.2
			l0.2-0.1l0.1,0.2L18,11.6z M18.7,11.3l-0.1-0.2l0.2-0.1l0.1,0.2L18.7,11.3z M19.3,11l-0.1-0.2l0.2-0.1l0.1,0.2L19.3,11z M20,10.7
			l-0.1-0.2l0.2-0.1l0.1,0.2L20,10.7z M20.7,10.4l-0.1-0.2l0.2-0.1l0.1,0.2L20.7,10.4z"/>
	</g>
	<g id="Group_189" transform="translate(0.221 23.959)">
		<path id="Path_511" fill="#A7A7A9" d="M7,12.3l0.1,0.2l0.1,0l-0.1-0.2L7,12.3z"/>
	</g>
	<g id="Group_190" transform="translate(14.844 28.754)">
		<path id="Path_512" fill="#A7A7A9" d="M14.5,14.9l0.1,0.1l0.2-0.1l-0.1-0.1L14.5,14.9z"/>
	</g>
	<path id="Path_513" fill="#A7A7A9" d="M26,37.4l-0.1-0.2l0.2-0.1l0.1,0.2L26,37.4z M25.7,36.8l-0.1-0.2l0.2-0.1l0.1,0.2L25.7,36.8z
		 M25.4,36.1l-0.1-0.2l0.2-0.1l0.1,0.2L25.4,36.1z M25,35.5l-0.1-0.2l0.2-0.1l0.1,0.2L25,35.5z M24.7,34.8l-0.1-0.2l0.2-0.1l0.1,0.2
		L24.7,34.8z M24.3,34.2L24.2,34l0.2-0.1l0.1,0.2L24.3,34.2z M24,33.6l-0.1-0.2l0.2-0.1l0.1,0.2L24,33.6z M23.7,32.9l-0.1-0.2
		l0.2-0.1l0.1,0.2L23.7,32.9z M23.3,32.3l-0.1-0.2l0.2-0.1l0.1,0.2L23.3,32.3z M23,31.6l-0.1-0.2l0.2-0.1l0.1,0.2L23,31.6z M22.7,31
		l-0.1-0.2l0.2-0.1l0.1,0.2L22.7,31z M22.3,30.4l-0.1-0.2l0.2-0.1l0.1,0.2L22.3,30.4z"/>
	<g id="Group_192" transform="translate(9.944 19.465)">
		<path id="Path_514" fill="#A7A7A9" d="M12,10.1l0.1,0.1l0.1,0l0.1,0l0-0.1l0.1,0l0-0.1l0-0.1L12.1,10L12,10.1z"/>
	</g>
	<path id="Path_515" fill="#A7A7A9" d="M30.1,33.5l-0.2-0.1l0.1-0.2l0.2,0.1L30.1,33.5z M29.4,33.1L29.2,33l0.1-0.2l0.2,0.1
		L29.4,33.1z M28.8,32.8l-0.2-0.1l0.1-0.2l0.2,0.1L28.8,32.8z M28.1,32.5l-0.2-0.1l0.1-0.2l0.2,0.1L28.1,32.5z M27.4,32.2l-0.2-0.1
		l0.1-0.2l0.2,0.1L27.4,32.2z M26.8,31.9l-0.2-0.1l0.1-0.2l0.2,0.1L26.8,31.9z M26.1,31.6l-0.2-0.1l0.1-0.2l0.2,0.1L26.1,31.6z
		 M25.4,31.3l-0.2-0.1l0.1-0.2l0.2,0.1L25.4,31.3z M24.8,31l-0.2-0.1l0.1-0.2l0.2,0.1L24.8,31z M24.1,30.6l-0.2-0.1l0.1-0.2l0.2,0.1
		L24.1,30.6z M23.4,30.3l-0.2-0.1l0.1-0.2l0.2,0.1L23.4,30.3z M22.7,30l-0.2-0.1l0.1-0.2l0.2,0.1L22.7,30z"/>
	<g id="Group_194" transform="translate(12.045 5.521)">
		<path id="Path_516" fill="#A7A7A9" d="M13,2.8v0.2h0.1l0,0L13.3,3l-0.1-0.1l-0.1,0H13z"/>
	</g>
	<g id="Group_195" transform="translate(7.765 5.521)">
		<path id="Path_518" fill="#A7A7A9" d="M11,2.8L11,2.8L10.9,3L11,3.1l0,0h0.1V2.8H11z"/>
	</g>
	<g id="Group_196" transform="translate(5.748 5.832)">
		<path id="Path_519" fill="#A7A7A9" d="M12.5,29.3l-0.2-0.2l0.2-0.2l0.2,0.2L12.5,29.3z M12,28.8l-0.2-0.2l0.2-0.2l0.2,0.2L12,28.8
			z M11.5,28.3l-0.2-0.2l0.2-0.2l0.2,0.2L11.5,28.3z M11,27.8l-0.2-0.2l0.2-0.2l0.2,0.2L11,27.8z M10.4,27.2l-0.2-0.2l0.2-0.2
			l0.2,0.2L10.4,27.2z M9.9,26.7L9.9,26.7l-0.1-0.1v-0.2h0.2v0.1l0,0L9.9,26.7z M10.1,25.9H9.8v-0.2h0.2V25.9z M10.1,25.2H9.8v-0.2
			h0.2V25.2z M10.1,24.4H9.8v-0.2h0.2V24.4z M10.1,23.7H9.8v-0.2h0.2V23.7z M10.1,22.9H9.8v-0.2h0.2V22.9z M10.1,22.2H9.8V22h0.2
			V22.2z M10.1,21.5H9.8v-0.2h0.2V21.5z M10.1,20.7H9.8v-0.2h0.2V20.7z M10.1,20H9.8v-0.2h0.2V20z M10.1,19.2H9.8V19h0.2V19.2z
			 M10.1,18.5H9.8v-0.2h0.2V18.5z M10.1,17.8H9.8v-0.2h0.2V17.8z M10.1,17H9.8v-0.2h0.2V17z M10.1,16.3H9.8V16h0.2V16.3z M10.1,15.5
			H9.8v-0.3h0.2V15.5z M10.1,14.8H9.8v-0.2h0.2V14.8z M10.1,14.1H9.8v-0.2h0.2V14.1z M10.1,13.3H9.8v-0.2h0.2V13.3z M10.1,12.6H9.8
			v-0.2h0.2V12.6z M10.1,11.8H9.8v-0.2h0.2V11.8z M10.1,11.1H9.8v-0.2h0.2V11.1z M10.1,10.4H9.8v-0.2h0.2V10.4z M10.1,9.6H9.8V9.4
			h0.2V9.6z M10.1,8.9H9.8V8.6h0.2V8.9z M10.1,8.1H9.8V7.9h0.2V8.1z M10.1,7.4H9.8V7.2h0.2V7.4z M10.1,6.7H9.8V6.4h0.2V6.7z
			 M10.1,5.9H9.8V5.8l0-0.1l0.1-0.1l0.2,0.2l0,0L10.1,5.9z M10.4,5.4l-0.2-0.2l0.2-0.2l0.2,0.2L10.4,5.4z M10.9,4.9l-0.2-0.2
			l0.2-0.2l0.2,0.2L10.9,4.9z M11.5,4.4l-0.2-0.2L11.5,4l0.2,0.2L11.5,4.4z M12,3.9l-0.2-0.2L12,3.5l0.2,0.2L12,3.9z M12.5,3.3
			l-0.2-0.2L12.5,3l0.2,0.2L12.5,3.3z"/>
	</g>
	<g id="Group_197" transform="translate(7.765 23.358)">
		<path id="Path_520" fill="#A7A7A9" d="M10.9,12.1L10.9,12.1l0.2,0.1h0.1V12h-0.1l0,0L10.9,12.1z"/>
	</g>
	<path id="Path_522" fill="#A7A7A9" d="M25.2,35.4L25.2,35.4l-0.1,0.2h0.1l0.1,0l0.1-0.1L25.2,35.4L25.2,35.4z"/>
	<path id="Path_523" fill="#A7A7A9" d="M25.7,35.2L25.6,35l0.2-0.2l0.2,0.2L25.7,35.2z M26.3,34.6l-0.2-0.2l0.2-0.2l0.2,0.2
		L26.3,34.6z M26.8,34.1l-0.2-0.2l0.2-0.2l0.2,0.2L26.8,34.1z M27.3,33.6l-0.2-0.2l0.2-0.2l0.2,0.2L27.3,33.6z M27.8,33.1l-0.2-0.2
		l0.2-0.2l0.2,0.2L27.8,33.1z M28.4,32.5l-0.2-0.2l0,0v-0.1h0.2v0.2L28.4,32.5L28.4,32.5z M28.4,31.7h-0.2v-0.2h0.2L28.4,31.7z
		 M28.4,31h-0.2v-0.2h0.2L28.4,31z M28.4,30.3h-0.2V30h0.2L28.4,30.3z M28.4,29.5h-0.2v-0.2h0.2L28.4,29.5z M28.4,28.8h-0.2v-0.2
		h0.2L28.4,28.8z M28.4,28h-0.2v-0.2h0.2L28.4,28z M28.4,27.3h-0.2V27h0.2L28.4,27.3z M28.4,26.6h-0.2v-0.2h0.2L28.4,26.6z
		 M28.4,25.8h-0.2v-0.2h0.2L28.4,25.8z M28.4,25.1h-0.2v-0.2h0.2L28.4,25.1z M28.4,24.3h-0.2v-0.2h0.2L28.4,24.3z M28.4,23.6h-0.2
		v-0.2h0.2L28.4,23.6z M28.4,22.9h-0.2v-0.2h0.2L28.4,22.9z M28.4,22.1h-0.2v-0.2h0.2L28.4,22.1z M28.4,21.4h-0.2v-0.3h0.2
		L28.4,21.4z M28.4,20.6h-0.2v-0.2h0.2L28.4,20.6z M28.4,19.9h-0.2v-0.2h0.2L28.4,19.9z M28.4,19.2h-0.2v-0.2h0.2L28.4,19.2z
		 M28.4,18.4h-0.2v-0.2h0.2L28.4,18.4z M28.4,17.7h-0.2v-0.2h0.2L28.4,17.7z M28.4,16.9h-0.2v-0.2h0.2L28.4,16.9z M28.4,16.2h-0.2
		V16h0.2L28.4,16.2z M28.4,15.5h-0.2v-0.2h0.2L28.4,15.5z M28.4,14.7h-0.2v-0.3h0.2L28.4,14.7z M28.4,14h-0.2v-0.2h0.2L28.4,14z
		 M28.4,13.2h-0.2V13h0.2L28.4,13.2z M28.4,12.5h-0.2v-0.2h0.2L28.4,12.5z M28.4,11.8h-0.2v-0.1l0,0l0.2-0.2l0.1,0.1l0,0.1
		L28.4,11.8z M27.8,11.3l-0.2-0.2l0.2-0.2l0.2,0.2L27.8,11.3z M27.3,10.7l-0.2-0.2l0.2-0.2l0.2,0.2L27.3,10.7z M26.8,10.2L26.6,10
		l0.2-0.2L27,10L26.8,10.2z M26.3,9.7l-0.2-0.2l0.2-0.2l0.2,0.2L26.3,9.7z M25.7,9.2L25.6,9l0.2-0.2L25.9,9L25.7,9.2z"/>
	<path id="Path_524" fill="#A7A7A9" d="M21.9,14.6h0.2v-0.1h-0.2V14.6z"/>
	<path id="Path_526" fill="#A7A7A9" d="M21.9,29.6h0.2v-0.1h-0.2V29.6z"/>
	<g id="Group_200" transform="translate(8.413 8.779)">
		<path id="Path_527" fill="#A7A7A9" d="M11.2,4.6L11.2,4.6l0,0.2h0.2V4.7l0.1,0L11.2,4.6L11.2,4.6z"/>
	</g>
	<g id="Group_201" transform="translate(8.739 8.074)">
		<path id="Path_528" fill="#A7A7A9" d="M11.5,5l-0.2-0.2l0.2-0.2l0.2,0.2L11.5,5z M12.1,4.5l-0.2-0.2L12,4.2l0.1,0h0.1v0.2
			L12.1,4.5L12.1,4.5z M13.8,4.4h-0.3V4.1h0.3V4.4z M13,4.4h-0.3V4.1H13V4.4z"/>
	</g>
	<g id="Group_202" transform="translate(10.693 8.074)">
		<path id="Path_529" fill="#A7A7A9" d="M12.4,4.1v0.2h0.1l0,0.1l0.2-0.2l-0.1-0.1l-0.1,0H12.4z"/>
	</g>
	<g id="Group_203" transform="translate(10.999 8.381)">
		<path id="Path_530" fill="#A7A7A9" d="M12.7,23l-0.2-0.2l0.2-0.2l0.2,0.2L12.7,23z M13.2,22.5L13,22.3l0.2-0.2l0.1,0.1h0.1v0
			l0,0.1L13.2,22.5z M13.4,21.7h-0.2v-0.2h0.2V21.7z M13.4,21h-0.2v-0.2h0.2V21z M13.4,20.3h-0.2V20h0.2V20.3z M13.4,19.5h-0.2v-0.2
			h0.2V19.5z M13.4,18.8h-0.2v-0.2h0.2V18.8z M13.4,18.1h-0.2v-0.2h0.2V18.1z M13.4,17.4h-0.2v-0.2h0.2V17.4z M13.4,16.6h-0.2v-0.2
			h0.2V16.6z M13.4,15.9h-0.2v-0.2h0.2V15.9z M13.4,15.2h-0.2V15h0.2V15.2z M13.4,14.5h-0.2v-0.2h0.2V14.5z M13.4,13.7h-0.2v-0.2
			h0.2V13.7z M13.4,13h-0.2v-0.2h0.2V13z M13.4,12.3h-0.2v-0.2h0.2V12.3z M13.4,11.6h-0.2v-0.2h0.2V11.6z M13.4,10.9h-0.2v-0.2h0.2
			V10.9z M13.4,10.1h-0.2V9.9h0.2V10.1z M13.4,9.4h-0.2V9.2h0.2V9.4z M13.4,8.7h-0.2V8.4h0.2V8.7z M13.4,8h-0.2V7.7h0.2V8z
			 M13.4,7.2h-0.2V7h0.2V7.2z M13.4,6.5h-0.2V6.3h0.2V6.5z M13.4,5.8h-0.2V5.5h0.2V5.8z M13.2,5.2L13,5l0.2-0.2L13.4,5L13.2,5.2z
			 M12.7,4.6l-0.2-0.2l0.2-0.2l0.2,0.2L12.7,4.6z"/>
	</g>
	<g id="Group_204" transform="translate(10.709 20.842)">
		<path id="Path_531" fill="#A7A7A9" d="M12.4,10.7L12.4,10.7L12.4,11h0.1l0.1,0l0.1-0.1L12.4,10.7L12.4,10.7z"/>
	</g>
	<g id="Group_205" transform="translate(9.125 20.842)">
		<path id="Path_533" fill="#A7A7A9" d="M11.5,10.9L11.5,10.9l0.2,0.1h0.1v-0.2h-0.1l0,0L11.5,10.9z"/>
	</g>
	<g id="Group_206" transform="translate(8.414 9.29)">
		<path id="Path_534" fill="#A7A7A9" d="M11.9,22.1l-0.2-0.2l0.2-0.2l0.2,0.2L11.9,22.1z M11.4,21.6l-0.2-0.2l0.2-0.2l0.2,0.2
			L11.4,21.6z M11.2,20.8v-0.2h0.2v0.2H11.2z M11.2,20.1v-0.2h0.2v0.2H11.2z M11.2,19.4v-0.2h0.2v0.2H11.2z M11.2,18.7v-0.2h0.2v0.2
			H11.2z M11.2,18v-0.2h0.2V18H11.2z M11.2,17.2V17h0.2v0.2H11.2z M11.2,16.5v-0.2h0.2v0.2H11.2z M11.2,15.8v-0.2h0.2v0.2H11.2z
			 M11.2,15.1v-0.2h0.2v0.2L11.2,15.1z M11.2,14.3v-0.2h0.2v0.2H11.2z M11.2,13.6v-0.2h0.2v0.2L11.2,13.6z M11.2,12.9v-0.2h0.2v0.2
			L11.2,12.9z M11.2,12.2V12h0.2v0.2L11.2,12.2z M11.2,11.5v-0.2h0.2v0.2L11.2,11.5z M11.2,10.7v-0.2h0.2v0.2L11.2,10.7z M11.2,10
			V9.8h0.2V10L11.2,10z M11.2,9.3V9.1h0.2v0.2L11.2,9.3z M11.2,8.6V8.3h0.2v0.2L11.2,8.6z M11.2,7.9V7.6h0.2v0.2L11.2,7.9z
			 M11.2,7.1V6.9h0.2v0.2L11.2,7.1z M11.2,6.4V6.2h0.2v0.2L11.2,6.4z M11.2,5.7V5.5h0.2v0.2L11.2,5.7z M11.2,5V4.7h0.2V5L11.2,5z"/>
	</g>
	<path id="Path_535" fill="#7B7879" d="M14.5,0l-0.3,0.1L7,7.4L6.9,7.6v28.7L7,36.6l7.3,7.3l0.3,0.1h15l0.3-0.1l7.3-7.3l0.1-0.3V7.6
		L37,7.4l-7.3-7.3L29.5,0H14.5z M7.6,36.2V7.8l7-7h14.7l7,7v28.4l-7,7.1H14.6L7.6,36.2z"/>
	<g id="Group_208" transform="translate(0.207 4.966)">
		<path id="Path_536" fill="#7B7879" d="M7,2.8l6.6,3.2l0.1-0.2L7.1,2.5L7,2.8z"/>
	</g>
	<g id="Group_209" transform="translate(4.968 0.204)">
		<path id="Path_537" fill="#7B7879" d="M9.4,0.2l3.3,6.4L13,6.5L9.6,0.1L9.4,0.2z"/>
	</g>
	<g id="Group_210" transform="translate(15.385 4.966)">
		<path id="Path_538" fill="#7B7879" d="M14.8,5.7l0.1,0.2l6.6-3.2l-0.1-0.2L14.8,5.7z"/>
	</g>
	<g id="Group_211" transform="translate(12.685 0.204)">
		<path id="Path_539" fill="#7B7879" d="M13.4,6.5l0.2,0.1l3.3-6.4l-0.2-0.1L13.4,6.5z"/>
	</g>
	<g id="Group_212" transform="translate(0.209 22.025)">
		<path id="Path_540" fill="#7B7879" d="M7,14.2l0.1,0.2l6.6-2.9l-0.1-0.2L7,14.2z"/>
	</g>
	<g id="Group_213" transform="translate(4.968 24.703)">
		<path id="Path_541" fill="#7B7879" d="M9.4,18.9L9.6,19l3.4-6.2l-0.2-0.1L9.4,18.9z"/>
	</g>
	<path id="Path_542" fill="#7B7879" d="M30.1,33.6l6.6,2.9l0.1-0.2l-6.6-2.9L30.1,33.6z"/>
	<path id="Path_543" fill="#7B7879" d="M26.1,37.5l3.3,6.2l0.2-0.1l-3.3-6.2L26.1,37.5z"/>
	<path id="Path_544" fill="#7B7879" d="M17.8,37.6l-4.1-4.1v0l-0.1-22.7l4.1-4.1h8.4l4.1,4.1v22.8l-4,4L17.8,37.6z M14,33.4l3.9,3.9
		l8.2,0l3.9-3.9V10.8l-4-4h-8.2l-4,4L14,33.4z"/>
	<path id="Path_545" fill="#7B7879" d="M28.1,41H16l-0.1,0l-5.8-5.8l0-0.1V9l0-0.1l5.8-5.9l0.1,0H28l0.1,0L34,8.9L34,9v26l0,0.1
		L28.1,41L28.1,41z M16,40.8h12l5.7-5.7V9.1L28,3.3H16l-5.7,5.8V35L16,40.8z"/>
	<path id="Path_546" fill="#7B7879" d="M27.2,39.3H16.8l-5-5V9.9l5-5h10.3l5,5v24.5L27.2,39.3z M16.9,39.1h10.2l4.8-4.8V10l-4.9-4.9
		H16.9L12.1,10v24.2L16.9,39.1z"/>
</g>
<line fill="none" stroke="#A7A7A9" stroke-width="0.25" stroke-miterlimit="10" stroke-dasharray="0.25,0.5" x1="19" y1="35.5" x2="25" y2="35.5"/>
<line fill="none" stroke="#A7A7A9" stroke-width="0.25" stroke-miterlimit="10" stroke-dasharray="0.25,0.5" x1="22" y1="29.6" x2="22" y2="14.6"/>
<line fill="none" stroke="#A7A7A9" stroke-width="0.25" stroke-miterlimit="10" stroke-dasharray="0.25,0.5" x1="20.8" y1="31.7" x2="23.2" y2="31.7"/>
<line fill="none" stroke="#A7A7A9" stroke-width="0.25" stroke-miterlimit="10" stroke-dasharray="0.25,0.5" x1="19" y1="8.6" x2="25" y2="8.6"/>
</svg>
