<?xml version="1.0" encoding="utf-8"?>
<!-- Generator: Adobe Illustrator 24.1.2, SVG Export Plug-In . SVG Version: 6.00 Build 0)  -->
<svg version="1.1" id="Layer_1" xmlns="http://www.w3.org/2000/svg" xmlns:xlink="http://www.w3.org/1999/xlink" x="0px" y="0px"
	 viewBox="0 0 44 44" enable-background="new 0 0 44 44" xml:space="preserve">
<g>
	<g>
		<g>
			<line fill="none" stroke="#A7A7A9" stroke-width="0.25" stroke-miterlimit="10" x1="22" y1="29.7" x2="22" y2="29.6"/>
			
				<line fill="none" stroke="#A7A7A9" stroke-width="0.25" stroke-miterlimit="10" stroke-dasharray="0.2501,0.5002" x1="22" y1="29.1" x2="22" y2="0.8"/>
			<line fill="none" stroke="#A7A7A9" stroke-width="0.25" stroke-miterlimit="10" x1="22" y1="0.6" x2="22" y2="0.4"/>
		</g>
	</g>
	<path id="Path_603" fill="#A7A7A9" d="M27.5,6.4l0.2,0.1l0-0.1l-0.2-0.1L27.5,6.4z"/>
	<path id="Path_604" fill="#A7A7A9" d="M22.3,21l-0.2-0.1l0.1-0.2l0.2,0.1L22.3,21z M22.5,20.4l-0.2-0.1l0.1-0.2l0.2,0.1L22.5,20.4z
		 M22.8,19.7l-0.2-0.1l0.1-0.2l0.2,0.1L22.8,19.7z M23,19.1L22.8,19l0.1-0.2l0.2,0.1L23,19.1z M23.3,18.5L23,18.4l0.1-0.2l0.2,0.1
		L23.3,18.5z M23.5,17.9l-0.2-0.1l0.1-0.2l0.2,0.1L23.5,17.9z M23.7,17.2l-0.2-0.1l0.1-0.2l0.2,0.1L23.7,17.2z M24,16.6l-0.2-0.1
		l0.1-0.2l0.2,0.1L24,16.6z M24.2,16L24,15.9l0.1-0.2l0.2,0.1L24.2,16z M24.4,15.3l-0.2-0.1l0.1-0.2l0.2,0.1L24.4,15.3z M24.7,14.7
		l-0.2-0.1l0.1-0.2l0.2,0.1L24.7,14.7z M24.9,14.1L24.7,14l0.1-0.2l0.2,0.1L24.9,14.1z M25.1,13.4l-0.2-0.1l0.1-0.2l0.2,0.1
		L25.1,13.4z M25.4,12.8l-0.2-0.1l0.1-0.2l0.2,0.1L25.4,12.8z M25.6,12.2l-0.2-0.1l0.1-0.2l0.2,0.1L25.6,12.2z M25.9,11.6l-0.2-0.1
		l0.1-0.2l0.2,0.1L25.9,11.6z M26.1,10.9l-0.2-0.1l0.1-0.2l0.2,0.1L26.1,10.9z M26.3,10.3l-0.2-0.1l0.1-0.2l0.2,0.1L26.3,10.3z
		 M26.6,9.7l-0.2-0.1l0.1-0.2l0.2,0.1L26.6,9.7z M26.8,9L26.6,9l0.1-0.2l0.2,0.1L26.8,9z M27,8.4l-0.2-0.1l0.1-0.2l0.2,0.1L27,8.4z
		 M27.3,7.8l-0.2-0.1l0.1-0.2l0.2,0.1L27.3,7.8z M27.5,7.2l-0.2-0.1l0.1-0.2l0.2,0.1L27.5,7.2z"/>
	<path id="Path_605" fill="#A7A7A9" d="M22,21.4L22,21.4L22,21.4l-0.1,0.1l0,0.1h0.2l0-0.1L22,21.4L22,21.4L22,21.4z"/>
	<path id="Path_606" fill="#A7A7A9" d="M21.7,21l-0.1-0.2l0.2-0.1l0.1,0.2L21.7,21z M21.5,20.4l-0.1-0.2l0.2-0.1l0.1,0.2L21.5,20.4z
		 M21.2,19.7l-0.1-0.2l0.2-0.1l0.1,0.2L21.2,19.7z M21,19.1l-0.1-0.2l0.2-0.1l0.1,0.2L21,19.1z M20.7,18.5l-0.1-0.2l0.2-0.1l0.1,0.2
		L20.7,18.5z M20.5,17.9l-0.1-0.2l0.2-0.1l0.1,0.2L20.5,17.9z M20.3,17.2L20.2,17l0.2-0.1l0.1,0.2L20.3,17.2z M20,16.6l-0.1-0.2
		l0.2-0.1l0.1,0.2L20,16.6z M19.8,16l-0.1-0.2l0.2-0.1l0.1,0.2L19.8,16z M19.6,15.3l-0.1-0.2l0.2-0.1l0.1,0.2L19.6,15.3z M19.3,14.7
		l-0.1-0.2l0.2-0.1l0.1,0.2L19.3,14.7z M19.1,14.1L19,13.9l0.2-0.1l0.1,0.2L19.1,14.1z M18.8,13.4l-0.1-0.2l0.2-0.1l0.1,0.2
		L18.8,13.4z M18.6,12.8l-0.1-0.2l0.2-0.1l0.1,0.2L18.6,12.8z M18.4,12.2L18.3,12l0.2-0.1l0.1,0.2L18.4,12.2z M18.1,11.6L18,11.3
		l0.2-0.1l0.1,0.2L18.1,11.6z M17.9,10.9l-0.1-0.2l0.2-0.1l0.1,0.2L17.9,10.9z M17.6,10.3l-0.1-0.2l0.2-0.1l0.1,0.2L17.6,10.3z
		 M17.4,9.7l-0.1-0.2l0.2-0.1l0.1,0.2L17.4,9.7z M17.2,9l-0.1-0.2l0.2-0.1L17.4,9L17.2,9z M16.9,8.4l-0.1-0.2l0.2-0.1l0.1,0.2
		L16.9,8.4z M16.7,7.8l-0.1-0.2l0.2-0.1l0.1,0.2L16.7,7.8z M16.5,7.1l-0.1-0.2l0.2-0.1l0.1,0.2L16.5,7.1z"/>
	<path id="Path_607" fill="#A7A7A9" d="M16.2,6.4l0,0.1l0.2-0.1l0-0.1L16.2,6.4z"/>
	<path id="Path_608" fill="#A7A7A9" d="M21.9,0.2L21.9,0.2L22,0.4l0,0l0,0l0.1-0.2l-0.1-0.1H21.9z"/>
	<g>
		<defs>
			<rect id="SVGID_1_" x="7.8" width="28.4" height="44"/>
		</defs>
		<clipPath id="SVGID_2_">
			<use xlink:href="#SVGID_1_"  overflow="visible"/>
		</clipPath>
		<path id="Path_609" clip-path="url(#SVGID_2_)" fill="#A7A7A9" d="M22,43.8h-0.1v-0.2h0.2v0.2H22z M21.4,43.8l-0.2,0l0-0.2l0.2,0
			L21.4,43.8z M22.6,43.8l0-0.2l0.2,0l0,0.2L22.6,43.8 M20.7,43.7l-0.2,0l0-0.2l0.2,0L20.7,43.7z M23.3,43.7l0-0.2l0.2,0l0,0.2
			L23.3,43.7 M20.1,43.6l-0.2,0l0-0.2l0.2,0L20.1,43.6z M23.9,43.6l0-0.2l0.2,0l0,0.2L23.9,43.6 M19.4,43.5l-0.2,0l0-0.2l0.2,0
			L19.4,43.5z M24.6,43.5l0-0.2l0.2,0l0,0.2L24.6,43.5 M18.7,43.4l-0.2-0.1l0.1-0.2l0.2,0.1L18.7,43.4z M25.3,43.4l-0.1-0.2l0.2-0.1
			l0.1,0.2L25.3,43.4 M18,43.2l-0.2-0.1l0.1-0.2l0.2,0.1L18,43.2z M26,43.2L25.9,43l0.2-0.1l0.1,0.2L26,43.2 M17.4,43l-0.2-0.1
			l0.1-0.2l0.2,0.1L17.4,43z M26.6,43l-0.1-0.2l0.2-0.1l0.1,0.2L26.6,43 M16.7,42.8l-0.2-0.1l0.1-0.2l0.2,0.1L16.7,42.8z M27.3,42.8
			l-0.1-0.2l0.2-0.1l0.1,0.2L27.3,42.8 M16.1,42.5l-0.2-0.1l0.1-0.2l0.2,0.1L16.1,42.5z M27.9,42.5l-0.1-0.2l0.2-0.1l0.1,0.2
			L27.9,42.5 M15.5,42.2l-0.2-0.1l0.1-0.2l0.2,0.1L15.5,42.2z M28.5,42.2L28.4,42l0.2-0.1l0.1,0.2L28.5,42.2 M14.9,41.9l-0.2-0.1
			l0.1-0.2l0.2,0.1L14.9,41.9z M29.1,41.9L29,41.7l0.2-0.1l0.1,0.2L29.1,41.9 M29.7,41.5l-0.1-0.2l0.2-0.1l0.1,0.2L29.7,41.5
			 M14.3,41.5l-0.2-0.1l0.1-0.2l0.2,0.1L14.3,41.5z M30.3,41.1l-0.1-0.2l0.2-0.1l0.1,0.2L30.3,41.1 M13.7,41.1l-0.2-0.1l0.1-0.2
			l0.2,0.1L13.7,41.1z M30.8,40.6l-0.1-0.2l0.2-0.1l0.1,0.2L30.8,40.6 M13.2,40.6L13,40.5l0.1-0.2l0.2,0.1L13.2,40.6z M31.3,40.2
			L31.2,40l0.2-0.2l0.2,0.2L31.3,40.2 M12.7,40.2L12.5,40l0.2-0.2l0.2,0.2L12.7,40.2z M31.8,39.7l-0.2-0.2l0.2-0.2l0.2,0.2
			L31.8,39.7 M12.2,39.7L12,39.6l0.2-0.2l0.2,0.2L12.2,39.7z M32.3,39.2l-0.2-0.2l0.2-0.2l0.2,0.2L32.3,39.2 M11.7,39.2l-0.2-0.2
			l0.2-0.2l0.2,0.2L11.7,39.2z M32.8,38.7l-0.2-0.1l0.1-0.2l0.2,0.1L32.8,38.7 M11.3,38.7l-0.1-0.2l0.2-0.1l0.1,0.2L11.3,38.7z
			 M33.2,38.2L33,38c0-0.1,0.1-0.1,0.1-0.2l0.2,0.1L33.2,38.2 M10.8,38.2L10.7,38l0.2-0.1L11,38L10.8,38.2z M33.6,37.6l-0.2-0.1
			l0.1-0.2l0.2,0.1C33.7,37.5,33.6,37.5,33.6,37.6 M10.4,37.6c0-0.1-0.1-0.1-0.1-0.2l0.2-0.1l0.1,0.2L10.4,37.6z M10.1,37
			c0-0.1-0.1-0.1-0.1-0.2l0.2-0.1c0,0.1,0.1,0.1,0.1,0.2L10.1,37z M34,37l-0.2-0.1c0-0.1,0.1-0.1,0.1-0.2l0.2,0.1
			C34,36.9,34,37,34,37 M9.7,36.4c0-0.1-0.1-0.1-0.1-0.2l0.2-0.1l0.1,0.2L9.7,36.4z M34.3,36.4l-0.2-0.1c0-0.1,0.1-0.1,0.1-0.2
			l0.2,0.1C34.4,36.3,34.3,36.4,34.3,36.4 M9.4,35.8c0-0.1-0.1-0.1-0.1-0.2l0.2-0.1c0,0.1,0.1,0.1,0.1,0.2L9.4,35.8z M34.6,35.8
			l-0.2-0.1c0-0.1,0.1-0.1,0.1-0.2l0.2,0.1C34.7,35.7,34.6,35.7,34.6,35.8 M9.1,35.2L9,35l0.2-0.1c0,0.1,0.1,0.1,0.1,0.2L9.1,35.2z
			 M34.9,35.2l-0.2-0.1c0-0.1,0.1-0.1,0.1-0.2L35,35C34.9,35,34.9,35.1,34.9,35.2 M8.9,34.5c0-0.1-0.1-0.1-0.1-0.2L9,34.3
			c0,0.1,0,0.1,0.1,0.2L8.9,34.5z M35.1,34.5l-0.2-0.1c0-0.1,0.1-0.1,0.1-0.2l0.2,0.1C35.2,34.4,35.2,34.5,35.1,34.5 M8.7,33.9
			c0-0.1,0-0.1-0.1-0.2l0.2-0.1c0,0.1,0,0.1,0.1,0.2L8.7,33.9z M35.3,33.9l-0.2-0.1c0-0.1,0-0.1,0.1-0.2l0.2,0.1
			C35.4,33.7,35.4,33.8,35.3,33.9 M8.5,33.2c0-0.1,0-0.1-0.1-0.2L8.6,33c0,0.1,0,0.1,0.1,0.2L8.5,33.2z M35.5,33.2l-0.2-0.1
			c0-0.1,0-0.1,0.1-0.2l0.2,0.1C35.6,33.1,35.6,33.1,35.5,33.2 M8.3,32.6c0-0.1,0-0.1,0-0.2l0.2,0c0,0.1,0,0.1,0,0.2L8.3,32.6z
			 M35.7,32.5l-0.2,0c0-0.1,0-0.1,0-0.2l0.2,0C35.7,32.4,35.7,32.5,35.7,32.5 M8.2,31.9c0-0.1,0-0.2,0-0.2l0.2,0c0,0.1,0,0.1,0,0.2
			L8.2,31.9z M35.8,31.9l-0.2,0c0-0.1,0-0.1,0-0.2l0.2,0C35.8,31.7,35.8,31.8,35.8,31.9 M8.1,31.2c0-0.1,0-0.2,0-0.2l0.2,0
			c0,0.1,0,0.1,0,0.2L8.1,31.2z M35.9,31.2l-0.2,0c0-0.1,0-0.1,0-0.2l0.2,0C35.9,31,35.9,31.1,35.9,31.2 M8.1,30.5
			c0-0.1,0-0.2,0-0.2l0.2,0c0,0.1,0,0.2,0,0.2L8.1,30.5z M35.9,30.5l-0.2,0c0-0.1,0-0.2,0-0.2h0.2C35.9,30.3,35.9,30.4,35.9,30.5
			 M8.3,29.8H8.1v-0.2h0.2V29.8z M35.7,29.8v-0.2H36v0.2L35.7,29.8z M8.3,29.1H8.1v-0.2h0.2V29.1z M35.7,29.1v-0.2h0.2v0.2
			L35.7,29.1z M8.3,28.5l-0.2,0l0-0.2l0.2,0L8.3,28.5z M35.7,28.4l0-0.2l0.2,0l0,0.2L35.7,28.4z M8.3,27.8l-0.2,0l0-0.2l0.2,0
			L8.3,27.8z M35.7,27.8l0-0.2l0.2,0l0,0.2L35.7,27.8z M8.4,27.1l-0.2,0l0-0.2l0.2,0L8.4,27.1z M35.6,27.1l0-0.2l0.2,0l0,0.2
			L35.6,27.1z M8.4,26.4l-0.2,0l0-0.2l0.2,0L8.4,26.4z M35.6,26.4l0-0.2l0.2,0l0,0.2L35.6,26.4z M8.5,25.7l-0.2,0l0-0.2l0.2,0
			L8.5,25.7z M35.5,25.7l0-0.2l0.2,0l0,0.2L35.5,25.7z M8.6,25.1l-0.2,0l0-0.2l0.2,0L8.6,25.1z M35.4,25l0-0.2l0.2,0l0,0.2L35.4,25z
			 M8.7,24.4l-0.2,0l0-0.2l0.2,0L8.7,24.4z M35.3,24.4l0-0.2l0.2,0l0,0.2L35.3,24.4z M8.8,23.7l-0.2,0l0-0.2l0.2,0L8.8,23.7z
			 M35.2,23.7l0-0.2l0.2,0l0,0.2L35.2,23.7z M8.9,23l-0.2,0l0-0.2l0.2,0L8.9,23z M35.1,23l0-0.2l0.2,0l0,0.2L35.1,23z M9,22.4
			l-0.2,0l0-0.2l0.2,0L9,22.4z M35,22.4l0-0.2l0.2,0l0,0.2L35,22.4z M9.2,21.7L9,21.7L9,21.4l0.2,0.1L9.2,21.7z M34.8,21.7l-0.1-0.2
			l0.2-0.1l0.1,0.2L34.8,21.7z M9.3,21L9.1,21l0.1-0.2l0.2,0.1L9.3,21z M34.7,21l-0.1-0.2l0.2-0.1l0.1,0.2L34.7,21z M9.5,20.4
			l-0.2-0.1l0.1-0.2l0.2,0.1L9.5,20.4z M34.5,20.4l-0.1-0.2l0.2-0.1l0.1,0.2L34.5,20.4z M9.7,19.7l-0.2-0.1l0.1-0.2l0.2,0.1
			L9.7,19.7z M34.3,19.7l-0.1-0.2l0.2-0.1l0.1,0.2L34.3,19.7z M9.9,19.1L9.7,19l0.1-0.2l0.2,0.1L9.9,19.1z M34.1,19.1L34,18.8
			l0.2-0.1l0.1,0.2L34.1,19.1z M10.1,18.4l-0.2-0.1l0.1-0.2l0.2,0.1L10.1,18.4z M33.9,18.4l-0.1-0.2l0.2-0.1l0.1,0.2L33.9,18.4z
			 M10.3,17.8l-0.2-0.1l0.1-0.2l0.2,0.1L10.3,17.8z M33.7,17.8l-0.1-0.2l0.2-0.1l0.1,0.2L33.7,17.8z M10.5,17.1l-0.2-0.1l0.1-0.2
			l0.2,0.1L10.5,17.1z M33.4,17.1l-0.1-0.2l0.2-0.1l0.1,0.2L33.4,17.1z M10.8,16.5l-0.2-0.1l0.1-0.2l0.2,0.1L10.8,16.5z M33.2,16.5
			l-0.1-0.2l0.2-0.1l0.1,0.2L33.2,16.5z M11,15.9l-0.2-0.1l0.1-0.2l0.2,0.1L11,15.9z M33,15.9l-0.1-0.2l0.2-0.1l0.1,0.2L33,15.9z
			 M11.3,15.2l-0.2-0.1l0.1-0.2l0.2,0.1L11.3,15.2z M32.7,15.2L32.6,15l0.2-0.1l0.1,0.2L32.7,15.2z M11.6,14.6l-0.2-0.1l0.1-0.2
			l0.2,0.1L11.6,14.6z M32.4,14.6l-0.1-0.2l0.2-0.1l0.1,0.2L32.4,14.6z M11.9,14l-0.2-0.1l0.1-0.2l0.2,0.1L11.9,14z M32.1,14
			L32,13.8l0.2-0.1l0.1,0.2L32.1,14z M12.1,13.4l-0.2-0.1l0.1-0.2l0.2,0.1L12.1,13.4z M31.8,13.4l-0.1-0.2l0.2-0.1l0.1,0.2
			L31.8,13.4z M12.4,12.8l-0.2-0.1l0.1-0.2l0.2,0.1L12.4,12.8z M31.5,12.8l-0.1-0.2l0.2-0.1l0.1,0.2L31.5,12.8z M12.8,12.2l-0.2-0.1
			l0.1-0.2l0.2,0.1L12.8,12.2z M31.2,12.2L31.1,12l0.2-0.1l0.1,0.2L31.2,12.2z M13.1,11.6l-0.2-0.1l0.1-0.2l0.2,0.1L13.1,11.6z
			 M30.9,11.6l-0.1-0.2l0.2-0.1l0.1,0.2L30.9,11.6z M13.4,11l-0.2-0.1l0.1-0.2l0.2,0.1L13.4,11z M30.6,11l-0.1-0.2l0.2-0.1l0.1,0.2
			L30.6,11z M13.8,10.4l-0.2-0.1l0.1-0.2l0.2,0.1L13.8,10.4z M30.2,10.4l-0.1-0.2l0.2-0.1l0.1,0.2L30.2,10.4z M14.1,9.8l-0.2-0.1
			L14,9.5l0.2,0.1L14.1,9.8z M29.9,9.8l-0.1-0.2l0.2-0.1l0.1,0.2L29.9,9.8z M14.5,9.2l-0.2-0.1l0.1-0.2L14.6,9L14.5,9.2z M29.5,9.2
			L29.4,9l0.2-0.1l0.1,0.2L29.5,9.2z M14.9,8.6l-0.2-0.1l0.1-0.2L15,8.5L14.9,8.6z M29.1,8.6L29,8.4l0.2-0.1l0.1,0.2L29.1,8.6z
			 M15.2,8.1L15,8l0.1-0.2l0.2,0.1L15.2,8.1z M28.8,8.1l-0.1-0.2l0.2-0.1l0.1,0.2L28.8,8.1z M15.6,7.5l-0.2-0.1l0.1-0.2l0.2,0.1
			L15.6,7.5z M28.4,7.5l-0.1-0.2l0.2-0.1l0.1,0.2L28.4,7.5z M16,7l-0.2-0.1L16,6.7l0.2,0.1L16,7z M28,7l-0.1-0.2L28,6.6l0.1,0.2
			L28,7z M16.4,6.4l-0.2-0.1l0.1-0.2l0.2,0.1L16.4,6.4z M27.6,6.4l-0.1-0.2l0.2-0.1l0.1,0.2L27.6,6.4z M16.8,5.9l-0.2-0.1l0.1-0.2
			L17,5.7L16.8,5.9z M27.1,5.9L27,5.7l0.2-0.1l0.1,0.2L27.1,5.9z M17.3,5.4l-0.2-0.1L17.2,5l0.2,0.1L17.3,5.4z M26.7,5.3l-0.1-0.2
			L26.8,5l0.1,0.2L26.7,5.3z M17.7,4.8l-0.2-0.1l0.1-0.2l0.2,0.1L17.7,4.8z M26.3,4.8l-0.1-0.2l0.2-0.1l0.1,0.2L26.3,4.8z M18.1,4.3
			L18,4.2L18.1,4l0.2,0.1L18.1,4.3z M25.8,4.3l-0.1-0.2L25.9,4L26,4.1L25.8,4.3z M18.6,3.8l-0.2-0.2l0.2-0.2l0.2,0.2L18.6,3.8z
			 M25.4,3.8l-0.2-0.2l0.2-0.2l0.2,0.2L25.4,3.8z M19,3.3l-0.2-0.2L19,3l0.2,0.2L19,3.3z M24.9,3.3l-0.2-0.2L25,3l0.2,0.2L24.9,3.3z
			 M19.5,2.8l-0.2-0.2l0.2-0.2l0.2,0.2L19.5,2.8z M24.5,2.8l-0.2-0.2l0.2-0.2l0.2,0.2L24.5,2.8z M20,2.3l-0.2-0.2L20,2l0.2,0.2
			L20,2.3z M24,2.3l-0.2-0.2L24,2l0.2,0.2L24,2.3z M20.5,1.8l-0.2-0.2l0.2-0.2l0.2,0.2L20.5,1.8z M23.5,1.8l-0.2-0.2l0.2-0.2
			l0.2,0.2L23.5,1.8z M21,1.3l-0.2-0.2L21,1l0.2,0.2L21,1.3z M23,1.3l-0.2-0.2L23,1l0.2,0.2L23,1.3z M21.5,0.9l-0.2-0.2l0.2-0.2
			l0.2,0.2L21.5,0.9z M22.5,0.9l-0.2-0.2l0.2-0.2l0.2,0.2L22.5,0.9z"/>
	</g>
	<path id="Path_611" fill="#A7A7A9" d="M12,13.3l0,0.1L12,13.3l0.1,0.1l0.1-0.1l0.1,0l0,0l0,0l-0.1-0.1L12,13.3z"/>
	<path id="Path_612" fill="#A7A7A9" d="M17.9,27.1l-0.1-0.2l0.2-0.1l0.1,0.2L17.9,27.1z M17.6,26.4l-0.1-0.2l0.2-0.1l0.1,0.2
		L17.6,26.4z M17.4,25.8l-0.1-0.2l0.2-0.1l0.1,0.2L17.4,25.8z M17.1,25.2L17,25l0.2-0.1l0.1,0.2L17.1,25.2z M16.8,24.6l-0.1-0.2
		l0.2-0.1l0.1,0.2L16.8,24.6z M16.6,24l-0.1-0.2l0.2-0.1l0.1,0.2L16.6,24z M16.3,23.4l-0.1-0.2l0.2-0.1l0.1,0.2L16.3,23.4z M16,22.7
		l-0.1-0.2l0.2-0.1l0.1,0.2L16,22.7z M15.8,22.1l-0.1-0.2l0.2-0.1L16,22L15.8,22.1z M15.5,21.5l-0.1-0.2l0.2-0.1l0.1,0.2L15.5,21.5z
		 M15.2,20.9l-0.1-0.2l0.2-0.1l0.1,0.2L15.2,20.9z M15,20.3l-0.1-0.2l0.2-0.1l0.1,0.2L15,20.3z M14.7,19.6l-0.1-0.2l0.2-0.1l0.1,0.2
		L14.7,19.6z M14.4,19l-0.1-0.2l0.2-0.1l0.1,0.2L14.4,19z M14.2,18.4l-0.1-0.2l0.2-0.1l0.1,0.2L14.2,18.4z M13.9,17.8l-0.1-0.2
		l0.2-0.1l0.1,0.2L13.9,17.8z M13.6,17.2L13.5,17l0.2-0.1l0.1,0.2L13.6,17.2z M13.4,16.5l-0.1-0.2l0.2-0.1l0.1,0.2L13.4,16.5z
		 M13.1,15.9L13,15.7l0.2-0.1l0.1,0.2L13.1,15.9z M12.8,15.3l-0.1-0.2l0.2-0.1l0.1,0.2L12.8,15.3z M12.5,14.7l-0.1-0.2l0.2-0.1
		l0.1,0.2L12.5,14.7z M12.3,14.1l-0.1-0.2l0.2-0.1l0.1,0.2L12.3,14.1z"/>
	<path id="Path_613" fill="#A7A7A9" d="M18.2,27.4l-0.1,0v0l0,0l0,0.1l0,0.1l0.1,0l0.1-0.2L18.2,27.4L18.2,27.4z"/>
	<path id="Path_614" fill="#A7A7A9" d="M8.7,29.8l-0.1-0.2l0.2-0.1L9,29.8L8.7,29.8z M9.4,29.7l0-0.2l0.2-0.1l0.1,0.2L9.4,29.7z
		 M10.1,29.5L10,29.3l0.2-0.1l0.1,0.2L10.1,29.5z M10.8,29.3l-0.1-0.2l0.2,0l0.1,0.2L10.8,29.3z M11.4,29.2L11.4,29l0.2-0.1l0.1,0.2
		L11.4,29.2z M12.1,29l0-0.2l0.2-0.1l0.1,0.2L12.1,29z M12.8,28.9l-0.1-0.2l0.2-0.1l0.1,0.2L12.8,28.9z M13.4,28.7l-0.1-0.2l0.2-0.1
		l0.1,0.2L13.4,28.7z M14.1,28.6l-0.1-0.2l0.2,0l0.1,0.2L14.1,28.6z M14.8,28.4l0-0.2l0.2-0.1l0.1,0.2L14.8,28.4z M15.5,28.3
		l-0.1-0.2l0.2-0.1l0.1,0.2L15.5,28.3z M16.1,28.1l-0.1-0.2l0.2-0.1l0.1,0.2L16.1,28.1z M16.8,28l-0.1-0.2l0.2-0.1l0.1,0.2L16.8,28z
		 M17.5,27.8l0-0.2l0.2-0.1l0.1,0.2L17.5,27.8z"/>
	<path id="Path_615" fill="#A7A7A9" d="M8.1,29.7l0,0.2l0.1,0v0l0,0l0-0.1l0-0.1h0l0,0L8.1,29.7z"/>
	<path id="Path_616" fill="#A7A7A9" d="M17.7,31.4l-0.2,0l0-0.2l0.2,0L17.7,31.4z M17,31.3l-0.2,0l0-0.2l0.2,0L17,31.3z M16.3,31.2
		l-0.2,0l0-0.2l0.2,0L16.3,31.2z M15.6,31.1l-0.2,0l0-0.2l0.2,0L15.6,31.1z M15,31l-0.2,0l0-0.2l0.2,0L15,31z M14.3,30.9l-0.2,0
		l0-0.2l0.2,0L14.3,30.9z M13.6,30.8l-0.2,0l0-0.2l0.2,0L13.6,30.8z M13,30.7l-0.2,0l0-0.2l0.2,0L13,30.7z M12.3,30.6l-0.2,0l0-0.2
		l0.2,0L12.3,30.6z M11.6,30.5l-0.2,0l0-0.2l0.2,0L11.6,30.5z M10.9,30.4l-0.2,0l0-0.2l0.2,0L10.9,30.4z M10.3,30.3l-0.2,0l0-0.2
		l0.2,0L10.3,30.3z M9.6,30.2l-0.2,0l0-0.2l0.2,0L9.6,30.2z M8.9,30.1l-0.2,0l0-0.2l0.2,0L8.9,30.1z"/>
	<path id="Path_617" fill="#A7A7A9" d="M18.1,31.3L18.1,31.3L18.1,31.3l0,0.1l0.1,0l0.1,0.1l0.1-0.1l-0.1-0.2L18.1,31.3L18.1,31.3z"
		/>
	<path id="Path_618" fill="#A7A7A9" d="M12.6,39.2l-0.2-0.1l0.1-0.2l0.2,0.1L12.6,39.2z M13,38.7l-0.2-0.1l0.1-0.2l0.2,0.1L13,38.7z
		 M13.4,38.1L13.3,38l0.1-0.2l0.2,0.1L13.4,38.1z M13.8,37.6l-0.2-0.1l0.1-0.2l0.2,0.1L13.8,37.6z M14.2,37l-0.2-0.1l0.1-0.2
		l0.2,0.1L14.2,37z M14.6,36.5l-0.2-0.1l0.1-0.2l0.2,0.1L14.6,36.5z M15.1,35.9l-0.2-0.1l0.1-0.2l0.2,0.1L15.1,35.9z M15.5,35.4
		l-0.2-0.1l0.1-0.2l0.2,0.1L15.5,35.4z M15.9,34.8l-0.2-0.1l0.1-0.2l0.2,0.1L15.9,34.8z M16.3,34.3l-0.2-0.1l0.1-0.2l0.2,0.1
		L16.3,34.3z M16.7,33.7l-0.2-0.1l0.1-0.2l0.2,0.1L16.7,33.7z M17.1,33.2L16.9,33l0.1-0.2l0.2,0.1L17.1,33.2z M17.5,32.6l-0.2-0.1
		l0.1-0.2l0.2,0.1L17.5,32.6z M17.9,32.1l-0.2-0.1l0.1-0.2l0.2,0.1L17.9,32.1z"/>
	<path id="Path_619" fill="#A7A7A9" d="M12.2,39.5L12.2,39.5L12.2,39.5l0.1,0.2l0.1-0.1l0,0l0,0L12.2,39.5L12.2,39.5L12.2,39.5z"/>
	<path id="Path_620" fill="#A7A7A9" d="M12.7,39.4l-0.1-0.2l0.2-0.1l0.1,0.2L12.7,39.4z M13.3,39l-0.1-0.2l0.2-0.1l0.1,0.2L13.3,39z
		 M13.8,38.6l-0.1-0.2l0.2-0.1l0.1,0.2L13.8,38.6z M14.4,38.2L14.2,38l0.2-0.1l0.1,0.2L14.4,38.2z M14.9,37.8l-0.1-0.2l0.2-0.1
		l0.1,0.2L14.9,37.8z M15.5,37.4l-0.1-0.2l0.2-0.1l0.1,0.2L15.5,37.4z M16,37l-0.1-0.2l0.2-0.1l0.1,0.2L16,37z M16.6,36.6l-0.1-0.2
		l0.2-0.1l0.1,0.2L16.6,36.6z M17.1,36.2L17,36l0.2-0.1l0.1,0.2L17.1,36.2z M17.7,35.8l-0.1-0.2l0.2-0.1l0.1,0.2L17.7,35.8z
		 M18.2,35.3l-0.1-0.2l0.2-0.1l0.1,0.2L18.2,35.3z M18.8,34.9l-0.1-0.2l0.2-0.1l0.1,0.2L18.8,34.9z M19.3,34.5l-0.1-0.2l0.2-0.1
		l0.1,0.2L19.3,34.5z M19.9,34.1L19.7,34l0.2-0.1L20,34L19.9,34.1z"/>
	<path id="Path_621" fill="#A7A7A9" d="M20.3,33.6L20.3,33.6l0.1,0.2h0l0,0l0.1-0.1l0.1,0l0-0.1L20.3,33.6L20.3,33.6z"/>
	<path id="Path_622" fill="#A7A7A9" d="M21.8,43.1l0-0.2l0.2,0l0,0.2L21.8,43.1z M21.7,42.4l0-0.2l0.2,0l0,0.2L21.7,42.4z
		 M21.6,41.8l0-0.2l0.2,0l0,0.2L21.6,41.8z M21.5,41.1l0-0.2l0.2,0l0,0.2L21.5,41.1z M21.4,40.4l0-0.2l0.2,0l0,0.2L21.4,40.4z
		 M21.3,39.8l0-0.2l0.2,0l0,0.2L21.3,39.8z M21.2,39.1l0-0.2l0.2,0l0,0.2L21.2,39.1z M21.1,38.4l0-0.2l0.2,0l0,0.2L21.1,38.4z
		 M21,37.7l0-0.2l0.2,0l0,0.2L21,37.7z M20.9,37.1l0-0.2l0.2,0l0,0.2L20.9,37.1z M20.8,36.4l0-0.2l0.2,0l0,0.2L20.8,36.4z
		 M20.7,35.7l0-0.2l0.2,0l0,0.2L20.7,35.7z M20.6,35.1l0-0.2l0.2,0l0,0.2L20.6,35.1z M20.4,34.4l0-0.2l0.2,0l0,0.2L20.4,34.4z"/>
	<path id="Path_623" fill="#A7A7A9" d="M22,43.5L22,43.5L22,43.5l-0.1,0l0,0.1h0.2l0-0.1h0v0L22,43.5z"/>
	<path id="Path_624" fill="#A7A7A9" d="M22.2,43.1l-0.2,0l0-0.2l0.2,0L22.2,43.1z M22.3,42.4l-0.2,0l0-0.2l0.2,0L22.3,42.4z
		 M22.4,41.8l-0.2,0l0-0.2l0.2,0L22.4,41.8z M22.5,41.1l-0.2,0l0-0.2l0.2,0L22.5,41.1z M22.6,40.4l-0.2,0l0-0.2l0.2,0L22.6,40.4z
		 M22.7,39.8l-0.2,0l0-0.2l0.2,0L22.7,39.8z M22.8,39.1l-0.2,0l0-0.2l0.2,0L22.8,39.1z M22.9,38.4l-0.2,0l0-0.2l0.2,0L22.9,38.4z
		 M23,37.7l-0.2,0l0-0.2l0.2,0L23,37.7z M23.1,37.1l-0.2,0l0-0.2l0.2,0L23.1,37.1z M23.2,36.4l-0.2,0l0-0.2l0.2,0L23.2,36.4z
		 M23.3,35.7l-0.2,0l0-0.2l0.2,0L23.3,35.7z M23.4,35.1l-0.2,0l0-0.2l0.2,0L23.4,35.1z M23.5,34.4l-0.2,0l0-0.2l0.2,0L23.5,34.4z"/>
	<path id="Path_625" fill="#A7A7A9" d="M23.4,33.6l0,0.1l0.1,0l0.1,0.1l0,0h0l0-0.1l0.1-0.1l-0.1-0.1L23.4,33.6z"/>
	<path id="Path_626" fill="#A7A7A9" d="M31.3,39.4l-0.2-0.1l0.1-0.2l0.2,0.1L31.3,39.4z M30.7,39l-0.2-0.1l0.1-0.2l0.2,0.1L30.7,39z
		 M30.2,38.6L30,38.4l0.1-0.2l0.2,0.1L30.2,38.6z M29.6,38.2L29.4,38l0.1-0.2l0.2,0.1L29.6,38.2z M29.1,37.8l-0.2-0.1l0.1-0.2
		l0.2,0.1L29.1,37.8z M28.5,37.4l-0.2-0.1l0.1-0.2l0.2,0.1L28.5,37.4z M28,37l-0.2-0.1l0.1-0.2l0.2,0.1L28,37z M27.4,36.6l-0.2-0.1
		l0.1-0.2l0.2,0.1L27.4,36.6z M26.9,36.2L26.7,36l0.1-0.2L27,36L26.9,36.2z M26.3,35.8l-0.2-0.1l0.1-0.2l0.2,0.1L26.3,35.8z
		 M25.8,35.4l-0.2-0.1l0.1-0.2l0.2,0.1L25.8,35.4z M25.2,35L25,34.8l0.1-0.2l0.2,0.1L25.2,35z M24.7,34.6l-0.2-0.1l0.1-0.2l0.2,0.1
		L24.7,34.6z M24.1,34.2L23.9,34l0.1-0.2l0.2,0.1L24.1,34.2z"/>
	<path id="Path_627" fill="#A7A7A9" d="M31.8,39.5L31.8,39.5L31.8,39.5l-0.2,0.1l0,0l0,0l0.1,0.1L31.8,39.5L31.8,39.5L31.8,39.5z"/>
	<path id="Path_628" fill="#A7A7A9" d="M31.4,39.2L31.2,39l0.2-0.1l0.1,0.2L31.4,39.2z M31,38.7l-0.1-0.2l0.2-0.1l0.1,0.2L31,38.7z
		 M30.6,38.1l-0.1-0.2l0.2-0.1l0.1,0.2L30.6,38.1z M30.2,37.6L30,37.4l0.2-0.1l0.1,0.2L30.2,37.6z M29.8,37l-0.1-0.2l0.2-0.1
		l0.1,0.2L29.8,37z M29.3,36.5l-0.1-0.2l0.2-0.1l0.1,0.2L29.3,36.5z M28.9,35.9l-0.1-0.2l0.2-0.1l0.1,0.2L28.9,35.9z M28.5,35.4
		l-0.1-0.2l0.2-0.1l0.1,0.2L28.5,35.4z M28.1,34.8L28,34.6l0.2-0.1l0.1,0.2L28.1,34.8z M27.7,34.3l-0.1-0.2l0.2-0.1l0.1,0.2
		L27.7,34.3z M27.3,33.7l-0.1-0.2l0.2-0.1l0.1,0.2L27.3,33.7z M26.9,33.2L26.8,33l0.2-0.1l0.1,0.2L26.9,33.2z M26.5,32.6l-0.1-0.2
		l0.2-0.1l0.1,0.2L26.5,32.6z M26.1,32.1L26,31.9l0.2-0.1l0.1,0.2L26.1,32.1z"/>
	<path id="Path_629" fill="#A7A7A9" d="M25.7,31.3l-0.1,0.2l0.1,0.1l0.1-0.1l0.1,0l0,0l0,0l-0.1-0.1l0-0.1L25.7,31.3z"/>
	<path id="Path_630" fill="#A7A7A9" d="M26.3,31.4l0-0.2l0.2,0l0,0.2L26.3,31.4z M27,31.3l0-0.2l0.2,0l0,0.2L27,31.3z M27.7,31.2
		l0-0.2l0.2,0l0,0.2L27.7,31.2z M28.4,31.1l0-0.2l0.2,0l0,0.2L28.4,31.1z M29,31l0-0.2l0.2,0l0,0.2L29,31z M29.7,30.9l0-0.2l0.2,0
		l0,0.2L29.7,30.9z M30.4,30.8l0-0.2l0.2,0l0,0.2L30.4,30.8z M31,30.7l0-0.2l0.2,0l0,0.2L31,30.7z M31.7,30.6l0-0.2l0.2,0l0,0.2
		L31.7,30.6z M32.4,30.5l0-0.2l0.2,0l0,0.2L32.4,30.5z M33.1,30.4l0-0.2l0.2,0l0,0.2L33.1,30.4z M33.7,30.3l0-0.2l0.2,0l0,0.2
		L33.7,30.3z M34.4,30.2l0-0.2l0.2,0l0,0.2L34.4,30.2z M35.1,30.1l0-0.2l0.2,0l0,0.2L35.1,30.1z"/>
	<path id="Path_631" fill="#A7A7A9" d="M35.7,29.7L35.7,29.7L35.7,29.7l0,0.2l0,0v0l0.1,0l0-0.2L35.7,29.7L35.7,29.7z"/>
	<path id="Path_632" fill="#A7A7A9" d="M35.3,29.8L35,29.8l0.1-0.2l0.2,0.1L35.3,29.8z M34.6,29.7l-0.2-0.1l0.1-0.2l0.2,0.1
		L34.6,29.7z M33.9,29.5l-0.2,0l0.1-0.2l0.2,0.1L33.9,29.5z M33.2,29.3L33,29.3l0.1-0.2l0.2,0.1L33.2,29.3z M32.6,29.2l-0.2,0
		l0.1-0.2l0.2,0.1L32.6,29.2z M31.9,29L31.7,29l0.1-0.2l0.2,0.1L31.9,29z M31.2,28.9L31,28.8l0.1-0.2l0.2,0.1L31.2,28.9z M30.6,28.7
		l-0.2-0.1l0.1-0.2l0.2,0.1L30.6,28.7z M29.9,28.6l-0.2-0.1l0-0.2l0.2,0.1L29.9,28.6z M29.2,28.4L29,28.4l0.1-0.2l0.2,0.1L29.2,28.4
		z M28.5,28.3l-0.2-0.1l0.1-0.2l0.2,0.1L28.5,28.3z M27.9,28.1l-0.2-0.1l0.1-0.2l0.2,0.1L27.9,28.1z M27.2,28L27,27.9l0.1-0.2
		l0.2,0.1L27.2,28z M26.5,27.8l-0.2-0.1l0.1-0.2l0.2,0.1L26.5,27.8z"/>
	<path id="Path_633" fill="#A7A7A9" d="M25.7,27.5l0.1,0.2l0.1,0l0-0.1l0-0.1l0,0v0l-0.1,0l-0.1,0L25.7,27.5z"/>
	<path id="Path_634" fill="#A7A7A9" d="M26.1,27.1L25.9,27l0.1-0.2l0.2,0.1L26.1,27.1z M26.4,26.4l-0.2-0.1l0.1-0.2l0.2,0.1
		L26.4,26.4z M26.6,25.8l-0.2-0.1l0.1-0.2l0.2,0.1L26.6,25.8z M26.9,25.2l-0.2-0.1l0.1-0.2L27,25L26.9,25.2z M27.2,24.6L27,24.5
		l0.1-0.2l0.2,0.1L27.2,24.6z M27.4,24l-0.2-0.1l0.1-0.2l0.2,0.1L27.4,24z M27.7,23.3l-0.2-0.1l0.1-0.2l0.2,0.1L27.7,23.3z M28,22.7
		l-0.2-0.1l0.1-0.2l0.2,0.1L28,22.7z M28.2,22.1L28,22l0.1-0.2l0.2,0.1L28.2,22.1z M28.5,21.5l-0.2-0.1l0.1-0.2l0.2,0.1L28.5,21.5z
		 M28.8,20.9l-0.2-0.1l0.1-0.2l0.2,0.1L28.8,20.9z M29,20.3l-0.2-0.1l0.1-0.2l0.2,0.1L29,20.3z M29.3,19.6l-0.2-0.1l0.1-0.2l0.2,0.1
		L29.3,19.6z M29.6,19l-0.2-0.1l0.1-0.2l0.2,0.1L29.6,19z M29.8,18.4l-0.2-0.1l0.1-0.2l0.2,0.1L29.8,18.4z M30.1,17.8l-0.2-0.1
		l0.1-0.2l0.2,0.1L30.1,17.8z M30.4,17.2l-0.2-0.1l0.1-0.2l0.2,0.1L30.4,17.2z M30.7,16.5l-0.2-0.1l0.1-0.2l0.2,0.1L30.7,16.5z
		 M30.9,15.9l-0.2-0.1l0.1-0.2l0.2,0.1L30.9,15.9z M31.2,15.3L31,15.2l0.1-0.2l0.2,0.1L31.2,15.3z M31.5,14.7l-0.2-0.1l0.1-0.2
		l0.2,0.1L31.5,14.7z M31.7,14.1L31.5,14l0.1-0.2l0.2,0.1L31.7,14.1z"/>
	<path id="Path_635" fill="#A7A7A9" d="M31.8,13.3L31.8,13.3L31.8,13.3l0.1,0.1l0.1,0.1l0,0l0,0l0-0.1L31.8,13.3L31.8,13.3z"/>
	<path id="Path_636" fill="#A7A7A9" d="M22.5,21.2L22.4,21l0.2-0.1l0.1,0.2L22.5,21.2z M23,20.8l-0.1-0.2l0.2-0.1l0.1,0.2L23,20.8z
		 M23.6,20.4l-0.1-0.2l0.2-0.1l0.1,0.2L23.6,20.4z M24.1,19.9l-0.1-0.2l0.2-0.1l0.1,0.2L24.1,19.9z M24.6,19.5l-0.1-0.2l0.2-0.1
		l0.1,0.2L24.6,19.5z M25.1,19.1L25,18.9l0.2-0.1l0.1,0.2L25.1,19.1z M25.6,18.6l-0.1-0.2l0.2-0.1l0.1,0.2L25.6,18.6z M26.2,18.2
		L26,18l0.2-0.1l0.1,0.2L26.2,18.2z M26.7,17.8l-0.1-0.2l0.2-0.1l0.1,0.2L26.7,17.8z M27.2,17.3l-0.1-0.2l0.2-0.1l0.1,0.2L27.2,17.3
		z M27.7,16.9l-0.1-0.2l0.2-0.1l0.1,0.2L27.7,16.9z M28.3,16.5l-0.1-0.2l0.2-0.1l0.1,0.2L28.3,16.5z M28.8,16l-0.1-0.2l0.2-0.1
		l0.1,0.2L28.8,16z M29.3,15.6l-0.1-0.2l0.2-0.1l0.1,0.2L29.3,15.6z M29.8,15.2L29.7,15l0.2-0.1L30,15L29.8,15.2z M30.3,14.7
		l-0.1-0.2l0.2-0.1l0.1,0.2L30.3,14.7z M30.9,14.3l-0.1-0.2l0.2-0.1l0.1,0.2L30.9,14.3z M31.4,13.9l-0.1-0.2l0.2-0.1l0.1,0.2
		L31.4,13.9z"/>
	<path id="Path_637" fill="#A7A7A9" d="M22,21.3L22,21.3l-0.2,0.2l0.1,0.1h0.1l0.1-0.1L22,21.3L22,21.3z"/>
	<path id="Path_638" fill="#A7A7A9" d="M21.5,21.2l-0.2-0.1l0.1-0.2l0.2,0.1L21.5,21.2z M21,20.8l-0.2-0.1l0.1-0.2l0.2,0.1L21,20.8z
		 M20.4,20.4l-0.2-0.1l0.1-0.2l0.2,0.1L20.4,20.4z M19.9,19.9l-0.2-0.1l0.1-0.2l0.2,0.1L19.9,19.9z M19.4,19.5l-0.2-0.1l0.1-0.2
		l0.2,0.1L19.4,19.5z M18.9,19.1l-0.2-0.1l0.1-0.2l0.2,0.1L18.9,19.1z M18.4,18.6l-0.2-0.1l0.1-0.2l0.2,0.1L18.4,18.6z M17.8,18.2
		l-0.2-0.1l0.1-0.2L18,18L17.8,18.2z M17.3,17.8l-0.2-0.1l0.1-0.2l0.2,0.1L17.3,17.8z M16.8,17.3l-0.2-0.1l0.1-0.2l0.2,0.1
		L16.8,17.3z M16.3,16.9l-0.2-0.1l0.1-0.2l0.2,0.1L16.3,16.9z M15.7,16.5l-0.2-0.1l0.1-0.2l0.2,0.1L15.7,16.5z M15.2,16L15,15.9
		l0.1-0.2l0.2,0.1L15.2,16z M14.7,15.6l-0.2-0.1l0.1-0.2l0.2,0.1L14.7,15.6z M14.2,15.2L14,15l0.1-0.2l0.2,0.1L14.2,15.2z
		 M13.7,14.7l-0.2-0.1l0.1-0.2l0.2,0.1L13.7,14.7z M13.1,14.3L13,14.2l0.1-0.2l0.2,0.1L13.1,14.3z M12.6,13.9l-0.2-0.1l0.1-0.2
		l0.2,0.1L12.6,13.9z"/>
	<path id="Path_639" fill="#A7A7A9" d="M34.8,21.9l0.1,0.2L35,22L34.8,21.9L34.8,21.9z"/>
	<path id="Path_640" fill="#A7A7A9" d="M22.6,29.6l-0.1-0.2l0.2-0.1l0.1,0.2L22.6,29.6z M23.1,29.3L23,29.1l0.2-0.1l0.1,0.2
		L23.1,29.3z M23.7,28.9l-0.1-0.2l0.2-0.1l0.1,0.2L23.7,28.9z M24.3,28.5l-0.1-0.2l0.2-0.1l0.1,0.2L24.3,28.5z M24.9,28.2L24.8,28
		l0.2-0.1l0.1,0.2L24.9,28.2z M25.5,27.8l-0.1-0.2l0.2-0.1l0.1,0.2L25.5,27.8z M26.1,27.5L26,27.3l0.2-0.1l0.1,0.2L26.1,27.5z
		 M26.7,27.1l-0.1-0.2l0.2-0.1l0.1,0.2L26.7,27.1z M27.3,26.8l-0.1-0.2l0.2-0.1l0.1,0.2L27.3,26.8z M27.9,26.4l-0.1-0.2l0.2-0.1
		l0.1,0.2L27.9,26.4z M28.4,26l-0.1-0.2l0.2-0.1l0.1,0.2L28.4,26z M29,25.7l-0.1-0.2l0.2-0.1l0.1,0.2L29,25.7z M29.6,25.3l-0.1-0.2
		l0.2-0.1l0.1,0.2L29.6,25.3z M30.2,25l-0.1-0.2l0.2-0.1l0.1,0.2L30.2,25z M30.8,24.6l-0.1-0.2l0.2-0.1l0.1,0.2L30.8,24.6z
		 M31.4,24.3l-0.1-0.2l0.2-0.1l0.1,0.2L31.4,24.3z M32,23.9l-0.1-0.2l0.2-0.1l0.1,0.2L32,23.9z M32.6,23.5l-0.1-0.2l0.2-0.1l0.1,0.2
		L32.6,23.5z M33.2,23.2L33,23l0.2-0.1l0.1,0.2L33.2,23.2z M33.8,22.8l-0.1-0.2l0.2-0.1l0.1,0.2L33.8,22.8z M34.3,22.5l-0.1-0.2
		l0.2-0.1l0.1,0.2L34.3,22.5z"/>
	<path id="Path_641" fill="#A7A7A9" d="M22,29.7L22,29.7l-0.2,0.2l0.1,0.1h0.1l0.1-0.1L22,29.7L22,29.7z"/>
	<path id="Path_642" fill="#A7A7A9" d="M21.5,29.6l-0.2-0.1l0.1-0.2l0.2,0.1L21.5,29.6z M20.9,29.3l-0.2-0.1l0.1-0.2l0.2,0.1
		L20.9,29.3z M20.3,28.9l-0.2-0.1l0.1-0.2l0.2,0.1L20.3,28.9z M19.7,28.5l-0.2-0.1l0.1-0.2l0.2,0.1L19.7,28.5z M19.1,28.2l-0.2-0.1
		l0.1-0.2l0.2,0.1L19.1,28.2z M18.5,27.8l-0.2-0.1l0.1-0.2l0.2,0.1L18.5,27.8z M17.9,27.5l-0.2-0.1l0.1-0.2l0.2,0.1L17.9,27.5z
		 M17.3,27.1L17.1,27l0.1-0.2l0.2,0.1L17.3,27.1z M16.7,26.8l-0.2-0.1l0.1-0.2l0.2,0.1L16.7,26.8z M16.1,26.4l-0.2-0.1l0.1-0.2
		l0.2,0.1L16.1,26.4z M15.5,26l-0.2-0.1l0.1-0.2l0.2,0.1L15.5,26z M15,25.7l-0.2-0.1l0.1-0.2l0.2,0.1L15,25.7z M14.4,25.3l-0.2-0.1
		l0.1-0.2l0.2,0.1L14.4,25.3z M13.8,25l-0.2-0.1l0.1-0.2l0.2,0.1L13.8,25z M13.2,24.6L13,24.5l0.1-0.2l0.2,0.1L13.2,24.6z
		 M12.6,24.3l-0.2-0.1l0.1-0.2l0.2,0.1L12.6,24.3z M12,23.9l-0.2-0.1l0.1-0.2l0.2,0.1L12,23.9z M11.4,23.5l-0.2-0.1l0.1-0.2l0.2,0.1
		L11.4,23.5z M10.8,23.2l-0.2-0.1l0.1-0.2l0.2,0.1L10.8,23.2z M10.2,22.8L10,22.7l0.1-0.2l0.2,0.1L10.2,22.8z M9.6,22.5l-0.2-0.1
		l0.1-0.2l0.2,0.1L9.6,22.5z"/>
	<path id="Path_643" fill="#A7A7A9" d="M9,22L9,22l0.2-0.1l-0.1-0.1L9,22z"/>
	<path id="Path_644" fill="#A7A7A9" d="M34.7,35.1l0.1,0l0.1-0.2l-0.1,0L34.7,35.1z"/>
	<path id="Path_645" fill="#A7A7A9" d="M34.2,35L34,34.9l0.1-0.2l0.2,0.1L34.2,35z M9.8,35l-0.1-0.2l0.2-0.1l0.1,0.2L9.8,35z
		 M33.6,34.7l-0.2-0.1l0.1-0.2l0.2,0.1L33.6,34.7z M10.4,34.7l-0.1-0.2l0.2-0.1l0.1,0.2L10.4,34.7z M32.9,34.4l-0.2-0.1l0.1-0.2
		l0.2,0.1L32.9,34.4z M11.1,34.4L11,34.2l0.2-0.1l0.1,0.2L11.1,34.4z M32.3,34.2l-0.2-0.1l0.1-0.2l0.2,0.1L32.3,34.2z M11.7,34.2
		L11.6,34l0.2-0.1l0.1,0.2L11.7,34.2z M31.7,33.9l-0.2-0.1l0.1-0.2l0.2,0.1L31.7,33.9z M12.3,33.9l-0.1-0.2l0.2-0.1l0.1,0.2
		L12.3,33.9z M31,33.6l-0.2-0.1l0.1-0.2l0.2,0.1L31,33.6z M13,33.6l-0.1-0.2l0.2-0.1l0.1,0.2L13,33.6z M30.4,33.4l-0.2-0.1l0.1-0.2
		l0.2,0.1L30.4,33.4z M13.6,33.4l-0.1-0.2l0.2-0.1l0.1,0.2L13.6,33.4z M14.3,33.1l-0.1-0.2l0.2-0.1l0.1,0.2L14.3,33.1z M29.8,33.1
		L29.5,33l0.1-0.2l0.2,0.1L29.8,33.1z M14.9,32.9l-0.1-0.2l0.2-0.1l0.1,0.2L14.9,32.9z M29.1,32.9l-0.2-0.1l0.1-0.2l0.2,0.1
		L29.1,32.9z M15.5,32.6l-0.1-0.2l0.2-0.1l0.1,0.2L15.5,32.6z M28.5,32.6l-0.2-0.1l0.1-0.2l0.2,0.1L28.5,32.6z M16.2,32.3l-0.1-0.2
		l0.2-0.1l0.1,0.2L16.2,32.3z M27.8,32.3l-0.2-0.1l0.1-0.2l0.2,0.1L27.8,32.3z M16.8,32.1l-0.1-0.2l0.2-0.1L17,32L16.8,32.1z
		 M27.2,32.1L27,32l0.1-0.2l0.2,0.1L27.2,32.1z M17.4,31.8l-0.1-0.2l0.2-0.1l0.1,0.2L17.4,31.8z M26.5,31.8l-0.2-0.1l0.1-0.2
		l0.2,0.1L26.5,31.8z M18.1,31.6L18,31.3l0.2-0.1l0.1,0.2L18.1,31.6z M25.9,31.6l-0.2-0.1l0.1-0.2l0.2,0.1L25.9,31.6z M18.7,31.3
		l-0.1-0.2l0.2-0.1l0.1,0.2L18.7,31.3z M25.3,31.3L25,31.2l0.1-0.2l0.2,0.1L25.3,31.3z M19.4,31l-0.1-0.2l0.2-0.1l0.1,0.2L19.4,31z
		 M24.6,31l-0.2-0.1l0.1-0.2l0.2,0.1L24.6,31z M20,30.8l-0.1-0.2l0.2-0.1l0.1,0.2L20,30.8z M24,30.8l-0.2-0.1l0.1-0.2l0.2,0.1
		L24,30.8z M20.7,30.5l-0.1-0.2l0.2-0.1l0.1,0.2L20.7,30.5z M23.3,30.5l-0.2-0.1l0.1-0.2l0.2,0.1L23.3,30.5z M21.3,30.2L21.2,30
		l0.2-0.1l0.1,0.2L21.3,30.2z M22.7,30.2l-0.2-0.1l0.1-0.2l0.2,0.1L22.7,30.2z M21.9,30l-0.1-0.2l0.1,0H22l0.1,0L22.1,30L21.9,30
		L21.9,30z"/>
	<path id="Path_646" fill="#A7A7A9" d="M9.2,35l0.1,0.2l0.1,0l-0.1-0.2L9.2,35z"/>
	<path id="Path_647" fill="#A7A7A9" d="M27.1,42.6l0,0.1l0.2-0.1l0-0.1L27.1,42.6z"/>
	<path id="Path_648" fill="#A7A7A9" d="M26.9,42.1l-0.1-0.2l0.2-0.1l0.1,0.2L26.9,42.1z M26.7,41.5l-0.1-0.2l0.2-0.1l0.1,0.2
		L26.7,41.5z M26.4,40.9l-0.1-0.2l0.2-0.1l0.1,0.2L26.4,40.9z M26.1,40.2L26,40l0.2-0.1l0.1,0.2L26.1,40.2z M25.9,39.6l-0.1-0.2
		l0.2-0.1l0.1,0.2L25.9,39.6z M25.6,38.9l-0.1-0.2l0.2-0.1l0.1,0.2L25.6,38.9z M25.3,38.3l-0.1-0.2l0.2-0.1l0.1,0.2L25.3,38.3z
		 M25.1,37.7L25,37.4l0.2-0.1l0.1,0.2L25.1,37.7z M24.8,37l-0.1-0.2l0.2-0.1l0.1,0.2L24.8,37z M24.6,36.4l-0.1-0.2l0.2-0.1l0.1,0.2
		L24.6,36.4z M24.3,35.7l-0.1-0.2l0.2-0.1l0.1,0.2L24.3,35.7z M24,35.1L24,34.9l0.2-0.1l0.1,0.2L24,35.1z M23.8,34.5l-0.1-0.2
		l0.2-0.1l0.1,0.2L23.8,34.5z M23.5,33.8l-0.1-0.2l0.2-0.1l0.1,0.2L23.5,33.8z M23.3,33.2L23.2,33l0.2-0.1l0.1,0.2L23.3,33.2z
		 M23,32.5l-0.1-0.2l0.2-0.1l0.1,0.2L23,32.5z M22.7,31.9l-0.1-0.2l0.2-0.1l0.1,0.2L22.7,31.9z M22.5,31.3L22.4,31l0.2-0.1l0.1,0.2
		L22.5,31.3z M22.2,30.6l-0.1-0.2l0.2-0.1l0.1,0.2L22.2,30.6z"/>
	<path id="Path_649" fill="#A7A7A9" d="M21.9,29.8l0,0.1l0.1,0l0,0.1l0.1,0l0.1,0l0-0.1l0.1,0l0-0.1H21.9z"/>
	<path id="Path_650" fill="#A7A7A9" d="M17.1,42.1l-0.2-0.1l0.1-0.2l0.2,0.1L17.1,42.1z M17.3,41.5l-0.2-0.1l0.1-0.2l0.2,0.1
		L17.3,41.5z M17.6,40.9l-0.2-0.1l0.1-0.2l0.2,0.1L17.6,40.9z M17.9,40.2l-0.2-0.1l0.1-0.2L18,40L17.9,40.2z M18.1,39.6l-0.2-0.1
		l0.1-0.2l0.2,0.1L18.1,39.6z M18.4,38.9l-0.2-0.1l0.1-0.2l0.2,0.1L18.4,38.9z M18.6,38.3l-0.2-0.1l0.1-0.2l0.2,0.1L18.6,38.3z
		 M18.9,37.7l-0.2-0.1l0.1-0.2l0.2,0.1L18.9,37.7z M19.2,37L19,36.9l0.1-0.2l0.2,0.1L19.2,37z M19.4,36.4l-0.2-0.1l0.1-0.2l0.2,0.1
		L19.4,36.4z M19.7,35.7l-0.2-0.1l0.1-0.2l0.2,0.1L19.7,35.7z M20,35.1L19.8,35l0.1-0.2l0.2,0.1L20,35.1z M20.2,34.5L20,34.4
		l0.1-0.2l0.2,0.1L20.2,34.5z M20.5,33.8l-0.2-0.1l0.1-0.2l0.2,0.1L20.5,33.8z M20.7,33.2l-0.2-0.1l0.1-0.2l0.2,0.1L20.7,33.2z
		 M21,32.5l-0.2-0.1l0.1-0.2l0.2,0.1L21,32.5z M21.3,31.9l-0.2-0.1l0.1-0.2l0.2,0.1L21.3,31.9z M21.5,31.3l-0.2-0.1l0.1-0.2l0.2,0.1
		L21.5,31.3z M21.8,30.6l-0.2-0.1l0.1-0.2l0.2,0.1L21.8,30.6z"/>
	<path id="Path_651" fill="#A7A7A9" d="M16.7,42.6l0.2,0.1l0-0.1l-0.2-0.1L16.7,42.6z"/>
	<path id="Path_652" fill="#A7A7A9" d="M21.9,0.4h0.2V0.3h-0.2V0.4z"/>
	<path id="Path_654" fill="#A7A7A9" d="M21.9,29.8h0.2v-0.1h-0.2V29.8z"/>
	<g>
		<defs>
			<rect id="SVGID_3_" x="7.8" width="28.4" height="44"/>
		</defs>
		<clipPath id="SVGID_4_">
			<use xlink:href="#SVGID_3_"  overflow="visible"/>
		</clipPath>
		<path id="Path_655" clip-path="url(#SVGID_4_)" fill="#7B7879" d="M22,44c-7.8,0-14.2-6.4-14.2-14.2c0.1-7.8,2.5-15.5,7-21.9
			c2-2.9,4.3-5.6,7-7.9h0.4c2.7,2.3,5,5,7,7.9c4.5,6.4,6.9,14.1,7,21.9C36.2,37.6,29.8,44,22,44 M22,0.7c-2.5,2.2-4.8,4.8-6.6,7.6
			C11,14.6,8.6,22.1,8.5,29.8c0,7.4,6,13.5,13.5,13.5c7.4,0,13.5-6,13.5-13.5c-0.1-7.7-2.5-15.2-6.8-21.5C26.8,5.5,24.5,3,22,0.7"/>
	</g>
	<path id="Path_657" fill="#7B7879" d="M22,37.8L22,37.8l-9.3-4l-0.1-0.1l9.2-33.4h0.2l9.2,33.4l-0.1,0.1L22,37.8z M12.9,33.6l9,3.9
		l9-3.9L22,0.7L12.9,33.6z"/>
	<path id="Path_658" fill="#7B7879" d="M26,40.3l-4-2.5l-4,2.5l-0.2-0.1L12.5,24l0-0.1l9.4-11.9h0.2l9.4,11.9l0,0.1l-5.4,16.2
		L26,40.3z M21.9,37.6h0.1L26,40l5.3-16L22,12.3L12.7,24L18,40L21.9,37.6z"/>
	<path id="Path_659" fill="#7B7879" d="M21.9,12.2l-2.3-3.3l-3.3-2.5l0.1-0.2l3.3,2.5l2.4,3.3L21.9,12.2z"/>
	<path id="Path_660" fill="#7B7879" d="M22.1,12.2l-0.2-0.1l2.4-3.3l3.3-2.5l0.1,0.2l-3.3,2.5L22.1,12.2z"/>
	<path id="Path_661" fill="#7B7879" d="M24.3,8.9l7,3.4V24l0,0.1l4.3,5.9l-4.6,3.7l0,0.1V40h-5l-0.1,0l-4.1,3.5l0.1,0.2l4-3.5h5.1
		l0.1-0.1v-6.4l4.6-3.7l0-0.2L31.5,24V12.3l-0.1-0.1l-7.1-3.4L24.3,8.9z"/>
	<path id="Path_662" fill="#7B7879" d="M12.5,12.2l-0.1,0.1V24l-4.4,5.9l0,0.2l4.6,3.7v6.4l0.1,0.1h5.1l4,3.5l0.1-0.2L18,40.1
		l-0.1,0h-5v-6.3l0-0.1L8.3,30l4.3-5.9l0-0.1V12.4l7-3.4l-0.1-0.2L12.5,12.2z"/>
	<path id="Path_663" fill="#7B7879" d="M31.5,24.1l-0.2-0.2l3.3-3.1l0.2,0.2L31.5,24.1z"/>
	<path id="Path_664" fill="#7B7879" d="M34.5,35.6l-3.4-1.8l0.1-0.2l3.4,1.8L34.5,35.6z"/>
	<path id="Path_665" fill="#7B7879" d="M27.1,42.7L26,40.2l0.2-0.1l1.2,2.5L27.1,42.7z"/>
	<path id="Path_666" fill="#7B7879" d="M12.5,24.1L9.2,21l0.2-0.2l3.3,3.1L12.5,24.1z"/>
	<path id="Path_667" fill="#7B7879" d="M9.4,35.6l-0.1-0.2l3.4-1.8l0.1,0.2L9.4,35.6z"/>
	<path id="Path_668" fill="#7B7879" d="M16.9,42.7l-0.2-0.1l1.2-2.5l0.2,0.1L16.9,42.7z"/>
</g>
</svg>
